<?xml version="1.0" encoding="UTF-8" standalone="no"?>
<!DOCTYPE svg PUBLIC "-//W3C//DTD SVG 1.1//EN"
 "http://www.w3.org/Graphics/SVG/1.1/DTD/svg11.dtd">
<!-- Generated by graphviz version 2.26.3 (20100126.1600)
 -->
<!-- Title: G Pages: 1 -->
<svg width="90pt" height="260pt"
 viewBox="0.00 0.00 89.63 260.00" xmlns="http://www.w3.org/2000/svg" xmlns:xlink="http://www.w3.org/1999/xlink">
<g id="graph1" class="graph" transform="scale(1 1) rotate(0) translate(4 256)">
<title>G</title>
<polygon fill="white" stroke="white" points="-4,5 -4,-256 86.63,-256 86.63,5 -4,5"/>
<!-- A -->
<g id="node1" class="node"><title>A</title>
<ellipse fill="none" stroke="black" cx="40.8152" cy="-234" rx="27" ry="18"/>
<text text-anchor="middle" x="40.8152" y="-229.4" font-family="Times,serif" font-size="14.00">A</text>
</g>
<!-- C -->
<g id="node2" class="node"><title>C</title>
<ellipse fill="none" stroke="black" cx="40.8152" cy="-162" rx="27" ry="18"/>
<text text-anchor="middle" x="40.8152" y="-157.4" font-family="Times,serif" font-size="14.00">C</text>
</g>
<!-- A&#45;&gt;C -->
<g id="edge2" class="edge"><title>A&#45;&gt;C</title>
<path fill="none" stroke="black" d="M34.8995,-216.202C34.095,-208.181 33.8723,-198.523 34.2314,-189.596"/>
<polygon fill="black" stroke="black" points="37.7249,-189.81 34.9202,-179.593 30.7414,-189.329 37.7249,-189.81"/>
</g>
<!-- A&#45;&gt;C -->
<g id="edge4" class="edge"><title>A&#45;&gt;C</title>
<path fill="none" stroke="black" d="M46.7309,-216.202C47.5353,-208.181 47.758,-198.523 47.399,-189.596"/>
<polygon fill="black" stroke="black" points="50.889,-189.329 46.7102,-179.593 43.9055,-189.81 50.889,-189.329"/>
</g>
<!-- D -->
<g id="node5" class="node"><title>D</title>
<ellipse fill="none" stroke="black" cx="40.8152" cy="-90" rx="27" ry="18"/>
<text text-anchor="middle" x="40.8152" y="-85.4" font-family="Times,serif" font-size="14.00">D</text>
</g>
<!-- C&#45;&gt;D -->
<g id="edge6" class="edge"><title>C&#45;&gt;D</title>
<path fill="none" stroke="black" d="M15.7425,-155.096C-1.89836,-143.3 -4.4102,-119.053 8.20691,-103.711"/>
<polygon fill="black" stroke="black" points="10.5621,-106.3 15.6161,-96.9886 5.85834,-101.116 10.5621,-106.3"/>
</g>
<!-- C&#45;&gt;D -->
<g id="edge8" class="edge"><title>C&#45;&gt;D</title>
<path fill="none" stroke="black" d="M20.1499,-150.111C13.5281,-139.647 12.0977,-124.155 15.8588,-111.519"/>
<polygon fill="black" stroke="black" points="19.1585,-112.71 19.9881,-102.148 12.7528,-109.887 19.1585,-112.71"/>
</g>
<!-- C&#45;&gt;D -->
<g id="edge10" class="edge"><title>C&#45;&gt;D</title>
<path fill="none" stroke="black" d="M29.2935,-145.662C27.3802,-137.131 26.8547,-126.474 27.7171,-116.775"/>
<polygon fill="black" stroke="black" points="31.1956,-117.178 29.1976,-106.773 24.271,-116.153 31.1956,-117.178"/>
</g>
<!-- C&#45;&gt;D -->
<g id="edge12" class="edge"><title>C&#45;&gt;D</title>
<path fill="none" stroke="black" d="M40.8152,-143.831C40.8152,-136.131 40.8152,-126.974 40.8152,-118.417"/>
<polygon fill="black" stroke="black" points="44.3153,-118.413 40.8152,-108.413 37.3153,-118.413 44.3153,-118.413"/>
</g>
<!-- D&#45;&gt;C -->
<g id="edge14" class="edge"><title>D&#45;&gt;C</title>
<path fill="none" stroke="black" d="M52.4328,-106.773C54.2992,-115.375 54.7777,-126.051 53.8683,-135.716"/>
<polygon fill="black" stroke="black" points="50.3996,-135.246 52.3368,-145.662 57.318,-136.311 50.3996,-135.246"/>
</g>
<!-- D&#45;&gt;C -->
<g id="edge16" class="edge"><title>D&#45;&gt;C</title>
<path fill="none" stroke="black" d="M61.6423,-102.148C68.179,-112.693 69.5242,-128.203 65.678,-140.792"/>
<polygon fill="black" stroke="black" points="62.3962,-139.555 61.4805,-150.111 68.7786,-142.43 62.3962,-139.555"/>
</g>
<!-- D&#45;&gt;C -->
<g id="edge18" class="edge"><title>D&#45;&gt;C</title>
<path fill="none" stroke="black" d="M66.0143,-96.9886C83.5827,-108.845 86.0221,-133.099 73.3326,-148.399"/>
<polygon fill="black" stroke="black" points="70.9813,-145.806 65.8879,-155.096 75.6631,-151.01 70.9813,-145.806"/>
</g>
<!-- Z -->
<g id="node13" class="node"><title>Z</title>
<ellipse fill="none" stroke="black" cx="40.8152" cy="-18" rx="27" ry="18"/>
<text text-anchor="middle" x="40.8152" y="-13.4" font-family="Times,serif" font-size="14.00">Z</text>
</g>
<!-- D&#45;&gt;Z -->
<g id="edge22" class="edge"><title>D&#45;&gt;Z</title>
<path fill="none" stroke="black" d="M20.1499,-78.1107C13.5281,-67.6473 12.0977,-52.1546 15.8588,-39.5185"/>
<polygon fill="black" stroke="black" points="19.1585,-40.71 19.9881,-30.1477 12.7528,-37.8872 19.1585,-40.71"/>
</g>
<!-- D&#45;&gt;Z -->
<g id="edge24" class="edge"><title>D&#45;&gt;Z</title>
<path fill="none" stroke="black" d="M40.8152,-71.8314C40.8152,-64.131 40.8152,-54.9743 40.8152,-46.4166"/>
<polygon fill="black" stroke="black" points="44.3153,-46.4132 40.8152,-36.4133 37.3153,-46.4133 44.3153,-46.4132"/>
</g>
<!-- D&#45;&gt;Z -->
<g id="edge26" class="edge"><title>D&#45;&gt;Z</title>
<path fill="none" stroke="black" d="M52.3368,-73.6621C54.2502,-65.1306 54.7757,-54.474 53.9133,-44.7753"/>
<polygon fill="black" stroke="black" points="57.3593,-44.1526 52.4328,-34.7729 50.4348,-45.1776 57.3593,-44.1526"/>
</g>
<!-- D&#45;&gt;Z -->
<g id="edge28" class="edge"><title>D&#45;&gt;Z</title>
<path fill="none" stroke="black" d="M61.4805,-78.1107C68.1023,-67.6473 69.5327,-52.1546 65.7716,-39.5185"/>
<polygon fill="black" stroke="black" points="68.8776,-37.8872 61.6423,-30.1477 62.4719,-40.71 68.8776,-37.8872"/>
</g>
<!-- D&#45;&gt;Z -->
<g id="edge20" class="edge"><title>D&#45;&gt;Z</title>
<path fill="none" stroke="black" d="M29.2935,-73.6621C27.3802,-65.1306 26.8547,-54.474 27.7171,-44.7753"/>
<polygon fill="black" stroke="black" points="31.1956,-45.1776 29.1976,-34.7729 24.271,-44.1526 31.1956,-45.1776"/>
</g>
</g>
</svg>
