<?xml version="1.0" encoding="UTF-8" standalone="no"?>
<!DOCTYPE svg PUBLIC "-//W3C//DTD SVG 1.1//EN"
 "http://www.w3.org/Graphics/SVG/1.1/DTD/svg11.dtd">
<!-- Generated by graphviz version 2.26.3 (20100126.1600)
 -->
<!-- Title: G Pages: 1 -->
<svg width="474pt" height="476pt"
 viewBox="0.00 0.00 474.37 476.00" xmlns="http://www.w3.org/2000/svg" xmlns:xlink="http://www.w3.org/1999/xlink">
<g id="graph1" class="graph" transform="scale(1 1) rotate(0) translate(4 472)">
<title>G</title>
<polygon fill="white" stroke="white" points="-4,5 -4,-472 471.37,-472 471.37,5 -4,5"/>
<!-- A -->
<g id="node1" class="node"><title>A</title>
<ellipse fill="none" stroke="black" cx="371.111" cy="-450" rx="27" ry="18"/>
<text text-anchor="middle" x="371.111" y="-445.4" font-family="Times,serif" font-size="14.00">A</text>
</g>
<!-- B -->
<g id="node2" class="node"><title>B</title>
<ellipse fill="none" stroke="black" cx="91.1109" cy="-378" rx="27" ry="18"/>
<text text-anchor="middle" x="91.1109" y="-373.4" font-family="Times,serif" font-size="14.00">B</text>
</g>
<!-- A&#45;&gt;B -->
<g id="edge2" class="edge"><title>A&#45;&gt;B</title>
<path fill="none" stroke="#000000" d="M344.044,-449.017C279.138,-444.928 163.278,-427.969 73.1109,-396 64.6396,-392.997 55.5929,-388.467 55.5369,-384.703"/>
<polygon fill="#000000" stroke="#000000" points="57.2718,-387.743 64.2242,-379.749 53.8037,-381.663 57.2718,-387.743"/>
</g>
<!-- A&#45;&gt;B -->
<g id="edge22" class="edge"><title>A&#45;&gt;B</title>
<path fill="none" stroke="#11a7b9" d="M344.257,-447.629C296.632,-442.021 198.716,-426.332 113.474,-397.329"/>
<polygon fill="#11a7b9" stroke="#11a7b9" points="114.539,-393.993 103.945,-394.011 112.238,-400.604 114.539,-393.993"/>
</g>
<!-- A&#45;&gt;B -->
<g id="edge32" class="edge"><title>A&#45;&gt;B</title>
<path fill="none" stroke="#1a7b96" d="M344.519,-446.309C299.034,-439.516 203.783,-423.184 127.111,-396 125.234,-395.335 123.329,-394.594 121.425,-393.804"/>
<polygon fill="#1a7b96" stroke="#1a7b96" points="122.605,-390.496 112.052,-389.551 119.712,-396.87 122.605,-390.496"/>
</g>
<!-- A&#45;&gt;B -->
<g id="edge42" class="edge"><title>A&#45;&gt;B</title>
<path fill="none" stroke="#234f72" d="M345.175,-444.495C301.913,-436.833 215.65,-421.01 145.111,-396 139.093,-393.866 132.785,-390.963 126.341,-388.11"/>
<polygon fill="#234f72" stroke="#234f72" points="127.395,-384.755 116.823,-384.064 124.656,-391.197 127.395,-384.755"/>
</g>
<!-- A&#45;&gt;B -->
<g id="edge52" class="edge"><title>A&#45;&gt;B</title>
<path fill="none" stroke="#2c234f" d="M346.362,-442.231C304.538,-433.915 227.311,-418.762 163.111,-396 153.224,-392.495 142.554,-386.911 128.159,-382.892"/>
<polygon fill="#2c234f" stroke="#2c234f" points="128.671,-379.416 118.133,-380.514 127.055,-386.227 128.671,-379.416"/>
</g>
<!-- A&#45;&gt;B -->
<g id="edge62" class="edge"><title>A&#45;&gt;B</title>
<path fill="none" stroke="#34f72c" d="M348.802,-439.752C308.384,-431.052 239.382,-416.66 181.111,-396 168.916,-391.676 155.528,-384.19 128.618,-380.378"/>
<polygon fill="#34f72c" stroke="#34f72c" points="128.855,-376.882 118.516,-379.195 128.04,-383.835 128.855,-376.882"/>
</g>
<!-- A&#45;&gt;B -->
<g id="edge12" class="edge"><title>A&#45;&gt;B</title>
<path fill="none" stroke="#8d3d0c" d="M344.093,-448.487C290.262,-443.775 185.712,-427.939 100.243,-399.151"/>
<polygon fill="#8d3d0c" stroke="#8d3d0c" points="101.31,-395.817 90.7154,-395.859 99.0239,-402.433 101.31,-395.817"/>
</g>
<!-- F -->
<g id="node28" class="node"><title>F</title>
<ellipse fill="none" stroke="black" cx="326.111" cy="-306" rx="27" ry="18"/>
<text text-anchor="middle" x="326.111" y="-301.4" font-family="Times,serif" font-size="14.00">F</text>
</g>
<!-- A&#45;&gt;F -->
<g id="edge208" class="edge"><title>A&#45;&gt;F</title>
<path fill="none" stroke="#b08d3d" d="M344.119,-448.432C226.072,-434.347 189.478,-329.668 289.025,-309.394"/>
<polygon fill="#b08d3d" stroke="#b08d3d" points="289.805,-312.813 299.085,-307.702 288.643,-305.91 289.805,-312.813"/>
</g>
<!-- A&#45;&gt;F -->
<g id="edge220" class="edge"><title>A&#45;&gt;F</title>
<path fill="none" stroke="#b9611a" d="M379.436,-432.63C379.442,-406.711 364.702,-357.877 348.618,-329.015"/>
<polygon fill="#b9611a" stroke="#b9611a" points="351.56,-327.116 343.365,-320.4 345.583,-330.76 351.56,-327.116"/>
</g>
<!-- A&#45;&gt;F -->
<g id="edge228" class="edge"><title>A&#45;&gt;F</title>
<path fill="none" stroke="#c234f7" stroke-width="4" d="M387.849,-435.666C395.593,-409.266 378.7,-353.014 355.027,-324.055"/>
<polygon fill="#c234f7" stroke="#c234f7" points="357.545,-321.623 348.185,-316.658 352.406,-326.376 357.545,-321.623"/>
</g>
<!-- A&#45;&gt;F -->
<g id="edge236" class="edge"><title>A&#45;&gt;F</title>
<path fill="none" stroke="#cb08d3" d="M393.795,-439.644C413.193,-414.091 393.571,-348.048 359.297,-319.488"/>
<polygon fill="#cb08d3" stroke="#cb08d3" points="360.95,-316.367 350.784,-313.383 356.87,-322.055 360.95,-316.367"/>
</g>
<!-- A&#45;&gt;F -->
<g id="edge244" class="edge"><title>A&#45;&gt;F</title>
<path fill="none" stroke="#d3dcb0" d="M396.347,-443.438C431.992,-420.389 409.522,-343.047 361.525,-315.689"/>
<polygon fill="#d3dcb0" stroke="#d3dcb0" points="362.797,-312.416 352.274,-311.187 359.734,-318.71 362.797,-312.416"/>
</g>
<!-- A&#45;&gt;F -->
<g id="edge254" class="edge"><title>A&#45;&gt;F</title>
<path fill="none" stroke="#dcb08d" d="M397.326,-445.69C450.946,-425.262 425.881,-338.123 362.321,-312.879"/>
<polygon fill="#dcb08d" stroke="#dcb08d" points="363.262,-309.503 352.668,-309.619 361.022,-316.135 363.262,-309.503"/>
</g>
<!-- A&#45;&gt;F -->
<g id="edge260" class="edge"><title>A&#45;&gt;F</title>
<path fill="none" stroke="#e58469" d="M397.743,-446.992C469.704,-428.868 442.648,-334.202 362.858,-311.092"/>
<polygon fill="#e58469" stroke="#e58469" points="363.415,-307.625 352.869,-308.639 361.745,-314.423 363.415,-307.625"/>
</g>
<!-- A&#45;&gt;F -->
<g id="edge268" class="edge"><title>A&#45;&gt;F</title>
<path fill="none" stroke="#ee5846" d="M397.913,-447.796C488.418,-431.581 459.622,-330.808 362.881,-309.825"/>
<polygon fill="#ee5846" stroke="#ee5846" points="363.462,-306.373 352.993,-308 362.192,-313.257 363.462,-306.373"/>
</g>
<!-- A&#45;&gt;F -->
<g id="edge276" class="edge"><title>A&#45;&gt;F</title>
<path fill="none" stroke="#f72c23" d="M398.251,-448.282C506.756,-433.544 476.826,-328.457 363.477,-309.071"/>
<polygon fill="#f72c23" stroke="#f72c23" points="363.754,-305.574 353.355,-307.598 362.747,-312.501 363.754,-305.574"/>
</g>
<!-- A&#45;&gt;F -->
<g id="edge112" class="edge"><title>A&#45;&gt;F</title>
<path fill="none" stroke="#611a7b" d="M344,-447.964C243.51,-432.445 208.484,-332.825 289.344,-310.455"/>
<polygon fill="#611a7b" stroke="#611a7b" points="290.231,-313.842 299.212,-308.222 288.686,-307.015 290.231,-313.842"/>
</g>
<!-- A&#45;&gt;F -->
<g id="edge124" class="edge"><title>A&#45;&gt;F</title>
<path fill="none" stroke="#69ee58" d="M344.128,-447.315C260.992,-430.288 227.816,-337.241 289.61,-312.205"/>
<polygon fill="#69ee58" stroke="#69ee58" points="290.99,-315.437 299.421,-309.022 288.829,-308.779 290.99,-315.437"/>
</g>
<!-- A&#45;&gt;F -->
<g id="edge136" class="edge"><title>A&#45;&gt;F</title>
<path fill="none" stroke="#72c234" d="M344.507,-446.368C278.182,-427.746 247.405,-342.763 290.761,-314.886"/>
<polygon fill="#72c234" stroke="#72c234" points="292.368,-317.996 299.727,-310.374 289.221,-311.743 292.368,-317.996"/>
</g>
<!-- A&#45;&gt;F -->
<g id="edge148" class="edge"><title>A&#45;&gt;F</title>
<path fill="none" stroke="#7b9611" d="M345.1,-444.875C295.083,-424.691 267.553,-350.291 293.077,-319.489"/>
<polygon fill="#7b9611" stroke="#7b9611" points="295.6,-321.929 300.728,-312.657 290.938,-316.707 295.6,-321.929"/>
</g>
<!-- A&#45;&gt;F -->
<g id="edge160" class="edge"><title>A&#45;&gt;F</title>
<path fill="none" stroke="#8469ee" d="M346.18,-442.461C310.488,-420.644 287.056,-356.97 298.845,-324.908"/>
<polygon fill="#8469ee" stroke="#8469ee" points="301.957,-326.511 303.659,-316.054 295.807,-323.167 301.957,-326.511"/>
</g>
<!-- A&#45;&gt;F -->
<g id="edge172" class="edge"><title>A&#45;&gt;F</title>
<path fill="none" stroke="#8d3dcb" d="M348.862,-439.177C324.666,-416.241 305.379,-362.254 307.654,-330.507"/>
<polygon fill="#8d3dcb" stroke="#8d3dcb" points="311.165,-330.737 309.385,-320.292 304.263,-329.567 311.165,-330.737"/>
</g>
<!-- A&#45;&gt;F -->
<g id="edge180" class="edge"><title>A&#45;&gt;F</title>
<path fill="none" stroke="#9611a7" d="M354.08,-435.93C337.954,-412.254 321.661,-364.043 318.381,-333.47"/>
<polygon fill="#9611a7" stroke="#9611a7" points="321.874,-333.235 317.786,-323.461 314.886,-333.651 321.874,-333.235"/>
</g>
<!-- A&#45;&gt;F -->
<g id="edge188" class="edge"><title>A&#45;&gt;F</title>
<path fill="none" stroke="#9ee584" d="M361.336,-433.2C351.134,-408.884 336.656,-363.575 329.415,-334.115"/>
<polygon fill="#9ee584" stroke="#9ee584" points="332.752,-333.006 327.096,-324.046 325.93,-334.577 332.752,-333.006"/>
</g>
<!-- A&#45;&gt;F -->
<g id="edge198" class="edge"><title>A&#45;&gt;F</title>
<path fill="none" stroke="#a7b961" d="M370.085,-431.762C364.766,-406.714 350.871,-361.496 339.821,-332.653"/>
<polygon fill="#a7b961" stroke="#a7b961" points="343.004,-331.186 336.05,-323.193 336.502,-333.778 343.004,-331.186"/>
</g>
<!-- C -->
<g id="node43" class="node"><title>C</title>
<ellipse fill="none" stroke="black" cx="163.111" cy="-378" rx="27" ry="18"/>
<text text-anchor="middle" x="163.111" y="-373.4" font-family="Times,serif" font-size="14.00">C</text>
</g>
<!-- A&#45;&gt;C -->
<g id="edge70" class="edge"><title>A&#45;&gt;C</title>
<path fill="none" stroke="#3dcb08" d="M344.38,-446.426C305.763,-438.755 241.203,-419.749 183.21,-398.246"/>
<polygon fill="#3dcb08" stroke="#3dcb08" points="184.184,-394.873 173.591,-394.633 181.722,-401.426 184.184,-394.873"/>
</g>
<!-- A&#45;&gt;C -->
<g id="edge84" class="edge"><title>A&#45;&gt;C</title>
<path fill="none" stroke="#469ee5" stroke-width="4" d="M345.406,-444.24C310.519,-434.997 247.377,-415.865 195.111,-396 194.057,-395.6 192.991,-395.187 191.92,-394.764"/>
<polygon fill="#469ee5" stroke="#469ee5" points="192.87,-391.369 182.292,-390.772 190.189,-397.835 192.87,-391.369"/>
</g>
<!-- A&#45;&gt;C -->
<g id="edge94" class="edge"><title>A&#45;&gt;C</title>
<path fill="none" stroke="#4f72c2" d="M347.497,-441.243C316.236,-431.237 260.251,-413.917 213.111,-396 208.024,-394.067 202.654,-391.845 197.351,-389.637"/>
<polygon fill="#4f72c2" stroke="#4f72c2" points="198.534,-386.338 187.956,-385.742 195.853,-392.805 198.534,-386.338"/>
</g>
<!-- A&#45;&gt;C -->
<g id="edge104" class="edge"><title>A&#45;&gt;C</title>
<path fill="none" stroke="#58469e" d="M351.02,-437.727C322.163,-427.462 273.124,-411.968 231.111,-396 221.687,-392.418 211.289,-387.846 199.812,-384.206"/>
<polygon fill="#58469e" stroke="#58469e" points="200.491,-380.761 189.916,-381.41 198.588,-387.497 200.491,-380.761"/>
</g>
<!-- E -->
<g id="node4" class="node"><title>E</title>
<ellipse fill="none" stroke="black" cx="91.1109" cy="-306" rx="27" ry="18"/>
<text text-anchor="middle" x="91.1109" y="-301.4" font-family="Times,serif" font-size="14.00">E</text>
</g>
<!-- B&#45;&gt;E -->
<g id="edge4" class="edge"><title>B&#45;&gt;E</title>
<path fill="none" stroke="#000000" d="M64.1777,-374.813C22.5683,-363.824 19.3572,-327.37 54.5444,-312.45"/>
<polygon fill="#000000" stroke="#000000" points="55.9631,-315.665 64.3176,-309.15 53.7234,-309.033 55.9631,-315.665"/>
</g>
<!-- B&#45;&gt;E -->
<g id="edge24" class="edge"><title>B&#45;&gt;E</title>
<path fill="none" stroke="#11a7b9" d="M67.745,-368.881C56.4293,-357.582 54.3617,-338.076 61.5425,-323.777"/>
<polygon fill="#11a7b9" stroke="#11a7b9" points="64.6481,-325.45 67.5925,-315.272 58.944,-321.392 64.6481,-325.45"/>
</g>
<!-- B&#45;&gt;E -->
<g id="edge34" class="edge"><title>B&#45;&gt;E</title>
<path fill="none" stroke="#1a7b96" d="M74.465,-363.43C70.8213,-353.963 69.9404,-341.389 71.8224,-330.42"/>
<polygon fill="#1a7b96" stroke="#1a7b96" points="75.2598,-331.114 74.4733,-320.549 68.4993,-329.299 75.2598,-331.114"/>
</g>
<!-- B&#45;&gt;E -->
<g id="edge76" class="edge"><title>B&#45;&gt;E</title>
<path fill="none" stroke="#3dcb08" d="M85.1952,-360.202C84.3907,-352.181 84.1681,-342.523 84.5271,-333.596"/>
<polygon fill="#3dcb08" stroke="#3dcb08" points="88.0206,-333.81 85.2159,-323.593 81.0371,-333.329 88.0206,-333.81"/>
</g>
<!-- B&#45;&gt;E -->
<g id="edge116" class="edge"><title>B&#45;&gt;E</title>
<path fill="none" stroke="#611a7b" d="M97.0266,-360.202C97.8311,-352.181 98.0538,-342.523 97.6947,-333.596"/>
<polygon fill="#611a7b" stroke="#611a7b" points="101.185,-333.329 97.0059,-323.593 94.2012,-333.81 101.185,-333.329"/>
</g>
<!-- B&#45;&gt;E -->
<g id="edge14" class="edge"><title>B&#45;&gt;E</title>
<path fill="none" stroke="#8d3d0c" d="M65.1903,-372.822C40.1762,-361.151 37.1636,-332.586 56.1525,-316.846"/>
<polygon fill="#8d3d0c" stroke="#8d3d0c" points="58.2986,-319.63 64.8776,-311.325 54.5557,-313.715 58.2986,-319.63"/>
</g>
<!-- B&#45;&gt;E -->
<g id="edge128" class="edge"><title>B&#45;&gt;E</title>
<path fill="none" stroke="#69ee58" d="M107.757,-363.43C111.401,-353.963 112.281,-341.389 110.399,-330.42"/>
<polygon fill="#69ee58" stroke="#69ee58" points="113.722,-329.299 107.748,-320.549 106.962,-331.114 113.722,-329.299"/>
</g>
<!-- B&#45;&gt;E -->
<g id="edge140" class="edge"><title>B&#45;&gt;E</title>
<path fill="none" stroke="#72c234" d="M114.477,-368.881C125.793,-357.582 127.86,-338.076 120.679,-323.777"/>
<polygon fill="#72c234" stroke="#72c234" points="123.278,-321.392 114.629,-315.272 117.574,-325.45 123.278,-321.392"/>
</g>
<!-- B&#45;&gt;E -->
<g id="edge152" class="edge"><title>B&#45;&gt;E</title>
<path fill="none" stroke="#7b9611" d="M117.031,-372.822C142.046,-361.151 145.058,-332.586 126.069,-316.846"/>
<polygon fill="#7b9611" stroke="#7b9611" points="127.666,-313.715 117.344,-311.325 123.923,-319.63 127.666,-313.715"/>
</g>
<!-- B&#45;&gt;E -->
<g id="edge164" class="edge"><title>B&#45;&gt;E</title>
<path fill="none" stroke="#8469ee" d="M118.044,-374.813C159.654,-363.824 162.865,-327.37 127.677,-312.45"/>
<polygon fill="#8469ee" stroke="#8469ee" points="128.498,-309.033 117.904,-309.15 126.259,-315.665 128.498,-309.033"/>
</g>
<!-- B&#45;&gt;F -->
<g id="edge44" class="edge"><title>B&#45;&gt;F</title>
<path fill="none" stroke="#234f72" d="M63.9578,-377.232C25.0011,-374.537 40.9754,-365.39 55.1109,-360 127.002,-332.586 218.448,-313.14 288.549,-307.607"/>
<polygon fill="#234f72" stroke="#234f72" points="289.001,-311.084 298.732,-306.892 288.511,-304.101 289.001,-311.084"/>
</g>
<!-- B&#45;&gt;F -->
<g id="edge54" class="edge"><title>B&#45;&gt;F</title>
<path fill="none" stroke="#2c234f" d="M63.9661,-376.248C46.1557,-372.758 60.3792,-364.855 73.1109,-360 142.199,-333.654 229.348,-314.669 288.801,-308.317"/>
<polygon fill="#2c234f" stroke="#2c234f" points="289.218,-311.793 298.832,-307.343 288.541,-304.826 289.218,-311.793"/>
</g>
<!-- B&#45;&gt;F -->
<g id="edge64" class="edge"><title>B&#45;&gt;F</title>
<path fill="none" stroke="#34f72c" d="M90.7187,-360.15C90.8496,-360.1 90.9803,-360.05 91.1109,-360 156.513,-335.06 238.099,-316.716 289.034,-309.441"/>
<polygon fill="#34f72c" stroke="#34f72c" points="289.66,-312.888 299.109,-308.096 288.734,-305.95 289.66,-312.888"/>
</g>
<!-- H -->
<g id="node6" class="node"><title>H</title>
<ellipse fill="none" stroke="black" cx="91.1109" cy="-234" rx="27" ry="18"/>
<text text-anchor="middle" x="91.1109" y="-229.4" font-family="Times,serif" font-size="14.00">H</text>
</g>
<!-- E&#45;&gt;H -->
<g id="edge26" class="edge"><title>E&#45;&gt;H</title>
<path fill="none" stroke="#11a7b9" d="M64.1777,-302.813C22.5683,-291.824 19.3572,-255.37 54.5444,-240.45"/>
<polygon fill="#11a7b9" stroke="#11a7b9" points="55.9631,-243.665 64.3176,-237.15 53.7234,-237.033 55.9631,-243.665"/>
</g>
<!-- E&#45;&gt;H -->
<g id="edge36" class="edge"><title>E&#45;&gt;H</title>
<path fill="none" stroke="#1a7b96" d="M74.465,-291.43C70.8213,-281.963 69.9404,-269.389 71.8224,-258.42"/>
<polygon fill="#1a7b96" stroke="#1a7b96" points="75.2598,-259.114 74.4733,-248.549 68.4993,-257.299 75.2598,-259.114"/>
</g>
<!-- E&#45;&gt;H -->
<g id="edge6" class="edge"><title>E&#45;&gt;H</title>
<path fill="none" stroke="#000000" d="M65.1903,-300.822C40.1762,-289.151 37.1636,-260.586 56.1525,-244.846"/>
<polygon fill="#000000" stroke="#000000" points="58.2986,-247.63 64.8776,-239.325 54.5557,-241.715 58.2986,-247.63"/>
</g>
<!-- E&#45;&gt;H -->
<g id="edge78" class="edge"><title>E&#45;&gt;H</title>
<path fill="none" stroke="#3dcb08" d="M85.1952,-288.202C84.3907,-280.181 84.1681,-270.523 84.5271,-261.596"/>
<polygon fill="#3dcb08" stroke="#3dcb08" points="88.0206,-261.81 85.2159,-251.593 81.0371,-261.329 88.0206,-261.81"/>
</g>
<!-- E&#45;&gt;H -->
<g id="edge118" class="edge"><title>E&#45;&gt;H</title>
<path fill="none" stroke="#611a7b" d="M97.0266,-288.202C97.8311,-280.181 98.0538,-270.523 97.6947,-261.596"/>
<polygon fill="#611a7b" stroke="#611a7b" points="101.185,-261.329 97.0059,-251.593 94.2012,-261.81 101.185,-261.329"/>
</g>
<!-- E&#45;&gt;H -->
<g id="edge130" class="edge"><title>E&#45;&gt;H</title>
<path fill="none" stroke="#69ee58" d="M107.757,-291.43C111.401,-281.963 112.281,-269.389 110.399,-258.42"/>
<polygon fill="#69ee58" stroke="#69ee58" points="113.722,-257.299 107.748,-248.549 106.962,-259.114 113.722,-257.299"/>
</g>
<!-- E&#45;&gt;H -->
<g id="edge16" class="edge"><title>E&#45;&gt;H</title>
<path fill="none" stroke="#8d3d0c" d="M67.745,-296.881C56.4293,-285.582 54.3617,-266.076 61.5425,-251.777"/>
<polygon fill="#8d3d0c" stroke="#8d3d0c" points="64.6481,-253.45 67.5925,-243.272 58.944,-249.392 64.6481,-253.45"/>
</g>
<!-- E&#45;&gt;H -->
<g id="edge142" class="edge"><title>E&#45;&gt;H</title>
<path fill="none" stroke="#72c234" d="M114.477,-296.881C125.793,-285.582 127.86,-266.076 120.679,-251.777"/>
<polygon fill="#72c234" stroke="#72c234" points="123.278,-249.392 114.629,-243.272 117.574,-253.45 123.278,-249.392"/>
</g>
<!-- E&#45;&gt;H -->
<g id="edge154" class="edge"><title>E&#45;&gt;H</title>
<path fill="none" stroke="#7b9611" d="M117.031,-300.822C142.046,-289.151 145.058,-260.586 126.069,-244.846"/>
<polygon fill="#7b9611" stroke="#7b9611" points="127.666,-241.715 117.344,-239.325 123.923,-247.63 127.666,-241.715"/>
</g>
<!-- E&#45;&gt;H -->
<g id="edge166" class="edge"><title>E&#45;&gt;H</title>
<path fill="none" stroke="#8469ee" d="M118.044,-302.813C159.654,-291.824 162.865,-255.37 127.677,-240.45"/>
<polygon fill="#8469ee" stroke="#8469ee" points="128.498,-237.033 117.904,-237.15 126.259,-243.665 128.498,-237.033"/>
</g>
<!-- I -->
<g id="node8" class="node"><title>I</title>
<ellipse fill="none" stroke="black" cx="272.111" cy="-162" rx="27" ry="18"/>
<text text-anchor="middle" x="272.111" y="-157.4" font-family="Times,serif" font-size="14.00">I</text>
</g>
<!-- H&#45;&gt;I -->
<g id="edge28" class="edge"><title>H&#45;&gt;I</title>
<path fill="none" stroke="#11a7b9" d="M64.0441,-233.667C-3.86658,-231.79 13.4037,-222.394 28.1109,-216 83.0918,-192.099 152.411,-168.83 234.877,-163.257"/>
<polygon fill="#11a7b9" stroke="#11a7b9" points="235.22,-166.743 244.999,-162.666 234.812,-159.755 235.22,-166.743"/>
</g>
<!-- H&#45;&gt;I -->
<g id="edge38" class="edge"><title>H&#45;&gt;I</title>
<path fill="none" stroke="#1a7b96" d="M64.4764,-230.467C59.7826,-226.671 71.6012,-220.569 82.1109,-216 130.437,-194.992 189.84,-174.472 235.216,-166.028"/>
<polygon fill="#1a7b96" stroke="#1a7b96" points="235.986,-169.448 245.26,-164.324 234.815,-162.546 235.986,-169.448"/>
</g>
<!-- H&#45;&gt;I -->
<g id="edge8" class="edge"><title>H&#45;&gt;I</title>
<path fill="none" stroke="#000000" d="M63.9175,-233.459C15.2595,-231.179 31.8843,-222.185 46.1109,-216 99.5295,-192.778 166.483,-170.153 234.941,-163.774"/>
<polygon fill="#000000" stroke="#000000" points="235.367,-167.251 245.051,-162.953 234.8,-160.274 235.367,-167.251"/>
</g>
<!-- H&#45;&gt;I -->
<g id="edge80" class="edge"><title>H&#45;&gt;I</title>
<path fill="none" stroke="#3dcb08" d="M98.5651,-216.679C99.0824,-216.449 99.5982,-216.223 100.111,-216 144.472,-196.715 198.168,-177.843 235.514,-168.344"/>
<polygon fill="#3dcb08" stroke="#3dcb08" points="236.688,-171.661 245.593,-165.921 235.052,-164.855 236.688,-171.661"/>
</g>
<!-- H&#45;&gt;I -->
<g id="edge120" class="edge"><title>H&#45;&gt;I</title>
<path fill="none" stroke="#611a7b" d="M108.756,-220.309C111.847,-218.806 115.035,-217.337 118.111,-216 157.902,-198.702 205.203,-181.736 236.959,-171.568"/>
<polygon fill="#611a7b" stroke="#611a7b" points="238.199,-174.847 246.693,-168.514 236.104,-168.168 238.199,-174.847"/>
</g>
<!-- H&#45;&gt;I -->
<g id="edge132" class="edge"><title>H&#45;&gt;I</title>
<path fill="none" stroke="#69ee58" d="M115.462,-225.563C122.255,-222.411 129.446,-218.897 136.111,-216 171.107,-200.787 211.912,-185.83 239.766,-175.529"/>
<polygon fill="#69ee58" stroke="#69ee58" points="241.248,-178.712 249.407,-171.953 238.814,-172.149 241.248,-178.712"/>
</g>
<!-- H&#45;&gt;I -->
<g id="edge144" class="edge"><title>H&#45;&gt;I</title>
<path fill="none" stroke="#72c234" d="M117.807,-230.397C131.927,-226.597 143.665,-220.541 154.111,-216 184.885,-202.622 220.151,-189.442 245.061,-179.452"/>
<polygon fill="#72c234" stroke="#72c234" points="246.458,-182.663 254.399,-175.65 243.817,-176.18 246.458,-182.663"/>
</g>
<!-- H&#45;&gt;I -->
<g id="edge156" class="edge"><title>H&#45;&gt;I</title>
<path fill="none" stroke="#7b9611" d="M118.043,-232.496C144.826,-229.267 159.422,-221.516 172.111,-216 199.472,-204.106 230.384,-192.368 252.942,-182.89"/>
<polygon fill="#7b9611" stroke="#7b9611" points="254.564,-186.002 262.369,-178.837 251.799,-179.571 254.564,-186.002"/>
</g>
<!-- H&#45;&gt;I -->
<g id="edge18" class="edge"><title>H&#45;&gt;I</title>
<path fill="none" stroke="#8d3d0c" d="M63.8191,-232.95C35.3467,-230.056 50.7815,-221.795 64.1109,-216 115.355,-193.723 179.056,-171.996 234.934,-164.633"/>
<polygon fill="#8d3d0c" stroke="#8d3d0c" points="235.385,-168.104 244.91,-163.465 234.571,-161.152 235.385,-168.104"/>
</g>
<!-- H&#45;&gt;I -->
<g id="edge168" class="edge"><title>H&#45;&gt;I</title>
<path fill="none" stroke="#8469ee" d="M118.206,-233.224C160.305,-230.615 176.333,-221.99 190.111,-216 216.27,-204.628 245.674,-193.4 266.636,-184.152"/>
<polygon fill="#8469ee" stroke="#8469ee" points="268.272,-187.253 275.914,-179.915 265.363,-180.886 268.272,-187.253"/>
</g>
<!-- G -->
<g id="node31" class="node"><title>G</title>
<ellipse fill="none" stroke="black" cx="91.1109" cy="-90" rx="27" ry="18"/>
<text text-anchor="middle" x="91.1109" y="-85.4" font-family="Times,serif" font-size="14.00">G</text>
</g>
<!-- H&#45;&gt;G -->
<g id="edge216" class="edge"><title>H&#45;&gt;G</title>
<path fill="none" stroke="#b08d3d" d="M86.4671,-216.053C83.9837,-191.585 83.6964,-147.49 85.6052,-118.48"/>
<polygon fill="#b08d3d" stroke="#b08d3d" points="89.1212,-118.424 86.4442,-108.173 82.1443,-117.856 89.1212,-118.424"/>
</g>
<!-- H&#45;&gt;G -->
<g id="edge250" class="edge"><title>H&#45;&gt;G</title>
<path fill="none" stroke="#d3dcb0" d="M95.7547,-216.053C98.2381,-191.585 98.5254,-147.49 96.6166,-118.48"/>
<polygon fill="#d3dcb0" stroke="#d3dcb0" points="100.077,-117.856 95.7776,-108.173 93.1006,-118.424 100.077,-117.856"/>
</g>
<!-- I&#45;&gt;H -->
<g id="edge214" class="edge"><title>I&#45;&gt;H</title>
<path fill="none" stroke="#b08d3d" d="M299.238,-163.94C327.351,-170.536 261.077,-192.975 208.111,-216 194.595,-221.876 178.915,-230.287 128.516,-233.068"/>
<polygon fill="#b08d3d" stroke="#b08d3d" points="128.16,-229.581 118.331,-233.534 128.48,-236.573 128.16,-229.581"/>
</g>
<!-- I&#45;&gt;H -->
<g id="edge248" class="edge"><title>I&#45;&gt;H</title>
<path fill="none" stroke="#d3dcb0" d="M299.08,-162.986C352.79,-168.034 282.033,-191.689 226.111,-216 212.032,-222.12 195.604,-230.993 128.656,-233.386"/>
<polygon fill="#d3dcb0" stroke="#d3dcb0" points="128.298,-229.895 118.407,-233.691 128.506,-236.892 128.298,-229.895"/>
</g>
<!-- Z -->
<g id="node10" class="node"><title>Z</title>
<ellipse fill="none" stroke="black" cx="272.111" cy="-18" rx="27" ry="18"/>
<text text-anchor="middle" x="272.111" y="-13.4" font-family="Times,serif" font-size="14.00">Z</text>
</g>
<!-- I&#45;&gt;Z -->
<g id="edge226" class="edge"><title>I&#45;&gt;Z</title>
<path fill="none" stroke="#b9611a" d="M245.199,-159.561C158.638,-142.905 155.222,-45.8882 234.95,-22.8885"/>
<polygon fill="#b9611a" stroke="#b9611a" points="236.175,-26.1941 245.085,-20.461 234.544,-19.3866 236.175,-26.1941"/>
</g>
<!-- I&#45;&gt;Z -->
<g id="edge258" class="edge"><title>I&#45;&gt;Z</title>
<path fill="none" stroke="#dcb08d" d="M298.864,-158.652C367.824,-140.098 371.036,-49.8019 308.5,-24.5644"/>
<polygon fill="#dcb08d" stroke="#dcb08d" points="309.39,-21.1718 298.796,-21.3292 307.176,-27.8124 309.39,-21.1718"/>
</g>
<!-- I&#45;&gt;Z -->
<g id="edge280" class="edge"><title>I&#45;&gt;Z</title>
<path fill="none" stroke="#f72c23" d="M299.023,-159.561C385.583,-142.905 389,-45.8882 309.272,-22.8885"/>
<polygon fill="#f72c23" stroke="#f72c23" points="309.677,-19.3866 299.137,-20.461 308.047,-26.1941 309.677,-19.3866"/>
</g>
<!-- I&#45;&gt;Z -->
<g id="edge30" class="edge"><title>I&#45;&gt;Z</title>
<path fill="none" stroke="#11a7b9" d="M246.924,-154.859C211.296,-132.11 208.709,-61.0899 239.163,-31.33"/>
<polygon fill="#11a7b9" stroke="#11a7b9" points="241.465,-33.9712 247.124,-25.0143 237.115,-28.4872 241.465,-33.9712"/>
</g>
<!-- I&#45;&gt;Z -->
<g id="edge40" class="edge"><title>I&#45;&gt;Z</title>
<path fill="none" stroke="#1a7b96" d="M249.893,-151.644C227.788,-127.579 225.728,-67.6011 243.713,-36.8427"/>
<polygon fill="#1a7b96" stroke="#1a7b96" points="246.611,-38.8079 249.625,-28.6508 240.935,-34.7115 246.611,-38.8079"/>
</g>
<!-- I&#45;&gt;Z -->
<g id="edge68" class="edge"><title>I&#45;&gt;Z</title>
<path fill="none" stroke="#34f72c" d="M255.266,-147.93C243.141,-123.261 241.874,-71.9539 251.465,-41.7174"/>
<polygon fill="#34f72c" stroke="#34f72c" points="254.75,-42.9278 255.134,-32.3399 248.231,-40.3772 254.75,-42.9278"/>
</g>
<!-- I&#45;&gt;Z -->
<g id="edge10" class="edge"><title>I&#45;&gt;Z</title>
<path fill="none" stroke="#000000" d="M245.358,-158.652C176.397,-140.098 173.186,-49.8019 235.722,-24.5644"/>
<polygon fill="#000000" stroke="#000000" points="237.046,-27.8124 245.426,-21.3292 234.832,-21.1718 237.046,-27.8124"/>
</g>
<!-- I&#45;&gt;Z -->
<g id="edge82" class="edge"><title>I&#45;&gt;Z</title>
<path fill="none" stroke="#3dcb08" d="M263.002,-144.916C257.786,-120.233 257.217,-74.3507 261.294,-45.0406"/>
<polygon fill="#3dcb08" stroke="#3dcb08" points="264.765,-45.5099 263.007,-35.0619 257.866,-44.3259 264.765,-45.5099"/>
</g>
<!-- I&#45;&gt;Z -->
<g id="edge110" class="edge"><title>I&#45;&gt;Z</title>
<path fill="none" stroke="#58469e" d="M272.111,-143.762C272.111,-119.201 272.111,-75.2474 272.111,-46.3541"/>
<polygon fill="#58469e" stroke="#58469e" points="275.611,-46.0896 272.111,-36.0896 268.611,-46.0897 275.611,-46.0896"/>
</g>
<!-- I&#45;&gt;Z -->
<g id="edge122" class="edge"><title>I&#45;&gt;Z</title>
<path fill="none" stroke="#611a7b" d="M281.22,-144.916C286.436,-120.233 287.005,-74.3507 282.928,-45.0406"/>
<polygon fill="#611a7b" stroke="#611a7b" points="286.356,-44.3259 281.215,-35.0619 279.457,-45.5099 286.356,-44.3259"/>
</g>
<!-- I&#45;&gt;Z -->
<g id="edge134" class="edge"><title>I&#45;&gt;Z</title>
<path fill="none" stroke="#69ee58" d="M288.956,-147.93C301.081,-123.261 302.348,-71.9539 292.757,-41.7174"/>
<polygon fill="#69ee58" stroke="#69ee58" points="295.991,-40.3772 289.088,-32.3399 289.472,-42.9278 295.991,-40.3772"/>
</g>
<!-- I&#45;&gt;Z -->
<g id="edge146" class="edge"><title>I&#45;&gt;Z</title>
<path fill="none" stroke="#72c234" d="M294.329,-151.644C316.433,-127.579 318.493,-67.6011 300.509,-36.8427"/>
<polygon fill="#72c234" stroke="#72c234" points="303.287,-34.7115 294.597,-28.6508 297.611,-38.8079 303.287,-34.7115"/>
</g>
<!-- I&#45;&gt;Z -->
<g id="edge158" class="edge"><title>I&#45;&gt;Z</title>
<path fill="none" stroke="#7b9611" d="M297.297,-154.859C332.926,-132.11 335.513,-61.0899 305.059,-31.33"/>
<polygon fill="#7b9611" stroke="#7b9611" points="307.107,-28.4872 297.098,-25.0143 302.757,-33.9712 307.107,-28.4872"/>
</g>
<!-- I&#45;&gt;Z -->
<g id="edge170" class="edge"><title>I&#45;&gt;Z</title>
<path fill="none" stroke="#8469ee" d="M298.412,-157.209C350.111,-136.581 353.154,-55.1328 307.54,-27.3462"/>
<polygon fill="#8469ee" stroke="#8469ee" points="308.967,-24.147 298.457,-22.8091 305.839,-30.4091 308.967,-24.147"/>
</g>
<!-- I&#45;&gt;Z -->
<g id="edge20" class="edge"><title>I&#45;&gt;Z</title>
<path fill="none" stroke="#8d3d0c" d="M245.81,-157.209C194.111,-136.581 191.068,-55.1328 236.682,-27.3462"/>
<polygon fill="#8d3d0c" stroke="#8d3d0c" points="238.383,-30.4091 245.765,-22.8091 235.255,-24.147 238.383,-30.4091"/>
</g>
<!-- I&#45;&gt;G -->
<g id="edge204" class="edge"><title>I&#45;&gt;G</title>
<path fill="none" stroke="#a7b961" d="M244.706,-160.946C173.576,-155.564 105.785,-130.532 51.1109,-108 36.4015,-101.938 19.0074,-94.0645 54.0067,-91.1502"/>
<polygon fill="#a7b961" stroke="#a7b961" points="54.3055,-94.6384 64.0672,-90.5202 53.868,-87.6521 54.3055,-94.6384"/>
</g>
<!-- I&#45;&gt;G -->
<g id="edge232" class="edge"><title>I&#45;&gt;G</title>
<path fill="none" stroke="#c234f7" stroke-width="4" d="M255.787,-147.572C232.093,-136.956 193.072,-121.996 159.111,-108 149.734,-104.135 139.265,-99.5347 127.68,-95.952"/>
<polygon fill="#c234f7" stroke="#c234f7" points="128.253,-92.4804 117.684,-93.2204 126.408,-99.2328 128.253,-92.4804"/>
</g>
<!-- I&#45;&gt;G -->
<g id="edge240" class="edge"><title>I&#45;&gt;G</title>
<path fill="none" stroke="#cb08d3" d="M264.861,-144.65C243.214,-134.311 208.061,-120.755 177.111,-108 164.596,-102.842 150.137,-96.3734 128.009,-92.7631"/>
<polygon fill="#cb08d3" stroke="#cb08d3" points="128.42,-89.2869 118.039,-91.403 127.474,-96.2227 128.42,-89.2869"/>
</g>
<!-- I&#45;&gt;G -->
<g id="edge264" class="edge"><title>I&#45;&gt;G</title>
<path fill="none" stroke="#e58469" d="M281.257,-145.011C262.035,-134.628 226.422,-120.904 195.111,-108 180.893,-102.14 164.166,-94.5883 128.228,-91.4585"/>
<polygon fill="#e58469" stroke="#e58469" points="128.347,-87.9581 118.121,-90.7297 127.844,-94.9399 128.347,-87.9581"/>
</g>
<!-- I&#45;&gt;G -->
<g id="edge272" class="edge"><title>I&#45;&gt;G</title>
<path fill="none" stroke="#ee5846" d="M299.081,-160.027C329.037,-153.144 265.136,-129.441 213.111,-108 197.921,-101.74 179.867,-93.5479 128.455,-90.8805"/>
<polygon fill="#ee5846" stroke="#ee5846" points="128.602,-87.3837 118.46,-90.4485 128.299,-94.3772 128.602,-87.3837"/>
</g>
<!-- I&#45;&gt;G -->
<g id="edge48" class="edge"><title>I&#45;&gt;G</title>
<path fill="none" stroke="#234f72" d="M245.102,-160.435C187.704,-154.132 122.22,-129.887 69.1109,-108 56.6138,-102.85 42.179,-96.392 53.943,-92.7787"/>
<polygon fill="#234f72" stroke="#234f72" points="54.8568,-96.1724 64.1096,-91.0113 53.6579,-89.2758 54.8568,-96.1724"/>
</g>
<!-- I&#45;&gt;G -->
<g id="edge58" class="edge"><title>I&#45;&gt;G</title>
<path fill="none" stroke="#2c234f" d="M245.238,-159.469C199.79,-151.938 137.811,-128.895 87.1109,-108 82.1247,-105.945 76.8299,-103.682 72.6557,-101.475"/>
<polygon fill="#2c234f" stroke="#2c234f" points="74.6664,-98.5798 64.8608,-94.5671 70.0238,-103.819 74.6664,-98.5798"/>
</g>
<!-- I&#45;&gt;G -->
<g id="edge90" class="edge"><title>I&#45;&gt;G</title>
<path fill="none" stroke="#469ee5" stroke-width="4" d="M245.819,-157.766C211.86,-149.437 159.502,-130.128 111.582,-110.631"/>
<polygon fill="#469ee5" stroke="#469ee5" points="112.644,-107.284 102.063,-106.733 109.99,-113.762 112.644,-107.284"/>
</g>
<!-- I&#45;&gt;G -->
<g id="edge100" class="edge"><title>I&#45;&gt;G</title>
<path fill="none" stroke="#4f72c2" d="M247.006,-154.936C216.921,-144.874 165.983,-125.669 123.111,-108 122.105,-107.585 121.086,-107.162 120.06,-106.733"/>
<polygon fill="#4f72c2" stroke="#4f72c2" points="121.377,-103.489 110.808,-102.756 118.613,-109.92 121.377,-103.489"/>
</g>
<!-- I&#45;&gt;G -->
<g id="edge194" class="edge"><title>I&#45;&gt;G</title>
<path fill="none" stroke="#9ee584" d="M249.884,-151.213C223.576,-140.577 179.166,-123.683 141.111,-108 136.08,-105.927 130.734,-103.641 125.439,-101.415"/>
<polygon fill="#9ee584" stroke="#9ee584" points="126.619,-98.1152 116.04,-97.5297 123.944,-104.584 126.619,-98.1152"/>
</g>
<!-- F&#45;&gt;B -->
<g id="edge74" class="edge"><title>F&#45;&gt;B</title>
<path fill="none" stroke="#3dcb08" d="M299.323,-309.389C258.416,-316.302 181.943,-333.372 113.57,-358.489"/>
<polygon fill="#3dcb08" stroke="#3dcb08" points="112.114,-355.297 103.98,-362.087 114.573,-361.851 112.114,-355.297"/>
</g>
<!-- F&#45;&gt;B -->
<g id="edge114" class="edge"><title>F&#45;&gt;B</title>
<path fill="none" stroke="#611a7b" d="M300.148,-311.313C261.652,-319.575 187.486,-336.977 127.111,-360 125.25,-360.71 123.357,-361.484 121.463,-362.301"/>
<polygon fill="#611a7b" stroke="#611a7b" points="119.723,-359.249 112.117,-366.624 122.662,-365.602 119.723,-359.249"/>
</g>
<!-- F&#45;&gt;B -->
<g id="edge126" class="edge"><title>F&#45;&gt;B</title>
<path fill="none" stroke="#69ee58" d="M301.674,-313.887C265.804,-322.903 199.799,-339.145 145.111,-360 139.145,-362.275 132.851,-365.219 126.406,-368.065"/>
<polygon fill="#69ee58" stroke="#69ee58" points="124.734,-364.971 116.874,-372.075 127.448,-371.423 124.734,-364.971"/>
</g>
<!-- F&#45;&gt;B -->
<g id="edge138" class="edge"><title>F&#45;&gt;B</title>
<path fill="none" stroke="#72c234" d="M304.528,-316.835C270.597,-326.228 212.28,-341.25 163.111,-360 153.31,-363.738 142.624,-369.281 128.203,-373.228"/>
<polygon fill="#72c234" stroke="#72c234" points="127.11,-369.888 118.158,-375.555 128.69,-376.707 127.11,-369.888"/>
</g>
<!-- F&#45;&gt;B -->
<g id="edge150" class="edge"><title>F&#45;&gt;B</title>
<path fill="none" stroke="#7b9611" d="M308.581,-319.992C276.401,-329.437 225.096,-343.227 181.111,-360 169.021,-364.61 155.586,-371.968 128.642,-375.687"/>
<polygon fill="#7b9611" stroke="#7b9611" points="128.068,-372.23 118.529,-376.841 128.861,-379.185 128.068,-372.23"/>
</g>
<!-- F&#45;&gt;B -->
<g id="edge162" class="edge"><title>F&#45;&gt;B</title>
<path fill="none" stroke="#8469ee" d="M315.483,-322.685C285.098,-331.979 239.082,-344.758 199.111,-360 185.726,-365.104 170.694,-373.576 128.265,-376.749"/>
<polygon fill="#8469ee" stroke="#8469ee" points="127.921,-373.263 118.157,-377.374 128.354,-380.25 127.921,-373.263"/>
</g>
<!-- F&#45;&gt;I -->
<g id="edge230" class="edge"><title>F&#45;&gt;I</title>
<path fill="none" stroke="#c234f7" stroke-width="4" d="M299.245,-302.926C223.734,-285.278 186.012,-196.706 235.792,-169.778"/>
<polygon fill="#c234f7" stroke="#c234f7" points="237.473,-172.868 245.32,-165.749 234.746,-166.42 237.473,-172.868"/>
</g>
<!-- F&#45;&gt;I -->
<g id="edge238" class="edge"><title>F&#45;&gt;I</title>
<path fill="none" stroke="#cb08d3" d="M328.669,-288.053C324.264,-262.449 306.991,-215.352 291.765,-186.54"/>
<polygon fill="#cb08d3" stroke="#cb08d3" points="294.651,-184.531 286.701,-177.527 288.548,-187.96 294.651,-184.531"/>
</g>
<!-- F&#45;&gt;I -->
<g id="edge246" class="edge"><title>F&#45;&gt;I</title>
<path fill="none" stroke="#d3dcb0" d="M337.875,-289.761C339.601,-263.251 320.419,-210.753 298.977,-181.993"/>
<polygon fill="#d3dcb0" stroke="#d3dcb0" points="301.635,-179.715 292.579,-174.217 296.23,-184.163 301.635,-179.715"/>
</g>
<!-- F&#45;&gt;I -->
<g id="edge256" class="edge"><title>F&#45;&gt;I</title>
<path fill="none" stroke="#dcb08d" d="M345.6,-293.221C356.651,-266.697 334.412,-205.769 303.939,-177.248"/>
<polygon fill="#dcb08d" stroke="#dcb08d" points="305.974,-174.39 296.029,-170.736 301.524,-179.794 305.974,-174.39"/>
</g>
<!-- F&#45;&gt;I -->
<g id="edge262" class="edge"><title>F&#45;&gt;I</title>
<path fill="none" stroke="#e58469" d="M350.198,-297.423C375.449,-272.561 349.408,-200.473 306.477,-172.901"/>
<polygon fill="#e58469" stroke="#e58469" points="308.117,-169.808 297.676,-168.007 304.715,-175.926 308.117,-169.808"/>
</g>
<!-- F&#45;&gt;I -->
<g id="edge270" class="edge"><title>F&#45;&gt;I</title>
<path fill="none" stroke="#ee5846" d="M351.993,-300.531C394.703,-278.489 365.531,-196.11 308.204,-169.995"/>
<polygon fill="#ee5846" stroke="#ee5846" points="309.356,-166.688 298.768,-166.305 306.806,-173.207 309.356,-166.688"/>
</g>
<!-- F&#45;&gt;I -->
<g id="edge278" class="edge"><title>F&#45;&gt;I</title>
<path fill="none" stroke="#f72c23" d="M352.762,-302.296C413.791,-282.789 381.929,-191.966 308.943,-167.878"/>
<polygon fill="#f72c23" stroke="#f72c23" points="309.442,-164.382 298.868,-165.049 307.549,-171.122 309.442,-164.382"/>
</g>
<!-- F&#45;&gt;I -->
<g id="edge46" class="edge"><title>F&#45;&gt;I</title>
<path fill="none" stroke="#234f72" d="M299.439,-301.69C240.481,-282.33 206.281,-203.052 237.889,-173.327"/>
<polygon fill="#234f72" stroke="#234f72" points="240.038,-176.094 246.207,-167.48 236.013,-170.367 240.038,-176.094"/>
</g>
<!-- F&#45;&gt;I -->
<g id="edge56" class="edge"><title>F&#45;&gt;I</title>
<path fill="none" stroke="#2c234f" d="M300.552,-299.996C256.764,-279.358 226.776,-210.841 242.219,-178.795"/>
<polygon fill="#2c234f" stroke="#2c234f" points="245.208,-180.631 248.15,-170.453 239.503,-176.575 245.208,-180.631"/>
</g>
<!-- F&#45;&gt;I -->
<g id="edge66" class="edge"><title>F&#45;&gt;I</title>
<path fill="none" stroke="#34f72c" d="M302.115,-297.209C271.215,-275.154 246.15,-216.934 250.168,-184.546"/>
<polygon fill="#34f72c" stroke="#34f72c" points="253.614,-185.196 252.679,-174.642 246.828,-183.475 253.614,-185.196"/>
</g>
<!-- F&#45;&gt;I -->
<g id="edge88" class="edge"><title>F&#45;&gt;I</title>
<path fill="none" stroke="#469ee5" stroke-width="4" d="M305.588,-293.723C284.358,-270.603 263.545,-220.122 260.595,-188.801"/>
<polygon fill="#469ee5" stroke="#469ee5" points="264.088,-188.502 260.325,-178.598 257.091,-188.687 264.088,-188.502"/>
</g>
<!-- F&#45;&gt;I -->
<g id="edge98" class="edge"><title>F&#45;&gt;I</title>
<path fill="none" stroke="#4f72c2" d="M311.591,-290.589C297.081,-266.576 278.838,-219.873 271.627,-189.851"/>
<polygon fill="#4f72c2" stroke="#4f72c2" points="275.038,-189.061 269.561,-179.992 268.187,-190.497 275.038,-189.061"/>
</g>
<!-- F&#45;&gt;I -->
<g id="edge108" class="edge"><title>F&#45;&gt;I</title>
<path fill="none" stroke="#58469e" d="M319.489,-288.343C310.218,-263.62 293.284,-218.461 282.372,-189.364"/>
<polygon fill="#58469e" stroke="#58469e" points="285.575,-187.936 278.787,-179.802 279.021,-190.394 285.575,-187.936"/>
</g>
<!-- D -->
<g id="node96" class="node"><title>D</title>
<ellipse fill="none" stroke="black" cx="163.111" cy="-234" rx="27" ry="18"/>
<text text-anchor="middle" x="163.111" y="-229.4" font-family="Times,serif" font-size="14.00">D</text>
</g>
<!-- F&#45;&gt;D -->
<g id="edge210" class="edge"><title>F&#45;&gt;D</title>
<path fill="none" stroke="#b08d3d" d="M299.764,-301.818C264.35,-293.032 212.209,-272.126 181.22,-255.829"/>
<polygon fill="#b08d3d" stroke="#b08d3d" points="182.773,-252.689 172.324,-250.938 179.4,-258.823 182.773,-252.689"/>
</g>
<!-- F&#45;&gt;D -->
<g id="edge222" class="edge"><title>F&#45;&gt;D</title>
<path fill="none" stroke="#b9611a" d="M316.682,-288.937C290.082,-273.591 238.029,-251.828 199.514,-240.869"/>
<polygon fill="#b9611a" stroke="#b9611a" points="200.105,-237.405 189.541,-238.203 198.297,-244.167 200.105,-237.405"/>
</g>
<!-- F&#45;&gt;D -->
<g id="edge174" class="edge"><title>F&#45;&gt;D</title>
<path fill="none" stroke="#8d3dcb" d="M300.656,-299.985C269.226,-289.816 219.571,-268.812 188.469,-253.219"/>
<polygon fill="#8d3dcb" stroke="#8d3dcb" points="189.945,-250.043 179.453,-248.572 186.738,-256.265 189.945,-250.043"/>
</g>
<!-- F&#45;&gt;D -->
<g id="edge182" class="edge"><title>F&#45;&gt;D</title>
<path fill="none" stroke="#9611a7" d="M302.218,-297.458C273.224,-285.744 224.704,-264.481 193.218,-249.817"/>
<polygon fill="#9611a7" stroke="#9611a7" points="194.573,-246.587 184.034,-245.496 191.593,-252.921 194.573,-246.587"/>
</g>
<!-- F&#45;&gt;D -->
<g id="edge190" class="edge"><title>F&#45;&gt;D</title>
<path fill="none" stroke="#9ee584" d="M305.037,-294.432C277.48,-281.319 229.305,-260.017 196.723,-246.522"/>
<polygon fill="#9ee584" stroke="#9ee584" points="197.733,-243.153 187.153,-242.602 195.08,-249.631 197.733,-243.153"/>
</g>
<!-- F&#45;&gt;D -->
<g id="edge200" class="edge"><title>F&#45;&gt;D</title>
<path fill="none" stroke="#a7b961" d="M309.771,-291.43C282.787,-277.068 233.248,-255.553 198.415,-243.343"/>
<polygon fill="#a7b961" stroke="#a7b961" points="199.16,-239.9 188.566,-240.015 196.919,-246.532 199.16,-239.9"/>
</g>
<!-- G&#45;&gt;Z -->
<g id="edge206" class="edge"><title>G&#45;&gt;Z</title>
<path fill="none" stroke="#a7b961" d="M63.9485,-89.7776C-22.0357,-88.2305 -1.70758,-78.9312 15.1109,-72 70.0076,-49.376 138.127,-24.233 234.98,-18.9898"/>
<polygon fill="#a7b961" stroke="#a7b961" points="235.235,-22.4818 245.061,-18.5209 234.909,-15.4894 235.235,-22.4818"/>
</g>
<!-- G&#45;&gt;Z -->
<g id="edge218" class="edge"><title>G&#45;&gt;Z</title>
<path fill="none" stroke="#b08d3d" d="M117.684,-86.7796C133.317,-83.0994 147.108,-76.9466 159.111,-72 188.959,-59.6989 222.717,-46.6531 246.541,-36.4662"/>
<polygon fill="#b08d3d" stroke="#b08d3d" points="248.024,-39.638 255.787,-32.4278 245.222,-33.2232 248.024,-39.638"/>
</g>
<!-- G&#45;&gt;Z -->
<g id="edge234" class="edge"><title>G&#45;&gt;Z</title>
<path fill="none" stroke="#c234f7" stroke-width="4" d="M118.039,-88.597C145.967,-85.5016 162.808,-77.8945 177.111,-72 203.95,-60.9389 233.951,-49.2757 255.563,-39.6303"/>
<polygon fill="#c234f7" stroke="#c234f7" points="257.241,-42.7109 264.861,-35.35 254.314,-36.3523 257.241,-42.7109"/>
</g>
<!-- G&#45;&gt;Z -->
<g id="edge242" class="edge"><title>G&#45;&gt;Z</title>
<path fill="none" stroke="#cb08d3" d="M118.121,-89.2703C161.157,-86.7749 179.622,-78.3832 195.111,-72 222.019,-60.9106 252.104,-49.216 272.233,-39.5563"/>
<polygon fill="#cb08d3" stroke="#cb08d3" points="273.915,-42.6278 281.257,-34.9893 270.754,-36.3821 273.915,-42.6278"/>
</g>
<!-- G&#45;&gt;Z -->
<g id="edge252" class="edge"><title>G&#45;&gt;Z</title>
<path fill="none" stroke="#d3dcb0" d="M118.46,-89.5515C177.609,-87.4793 196.975,-78.6498 213.111,-72 253.349,-55.4171 300.691,-37.4807 306.218,-27.0196"/>
<polygon fill="#d3dcb0" stroke="#d3dcb0" points="308.656,-24.5081 299.081,-19.9727 303.738,-29.4893 308.656,-24.5081"/>
</g>
<!-- G&#45;&gt;Z -->
<g id="edge266" class="edge"><title>G&#45;&gt;Z</title>
<path fill="none" stroke="#e58469" d="M118.492,-89.703C194.572,-87.9528 214.544,-78.8275 231.111,-72 281.728,-51.1399 343.586,-28.1382 309.352,-20.5684"/>
<polygon fill="#e58469" stroke="#e58469" points="309.617,-17.0694 299.21,-19.0544 308.584,-23.9927 309.617,-17.0694"/>
</g>
<!-- G&#45;&gt;Z -->
<g id="edge274" class="edge"><title>G&#45;&gt;Z</title>
<path fill="none" stroke="#ee5846" d="M118.347,-89.7922C211.834,-88.2901 232.239,-78.9534 249.111,-72 302.376,-50.0485 368.089,-25.7255 309.57,-19.5095"/>
<polygon fill="#ee5846" stroke="#ee5846" points="309.807,-16.0174 299.557,-18.6982 309.242,-22.9945 309.807,-16.0174"/>
</g>
<!-- G&#45;&gt;Z -->
<g id="edge50" class="edge"><title>G&#45;&gt;Z</title>
<path fill="none" stroke="#234f72" d="M63.697,-89.6679C-3.16858,-87.8342 16.6518,-78.7831 33.1109,-72 86.8649,-49.847 153.297,-25.2787 235.042,-19.3429"/>
<polygon fill="#234f72" stroke="#234f72" points="235.326,-22.8321 245.087,-18.7128 234.888,-15.8458 235.326,-22.8321"/>
</g>
<!-- G&#45;&gt;Z -->
<g id="edge60" class="edge"><title>G&#45;&gt;Z</title>
<path fill="none" stroke="#2c234f" d="M64.0672,-89.4798C16.04,-87.2829 35.1549,-78.5758 51.1109,-72 103.223,-50.5238 167.249,-26.7776 234.727,-19.9385"/>
<polygon fill="#2c234f" stroke="#2c234f" points="235.054,-23.4233 244.706,-19.0544 234.436,-16.4506 235.054,-23.4233"/>
</g>
<!-- G&#45;&gt;Z -->
<g id="edge92" class="edge"><title>G&#45;&gt;Z</title>
<path fill="none" stroke="#469ee5" stroke-width="4" d="M64.1096,-88.9887C36.4383,-86.1932 54.1611,-78.1611 69.1109,-72 119.108,-51.3952 180.073,-28.701 234.934,-20.8533"/>
<polygon fill="#469ee5" stroke="#469ee5" points="235.622,-24.2942 245.102,-19.5646 234.742,-17.3497 235.622,-24.2942"/>
</g>
<!-- G&#45;&gt;Z -->
<g id="edge102" class="edge"><title>G&#45;&gt;Z</title>
<path fill="none" stroke="#4f72c2" d="M64.8608,-85.4329C64.4323,-81.715 76.4736,-76.3838 87.1109,-72 134.147,-52.6154 190.891,-31.3814 235.137,-22.4001"/>
<polygon fill="#4f72c2" stroke="#4f72c2" points="236.042,-25.7921 245.238,-20.531 234.768,-18.9089 236.042,-25.7921"/>
</g>
<!-- G&#45;&gt;Z -->
<g id="edge178" class="edge"><title>G&#45;&gt;Z</title>
<path fill="none" stroke="#8d3dcb" d="M102.063,-73.2673C103.086,-72.8379 104.105,-72.4147 105.111,-72 148.372,-54.1713 199.845,-34.7781 236.036,-24.7922"/>
<polygon fill="#8d3dcb" stroke="#8d3dcb" points="237.029,-28.1502 245.819,-22.2343 235.258,-21.3779 237.029,-28.1502"/>
</g>
<!-- G&#45;&gt;Z -->
<g id="edge186" class="edge"><title>G&#45;&gt;Z</title>
<path fill="none" stroke="#9611a7" d="M110.808,-77.2444C114.86,-75.4531 119.086,-73.6588 123.111,-72 161.629,-56.1259 206.657,-39.0116 237.224,-28.4013"/>
<polygon fill="#9611a7" stroke="#9611a7" points="238.672,-31.6055 247.006,-25.0636 236.411,-24.9806 238.672,-31.6055"/>
</g>
<!-- G&#45;&gt;Z -->
<g id="edge196" class="edge"><title>G&#45;&gt;Z</title>
<path fill="none" stroke="#9ee584" d="M116.04,-82.4703C124.207,-79.1775 133.061,-75.3175 141.111,-72 174.855,-58.0933 213.596,-43.2347 240.282,-32.6313"/>
<polygon fill="#9ee584" stroke="#9ee584" points="241.902,-35.753 249.884,-28.7866 239.3,-29.2546 241.902,-35.753"/>
</g>
<!-- C&#45;&gt;F -->
<g id="edge72" class="edge"><title>C&#45;&gt;F</title>
<path fill="none" stroke="#3dcb08" d="M179.45,-363.43C206.435,-349.068 255.974,-327.553 290.807,-315.343"/>
<polygon fill="#3dcb08" stroke="#3dcb08" points="292.303,-318.532 300.656,-312.015 290.062,-311.9 292.303,-318.532"/>
</g>
<!-- C&#45;&gt;F -->
<g id="edge86" class="edge"><title>C&#45;&gt;F</title>
<path fill="none" stroke="#469ee5" stroke-width="4" d="M184.185,-366.432C211.742,-353.319 259.917,-332.017 292.498,-318.522"/>
<polygon fill="#469ee5" stroke="#469ee5" points="294.142,-321.631 302.069,-314.602 291.489,-315.153 294.142,-321.631"/>
</g>
<!-- C&#45;&gt;F -->
<g id="edge96" class="edge"><title>C&#45;&gt;F</title>
<path fill="none" stroke="#4f72c2" d="M187.004,-369.458C215.998,-357.744 264.518,-336.481 296.004,-321.817"/>
<polygon fill="#4f72c2" stroke="#4f72c2" points="297.629,-324.921 305.188,-317.496 294.649,-318.587 297.629,-324.921"/>
</g>
<!-- C&#45;&gt;F -->
<g id="edge106" class="edge"><title>C&#45;&gt;F</title>
<path fill="none" stroke="#58469e" d="M188.566,-371.985C219.996,-361.816 269.651,-340.812 300.753,-325.219"/>
<polygon fill="#58469e" stroke="#58469e" points="302.484,-328.265 309.769,-320.572 299.277,-322.043 302.484,-328.265"/>
</g>
<!-- D&#45;&gt;I -->
<g id="edge202" class="edge"><title>D&#45;&gt;I</title>
<path fill="none" stroke="#a7b961" d="M171.862,-216.571C187.722,-203.402 215.256,-185.669 238.31,-174.042"/>
<polygon fill="#a7b961" stroke="#a7b961" points="240.04,-177.094 247.541,-169.612 237.012,-170.783 240.04,-177.094"/>
</g>
<!-- D&#45;&gt;I -->
<g id="edge212" class="edge"><title>D&#45;&gt;I</title>
<path fill="none" stroke="#b08d3d" d="M184.675,-223.065C202.839,-212.285 228.55,-195.551 247.486,-182.326"/>
<polygon fill="#b08d3d" stroke="#b08d3d" points="249.526,-185.17 255.658,-176.53 245.476,-179.46 249.526,-185.17"/>
</g>
<!-- D&#45;&gt;I -->
<g id="edge224" class="edge"><title>D&#45;&gt;I</title>
<path fill="none" stroke="#b9611a" d="M187.887,-226.295C209.22,-216.605 237.071,-199.528 255.78,-185.408"/>
<polygon fill="#b9611a" stroke="#b9611a" points="258.002,-188.113 263.676,-179.166 253.661,-182.622 258.002,-188.113"/>
</g>
<!-- D&#45;&gt;I -->
<g id="edge192" class="edge"><title>D&#45;&gt;I</title>
<path fill="none" stroke="#9ee584" d="M179.62,-219.43C196.111,-207.528 221.495,-190.713 241.592,-178.353"/>
<polygon fill="#9ee584" stroke="#9ee584" points="243.659,-181.193 250.402,-173.021 240.035,-175.204 243.659,-181.193"/>
</g>
<!-- D&#45;&gt;G -->
<g id="edge176" class="edge"><title>D&#45;&gt;G</title>
<path fill="none" stroke="#8d3dcb" d="M150.528,-217.761C135.693,-193.442 112.272,-147.256 99.4572,-117.584"/>
<polygon fill="#8d3dcb" stroke="#8d3dcb" points="102.627,-116.091 95.5456,-108.21 96.1667,-118.787 102.627,-116.091"/>
</g>
<!-- D&#45;&gt;G -->
<g id="edge184" class="edge"><title>D&#45;&gt;G</title>
<path fill="none" stroke="#9611a7" d="M158.781,-216.053C148.642,-190.61 125.516,-143.943 108.92,-115.085"/>
<polygon fill="#9611a7" stroke="#9611a7" points="111.885,-113.222 103.786,-106.39 105.857,-116.781 111.885,-113.222"/>
</g>
</g>
</svg>
