<?xml version="1.0" encoding="UTF-8" standalone="no"?>
<!DOCTYPE svg PUBLIC "-//W3C//DTD SVG 1.1//EN"
 "http://www.w3.org/Graphics/SVG/1.1/DTD/svg11.dtd">
<!-- Generated by graphviz version 2.26.3 (20100126.1600)
 -->
<!-- Title: G Pages: 1 -->
<svg width="2030pt" height="980pt"
 viewBox="0.00 0.00 2030.00 980.00" xmlns="http://www.w3.org/2000/svg" xmlns:xlink="http://www.w3.org/1999/xlink">
<g id="graph1" class="graph" transform="scale(1 1) rotate(0) translate(4 976)">
<title>G</title>
<polygon fill="white" stroke="white" points="-4,5 -4,-976 2027,-976 2027,5 -4,5"/>
<!-- A -->
<g id="node1" class="node"><title>A</title>
<ellipse fill="none" stroke="black" cx="1506" cy="-954" rx="27" ry="18"/>
<text text-anchor="middle" x="1506" y="-949.4" font-family="Times,serif" font-size="14.00">A</text>
</g>
<!-- B -->
<g id="node2" class="node"><title>B</title>
<ellipse fill="none" stroke="black" cx="1326" cy="-882" rx="27" ry="18"/>
<text text-anchor="middle" x="1326" y="-877.4" font-family="Times,serif" font-size="14.00">B</text>
</g>
<!-- A&#45;&gt;B -->
<g id="edge2" class="edge"><title>A&#45;&gt;B</title>
<path fill="none" stroke="black" d="M1481.62,-946.02C1449.26,-934.139 1392.55,-911.603 1357.16,-896.69"/>
<polygon fill="black" stroke="black" points="1358.36,-893.395 1347.78,-892.701 1355.62,-899.836 1358.36,-893.395"/>
</g>
<!-- A&#45;&gt;B -->
<g id="edge4" class="edge"><title>A&#45;&gt;B</title>
<path fill="none" stroke="black" d="M1484.03,-943.221C1453,-929.882 1396.48,-907.258 1360.03,-893.566"/>
<polygon fill="black" stroke="black" points="1360.91,-890.159 1350.32,-889.955 1358.47,-896.72 1360.91,-890.159"/>
</g>
<!-- C -->
<g id="node5" class="node"><title>C</title>
<ellipse fill="none" stroke="black" cx="1326" cy="-738" rx="27" ry="18"/>
<text text-anchor="middle" x="1326" y="-733.4" font-family="Times,serif" font-size="14.00">C</text>
</g>
<!-- A&#45;&gt;C -->
<g id="edge6" class="edge"><title>A&#45;&gt;C</title>
<path fill="none" stroke="black" d="M1492.76,-938.117C1461.49,-900.591 1382.89,-806.27 1345.87,-761.845"/>
<polygon fill="black" stroke="black" points="1348.35,-759.348 1339.26,-753.906 1342.97,-763.829 1348.35,-759.348"/>
</g>
<!-- E -->
<g id="node7" class="node"><title>E</title>
<ellipse fill="none" stroke="black" cx="547" cy="-810" rx="27" ry="18"/>
<text text-anchor="middle" x="547" y="-805.4" font-family="Times,serif" font-size="14.00">E</text>
</g>
<!-- A&#45;&gt;E -->
<g id="edge8" class="edge"><title>A&#45;&gt;E</title>
<path fill="none" stroke="black" d="M1478.89,-952.24C1368.14,-944.631 939.757,-911.123 598,-828 592.097,-826.564 585.92,-824.704 579.984,-822.727"/>
<polygon fill="black" stroke="black" points="580.909,-819.342 570.315,-819.341 578.596,-825.949 580.909,-819.342"/>
</g>
<!-- G -->
<g id="node9" class="node"><title>G</title>
<ellipse fill="none" stroke="black" cx="1562" cy="-666" rx="27" ry="18"/>
<text text-anchor="middle" x="1562" y="-661.4" font-family="Times,serif" font-size="14.00">G</text>
</g>
<!-- A&#45;&gt;G -->
<g id="edge10" class="edge"><title>A&#45;&gt;G</title>
<path fill="none" stroke="black" d="M1506.02,-935.984C1511.4,-887.178 1537.42,-752.155 1552.45,-693.639"/>
<polygon fill="black" stroke="black" points="1555.92,-694.206 1555.11,-683.641 1549.15,-692.4 1555.92,-694.206"/>
</g>
<!-- A&#45;&gt;G -->
<g id="edge12" class="edge"><title>A&#45;&gt;G</title>
<path fill="none" stroke="black" d="M1512.87,-936.418C1526.39,-888.13 1552.89,-753.154 1560.73,-694.177"/>
<polygon fill="black" stroke="black" points="1564.23,-694.44 1561.98,-684.087 1557.28,-693.585 1564.23,-694.44"/>
</g>
<!-- H -->
<g id="node12" class="node"><title>H</title>
<ellipse fill="none" stroke="black" cx="1164" cy="-234" rx="27" ry="18"/>
<text text-anchor="middle" x="1164" y="-229.4" font-family="Times,serif" font-size="14.00">H</text>
</g>
<!-- A&#45;&gt;H -->
<g id="edge14" class="edge"><title>A&#45;&gt;H</title>
<path fill="none" stroke="black" d="M1533.02,-952.376C1639.19,-945.27 2022,-912.539 2022,-810 2022,-810 2022,-810 2022,-594 2022,-412.814 1363.19,-272.738 1200.16,-240.849"/>
<polygon fill="black" stroke="black" points="1200.63,-237.376 1190.15,-238.905 1199.3,-244.247 1200.63,-237.376"/>
</g>
<!-- J -->
<g id="node14" class="node"><title>J</title>
<ellipse fill="none" stroke="black" cx="651" cy="-162" rx="27" ry="18"/>
<text text-anchor="middle" x="651" y="-157.4" font-family="Times,serif" font-size="14.00">J</text>
</g>
<!-- A&#45;&gt;J -->
<g id="edge16" class="edge"><title>A&#45;&gt;J</title>
<path fill="none" stroke="black" d="M1479.04,-952.828C1282.06,-943.76 74,-883.213 74,-810 74,-810 74,-810 74,-378 74,-262.814 487.257,-186.975 614.361,-167.165"/>
<polygon fill="black" stroke="black" points="615.033,-170.603 624.387,-165.627 613.972,-163.684 615.033,-170.603"/>
</g>
<!-- A&#45;&gt;J -->
<g id="edge18" class="edge"><title>A&#45;&gt;J</title>
<path fill="none" stroke="black" d="M1479.03,-952.633C1283.47,-942.925 92,-882.708 92,-810 92,-810 92,-810 92,-378 92,-264.98 489.861,-189.841 614.34,-168.342"/>
<polygon fill="black" stroke="black" points="615.245,-171.738 624.511,-166.599 614.063,-164.838 615.245,-171.738"/>
</g>
<!-- L -->
<g id="node17" class="node"><title>L</title>
<ellipse fill="none" stroke="black" cx="1315" cy="-450" rx="27" ry="18"/>
<text text-anchor="middle" x="1315" y="-445.4" font-family="Times,serif" font-size="14.00">L</text>
</g>
<!-- A&#45;&gt;L -->
<g id="edge22" class="edge"><title>A&#45;&gt;L</title>
<path fill="none" stroke="black" d="M1532.52,-949.507C1592.02,-938.454 1730,-903.68 1730,-810 1730,-810 1730,-810 1730,-738 1730,-601.477 1647.33,-575.452 1531,-504 1474.47,-469.281 1397.25,-456.884 1351.97,-452.458"/>
<polygon fill="black" stroke="black" points="1352.26,-448.97 1341.99,-451.562 1351.64,-455.942 1352.26,-448.97"/>
</g>
<!-- A&#45;&gt;L -->
<g id="edge20" class="edge"><title>A&#45;&gt;L</title>
<path fill="none" stroke="black" d="M1533.04,-950.945C1596.39,-941.671 1748,-908.198 1748,-810 1748,-810 1748,-810 1748,-738 1748,-601.477 1665.33,-575.452 1549,-504 1487.45,-466.196 1401.36,-454.857 1352.45,-451.457"/>
<polygon fill="black" stroke="black" points="1352.51,-447.954 1342.31,-450.829 1352.08,-454.94 1352.51,-447.954"/>
</g>
<!-- M -->
<g id="node20" class="node"><title>M</title>
<ellipse fill="none" stroke="black" cx="1207" cy="-378" rx="27" ry="18"/>
<text text-anchor="middle" x="1207" y="-373.4" font-family="Times,serif" font-size="14.00">M</text>
</g>
<!-- A&#45;&gt;M -->
<g id="edge24" class="edge"><title>A&#45;&gt;M</title>
<path fill="none" stroke="black" d="M1532.05,-948.779C1616.72,-933.424 1874,-884.744 1874,-810 1874,-810 1874,-810 1874,-738 1874,-447.65 1385.8,-390.964 1244.52,-380.349"/>
<polygon fill="black" stroke="black" points="1244.43,-376.833 1234.2,-379.61 1243.93,-383.815 1244.43,-376.833"/>
</g>
<!-- A&#45;&gt;M -->
<g id="edge26" class="edge"><title>A&#45;&gt;M</title>
<path fill="none" stroke="black" d="M1532.53,-950.019C1619.74,-936.197 1892,-886.89 1892,-810 1892,-810 1892,-810 1892,-738 1892,-442.772 1387.26,-389.125 1244.31,-379.852"/>
<polygon fill="black" stroke="black" points="1244.47,-376.355 1234.28,-379.236 1244.04,-383.342 1244.47,-376.355"/>
</g>
<!-- A&#45;&gt;M -->
<g id="edge28" class="edge"><title>A&#45;&gt;M</title>
<path fill="none" stroke="black" d="M1532.71,-951.01C1623.63,-938.702 1910,-888.857 1910,-810 1910,-810 1910,-810 1910,-738 1910,-438.512 1390.59,-387.627 1244.47,-379.478"/>
<polygon fill="black" stroke="black" points="1244.38,-375.969 1234.22,-378.943 1244.02,-382.959 1244.38,-375.969"/>
</g>
<!-- N -->
<g id="node24" class="node"><title>N</title>
<ellipse fill="none" stroke="black" cx="651" cy="-18" rx="27" ry="18"/>
<text text-anchor="middle" x="651" y="-13.4" font-family="Times,serif" font-size="14.00">N</text>
</g>
<!-- A&#45;&gt;N -->
<g id="edge30" class="edge"><title>A&#45;&gt;N</title>
<path fill="none" stroke="black" d="M1478.77,-953.73C1321.65,-951.903 536.362,-940.194 300,-900 162.766,-876.663 0,-949.204 0,-810 0,-810 0,-810 0,-162 0,-69.7641 98.4725,-97.8909 187,-72 265.92,-48.919 517.382,-27.2272 613.691,-20.2931"/>
<polygon fill="black" stroke="black" points="614.122,-23.7715 623.85,-19.5762 613.629,-16.7889 614.122,-23.7715"/>
</g>
<!-- A&#45;&gt;N -->
<g id="edge32" class="edge"><title>A&#45;&gt;N</title>
<path fill="none" stroke="black" d="M1478.97,-953.674C1324.49,-951.674 552.072,-939.804 318,-900 180.766,-876.663 18,-949.204 18,-810 18,-810 18,-810 18,-162 18,-69.7641 116.472,-97.8909 205,-72 281.677,-49.5748 521.231,-28.461 613.889,-20.9196"/>
<polygon fill="black" stroke="black" points="614.244,-24.4025 623.93,-20.1089 613.681,-17.4252 614.244,-24.4025"/>
</g>
<!-- A&#45;&gt;N -->
<g id="edge34" class="edge"><title>A&#45;&gt;N</title>
<path fill="none" stroke="black" d="M1478.83,-953.601C1324.93,-951.399 567.401,-939.35 336,-900 198.766,-876.663 36,-949.204 36,-810 36,-810 36,-810 36,-162 36,-69.7641 134.472,-97.8909 223,-72 297.169,-50.3084 523.734,-29.8437 613.989,-21.7028"/>
<polygon fill="black" stroke="black" points="614.406,-25.1795 624.05,-20.7944 613.776,-18.2078 614.406,-25.1795"/>
</g>
<!-- B&#45;&gt;E -->
<g id="edge36" class="edge"><title>B&#45;&gt;E</title>
<path fill="none" stroke="black" d="M1298.95,-880.954C1184.05,-876.364 735.994,-856.932 598,-828 591.995,-826.741 585.733,-824.952 579.736,-822.986"/>
<polygon fill="black" stroke="black" points="580.581,-819.573 569.987,-819.571 578.268,-826.18 580.581,-819.573"/>
</g>
<!-- B&#45;&gt;G -->
<g id="edge40" class="edge"><title>B&#45;&gt;G</title>
<path fill="none" stroke="black" d="M1342.78,-867.709C1357.99,-857.506 1380.13,-842.985 1398,-828 1452.12,-782.621 1507.39,-720.183 1538.2,-687.667"/>
<polygon fill="black" stroke="black" points="1540.73,-690.088 1545.12,-680.448 1535.67,-685.242 1540.73,-690.088"/>
</g>
<!-- B&#45;&gt;H -->
<g id="edge42" class="edge"><title>B&#45;&gt;H</title>
<path fill="none" stroke="black" d="M1350.07,-873.537C1436.6,-843.782 1722.21,-737.008 1661,-576 1588.8,-386.093 1491.9,-369.965 1306,-288 1258.3,-266.97 1239.93,-272.869 1189.39,-252.624"/>
<polygon fill="black" stroke="black" points="1190.5,-249.296 1179.93,-248.683 1187.81,-255.758 1190.5,-249.296"/>
</g>
<!-- B&#45;&gt;H -->
<g id="edge44" class="edge"><title>B&#45;&gt;H</title>
<path fill="none" stroke="black" d="M1351.18,-875.392C1441.84,-848.463 1741.56,-740.556 1679,-576 1606.8,-386.093 1509.9,-369.965 1324,-288 1273.44,-265.708 1255.83,-273.674 1205,-252 1202.22,-250.813 1199.37,-249.448 1196.51,-248.01"/>
<polygon fill="black" stroke="black" points="1197.94,-244.809 1187.45,-243.306 1194.71,-251.021 1197.94,-244.809"/>
</g>
<!-- B&#45;&gt;J -->
<g id="edge46" class="edge"><title>B&#45;&gt;J</title>
<path fill="none" stroke="black" d="M1298.79,-881.451C1128.39,-877.407 222,-849.203 222,-738 222,-738 222,-738 222,-522 222,-317.747 512.783,-202.4 615.888,-170.906"/>
<polygon fill="black" stroke="black" points="616.956,-174.24 625.546,-168.038 614.963,-167.529 616.956,-174.24"/>
</g>
<!-- B&#45;&gt;J -->
<g id="edge48" class="edge"><title>B&#45;&gt;J</title>
<path fill="none" stroke="black" d="M1298.88,-881.342C1130.96,-876.918 240,-848.252 240,-738 240,-738 240,-738 240,-522 240,-322.08 518.577,-207.334 617.033,-173.023"/>
<polygon fill="black" stroke="black" points="618.195,-176.325 626.521,-169.773 615.926,-169.703 618.195,-176.325"/>
</g>
<!-- B&#45;&gt;L -->
<g id="edge52" class="edge"><title>B&#45;&gt;L</title>
<path fill="none" stroke="black" d="M1339.42,-866.221C1384.16,-811.599 1520.94,-627.184 1439,-504 1419.57,-474.795 1380.59,-461.286 1351.5,-455.1"/>
<polygon fill="black" stroke="black" points="1352.15,-451.661 1341.67,-453.204 1350.82,-458.534 1352.15,-451.661"/>
</g>
<!-- B&#45;&gt;N -->
<g id="edge54" class="edge"><title>B&#45;&gt;N</title>
<path fill="none" stroke="black" d="M1298.77,-881.412C1144.59,-877.514 399.314,-854.733 302,-828 218.805,-805.146 130,-824.277 130,-738 130,-738 130,-738 130,-162 130,-64.0108 492.774,-28.217 613.556,-19.9816"/>
<polygon fill="black" stroke="black" points="614.065,-23.4559 623.815,-19.3103 613.607,-16.4708 614.065,-23.4559"/>
</g>
<!-- B&#45;&gt;N -->
<g id="edge56" class="edge"><title>B&#45;&gt;N</title>
<path fill="none" stroke="black" d="M1298.73,-881.287C1147.46,-877.049 416.321,-854.46 320,-828 236.805,-805.146 148,-824.277 148,-738 148,-738 148,-738 148,-162 148,-65.8419 497.343,-29.5765 613.831,-20.4724"/>
<polygon fill="black" stroke="black" points="614.336,-23.9442 624.043,-19.6981 613.807,-16.9643 614.336,-23.9442"/>
</g>
<!-- F -->
<g id="node29" class="node"><title>F</title>
<ellipse fill="none" stroke="black" cx="893" cy="-90" rx="27" ry="18"/>
<text text-anchor="middle" x="893" y="-85.4" font-family="Times,serif" font-size="14.00">F</text>
</g>
<!-- B&#45;&gt;F -->
<g id="edge38" class="edge"><title>B&#45;&gt;F</title>
<path fill="none" stroke="black" d="M1351.63,-875.7C1388.94,-867.989 1457.27,-852.803 1512,-828 1731.39,-728.567 2014.38,-633.231 1882,-432 1769.3,-260.688 1094.06,-129.186 929.073,-97.382"/>
<polygon fill="black" stroke="black" points="929.437,-93.8878 918.955,-95.432 928.112,-100.761 929.437,-93.8878"/>
</g>
<!-- K -->
<g id="node36" class="node"><title>K</title>
<ellipse fill="none" stroke="black" cx="893" cy="-306" rx="27" ry="18"/>
<text text-anchor="middle" x="893" y="-301.4" font-family="Times,serif" font-size="14.00">K</text>
</g>
<!-- B&#45;&gt;K -->
<g id="edge50" class="edge"><title>B&#45;&gt;K</title>
<path fill="none" stroke="black" d="M1298.88,-879.474C1168.46,-866.973 612,-809.447 612,-738 612,-738 612,-738 612,-522 612,-459.431 789.336,-359.958 862.253,-321.701"/>
<polygon fill="black" stroke="black" points="864.165,-324.651 871.417,-316.927 860.931,-318.443 864.165,-324.651"/>
</g>
<!-- C&#45;&gt;B -->
<g id="edge58" class="edge"><title>C&#45;&gt;B</title>
<path fill="none" stroke="black" d="M1321.33,-756.173C1318.86,-780.761 1318.59,-824.87 1320.51,-853.787"/>
<polygon fill="black" stroke="black" points="1317.05,-854.374 1321.36,-864.053 1324.02,-853.8 1317.05,-854.374"/>
</g>
<!-- C&#45;&gt;B -->
<g id="edge60" class="edge"><title>C&#45;&gt;B</title>
<path fill="none" stroke="black" d="M1330.67,-756.173C1333.14,-780.761 1333.41,-824.87 1331.49,-853.787"/>
<polygon fill="black" stroke="black" points="1327.98,-853.8 1330.64,-864.053 1334.95,-854.374 1327.98,-853.8"/>
</g>
<!-- C&#45;&gt;G -->
<g id="edge62" class="edge"><title>C&#45;&gt;G</title>
<path fill="none" stroke="black" d="M1350.81,-730.431C1393.13,-717.521 1479.34,-691.218 1527.5,-676.526"/>
<polygon fill="black" stroke="black" points="1528.62,-679.842 1537.17,-673.576 1526.58,-673.146 1528.62,-679.842"/>
</g>
<!-- C&#45;&gt;J -->
<g id="edge66" class="edge"><title>C&#45;&gt;J</title>
<path fill="none" stroke="black" d="M1298.85,-736.863C1215.4,-732.551 969.298,-715.822 898,-684 808.197,-643.919 781.961,-623.493 730,-540 657.602,-423.667 639.055,-255.229 643.333,-189.616"/>
<polygon fill="black" stroke="black" points="646.82,-189.921 644.254,-179.641 639.849,-189.277 646.82,-189.921"/>
</g>
<!-- C&#45;&gt;L -->
<g id="edge68" class="edge"><title>C&#45;&gt;L</title>
<path fill="none" stroke="black" d="M1331.69,-720.327C1355.43,-679.988 1425.63,-578.841 1384,-504 1374.91,-487.661 1358.61,-475.633 1343.8,-467.132"/>
<polygon fill="black" stroke="black" points="1345.31,-463.969 1334.85,-462.287 1341.97,-470.125 1345.31,-463.969"/>
</g>
<!-- C&#45;&gt;L -->
<g id="edge70" class="edge"><title>C&#45;&gt;L</title>
<path fill="none" stroke="black" d="M1339.61,-722.097C1371.31,-683.021 1444.26,-579.961 1402,-504 1390.69,-483.666 1368.2,-470.009 1348.92,-461.517"/>
<polygon fill="black" stroke="black" points="1350.08,-458.207 1339.5,-457.647 1347.42,-464.682 1350.08,-458.207"/>
</g>
<!-- C&#45;&gt;M -->
<g id="edge72" class="edge"><title>C&#45;&gt;M</title>
<path fill="none" stroke="black" d="M1312.96,-721.827C1293.73,-696.286 1260,-644.326 1260,-594 1260,-594 1260,-594 1260,-522 1260,-478.44 1238.38,-431.777 1222.75,-403.747"/>
<polygon fill="black" stroke="black" points="1225.74,-401.917 1217.73,-394.987 1219.67,-405.402 1225.74,-401.917"/>
</g>
<!-- I -->
<g id="node44" class="node"><title>I</title>
<ellipse fill="none" stroke="black" cx="1315" cy="-522" rx="27" ry="18"/>
<text text-anchor="middle" x="1315" y="-517.4" font-family="Times,serif" font-size="14.00">I</text>
</g>
<!-- C&#45;&gt;I -->
<g id="edge64" class="edge"><title>C&#45;&gt;I</title>
<path fill="none" stroke="black" d="M1321.14,-719.955C1315.77,-682.394 1311.08,-595.554 1311.7,-550.41"/>
<polygon fill="black" stroke="black" points="1315.21,-550.232 1311.97,-540.145 1308.21,-550.052 1315.21,-550.232"/>
</g>
<!-- Z -->
<g id="node50" class="node"><title>Z</title>
<ellipse fill="none" stroke="black" cx="1238" cy="-18" rx="27" ry="18"/>
<text text-anchor="middle" x="1238" y="-13.4" font-family="Times,serif" font-size="14.00">Z</text>
</g>
<!-- C&#45;&gt;Z -->
<g id="edge74" class="edge"><title>C&#45;&gt;Z</title>
<path fill="none" stroke="black" d="M1352.63,-733.631C1399.61,-727.625 1489.72,-713.935 1562,-684 1734.88,-612.401 1912,-637.119 1912,-450 1912,-450 1912,-450 1912,-162 1912,-94.8202 1417.46,-39.4744 1274.78,-23.0025"/>
<polygon fill="black" stroke="black" points="1275.08,-19.5138 1264.74,-21.8393 1274.28,-26.4672 1275.08,-19.5138"/>
</g>
<!-- C&#45;&gt;Z -->
<g id="edge76" class="edge"><title>C&#45;&gt;Z</title>
<path fill="none" stroke="black" d="M1352.77,-735.105C1400.82,-730.014 1501.05,-716.699 1580,-684 1752.88,-612.401 1930,-637.119 1930,-450 1930,-450 1930,-450 1930,-162 1930,-93.6698 1418.38,-37.5825 1274.76,-22.1906"/>
<polygon fill="black" stroke="black" points="1274.99,-18.6962 1264.68,-21.112 1274.25,-25.6564 1274.99,-18.6962"/>
</g>
<!-- C&#45;&gt;Z -->
<g id="edge78" class="edge"><title>C&#45;&gt;Z</title>
<path fill="none" stroke="black" d="M1352.88,-736.162C1402.87,-731.994 1512.82,-719.278 1598,-684 1770.88,-612.401 1948,-637.119 1948,-450 1948,-450 1948,-450 1948,-162 1948,-92.6729 1421.34,-35.9485 1275.21,-21.543"/>
<polygon fill="black" stroke="black" points="1275.26,-18.0314 1264.97,-20.5415 1274.58,-24.9981 1275.26,-18.0314"/>
</g>
<!-- C&#45;&gt;Z -->
<g id="edge80" class="edge"><title>C&#45;&gt;Z</title>
<path fill="none" stroke="black" d="M1353.16,-736.848C1407,-733.499 1525.48,-721.488 1616,-684 1788.88,-612.401 1966,-637.119 1966,-450 1966,-450 1966,-450 1966,-162 1966,-91.6823 1424.19,-34.33 1275.18,-20.9515"/>
<polygon fill="black" stroke="black" points="1275.41,-17.4585 1265.14,-20.0647 1274.8,-24.4313 1275.41,-17.4585"/>
</g>
<!-- C&#45;&gt;Z -->
<g id="edge82" class="edge"><title>C&#45;&gt;Z</title>
<path fill="none" stroke="black" d="M1353.27,-737.281C1413.28,-734.618 1539.04,-723.33 1634,-684 1806.88,-612.401 1984,-637.119 1984,-450 1984,-450 1984,-450 1984,-162 1984,-90.8378 1429.1,-32.9544 1275.55,-20.4886"/>
<polygon fill="black" stroke="black" points="1275.44,-16.9695 1265.2,-19.67 1274.89,-23.9477 1275.44,-16.9695"/>
</g>
<!-- E&#45;&gt;C -->
<g id="edge106" class="edge"><title>E&#45;&gt;C</title>
<path fill="none" stroke="black" d="M573.654,-806.998C690.405,-795.26 1152.59,-752.543 1288.52,-740.931"/>
<polygon fill="black" stroke="black" points="1289.17,-744.389 1298.84,-740.057 1288.58,-737.414 1289.17,-744.389"/>
</g>
<!-- E&#45;&gt;C -->
<g id="edge108" class="edge"><title>E&#45;&gt;C</title>
<path fill="none" stroke="black" d="M573.815,-807.522C690.381,-796.748 1153.26,-753.966 1288.63,-741.454"/>
<polygon fill="black" stroke="black" points="1289.26,-744.911 1298.9,-740.505 1288.62,-737.94 1289.26,-744.911"/>
</g>
<!-- E&#45;&gt;C -->
<g id="edge110" class="edge"><title>E&#45;&gt;C</title>
<path fill="none" stroke="black" d="M573.944,-807.961C691.236,-798.124 1153.1,-755.491 1288.69,-742.065"/>
<polygon fill="black" stroke="black" points="1289.37,-745.514 1298.97,-741.039 1288.68,-738.549 1289.37,-745.514"/>
</g>
<!-- E&#45;&gt;G -->
<g id="edge118" class="edge"><title>E&#45;&gt;G</title>
<path fill="none" stroke="black" d="M574.38,-809.49C698.356,-806.983 1207.73,-794.49 1362,-756 1395.87,-747.549 1483.83,-705.03 1531.02,-681.583"/>
<polygon fill="black" stroke="black" points="1532.77,-684.62 1540.16,-677.026 1529.65,-678.355 1532.77,-684.62"/>
</g>
<!-- E&#45;&gt;H -->
<g id="edge120" class="edge"><title>E&#45;&gt;H</title>
<path fill="none" stroke="black" d="M525.063,-798.953C494.158,-776.366 446,-722.268 446,-666 446,-666 446,-666 446,-522 446,-422.965 514.71,-411.993 599,-360 688.49,-304.799 1015.77,-253.133 1127.16,-238.264"/>
<polygon fill="black" stroke="black" points="1127.79,-241.711 1137.25,-236.941 1126.88,-234.771 1127.79,-241.711"/>
</g>
<!-- E&#45;&gt;L -->
<g id="edge130" class="edge"><title>E&#45;&gt;L</title>
<path fill="none" stroke="black" d="M573.21,-804.837C699.94,-780.666 1245.51,-674.191 1342,-540 1356.08,-520.42 1343.11,-494.559 1330.55,-475.584"/>
<polygon fill="black" stroke="black" points="1333.28,-473.381 1324.72,-467.14 1327.52,-477.358 1333.28,-473.381"/>
</g>
<!-- E&#45;&gt;N -->
<g id="edge132" class="edge"><title>E&#45;&gt;N</title>
<path fill="none" stroke="black" d="M520.015,-807.285C482.608,-802.116 415.096,-788.346 368,-756 325.775,-727 296,-717.225 296,-666 296,-666 296,-666 296,-450 296,-307.196 280.598,-230.794 394,-144 465.547,-89.24 564.524,-47.3763 616.436,-28.6949"/>
<polygon fill="black" stroke="black" points="617.897,-31.8912 626.169,-25.2707 615.574,-25.2879 617.897,-31.8912"/>
</g>
<!-- E&#45;&gt;N -->
<g id="edge134" class="edge"><title>E&#45;&gt;N</title>
<path fill="none" stroke="black" d="M520.692,-805.404C486.92,-799.083 428.246,-785.015 386,-756 343.775,-727 314,-717.225 314,-666 314,-666 314,-666 314,-450 314,-307.196 298.598,-230.794 412,-144 479.452,-92.3747 571.282,-52.2115 619.235,-32.1291"/>
<polygon fill="black" stroke="black" points="620.615,-35.3456 628.498,-28.2672 617.922,-28.8845 620.615,-35.3456"/>
</g>
<!-- E&#45;&gt;F -->
<g id="edge114" class="edge"><title>E&#45;&gt;F</title>
<path fill="none" stroke="black" d="M521.085,-804.493C467.807,-790.459 352,-748.493 352,-666 352,-666 352,-666 352,-234 352,-130.333 733.143,-98.992 855.669,-91.8106"/>
<polygon fill="black" stroke="black" points="855.921,-95.3021 865.708,-91.2431 855.526,-88.3132 855.921,-95.3021"/>
</g>
<!-- E&#45;&gt;F -->
<g id="edge116" class="edge"><title>E&#45;&gt;F</title>
<path fill="none" stroke="black" d="M522.378,-801.95C473.538,-785.768 370,-744.001 370,-666 370,-666 370,-666 370,-234 370,-132.411 736.017,-100.277 855.723,-92.272"/>
<polygon fill="black" stroke="black" points="856.12,-95.7536 865.871,-91.6118 855.665,-88.7684 856.12,-95.7536"/>
</g>
<!-- E&#45;&gt;K -->
<g id="edge124" class="edge"><title>E&#45;&gt;K</title>
<path fill="none" stroke="black" d="M530.865,-795.282C520,-769.221 520,-713.25 520,-666 520,-666 520,-666 520,-522 520,-370.986 760.103,-321.679 855.891,-309.424"/>
<polygon fill="black" stroke="black" points="856.527,-312.873 866.035,-308.199 855.687,-305.924 856.527,-312.873"/>
</g>
<!-- E&#45;&gt;K -->
<g id="edge126" class="edge"><title>E&#45;&gt;K</title>
<path fill="none" stroke="black" d="M541.234,-792.265C538,-765.087 538,-711.5 538,-666 538,-666 538,-666 538,-522 538,-375.208 764.863,-324.516 855.969,-310.541"/>
<polygon fill="black" stroke="black" points="856.744,-313.965 866.129,-309.05 855.727,-307.039 856.744,-313.965"/>
</g>
<!-- E&#45;&gt;K -->
<g id="edge128" class="edge"><title>E&#45;&gt;K</title>
<path fill="none" stroke="black" d="M552.766,-792.265C556,-765.087 556,-711.5 556,-666 556,-666 556,-666 556,-522 556,-379.61 769.46,-327.643 856.693,-311.899"/>
<polygon fill="black" stroke="black" points="857.434,-315.322 866.683,-310.154 856.23,-308.427 857.434,-315.322"/>
</g>
<!-- E&#45;&gt;I -->
<g id="edge122" class="edge"><title>E&#45;&gt;I</title>
<path fill="none" stroke="black" d="M569.923,-800.418C679.674,-757.231 1150.2,-580.753 1281.15,-533.619"/>
<polygon fill="black" stroke="black" points="1282.44,-536.872 1290.68,-530.203 1280.08,-530.282 1282.44,-536.872"/>
</g>
<!-- D -->
<g id="node56" class="node"><title>D</title>
<ellipse fill="none" stroke="black" cx="984" cy="-594" rx="27" ry="18"/>
<text text-anchor="middle" x="984" y="-589.4" font-family="Times,serif" font-size="14.00">D</text>
</g>
<!-- E&#45;&gt;D -->
<g id="edge112" class="edge"><title>E&#45;&gt;D</title>
<path fill="none" stroke="black" d="M563.79,-795.68C601.222,-764.448 695.369,-689.672 786,-648 839.753,-623.285 907.075,-607.913 947.75,-600.162"/>
<polygon fill="black" stroke="black" points="948.545,-603.574 957.74,-598.31 947.269,-596.691 948.545,-603.574"/>
</g>
<!-- G&#45;&gt;B -->
<g id="edge154" class="edge"><title>G&#45;&gt;B</title>
<path fill="none" stroke="black" d="M1553.03,-683.276C1530.6,-714.263 1472.67,-780.483 1416,-828 1398.24,-842.887 1376.27,-857.317 1358.31,-867.509"/>
<polygon fill="black" stroke="black" points="1356.42,-864.557 1349.33,-872.433 1359.78,-870.695 1356.42,-864.557"/>
</g>
<!-- G&#45;&gt;H -->
<g id="edge158" class="edge"><title>G&#45;&gt;H</title>
<path fill="none" stroke="black" d="M1576.88,-650.943C1585.77,-640.849 1596.23,-626.745 1601,-612 1615.99,-565.627 1608.01,-545.215 1582,-504 1533.56,-427.255 1283.1,-294.626 1194.83,-249.529"/>
<polygon fill="black" stroke="black" points="1196.34,-246.372 1185.84,-244.954 1193.17,-252.61 1196.34,-246.372"/>
</g>
<!-- G&#45;&gt;D -->
<g id="edge156" class="edge"><title>G&#45;&gt;D</title>
<path fill="none" stroke="black" d="M1534.99,-662.998C1440.91,-651.884 1128.51,-613 1020.79,-599.039"/>
<polygon fill="black" stroke="black" points="1021.09,-595.549 1010.73,-597.729 1020.19,-602.49 1021.09,-595.549"/>
</g>
<!-- H&#45;&gt;E -->
<g id="edge168" class="edge"><title>H&#45;&gt;E</title>
<path fill="none" stroke="black" d="M1137.4,-237.818C1040.5,-252.074 707.407,-304.234 617,-360 532.71,-411.993 464,-422.965 464,-522 464,-666 464,-666 464,-666 464,-714.378 499.599,-761.152 524.169,-787.673"/>
<polygon fill="black" stroke="black" points="521.951,-790.418 531.388,-795.233 527.013,-785.584 521.951,-790.418"/>
</g>
<!-- H&#45;&gt;E -->
<g id="edge170" class="edge"><title>H&#45;&gt;E</title>
<path fill="none" stroke="black" d="M1137.99,-238.859C1043.35,-254.469 723.333,-305.513 635,-360 550.71,-411.993 482,-422.965 482,-522 482,-666 482,-666 482,-666 482,-712.347 514.672,-757.221 534.574,-784.227"/>
<polygon fill="black" stroke="black" points="531.792,-786.353 540.529,-792.346 537.437,-782.213 531.792,-786.353"/>
</g>
<!-- H&#45;&gt;J -->
<g id="edge172" class="edge"><title>H&#45;&gt;J</title>
<path fill="none" stroke="black" d="M1137.15,-231.043C1050.98,-220.282 785.012,-183.056 687.158,-168.196"/>
<polygon fill="black" stroke="black" points="687.562,-164.717 677.147,-166.663 686.502,-171.637 687.562,-164.717"/>
</g>
<!-- H&#45;&gt;L -->
<g id="edge174" class="edge"><title>H&#45;&gt;L</title>
<path fill="none" stroke="black" d="M1180.32,-248.715C1191.35,-259.107 1205.88,-273.68 1217,-288 1251.67,-332.668 1284,-390.452 1301.47,-423.558"/>
<polygon fill="black" stroke="black" points="1298.47,-425.364 1306.2,-432.604 1304.67,-422.12 1298.47,-425.364"/>
</g>
<!-- H&#45;&gt;L -->
<g id="edge176" class="edge"><title>H&#45;&gt;L</title>
<path fill="none" stroke="black" d="M1187.47,-243.129C1203.53,-253.395 1221.71,-270.878 1235,-288 1269.25,-332.123 1301.21,-389.045 1313.56,-422.336"/>
<polygon fill="black" stroke="black" points="1310.26,-423.494 1316.75,-431.868 1316.9,-421.275 1310.26,-423.494"/>
</g>
<!-- H&#45;&gt;M -->
<g id="edge178" class="edge"><title>H&#45;&gt;M</title>
<path fill="none" stroke="black" d="M1169.32,-251.802C1176.69,-276.495 1190.09,-321.377 1198.77,-350.424"/>
<polygon fill="black" stroke="black" points="1195.51,-351.762 1201.73,-360.343 1202.22,-349.759 1195.51,-351.762"/>
</g>
<!-- H&#45;&gt;M -->
<g id="edge180" class="edge"><title>H&#45;&gt;M</title>
<path fill="none" stroke="black" d="M1177.63,-249.956C1190.2,-274.053 1204.64,-320.072 1209.57,-349.877"/>
<polygon fill="black" stroke="black" points="1206.13,-350.606 1210.93,-360.053 1213.07,-349.677 1206.13,-350.606"/>
</g>
<!-- H&#45;&gt;N -->
<g id="edge182" class="edge"><title>H&#45;&gt;N</title>
<path fill="none" stroke="black" d="M1147.86,-219.362C1117.23,-186.805 1048.66,-108.407 972,-72 921.644,-48.0836 761.113,-29.6597 687.858,-21.9479"/>
<polygon fill="black" stroke="black" points="688.016,-18.4454 677.706,-20.8884 687.289,-25.4076 688.016,-18.4454"/>
</g>
<!-- H&#45;&gt;Z -->
<g id="edge184" class="edge"><title>H&#45;&gt;Z</title>
<path fill="none" stroke="black" d="M1148.26,-219.029C1148.64,-208.278 1155.06,-193.382 1160,-180 1178.23,-130.658 1195.82,-71.4185 1213.94,-40.0348"/>
<polygon fill="black" stroke="black" points="1216.9,-41.9048 1219.33,-31.5915 1211,-38.1409 1216.9,-41.9048"/>
</g>
<!-- H&#45;&gt;Z -->
<g id="edge186" class="edge"><title>H&#45;&gt;Z</title>
<path fill="none" stroke="black" d="M1164.4,-215.685C1167.91,-205.314 1173.55,-192.044 1178,-180 1195.42,-132.829 1212.27,-76.6114 1224.23,-44.3351"/>
<polygon fill="black" stroke="black" points="1227.6,-45.3283 1227.94,-34.7389 1221.07,-42.8055 1227.6,-45.3283"/>
</g>
<!-- H&#45;&gt;Z -->
<g id="edge188" class="edge"><title>H&#45;&gt;Z</title>
<path fill="none" stroke="black" d="M1178.64,-218.565C1184.82,-207.852 1191.13,-193.191 1196,-180 1213.07,-133.779 1229.59,-78.8715 1236.5,-46.3135"/>
<polygon fill="black" stroke="black" points="1239.99,-46.6564 1238.46,-36.1737 1233.12,-45.3271 1239.99,-46.6564"/>
</g>
<!-- H&#45;&gt;Z -->
<g id="edge190" class="edge"><title>H&#45;&gt;Z</title>
<path fill="none" stroke="black" d="M1187.55,-224.937C1200.02,-214.296 1208.07,-196.059 1214,-180 1231.35,-133.033 1248.12,-77.098 1249.57,-44.7556"/>
<polygon fill="black" stroke="black" points="1253.07,-44.6971 1249.45,-34.7389 1246.07,-44.7793 1253.07,-44.6971"/>
</g>
<!-- H&#45;&gt;D -->
<g id="edge160" class="edge"><title>H&#45;&gt;D</title>
<path fill="none" stroke="black" d="M1150.13,-249.815C1112.76,-305.671 1017.94,-494.176 990.365,-565.941"/>
<polygon fill="black" stroke="black" points="986.961,-565.059 986.8,-575.653 993.532,-567.471 986.961,-565.059"/>
</g>
<!-- H&#45;&gt;D -->
<g id="edge162" class="edge"><title>H&#45;&gt;D</title>
<path fill="none" stroke="black" d="M1155.41,-251.189C1126.43,-309.146 1032.17,-497.658 997.209,-567.583"/>
<polygon fill="black" stroke="black" points="994.023,-566.127 992.682,-576.636 1000.28,-569.257 994.023,-566.127"/>
</g>
<!-- H&#45;&gt;D -->
<g id="edge164" class="edge"><title>H&#45;&gt;D</title>
<path fill="none" stroke="black" d="M1161.23,-252.27C1140.6,-311.944 1046.27,-501.193 1003.62,-569.288"/>
<polygon fill="black" stroke="black" points="1000.43,-567.766 997.952,-578.067 1006.31,-571.561 1000.43,-567.766"/>
</g>
<!-- H&#45;&gt;D -->
<g id="edge166" class="edge"><title>H&#45;&gt;D</title>
<path fill="none" stroke="black" d="M1167.6,-252.219C1156.05,-312.75 1059.26,-507.003 1008.55,-572.331"/>
<polygon fill="black" stroke="black" points="1005.63,-570.371 1002.01,-580.327 1011.05,-574.802 1005.63,-570.371"/>
</g>
<!-- J&#45;&gt;B -->
<g id="edge202" class="edge"><title>J&#45;&gt;B</title>
<path fill="none" stroke="black" d="M628.04,-171.842C543.194,-204.637 258,-319.72 258,-522 258,-738 258,-738 258,-738 258,-845.156 1099.63,-875.244 1288.78,-880.911"/>
<polygon fill="black" stroke="black" points="1288.7,-884.41 1298.8,-881.206 1288.91,-877.413 1288.7,-884.41"/>
</g>
<!-- J&#45;&gt;C -->
<g id="edge204" class="edge"><title>J&#45;&gt;C</title>
<path fill="none" stroke="black" d="M651.837,-180.041C655.234,-237.16 671.751,-417.479 748,-540 799.961,-623.493 826.197,-643.919 916,-684 982.466,-713.665 1200.84,-730.213 1288.8,-735.814"/>
<polygon fill="black" stroke="black" points="1288.66,-739.312 1298.86,-736.443 1289.1,-732.326 1288.66,-739.312"/>
</g>
<!-- J&#45;&gt;C -->
<g id="edge206" class="edge"><title>J&#45;&gt;C</title>
<path fill="none" stroke="black" d="M659.275,-179.245C673.08,-235.466 689.393,-416.904 766,-540 817.961,-623.493 844.197,-643.919 934,-684 998.117,-712.617 1203.59,-729.027 1288.97,-735.179"/>
<polygon fill="black" stroke="black" points="1288.78,-738.674 1299.01,-735.895 1289.28,-731.692 1288.78,-738.674"/>
</g>
<!-- J&#45;&gt;E -->
<g id="edge214" class="edge"><title>J&#45;&gt;E</title>
<path fill="none" stroke="black" d="M636.885,-177.608C585.023,-235.609 408,-439.619 408,-522 408,-666 408,-666 408,-666 408,-727.571 474.596,-772.897 515.596,-794.969"/>
<polygon fill="black" stroke="black" points="514.182,-798.179 524.667,-799.7 517.419,-791.972 514.182,-798.179"/>
</g>
<!-- J&#45;&gt;G -->
<g id="edge220" class="edge"><title>J&#45;&gt;G</title>
<path fill="none" stroke="black" d="M678.175,-162.542C758.711,-164.601 1002.8,-174.116 1200,-216 1311.77,-239.739 1688,-263.736 1688,-378 1688,-522 1688,-522 1688,-522 1688,-580.032 1629.32,-625.919 1592.06,-649.212"/>
<polygon fill="black" stroke="black" points="1589.83,-646.467 1583.09,-654.641 1593.46,-652.455 1589.83,-646.467"/>
</g>
<!-- J&#45;&gt;H -->
<g id="edge222" class="edge"><title>J&#45;&gt;H</title>
<path fill="none" stroke="black" d="M677.65,-165.74C762.984,-177.717 1029.6,-215.138 1127.49,-228.876"/>
<polygon fill="black" stroke="black" points="1127.11,-232.357 1137.5,-230.281 1128.08,-225.425 1127.11,-232.357"/>
</g>
<!-- J&#45;&gt;H -->
<g id="edge224" class="edge"><title>J&#45;&gt;H</title>
<path fill="none" stroke="black" d="M677.861,-164.958C764.021,-175.719 1029.92,-212.935 1127.81,-227.798"/>
<polygon fill="black" stroke="black" points="1127.4,-231.277 1137.82,-229.331 1128.46,-224.358 1127.4,-231.277"/>
</g>
<!-- J&#45;&gt;N -->
<g id="edge226" class="edge"><title>J&#45;&gt;N</title>
<path fill="none" stroke="black" d="M641.891,-144.916C636.675,-120.233 636.106,-74.3507 640.183,-45.0406"/>
<polygon fill="black" stroke="black" points="643.654,-45.5099 641.896,-35.0619 636.755,-44.3259 643.654,-45.5099"/>
</g>
<!-- J&#45;&gt;F -->
<g id="edge216" class="edge"><title>J&#45;&gt;F</title>
<path fill="none" stroke="black" d="M675.156,-153.458C718.186,-139.797 807.713,-113.149 857.648,-99.1271"/>
<polygon fill="black" stroke="black" points="858.683,-102.472 867.377,-96.4172 856.804,-95.7289 858.683,-102.472"/>
</g>
<!-- J&#45;&gt;F -->
<g id="edge218" class="edge"><title>J&#45;&gt;F</title>
<path fill="none" stroke="black" d="M676.523,-155.61C720.55,-143.465 810.218,-116.893 859.289,-101.551"/>
<polygon fill="black" stroke="black" points="860.626,-104.799 869.113,-98.4566 858.523,-98.1224 860.626,-104.799"/>
</g>
<!-- J&#45;&gt;Z -->
<g id="edge228" class="edge"><title>J&#45;&gt;Z</title>
<path fill="none" stroke="black" d="M665.692,-146.448C686.485,-125.545 726.702,-89.0469 769,-72 847.402,-40.4021 1103.94,-24.666 1200.65,-19.7445"/>
<polygon fill="black" stroke="black" points="1201.03,-23.2304 1210.84,-19.2364 1200.68,-16.2391 1201.03,-23.2304"/>
</g>
<!-- J&#45;&gt;D -->
<g id="edge208" class="edge"><title>J&#45;&gt;D</title>
<path fill="none" stroke="black" d="M657.195,-179.894C684.224,-236.576 789.947,-415.741 907,-540 920.566,-554.401 938.095,-568.229 953.17,-578.287"/>
<polygon fill="black" stroke="black" points="951.403,-581.311 961.714,-583.748 955.174,-575.413 951.403,-581.311"/>
</g>
<!-- J&#45;&gt;D -->
<g id="edge210" class="edge"><title>J&#45;&gt;D</title>
<path fill="none" stroke="black" d="M663.538,-177.949C699.744,-232.363 806.573,-414.282 925,-540 936.063,-551.744 949.76,-563.106 961.299,-572.354"/>
<polygon fill="black" stroke="black" points="959.248,-575.195 969.25,-578.689 963.61,-569.72 959.248,-575.195"/>
</g>
<!-- J&#45;&gt;D -->
<g id="edge212" class="edge"><title>J&#45;&gt;D</title>
<path fill="none" stroke="black" d="M668.875,-175.751C714.772,-227.287 822.924,-412.532 943,-540 952.772,-550.373 964.599,-560.449 974.271,-569.032"/>
<polygon fill="black" stroke="black" points="972.041,-571.734 981.797,-575.865 976.746,-566.551 972.041,-571.734"/>
</g>
<!-- L&#45;&gt;C -->
<g id="edge256" class="edge"><title>L&#45;&gt;C</title>
<path fill="none" stroke="black" d="M1341.53,-454.17C1368.16,-460.871 1404.53,-476.192 1420,-504 1460.85,-577.443 1394.02,-676.218 1352.72,-718.003"/>
<polygon fill="black" stroke="black" points="1350.11,-715.661 1345.34,-725.123 1354.97,-720.7 1350.11,-715.661"/>
</g>
<!-- L&#45;&gt;E -->
<g id="edge266" class="edge"><title>L&#45;&gt;E</title>
<path fill="none" stroke="black" d="M1333.83,-463.201C1353.25,-481.668 1377.49,-515.68 1360,-540 1264.5,-672.81 729.122,-778.472 583.486,-804.065"/>
<polygon fill="black" stroke="black" points="582.551,-800.675 573.298,-805.835 583.749,-807.572 582.551,-800.675"/>
</g>
<!-- L&#45;&gt;G -->
<g id="edge268" class="edge"><title>L&#45;&gt;G</title>
<path fill="none" stroke="black" d="M1341.49,-453.934C1389.77,-461.616 1489.42,-479.982 1514,-504 1550.41,-539.579 1559.51,-601.37 1561.6,-637.482"/>
<polygon fill="black" stroke="black" points="1558.12,-637.967 1562.05,-647.807 1565.11,-637.666 1558.12,-637.967"/>
</g>
<!-- L&#45;&gt;H -->
<g id="edge270" class="edge"><title>L&#45;&gt;H</title>
<path fill="none" stroke="black" d="M1297.96,-435.862C1274.96,-406.818 1238.5,-338.895 1199,-288 1191.43,-278.249 1182.28,-268.381 1174.61,-259.795"/>
<polygon fill="black" stroke="black" points="1177.03,-257.241 1167.82,-252.002 1171.75,-261.84 1177.03,-257.241"/>
</g>
<!-- L&#45;&gt;M -->
<g id="edge278" class="edge"><title>L&#45;&gt;M</title>
<path fill="none" stroke="black" d="M1293.33,-438.908C1275.37,-428.147 1250.12,-411.562 1231.47,-398.415"/>
<polygon fill="black" stroke="black" points="1233.33,-395.441 1223.16,-392.463 1229.25,-401.132 1233.33,-395.441"/>
</g>
<!-- L&#45;&gt;I -->
<g id="edge272" class="edge"><title>L&#45;&gt;I</title>
<path fill="none" stroke="black" d="M1315,-468.413C1315,-476.059 1315,-485.108 1315,-493.573"/>
<polygon fill="black" stroke="black" points="1311.5,-493.831 1315,-503.831 1318.5,-493.831 1311.5,-493.831"/>
</g>
<!-- L&#45;&gt;I -->
<g id="edge274" class="edge"><title>L&#45;&gt;I</title>
<path fill="none" stroke="black" d="M1326.62,-466.773C1328.48,-475.375 1328.96,-486.051 1328.05,-495.716"/>
<polygon fill="black" stroke="black" points="1324.58,-495.246 1326.52,-505.662 1331.5,-496.311 1324.58,-495.246"/>
</g>
<!-- L&#45;&gt;I -->
<g id="edge276" class="edge"><title>L&#45;&gt;I</title>
<path fill="none" stroke="black" d="M1335.83,-462.148C1342.36,-472.693 1343.71,-488.203 1339.86,-500.792"/>
<polygon fill="black" stroke="black" points="1336.58,-499.555 1335.67,-510.111 1342.96,-502.43 1336.58,-499.555"/>
</g>
<!-- L&#45;&gt;D -->
<g id="edge258" class="edge"><title>L&#45;&gt;D</title>
<path fill="none" stroke="black" d="M1290.02,-456.892C1249.92,-473.118 1179.7,-514.291 1117,-540 1068.97,-559.694 1051.91,-557.264 1004.11,-573.878"/>
<polygon fill="black" stroke="black" points="1002.7,-570.666 994.47,-577.338 1005.06,-577.254 1002.7,-570.666"/>
</g>
<!-- L&#45;&gt;D -->
<g id="edge260" class="edge"><title>L&#45;&gt;D</title>
<path fill="none" stroke="black" d="M1292.67,-460.324C1258.91,-478.353 1193.67,-515.945 1135,-540 1083.87,-560.963 1067.84,-556.859 1016,-576 1014.94,-576.39 1013.87,-576.794 1012.8,-577.209"/>
<polygon fill="black" stroke="black" points="1011.08,-574.129 1003.15,-581.156 1013.73,-580.608 1011.08,-574.129"/>
</g>
<!-- L&#45;&gt;D -->
<g id="edge262" class="edge"><title>L&#45;&gt;D</title>
<path fill="none" stroke="black" d="M1297.92,-463.986C1268.65,-483.072 1207.94,-517.472 1153,-540 1101.87,-560.963 1085.84,-556.859 1034,-576 1028.9,-577.885 1023.52,-580.085 1018.21,-582.287"/>
<polygon fill="black" stroke="black" points="1016.71,-579.119 1008.82,-586.184 1019.4,-585.585 1016.71,-579.119"/>
</g>
<!-- L&#45;&gt;D -->
<g id="edge264" class="edge"><title>L&#45;&gt;D</title>
<path fill="none" stroke="black" d="M1306.13,-467.013C1280.5,-486.54 1223.15,-518.618 1171,-540 1119.87,-560.963 1103.84,-556.859 1052,-576 1042.54,-579.492 1032.15,-584.066 1020.68,-587.729"/>
<polygon fill="black" stroke="black" points="1019.45,-584.44 1010.79,-590.548 1021.37,-591.172 1019.45,-584.44"/>
</g>
<!-- M&#45;&gt;B -->
<g id="edge280" class="edge"><title>M&#45;&gt;B</title>
<path fill="none" stroke="black" d="M1180,-380.12C1078.28,-388.836 724,-426.076 724,-522 724,-594 724,-594 724,-594 724,-720.481 1161.9,-840.708 1290.74,-873.346"/>
<polygon fill="black" stroke="black" points="1289.97,-876.759 1300.52,-875.804 1291.67,-869.971 1289.97,-876.759"/>
</g>
<!-- M&#45;&gt;G -->
<g id="edge286" class="edge"><title>M&#45;&gt;G</title>
<path fill="none" stroke="black" d="M1233.91,-381.497C1294.93,-389.918 1441.17,-417.525 1522,-504 1555.81,-540.173 1553.76,-602.276 1554.71,-638.17"/>
<polygon fill="black" stroke="black" points="1551.23,-638.568 1555.15,-648.41 1558.22,-638.27 1551.23,-638.568"/>
</g>
<!-- M&#45;&gt;G -->
<g id="edge288" class="edge"><title>M&#45;&gt;G</title>
<path fill="none" stroke="black" d="M1233.82,-380.278C1296.7,-387.068 1454.74,-412.783 1540,-504 1573.72,-540.079 1571.77,-601.953 1567.05,-637.889"/>
<polygon fill="black" stroke="black" points="1563.54,-637.748 1565.54,-648.152 1570.46,-638.77 1563.54,-637.748"/>
</g>
<!-- M&#45;&gt;G -->
<g id="edge290" class="edge"><title>M&#45;&gt;G</title>
<path fill="none" stroke="black" d="M1233.92,-379.479C1300.47,-384.906 1468.94,-408.719 1558,-504 1592.58,-540.989 1589.65,-605.092 1578.6,-640.559"/>
<polygon fill="black" stroke="black" points="1575.24,-639.578 1575.12,-650.172 1581.82,-641.96 1575.24,-639.578"/>
</g>
<!-- M&#45;&gt;H -->
<g id="edge292" class="edge"><title>M&#45;&gt;H</title>
<path fill="none" stroke="black" d="M1193.51,-362.315C1180.91,-338.295 1166.38,-292.041 1161.43,-262.123"/>
<polygon fill="black" stroke="black" points="1164.86,-261.359 1160.07,-251.911 1157.92,-262.287 1164.86,-261.359"/>
</g>
<!-- M&#45;&gt;L -->
<g id="edge296" class="edge"><title>M&#45;&gt;L</title>
<path fill="none" stroke="black" d="M1228.56,-389.021C1246.47,-399.749 1271.69,-416.312 1290.37,-429.471"/>
<polygon fill="black" stroke="black" points="1288.52,-432.455 1298.69,-435.43 1292.6,-426.763 1288.52,-432.455"/>
</g>
<!-- M&#45;&gt;F -->
<g id="edge284" class="edge"><title>M&#45;&gt;F</title>
<path fill="none" stroke="black" d="M1212.88,-360.229C1222.66,-326.916 1237.69,-254.936 1200,-216 1157.41,-172.001 1122.65,-205.556 1067,-180 1041.12,-168.116 1038.88,-157.857 1014,-144 985.259,-127.991 950.867,-113.016 926.108,-102.916"/>
<polygon fill="black" stroke="black" points="927.376,-99.6534 916.793,-99.1602 924.759,-106.146 927.376,-99.6534"/>
</g>
<!-- M&#45;&gt;K -->
<g id="edge294" class="edge"><title>M&#45;&gt;K</title>
<path fill="none" stroke="black" d="M1180.66,-373.55C1123.58,-362.224 991.152,-332.074 927.569,-316.161"/>
<polygon fill="black" stroke="black" points="928.168,-312.702 917.614,-313.642 926.45,-319.488 928.168,-312.702"/>
</g>
<!-- M&#45;&gt;D -->
<g id="edge282" class="edge"><title>M&#45;&gt;D</title>
<path fill="none" stroke="black" d="M1204.09,-396.141C1176.44,-437.638 1071.59,-538.918 1015.33,-578.13"/>
<polygon fill="black" stroke="black" points="1013.11,-575.405 1006.74,-583.872 1017,-581.226 1013.11,-575.405"/>
</g>
<!-- N&#45;&gt;B -->
<g id="edge298" class="edge"><title>N&#45;&gt;B</title>
<path fill="none" stroke="black" d="M623.97,-20.2291C521.768,-28.9176 166,-64.9617 166,-162 166,-738 166,-738 166,-738 166,-824.277 254.805,-805.146 338,-828 431.276,-853.624 1119.87,-875.617 1288.75,-880.831"/>
<polygon fill="black" stroke="black" points="1288.79,-884.333 1298.89,-881.143 1289,-877.336 1288.79,-884.333"/>
</g>
<!-- N&#45;&gt;B -->
<g id="edge300" class="edge"><title>N&#45;&gt;B</title>
<path fill="none" stroke="black" d="M624.26,-20.8729C523.58,-30.609 184,-67.195 184,-162 184,-738 184,-738 184,-738 184,-824.277 272.805,-805.146 356,-828 448.151,-853.315 1121.34,-875.086 1288.91,-880.635"/>
<polygon fill="black" stroke="black" points="1288.87,-884.135 1298.98,-880.969 1289.1,-877.139 1288.87,-884.135"/>
</g>
<!-- N&#45;&gt;C -->
<g id="edge302" class="edge"><title>N&#45;&gt;C</title>
<path fill="none" stroke="black" d="M678.203,-19.5079C741.097,-23.5666 893.883,-36.8901 929,-72 1098.83,-241.794 806.544,-417.934 948,-612 989.455,-668.873 1203.82,-714.939 1290.03,-731.447"/>
<polygon fill="black" stroke="black" points="1289.41,-734.892 1299.89,-733.313 1290.71,-728.014 1289.41,-734.892"/>
</g>
<!-- N&#45;&gt;H -->
<g id="edge308" class="edge"><title>N&#45;&gt;H</title>
<path fill="none" stroke="black" d="M677.834,-20.0709C748.151,-26.2647 934.938,-45.8489 990,-72 1059.19,-104.862 1121.8,-171.937 1149.55,-208.63"/>
<polygon fill="black" stroke="black" points="1146.81,-210.82 1155.53,-216.836 1152.47,-206.694 1146.81,-210.82"/>
</g>
<!-- N&#45;&gt;J -->
<g id="edge310" class="edge"><title>N&#45;&gt;J</title>
<path fill="none" stroke="black" d="M651,-36.0896C651,-60.5727 651,-104.517 651,-133.471"/>
<polygon fill="black" stroke="black" points="647.5,-133.762 651,-143.762 654.5,-133.762 647.5,-133.762"/>
</g>
<!-- N&#45;&gt;J -->
<g id="edge312" class="edge"><title>N&#45;&gt;J</title>
<path fill="none" stroke="black" d="M660.104,-35.0619C665.323,-59.732 665.895,-105.613 661.82,-134.933"/>
<polygon fill="black" stroke="black" points="658.349,-134.468 660.109,-144.916 665.248,-135.651 658.349,-134.468"/>
</g>
<!-- N&#45;&gt;F -->
<g id="edge304" class="edge"><title>N&#45;&gt;F</title>
<path fill="none" stroke="black" d="M676.623,-24.4172C720.602,-36.5522 809.915,-63.0183 859.009,-78.3618"/>
<polygon fill="black" stroke="black" points="858.254,-81.7935 868.844,-81.4579 860.356,-75.1165 858.254,-81.7935"/>
</g>
<!-- N&#45;&gt;F -->
<g id="edge306" class="edge"><title>N&#45;&gt;F</title>
<path fill="none" stroke="black" d="M677.153,-22.6311C723.079,-33.1838 813.067,-59.3711 861.814,-75.8135"/>
<polygon fill="black" stroke="black" points="860.679,-79.1244 871.273,-79.0647 862.954,-72.5044 860.679,-79.1244"/>
</g>
<!-- F&#45;&gt;B -->
<g id="edge136" class="edge"><title>F&#45;&gt;B</title>
<path fill="none" stroke="black" d="M919.394,-94.5454C1066.58,-120.495 1783.56,-254.998 1900,-432 2032.38,-633.231 1749.39,-728.567 1530,-828 1474.17,-853.305 1404.17,-868.6 1362.38,-876.16"/>
<polygon fill="black" stroke="black" points="1361.63,-872.737 1352.39,-877.916 1362.84,-879.632 1361.63,-872.737"/>
</g>
<!-- F&#45;&gt;B -->
<g id="edge138" class="edge"><title>F&#45;&gt;B</title>
<path fill="none" stroke="black" d="M919.877,-93.8135C1070.47,-117.862 1800.42,-253.263 1918,-432 2050.38,-633.231 1767.39,-728.567 1548,-828 1487.01,-855.641 1409.13,-871.338 1363.01,-878.057"/>
<polygon fill="black" stroke="black" points="1362.26,-874.627 1352.83,-879.465 1363.22,-881.561 1362.26,-874.627"/>
</g>
<!-- F&#45;&gt;H -->
<g id="edge140" class="edge"><title>F&#45;&gt;H</title>
<path fill="none" stroke="black" d="M911.178,-103.779C936.588,-122.623 984.608,-156.745 1029,-180 1062.06,-197.318 1101.96,-212.644 1129.77,-222.502"/>
<polygon fill="black" stroke="black" points="1128.84,-225.885 1139.44,-225.88 1131.15,-219.277 1128.84,-225.885"/>
</g>
<!-- F&#45;&gt;N -->
<g id="edge146" class="edge"><title>F&#45;&gt;N</title>
<path fill="none" stroke="black" d="M866.443,-85.2759C820.44,-74.6735 730.966,-48.632 682.33,-32.2348"/>
<polygon fill="black" stroke="black" points="683.196,-28.8317 672.601,-28.8913 680.921,-35.4516 683.196,-28.8317"/>
</g>
<!-- F&#45;&gt;N -->
<g id="edge148" class="edge"><title>F&#45;&gt;N</title>
<path fill="none" stroke="black" d="M867.477,-83.6105C823.45,-71.4651 733.782,-44.8925 684.711,-29.5507"/>
<polygon fill="black" stroke="black" points="685.477,-26.1224 674.887,-26.4566 683.374,-32.7991 685.477,-26.1224"/>
</g>
<!-- F&#45;&gt;K -->
<g id="edge142" class="edge"><title>F&#45;&gt;K</title>
<path fill="none" stroke="black" d="M885.229,-107.394C878.152,-144.911 877.632,-233.682 883.667,-278.743"/>
<polygon fill="black" stroke="black" points="880.221,-279.361 885.245,-288.689 887.135,-278.264 880.221,-279.361"/>
</g>
<!-- F&#45;&gt;K -->
<g id="edge144" class="edge"><title>F&#45;&gt;K</title>
<path fill="none" stroke="black" d="M893,-108.145C893,-145.795 893,-232.641 893,-277.71"/>
<polygon fill="black" stroke="black" points="889.5,-277.955 893,-287.955 896.5,-277.956 889.5,-277.955"/>
</g>
<!-- F&#45;&gt;Z -->
<g id="edge150" class="edge"><title>F&#45;&gt;Z</title>
<path fill="none" stroke="black" d="M918.435,-83.8613C978.965,-70.4698 1131.05,-38.7183 1201.41,-24.7701"/>
<polygon fill="black" stroke="black" points="1202.45,-28.1343 1211.58,-22.7677 1201.09,-21.2662 1202.45,-28.1343"/>
</g>
<!-- F&#45;&gt;Z -->
<g id="edge152" class="edge"><title>F&#45;&gt;Z</title>
<path fill="none" stroke="black" d="M919.196,-85.2759C980.568,-73.2835 1133,-41.5387 1202.55,-26.3398"/>
<polygon fill="black" stroke="black" points="1203.57,-29.6998 1212.58,-24.1348 1202.06,-22.863 1203.57,-29.6998"/>
</g>
<!-- K&#45;&gt;E -->
<g id="edge232" class="edge"><title>K&#45;&gt;E</title>
<path fill="none" stroke="black" d="M867.332,-311.627C789.96,-327.04 574,-378.779 574,-522 574,-666 574,-666 574,-666 574,-708.082 574,-757.082 566.324,-785.708"/>
<polygon fill="black" stroke="black" points="562.975,-784.688 563.135,-795.282 569.616,-786.901 562.975,-784.688"/>
</g>
<!-- K&#45;&gt;H -->
<g id="edge240" class="edge"><title>K&#45;&gt;H</title>
<path fill="none" stroke="black" d="M918.495,-299.226C967.243,-286.275 1073.73,-257.983 1129.06,-243.283"/>
<polygon fill="black" stroke="black" points="1130,-246.654 1138.77,-240.703 1128.21,-239.888 1130,-246.654"/>
</g>
<!-- K&#45;&gt;L -->
<g id="edge242" class="edge"><title>K&#45;&gt;L</title>
<path fill="none" stroke="black" d="M916.511,-315.225C987.226,-340.8 1197.28,-412.5 1280.57,-439.52"/>
<polygon fill="black" stroke="black" points="1279.71,-442.923 1290.31,-442.661 1281.86,-436.261 1279.71,-442.923"/>
</g>
<!-- K&#45;&gt;L -->
<g id="edge244" class="edge"><title>K&#45;&gt;L</title>
<path fill="none" stroke="black" d="M917.814,-313.378C990.177,-336.554 1200.1,-408.091 1281.93,-437.341"/>
<polygon fill="black" stroke="black" points="1280.89,-440.685 1291.48,-440.773 1283.26,-434.097 1280.89,-440.685"/>
</g>
<!-- K&#45;&gt;M -->
<g id="edge246" class="edge"><title>K&#45;&gt;M</title>
<path fill="none" stroke="black" d="M918.611,-311.872C974.447,-324.676 1107.25,-355.128 1171.28,-369.809"/>
<polygon fill="black" stroke="black" points="1170.77,-373.284 1181.3,-372.108 1172.34,-366.461 1170.77,-373.284"/>
</g>
<!-- K&#45;&gt;M -->
<g id="edge248" class="edge"><title>K&#45;&gt;M</title>
<path fill="none" stroke="black" d="M919.283,-310.438C976.337,-321.756 1108.85,-351.926 1172.45,-367.843"/>
<polygon fill="black" stroke="black" points="1171.85,-371.302 1182.4,-370.363 1173.57,-364.516 1171.85,-371.302"/>
</g>
<!-- K&#45;&gt;F -->
<g id="edge234" class="edge"><title>K&#45;&gt;F</title>
<path fill="none" stroke="black" d="M878.33,-290.811C863.076,-254.018 861.975,-159.834 875.029,-114.761"/>
<polygon fill="black" stroke="black" points="878.384,-115.767 878.337,-105.172 871.767,-113.484 878.384,-115.767"/>
</g>
<!-- K&#45;&gt;F -->
<g id="edge236" class="edge"><title>K&#45;&gt;F</title>
<path fill="none" stroke="black" d="M900.755,-288.689C907.842,-251.246 908.372,-162.481 902.346,-117.356"/>
<polygon fill="black" stroke="black" points="905.79,-116.724 900.771,-107.394 898.876,-117.818 905.79,-116.724"/>
</g>
<!-- K&#45;&gt;F -->
<g id="edge238" class="edge"><title>K&#45;&gt;F</title>
<path fill="none" stroke="black" d="M907.67,-290.811C922.924,-254.018 924.025,-159.834 910.971,-114.761"/>
<polygon fill="black" stroke="black" points="914.233,-113.484 907.663,-105.172 907.616,-115.767 914.233,-113.484"/>
</g>
<!-- K&#45;&gt;Z -->
<g id="edge250" class="edge"><title>K&#45;&gt;Z</title>
<path fill="none" stroke="black" d="M875.905,-291.793C842.314,-251.784 782.679,-136.866 839,-72 862.088,-45.4095 1105.59,-25.9891 1200.83,-19.9656"/>
<polygon fill="black" stroke="black" points="1201.13,-23.4538 1210.9,-19.3449 1200.7,-16.467 1201.13,-23.4538"/>
</g>
<!-- K&#45;&gt;Z -->
<g id="edge252" class="edge"><title>K&#45;&gt;Z</title>
<path fill="none" stroke="black" d="M882.525,-289.106C857.8,-246.858 801.892,-135.47 857,-72 879.409,-46.1912 1109.47,-27.1372 1200.86,-20.5314"/>
<polygon fill="black" stroke="black" points="1201.32,-24.0078 1211.05,-19.8057 1200.82,-17.0255 1201.32,-24.0078"/>
</g>
<!-- K&#45;&gt;Z -->
<g id="edge254" class="edge"><title>K&#45;&gt;Z</title>
<path fill="none" stroke="black" d="M890.881,-287.847C874.717,-244.684 820.431,-134.849 875,-72 896.649,-47.0657 1112.11,-28.4362 1200.82,-21.2456"/>
<polygon fill="black" stroke="black" points="1201.3,-24.7182 1210.98,-20.4257 1200.73,-17.7409 1201.3,-24.7182"/>
</g>
<!-- K&#45;&gt;D -->
<g id="edge230" class="edge"><title>K&#45;&gt;D</title>
<path fill="none" stroke="black" d="M897.443,-323.779C901.926,-364.337 906.273,-465.909 943,-540 948.474,-551.043 956.923,-561.432 964.845,-570.091"/>
<polygon fill="black" stroke="black" points="962.46,-572.662 971.872,-577.526 967.547,-567.854 962.46,-572.662"/>
</g>
<!-- I&#45;&gt;C -->
<g id="edge192" class="edge"><title>I&#45;&gt;C</title>
<path fill="none" stroke="black" d="M1319.84,-539.841C1325.22,-577.318 1329.92,-664.483 1329.29,-709.682"/>
<polygon fill="black" stroke="black" points="1325.79,-709.868 1329.03,-719.955 1332.79,-710.05 1325.79,-709.868"/>
</g>
<!-- I&#45;&gt;E -->
<g id="edge194" class="edge"><title>I&#45;&gt;E</title>
<path fill="none" stroke="black" d="M1291.9,-531.653C1181.77,-574.977 711.348,-751.414 580.697,-798.438"/>
<polygon fill="black" stroke="black" points="579.423,-795.176 571.19,-801.845 581.785,-801.766 579.423,-795.176"/>
</g>
<!-- I&#45;&gt;H -->
<g id="edge196" class="edge"><title>I&#45;&gt;H</title>
<path fill="none" stroke="black" d="M1293.51,-510.782C1260.27,-492.087 1197.45,-451.103 1171,-396 1150.33,-352.948 1153.98,-295.817 1158.8,-262.17"/>
<polygon fill="black" stroke="black" points="1162.28,-262.54 1160.37,-252.119 1155.37,-261.457 1162.28,-262.54"/>
</g>
<!-- I&#45;&gt;L -->
<g id="edge198" class="edge"><title>I&#45;&gt;L</title>
<path fill="none" stroke="black" d="M1294.33,-510.111C1287.71,-499.647 1286.28,-484.155 1290.04,-471.519"/>
<polygon fill="black" stroke="black" points="1293.34,-472.71 1294.17,-462.148 1286.94,-469.887 1293.34,-472.71"/>
</g>
<!-- I&#45;&gt;L -->
<g id="edge200" class="edge"><title>I&#45;&gt;L</title>
<path fill="none" stroke="black" d="M1303.48,-505.662C1301.56,-497.131 1301.04,-486.474 1301.9,-476.775"/>
<polygon fill="black" stroke="black" points="1305.38,-477.178 1303.38,-466.773 1298.46,-476.153 1305.38,-477.178"/>
</g>
<!-- D&#45;&gt;G -->
<g id="edge84" class="edge"><title>D&#45;&gt;G</title>
<path fill="none" stroke="black" d="M1010.64,-596.958C1104.28,-608.016 1417.47,-646.998 1525.28,-660.97"/>
<polygon fill="black" stroke="black" points="1524.98,-664.461 1535.35,-662.281 1525.88,-657.519 1524.98,-664.461"/>
</g>
<!-- D&#45;&gt;H -->
<g id="edge86" class="edge"><title>D&#45;&gt;H</title>
<path fill="none" stroke="black" d="M980.333,-576.148C991.568,-515.997 1088.77,-320.86 1139.56,-255.533"/>
<polygon fill="black" stroke="black" points="1142.47,-257.496 1146.1,-247.543 1137.06,-253.059 1142.47,-257.496"/>
</g>
<!-- D&#45;&gt;J -->
<g id="edge94" class="edge"><title>D&#45;&gt;J</title>
<path fill="none" stroke="black" d="M958.043,-588.23C934.536,-579.047 907.916,-560.081 889,-540 778.152,-422.328 677.465,-255.417 652.951,-189.914"/>
<polygon fill="black" stroke="black" points="656.214,-188.637 649.681,-180.295 649.586,-190.89 656.214,-188.637"/>
</g>
<!-- D&#45;&gt;M -->
<g id="edge98" class="edge"><title>D&#45;&gt;M</title>
<path fill="none" stroke="black" d="M986.846,-575.955C1014.43,-534.474 1119.59,-432.893 1175.85,-393.743"/>
<polygon fill="black" stroke="black" points="1178.06,-396.475 1184.44,-388.015 1174.18,-390.651 1178.06,-396.475"/>
</g>
<!-- D&#45;&gt;M -->
<g id="edge100" class="edge"><title>D&#45;&gt;M</title>
<path fill="none" stroke="black" d="M993.812,-577.051C1027.14,-537.389 1128.85,-438.75 1179.23,-397.072"/>
<polygon fill="black" stroke="black" points="1181.58,-399.674 1187.15,-390.661 1177.18,-394.234 1181.58,-399.674"/>
</g>
<!-- D&#45;&gt;M -->
<g id="edge102" class="edge"><title>D&#45;&gt;M</title>
<path fill="none" stroke="black" d="M999.328,-579.153C1037.84,-541.852 1138.81,-444.047 1184.26,-400.028"/>
<polygon fill="black" stroke="black" points="1186.82,-402.422 1191.57,-392.95 1181.95,-397.394 1186.82,-402.422"/>
</g>
<!-- D&#45;&gt;M -->
<g id="edge104" class="edge"><title>D&#45;&gt;M</title>
<path fill="none" stroke="black" d="M1003.7,-581.453C1047.76,-546.713 1149.59,-448.794 1190.52,-402.645"/>
<polygon fill="black" stroke="black" points="1193.32,-404.769 1197.21,-394.918 1188.02,-400.188 1193.32,-404.769"/>
</g>
<!-- D&#45;&gt;K -->
<g id="edge96" class="edge"><title>D&#45;&gt;K</title>
<path fill="none" stroke="black" d="M962.57,-582.724C949.215,-572.759 933.512,-557.171 925,-540 890.999,-471.408 884.749,-379.263 887.314,-333.782"/>
<polygon fill="black" stroke="black" points="890.806,-334.02 888.091,-323.779 883.827,-333.478 890.806,-334.02"/>
</g>
<!-- D&#45;&gt;I -->
<g id="edge88" class="edge"><title>D&#45;&gt;I</title>
<path fill="none" stroke="black" d="M998.907,-578.749C1001.58,-577.738 1004.32,-576.804 1007,-576 1098.12,-548.674 1124.7,-558.574 1218,-540 1237.53,-536.112 1259.62,-531.02 1278.5,-527.244"/>
<polygon fill="black" stroke="black" points="1279.19,-530.678 1288.34,-525.351 1277.86,-523.804 1279.19,-530.678"/>
</g>
<!-- D&#45;&gt;I -->
<g id="edge90" class="edge"><title>D&#45;&gt;I</title>
<path fill="none" stroke="black" d="M1005.76,-583.27C1011.87,-580.582 1018.6,-577.92 1025,-576 1116.12,-548.674 1142.7,-558.574 1236,-540 1250.29,-537.155 1265.95,-533.665 1279.54,-530.518"/>
<polygon fill="black" stroke="black" points="1280.52,-533.882 1289.46,-528.194 1278.93,-527.066 1280.52,-533.882"/>
</g>
<!-- D&#45;&gt;I -->
<g id="edge92" class="edge"><title>D&#45;&gt;I</title>
<path fill="none" stroke="black" d="M1009.79,-588.357C1020.97,-584.362 1032.43,-579.171 1043,-576 1134.12,-548.674 1160.7,-558.574 1254,-540 1263.22,-538.164 1273.01,-536.06 1282.13,-533.952"/>
<polygon fill="black" stroke="black" points="1283.15,-537.307 1292.07,-531.586 1281.53,-530.498 1283.15,-537.307"/>
</g>
</g>
</svg>
