<?xml version="1.0" encoding="UTF-8" standalone="no"?>
<!DOCTYPE svg PUBLIC "-//W3C//DTD SVG 1.1//EN"
 "http://www.w3.org/Graphics/SVG/1.1/DTD/svg11.dtd">
<!-- Generated by graphviz version 2.26.3 (20100126.1600)
 -->
<!-- Title: G Pages: 1 -->
<svg width="323pt" height="332pt"
 viewBox="0.00 0.00 322.71 332.00" xmlns="http://www.w3.org/2000/svg" xmlns:xlink="http://www.w3.org/1999/xlink">
<g id="graph1" class="graph" transform="scale(1 1) rotate(0) translate(4 328)">
<title>G</title>
<polygon fill="white" stroke="white" points="-4,5 -4,-328 319.707,-328 319.707,5 -4,5"/>
<!-- A -->
<g id="node1" class="node"><title>A</title>
<ellipse fill="none" stroke="black" cx="150.707" cy="-306" rx="27" ry="18"/>
<text text-anchor="middle" x="150.707" y="-301.4" font-family="Times,serif" font-size="14.00">A</text>
</g>
<!-- B -->
<g id="node2" class="node"><title>B</title>
<ellipse fill="none" stroke="black" cx="150.707" cy="-234" rx="27" ry="18"/>
<text text-anchor="middle" x="150.707" y="-229.4" font-family="Times,serif" font-size="14.00">B</text>
</g>
<!-- A&#45;&gt;B -->
<g id="edge2" class="edge"><title>A&#45;&gt;B</title>
<path fill="none" stroke="#000000" d="M124.786,-300.822C99.7724,-289.151 96.7598,-260.586 115.749,-244.846"/>
<polygon fill="#000000" stroke="#000000" points="117.895,-247.63 124.474,-239.325 114.152,-241.715 117.895,-247.63"/>
</g>
<!-- A&#45;&gt;B -->
<g id="edge22" class="edge"><title>A&#45;&gt;B</title>
<path fill="none" stroke="#2aaaaa" d="M144.791,-288.202C143.987,-280.181 143.764,-270.523 144.123,-261.596"/>
<polygon fill="#2aaaaa" stroke="#2aaaaa" points="147.617,-261.81 144.812,-251.593 140.633,-261.329 147.617,-261.81"/>
</g>
<!-- A&#45;&gt;B -->
<g id="edge28" class="edge"><title>A&#45;&gt;B</title>
<path fill="none" stroke="#38e38e" d="M156.623,-288.202C157.427,-280.181 157.65,-270.523 157.291,-261.596"/>
<polygon fill="#38e38e" stroke="#38e38e" points="160.781,-261.329 156.602,-251.593 153.797,-261.81 160.781,-261.329"/>
</g>
<!-- A&#45;&gt;B -->
<g id="edge34" class="edge"><title>A&#45;&gt;B</title>
<path fill="none" stroke="#471c71" d="M167.353,-291.43C170.997,-281.963 171.878,-269.389 169.996,-258.42"/>
<polygon fill="#471c71" stroke="#471c71" points="173.319,-257.299 167.345,-248.549 166.558,-259.114 173.319,-257.299"/>
</g>
<!-- A&#45;&gt;B -->
<g id="edge42" class="edge"><title>A&#45;&gt;B</title>
<path fill="none" stroke="#555555" d="M174.073,-296.881C185.389,-285.582 187.456,-266.076 180.276,-251.777"/>
<polygon fill="#555555" stroke="#555555" points="182.874,-249.392 174.225,-243.272 177.17,-253.45 182.874,-249.392"/>
</g>
<!-- A&#45;&gt;B -->
<g id="edge48" class="edge"><title>A&#45;&gt;B</title>
<path fill="none" stroke="#638e38" d="M176.628,-300.822C201.642,-289.151 204.654,-260.586 185.665,-244.846"/>
<polygon fill="#638e38" stroke="#638e38" points="187.262,-241.715 176.94,-239.325 183.519,-247.63 187.262,-241.715"/>
</g>
<!-- A&#45;&gt;B -->
<g id="edge8" class="edge"><title>A&#45;&gt;B</title>
<path fill="none" stroke="#e38e03" d="M127.341,-296.881C116.025,-285.582 113.958,-266.076 121.139,-251.777"/>
<polygon fill="#e38e03" stroke="#e38e03" points="124.244,-253.45 127.189,-243.272 118.54,-249.392 124.244,-253.45"/>
</g>
<!-- A&#45;&gt;B -->
<g id="edge16" class="edge"><title>A&#45;&gt;B</title>
<path fill="none" stroke="#1c71c7" d="M134.061,-291.43C130.417,-281.963 129.537,-269.389 131.419,-258.42"/>
<polygon fill="#1c71c7" stroke="#1c71c7" points="134.856,-259.114 134.069,-248.549 128.096,-257.299 134.856,-259.114"/>
</g>
<!-- H -->
<g id="node4" class="node"><title>H</title>
<ellipse fill="none" stroke="black" cx="87.7071" cy="-90" rx="27" ry="18"/>
<text text-anchor="middle" x="87.7071" y="-85.4" font-family="Times,serif" font-size="14.00">H</text>
</g>
<!-- A&#45;&gt;H -->
<g id="edge68" class="edge"><title>A&#45;&gt;H</title>
<path fill="none" stroke="#9c71c7" d="M123.902,-302.944C93.6101,-297.722 46.1581,-284.318 22.7071,-252 -5.56098,-213.044 -5.57477,-187.65 14.7071,-144 22.747,-126.697 39.3641,-112.943 54.8636,-103.646"/>
<polygon fill="#9c71c7" stroke="#9c71c7" points="56.7413,-106.607 63.787,-98.6945 53.3448,-100.486 56.7413,-106.607"/>
</g>
<!-- A&#45;&gt;H -->
<g id="edge72" class="edge"><title>A&#45;&gt;H</title>
<path fill="none" stroke="#aaaaaa" stroke-width="4" d="M124.889,-300.324C99.1149,-293.715 60.9603,-279.911 40.7071,-252 12.439,-213.044 12.4252,-187.65 32.7071,-144 39.0532,-130.342 50.7434,-118.895 61.817,-110.107"/>
<polygon fill="#aaaaaa" stroke="#aaaaaa" points="64.1718,-112.715 70.0661,-103.911 59.9682,-107.118 64.1718,-112.715"/>
</g>
<!-- J -->
<g id="node9" class="node"><title>J</title>
<ellipse fill="none" stroke="black" cx="187.707" cy="-162" rx="27" ry="18"/>
<text text-anchor="middle" x="187.707" y="-157.4" font-family="Times,serif" font-size="14.00">J</text>
</g>
<!-- A&#45;&gt;J -->
<g id="edge76" class="edge"><title>A&#45;&gt;J</title>
<path fill="none" stroke="#b8e38e" d="M142.107,-288.861C146.731,-278.858 155.518,-265.565 159.707,-252 166.337,-230.533 165.835,-204.79 168.905,-186.345"/>
<polygon fill="#b8e38e" stroke="#b8e38e" points="172.358,-186.948 171.205,-176.416 165.538,-185.368 172.358,-186.948"/>
</g>
<!-- A&#45;&gt;J -->
<g id="edge82" class="edge"><title>A&#45;&gt;J</title>
<path fill="none" stroke="#c71c71" d="M158.285,-288.382C165.009,-278.436 173.584,-265.349 177.707,-252 183.884,-232 183.87,-208.288 183.743,-190.225"/>
<polygon fill="#c71c71" stroke="#c71c71" points="187.242,-190.038 183.702,-180.053 180.242,-190.067 187.242,-190.038"/>
</g>
<!-- A&#45;&gt;J -->
<g id="edge88" class="edge"><title>A&#45;&gt;J</title>
<path fill="none" stroke="#d55555" d="M169.999,-292.938C180.127,-282.651 190.919,-267.502 195.707,-252 202.029,-231.532 201.866,-207.175 198.97,-188.965"/>
<polygon fill="#d55555" stroke="#d55555" points="202.375,-188.145 196.976,-179.029 195.512,-189.522 202.375,-188.145"/>
</g>
<!-- A&#45;&gt;J -->
<g id="edge92" class="edge"><title>A&#45;&gt;J</title>
<path fill="none" stroke="#e38e38" d="M175.866,-298.861C193.202,-289.156 207.888,-270.84 213.707,-252 220.704,-229.346 219.758,-201.93 212.205,-183.355"/>
<polygon fill="#e38e38" stroke="#e38e38" points="215.209,-181.544 207.5,-174.275 208.993,-184.764 215.209,-181.544"/>
</g>
<!-- C -->
<g id="node32" class="node"><title>C</title>
<ellipse fill="none" stroke="black" cx="287.707" cy="-90" rx="27" ry="18"/>
<text text-anchor="middle" x="287.707" y="-85.4" font-family="Times,serif" font-size="14.00">C</text>
</g>
<!-- A&#45;&gt;C -->
<g id="edge54" class="edge"><title>A&#45;&gt;C</title>
<path fill="none" stroke="#71c71c" stroke-width="4" d="M170.104,-293.11C185.781,-283.798 207,-269.752 220.707,-252 252.308,-211.072 267.692,-151.428 277.123,-117.089"/>
<polygon fill="#71c71c" stroke="#71c71c" points="280.54,-117.867 279.87,-107.293 273.8,-115.977 280.54,-117.867"/>
</g>
<!-- A&#45;&gt;C -->
<g id="edge58" class="edge"><title>A&#45;&gt;C</title>
<path fill="none" stroke="#800000" d="M175.278,-297.956C195.329,-289.071 222.361,-273.171 238.707,-252 269.925,-211.568 285.316,-152.872 289.413,-118.35"/>
<polygon fill="#800000" stroke="#800000" points="292.93,-118.321 290.352,-108.045 285.959,-117.686 292.93,-118.321"/>
</g>
<!-- G -->
<g id="node37" class="node"><title>G</title>
<ellipse fill="none" stroke="black" cx="59.7071" cy="-162" rx="27" ry="18"/>
<text text-anchor="middle" x="59.7071" y="-157.4" font-family="Times,serif" font-size="14.00">G</text>
</g>
<!-- A&#45;&gt;G -->
<g id="edge62" class="edge"><title>A&#45;&gt;G</title>
<path fill="none" stroke="#8e38e3" d="M124.458,-301.071C98.5928,-294.666 60.4508,-280.71 42.7071,-252 30.8185,-232.764 37.3845,-207.126 45.5703,-188.135"/>
<polygon fill="#8e38e3" stroke="#8e38e3" points="48.8338,-189.419 49.9095,-178.879 42.4957,-186.448 48.8338,-189.419"/>
</g>
<!-- M -->
<g id="node55" class="node"><title>M</title>
<ellipse fill="none" stroke="black" cx="78.7071" cy="-234" rx="27" ry="18"/>
<text text-anchor="middle" x="78.7071" y="-229.4" font-family="Times,serif" font-size="14.00">M</text>
</g>
<!-- A&#45;&gt;M -->
<g id="edge96" class="edge"><title>A&#45;&gt;M</title>
<path fill="none" stroke="#f1c71c" d="M135.438,-290.731C125.51,-280.803 112.392,-267.685 101.271,-256.564"/>
<polygon fill="#f1c71c" stroke="#f1c71c" points="103.5,-253.844 93.9544,-249.247 98.5506,-258.793 103.5,-253.844"/>
</g>
<!-- B&#45;&gt;H -->
<g id="edge4" class="edge"><title>B&#45;&gt;H</title>
<path fill="none" stroke="#000000" d="M138.986,-217.481C125.707,-193.163 105.37,-147.417 94.4277,-117.85"/>
<polygon fill="#000000" stroke="#000000" points="97.6202,-116.381 90.976,-108.128 91.0236,-118.723 97.6202,-116.381"/>
</g>
<!-- B&#45;&gt;H -->
<g id="edge30" class="edge"><title>B&#45;&gt;H</title>
<path fill="none" stroke="#38e38e" d="M147.499,-216.053C138.987,-190.72 118.916,-144.346 104.141,-115.46"/>
<polygon fill="#38e38e" stroke="#38e38e" points="107.119,-113.603 99.3579,-106.39 100.927,-116.869 107.119,-113.603"/>
</g>
<!-- B&#45;&gt;J -->
<g id="edge24" class="edge"><title>B&#45;&gt;J</title>
<path fill="none" stroke="#2aaaaa" d="M130.818,-221.459C127.732,-208.44 138.037,-188.172 154.367,-174.989"/>
<polygon fill="#2aaaaa" stroke="#2aaaaa" points="156.59,-177.708 162.835,-169.15 152.616,-171.946 156.59,-177.708"/>
</g>
<!-- B&#45;&gt;J -->
<g id="edge36" class="edge"><title>B&#45;&gt;J</title>
<path fill="none" stroke="#471c71" d="M164.414,-218.377C169.788,-209.878 175.614,-199.119 180.257,-189.284"/>
<polygon fill="#471c71" stroke="#471c71" points="183.576,-190.434 184.445,-179.874 177.181,-187.587 183.576,-190.434"/>
</g>
<!-- B&#45;&gt;J -->
<g id="edge44" class="edge"><title>B&#45;&gt;J</title>
<path fill="none" stroke="#555555" d="M171.996,-222.432C181.045,-213.393 189.128,-200.463 193.554,-188.881"/>
<polygon fill="#555555" stroke="#555555" points="196.943,-189.764 196.435,-179.181 190.233,-187.771 196.943,-189.764"/>
</g>
<!-- B&#45;&gt;J -->
<g id="edge50" class="edge"><title>B&#45;&gt;J</title>
<path fill="none" stroke="#638e38" d="M175.607,-226.833C192.432,-217.083 205.089,-199.188 207.661,-184.666"/>
<polygon fill="#638e38" stroke="#638e38" points="211.159,-184.374 207.564,-174.408 204.159,-184.441 211.159,-184.374"/>
</g>
<!-- B&#45;&gt;J -->
<g id="edge10" class="edge"><title>B&#45;&gt;J</title>
<path fill="none" stroke="#e38e03" d="M141.956,-216.937C144.076,-206.095 151.115,-192.05 159.95,-180.875"/>
<polygon fill="#e38e03" stroke="#e38e03" points="162.627,-183.131 166.656,-173.332 157.396,-178.48 162.627,-183.131"/>
</g>
<!-- B&#45;&gt;J -->
<g id="edge18" class="edge"><title>B&#45;&gt;J</title>
<path fill="none" stroke="#1c71c7" d="M154.091,-215.831C157.772,-206.992 163.137,-196.233 168.589,-186.665"/>
<polygon fill="#1c71c7" stroke="#1c71c7" points="171.667,-188.337 173.79,-177.957 165.657,-184.747 171.667,-188.337"/>
</g>
<!-- Z -->
<g id="node6" class="node"><title>Z</title>
<ellipse fill="none" stroke="black" cx="137.707" cy="-18" rx="27" ry="18"/>
<text text-anchor="middle" x="137.707" y="-13.4" font-family="Times,serif" font-size="14.00">Z</text>
</g>
<!-- H&#45;&gt;Z -->
<g id="edge32" class="edge"><title>H&#45;&gt;Z</title>
<path fill="none" stroke="#38e38e" d="M61.6794,-84.8219C38.9468,-71.8692 61.6365,-38.1075 101.536,-24.1631"/>
<polygon fill="#38e38e" stroke="#38e38e" points="102.582,-27.5035 111.159,-21.2845 100.576,-20.7971 102.582,-27.5035"/>
</g>
<!-- H&#45;&gt;Z -->
<g id="edge40" class="edge"><title>H&#45;&gt;Z</title>
<path fill="none" stroke="#471c71" d="M88.4194,-71.8314C93.527,-61.6067 102.285,-48.8146 111.352,-38.2662"/>
<polygon fill="#471c71" stroke="#471c71" points="114.1,-40.4479 118.29,-30.7168 108.946,-35.7111 114.1,-40.4479"/>
</g>
<!-- H&#45;&gt;Z -->
<g id="edge6" class="edge"><title>H&#45;&gt;Z</title>
<path fill="none" stroke="#000000" d="M65.4673,-79.6842C60.0827,-65.7709 77.4166,-41.1781 102.384,-27.6277"/>
<polygon fill="#000000" stroke="#000000" points="103.953,-30.7576 111.509,-23.3309 100.971,-24.4246 103.953,-30.7576"/>
</g>
<!-- H&#45;&gt;Z -->
<g id="edge66" class="edge"><title>H&#45;&gt;Z</title>
<path fill="none" stroke="#8e38e3" d="M99.0529,-73.6621C105.293,-64.6768 113.169,-53.3343 120.182,-43.2362"/>
<polygon fill="#8e38e3" stroke="#8e38e3" points="123.23,-44.983 126.059,-34.7729 117.48,-40.9902 123.23,-44.983"/>
</g>
<!-- H&#45;&gt;Z -->
<g id="edge70" class="edge"><title>H&#45;&gt;Z</title>
<path fill="none" stroke="#9c71c7" d="M107.278,-77.1278C116.074,-68.2165 125.369,-56.0263 132.057,-45.0291"/>
<polygon fill="#9c71c7" stroke="#9c71c7" points="135.183,-46.6091 136.994,-36.1701 129.069,-43.2016 135.183,-46.6091"/>
</g>
<!-- H&#45;&gt;Z -->
<g id="edge74" class="edge"><title>H&#45;&gt;Z</title>
<path fill="none" stroke="#aaaaaa" stroke-width="4" d="M111.857,-81.4579C126.025,-72.256 139.119,-57.1612 145.702,-44.0022"/>
<polygon fill="#aaaaaa" stroke="#aaaaaa" points="149.055,-45.0362 149.378,-34.4463 142.521,-42.5234 149.055,-45.0362"/>
</g>
<!-- H&#45;&gt;Z -->
<g id="edge86" class="edge"><title>H&#45;&gt;Z</title>
<path fill="none" stroke="#c71c71" d="M113.813,-84.7057C137.759,-75.1411 156.964,-54.5082 160.387,-38.7053"/>
<polygon fill="#c71c71" stroke="#c71c71" points="163.865,-38.1174 159.933,-28.2794 156.872,-38.4224 163.865,-38.1174"/>
</g>
<!-- H&#45;&gt;Z -->
<g id="edge102" class="edge"><title>H&#45;&gt;Z</title>
<path fill="none" stroke="#f1c71c" d="M114.618,-86.6239C153.78,-76.6846 180.019,-47.1683 170.986,-30.2599"/>
<polygon fill="#f1c71c" stroke="#f1c71c" points="173.234,-27.5647 163.62,-23.1131 168.36,-32.5887 173.234,-27.5647"/>
</g>
<!-- H&#45;&gt;Z -->
<g id="edge14" class="edge"><title>H&#45;&gt;Z</title>
<path fill="none" stroke="#e38e03" d="M76.0096,-73.6621C79.0569,-61.2695 91.0751,-44.3927 105.502,-32.4812"/>
<polygon fill="#e38e03" stroke="#e38e03" points="107.741,-35.1791 113.723,-26.4345 103.594,-29.5401 107.741,-35.1791"/>
</g>
<!-- J&#45;&gt;H -->
<g id="edge38" class="edge"><title>J&#45;&gt;H</title>
<path fill="none" stroke="#471c71" d="M164.644,-152.29C146.951,-142.288 123.752,-126.332 107.059,-113.074"/>
<polygon fill="#471c71" stroke="#471c71" points="108.933,-110.083 98.9869,-106.432 104.485,-115.489 108.933,-110.083"/>
</g>
<!-- J&#45;&gt;H -->
<g id="edge84" class="edge"><title>J&#45;&gt;H</title>
<path fill="none" stroke="#c71c71" d="M176.115,-145.301C161.841,-133.108 138.945,-116.72 119.672,-104.955"/>
<polygon fill="#c71c71" stroke="#c71c71" points="121.229,-101.81 110.837,-99.7477 117.675,-107.84 121.229,-101.81"/>
</g>
<!-- J&#45;&gt;H -->
<g id="edge12" class="edge"><title>J&#45;&gt;H</title>
<path fill="none" stroke="#e38e03" d="M168.898,-148.457C153.577,-137.426 131.751,-121.711 114.586,-109.353"/>
<polygon fill="#e38e03" stroke="#e38e03" points="116.255,-106.241 106.094,-103.239 112.164,-111.922 116.255,-106.241"/>
</g>
<!-- J&#45;&gt;Z -->
<g id="edge26" class="edge"><title>J&#45;&gt;Z</title>
<path fill="none" stroke="#2aaaaa" d="M165.596,-151.644C140.435,-129.031 119.012,-74.7057 120.094,-42.713"/>
<polygon fill="#2aaaaa" stroke="#2aaaaa" points="123.614,-42.7872 121.445,-32.4167 116.673,-41.876 123.614,-42.7872"/>
</g>
<!-- J&#45;&gt;Z -->
<g id="edge46" class="edge"><title>J&#45;&gt;Z</title>
<path fill="none" stroke="#555555" d="M177.349,-145.2C166.254,-120.777 150.11,-75.1776 141.879,-45.7283"/>
<polygon fill="#555555" stroke="#555555" points="145.259,-44.8194 139.319,-36.0464 138.492,-46.6089 145.259,-44.8194"/>
</g>
<!-- J&#45;&gt;Z -->
<g id="edge52" class="edge"><title>J&#45;&gt;Z</title>
<path fill="none" stroke="#638e38" d="M186.048,-143.762C179.825,-118.578 164.227,-73.0066 152.148,-44.1864"/>
<polygon fill="#638e38" stroke="#638e38" points="155.242,-42.5253 148.043,-34.7519 148.823,-45.318 155.242,-42.5253"/>
</g>
<!-- J&#45;&gt;Z -->
<g id="edge90" class="edge"><title>J&#45;&gt;Z</title>
<path fill="none" stroke="#d55555" d="M195.429,-144.63C194.531,-118.576 177.928,-69.3675 160.746,-40.5654"/>
<polygon fill="#d55555" stroke="#d55555" points="163.553,-38.461 155.166,-31.9863 157.685,-42.2776 163.553,-38.461"/>
</g>
<!-- J&#45;&gt;Z -->
<g id="edge94" class="edge"><title>J&#45;&gt;Z</title>
<path fill="none" stroke="#e38e38" d="M204.015,-147.4C210.654,-120.865 191.811,-64.8137 167.182,-35.9749"/>
<polygon fill="#e38e38" stroke="#e38e38" points="169.553,-33.391 160.098,-28.6097 164.508,-38.2434 169.553,-33.391"/>
</g>
<!-- J&#45;&gt;Z -->
<g id="edge20" class="edge"><title>J&#45;&gt;Z</title>
<path fill="none" stroke="#1c71c7" d="M170.377,-148.193C153.395,-124.642 135.335,-76.2805 130.948,-45.5879"/>
<polygon fill="#1c71c7" stroke="#1c71c7" points="134.423,-45.161 129.991,-35.538 127.455,-45.8249 134.423,-45.161"/>
</g>
<!-- J&#45;&gt;C -->
<g id="edge78" class="edge"><title>J&#45;&gt;C</title>
<path fill="none" stroke="#b8e38e" d="M206.516,-148.457C221.837,-137.426 243.664,-121.711 260.828,-109.353"/>
<polygon fill="#b8e38e" stroke="#b8e38e" points="263.25,-111.922 269.32,-103.239 259.16,-106.241 263.25,-111.922"/>
</g>
<!-- C&#45;&gt;Z -->
<g id="edge56" class="edge"><title>C&#45;&gt;Z</title>
<path fill="none" stroke="#71c71c" stroke-width="4" d="M262.914,-82.2947C235.409,-71.4739 192.588,-51.4394 164.468,-36.5993"/>
<polygon fill="#71c71c" stroke="#71c71c" points="166.002,-33.4502 155.539,-31.7865 162.681,-39.6121 166.002,-33.4502"/>
</g>
<!-- C&#45;&gt;Z -->
<g id="edge60" class="edge"><title>C&#45;&gt;Z</title>
<path fill="none" stroke="#800000" d="M265.574,-79.3762C240.094,-67.1459 198.052,-46.9654 169.176,-33.105"/>
<polygon fill="#800000" stroke="#800000" points="170.461,-29.8395 159.931,-28.6674 167.432,-36.1501 170.461,-29.8395"/>
</g>
<!-- C&#45;&gt;Z -->
<g id="edge80" class="edge"><title>C&#45;&gt;Z</title>
<path fill="none" stroke="#b8e38e" d="M270.01,-76.2879C245.498,-62.7394 202.587,-42.2473 171.914,-29.5172"/>
<polygon fill="#b8e38e" stroke="#b8e38e" points="173.007,-26.1837 162.425,-25.6754 170.38,-32.6722 173.007,-26.1837"/>
</g>
<!-- G&#45;&gt;H -->
<g id="edge64" class="edge"><title>G&#45;&gt;H</title>
<path fill="none" stroke="#8e38e3" d="M60.8203,-143.831C63.3073,-135.298 67.14,-124.976 71.2309,-115.662"/>
<polygon fill="#8e38e3" stroke="#8e38e3" points="74.4782,-116.981 75.5419,-106.439 68.1367,-114.017 74.4782,-116.981"/>
</g>
<!-- G&#45;&gt;H -->
<g id="edge100" class="edge"><title>G&#45;&gt;H</title>
<path fill="none" stroke="#f1c71c" d="M71.8215,-145.662C75.9433,-137.435 80.1884,-127.233 83.4816,-117.818"/>
<polygon fill="#f1c71c" stroke="#f1c71c" points="86.8958,-118.634 86.6306,-108.042 80.233,-116.487 86.8958,-118.634"/>
</g>
<!-- M&#45;&gt;G -->
<g id="edge98" class="edge"><title>M&#45;&gt;G</title>
<path fill="none" stroke="#f1c71c" d="M74.0104,-216.202C71.9095,-208.241 69.3831,-198.667 67.042,-189.796"/>
<polygon fill="#f1c71c" stroke="#f1c71c" points="70.3513,-188.618 64.4155,-179.843 63.583,-190.405 70.3513,-188.618"/>
</g>
</g>
</svg>
