<?xml version="1.0" encoding="UTF-8" standalone="no"?>
<!DOCTYPE svg PUBLIC "-//W3C//DTD SVG 1.1//EN"
 "http://www.w3.org/Graphics/SVG/1.1/DTD/svg11.dtd">
<!-- Generated by graphviz version 2.26.3 (20100126.1600)
 -->
<!-- Title: G Pages: 1 -->
<svg width="657pt" height="620pt"
 viewBox="0.00 0.00 657.04 620.00" xmlns="http://www.w3.org/2000/svg" xmlns:xlink="http://www.w3.org/1999/xlink">
<g id="graph1" class="graph" transform="scale(1 1) rotate(0) translate(4 616)">
<title>G</title>
<polygon fill="white" stroke="white" points="-4,5 -4,-616 654.042,-616 654.042,5 -4,5"/>
<!-- A -->
<g id="node1" class="node"><title>A</title>
<ellipse fill="none" stroke="black" cx="358" cy="-594" rx="27" ry="18"/>
<text text-anchor="middle" x="358" y="-589.4" font-family="Times,serif" font-size="14.00">A</text>
</g>
<!-- B -->
<g id="node2" class="node"><title>B</title>
<ellipse fill="none" stroke="black" cx="267" cy="-522" rx="27" ry="18"/>
<text text-anchor="middle" x="267" y="-517.4" font-family="Times,serif" font-size="14.00">B</text>
</g>
<!-- A&#45;&gt;B -->
<g id="edge2" class="edge"><title>A&#45;&gt;B</title>
<path fill="none" stroke="black" d="M340.454,-580.118C326.858,-569.36 307.825,-554.301 292.54,-542.207"/>
<polygon fill="black" stroke="black" points="294.506,-539.3 284.492,-535.84 290.162,-544.789 294.506,-539.3"/>
</g>
<!-- C -->
<g id="node4" class="node"><title>C</title>
<ellipse fill="none" stroke="black" cx="358" cy="-450" rx="27" ry="18"/>
<text text-anchor="middle" x="358" y="-445.4" font-family="Times,serif" font-size="14.00">C</text>
</g>
<!-- A&#45;&gt;C -->
<g id="edge4" class="edge"><title>A&#45;&gt;C</title>
<path fill="none" stroke="black" d="M353.356,-576.053C350.873,-551.585 350.586,-507.49 352.494,-478.48"/>
<polygon fill="black" stroke="black" points="356.01,-478.424 353.333,-468.173 349.033,-477.856 356.01,-478.424"/>
</g>
<!-- A&#45;&gt;C -->
<g id="edge6" class="edge"><title>A&#45;&gt;C</title>
<path fill="none" stroke="black" d="M362.644,-576.053C365.127,-551.585 365.414,-507.49 363.506,-478.48"/>
<polygon fill="black" stroke="black" points="366.967,-477.856 362.667,-468.173 359.99,-478.424 366.967,-477.856"/>
</g>
<!-- F -->
<g id="node7" class="node"><title>F</title>
<ellipse fill="none" stroke="black" cx="358" cy="-378" rx="27" ry="18"/>
<text text-anchor="middle" x="358" y="-373.4" font-family="Times,serif" font-size="14.00">F</text>
</g>
<!-- A&#45;&gt;F -->
<g id="edge8" class="edge"><title>A&#45;&gt;F</title>
<path fill="none" stroke="black" d="M362.538,-575.791C374.488,-545.567 400.529,-483.289 385,-432 382.027,-422.18 376.614,-412.513 371.278,-404.134"/>
<polygon fill="black" stroke="black" points="374.071,-402.012 365.637,-395.6 368.231,-405.872 374.071,-402.012"/>
</g>
<!-- A&#45;&gt;F -->
<g id="edge10" class="edge"><title>A&#45;&gt;F</title>
<path fill="none" stroke="black" d="M372.13,-578.158C391.058,-548.924 418.947,-484.668 403,-432 399.363,-419.989 392.077,-408.209 384.264,-398.731"/>
<polygon fill="black" stroke="black" points="386.635,-396.133 377.341,-391.047 381.434,-400.819 386.635,-396.133"/>
</g>
<!-- B&#45;&gt;C -->
<g id="edge12" class="edge"><title>B&#45;&gt;C</title>
<path fill="none" stroke="black" d="M276.886,-504.937C289.399,-493.039 309.416,-477.282 326.789,-465.695"/>
<polygon fill="black" stroke="black" points="329.051,-468.403 335.58,-460.059 325.272,-462.51 329.051,-468.403"/>
</g>
<!-- B&#45;&gt;C -->
<g id="edge14" class="edge"><title>B&#45;&gt;C</title>
<path fill="none" stroke="black" d="M284.546,-508.118C298.142,-497.36 317.175,-482.301 332.46,-470.207"/>
<polygon fill="black" stroke="black" points="334.838,-472.789 340.508,-463.84 330.494,-467.3 334.838,-472.789"/>
</g>
<!-- B&#45;&gt;C -->
<g id="edge16" class="edge"><title>B&#45;&gt;C</title>
<path fill="none" stroke="black" d="M289.839,-511.684C305.827,-501.842 326.018,-486.654 340.691,-473.813"/>
<polygon fill="black" stroke="black" points="343.172,-476.288 348.213,-466.969 338.461,-471.11 343.172,-476.288"/>
</g>
<!-- B&#45;&gt;F -->
<g id="edge28" class="edge"><title>B&#45;&gt;F</title>
<path fill="none" stroke="black" d="M250.32,-507.551C250.269,-489.682 269.148,-458.391 286,-432 295.656,-416.878 307.229,-399.674 323.262,-388.83"/>
<polygon fill="black" stroke="black" points="325.131,-391.793 332.067,-383.784 321.65,-385.72 325.131,-391.793"/>
</g>
<!-- B&#45;&gt;F -->
<g id="edge30" class="edge"><title>B&#45;&gt;F</title>
<path fill="none" stroke="black" d="M264.145,-503.941C270.69,-485.677 288.232,-456.694 304,-432 311.635,-420.043 320.468,-406.786 329.615,-396.399"/>
<polygon fill="black" stroke="black" points="332.242,-398.717 336.656,-389.085 327.199,-393.862 332.242,-398.717"/>
</g>
<!-- D -->
<g id="node13" class="node"><title>D</title>
<ellipse fill="none" stroke="black" cx="313" cy="-162" rx="27" ry="18"/>
<text text-anchor="middle" x="313" y="-157.4" font-family="Times,serif" font-size="14.00">D</text>
</g>
<!-- B&#45;&gt;D -->
<g id="edge18" class="edge"><title>B&#45;&gt;D</title>
<path fill="none" stroke="black" d="M259.836,-504.148C253.547,-445.445 276.886,-258.176 298.403,-188.472"/>
<polygon fill="black" stroke="black" points="301.819,-189.294 301.698,-178.7 295.186,-187.058 301.819,-189.294"/>
</g>
<!-- B&#45;&gt;D -->
<g id="edge20" class="edge"><title>B&#45;&gt;D</title>
<path fill="none" stroke="black" d="M266.158,-503.653C269.15,-444.777 292.506,-260.348 305.628,-189.813"/>
<polygon fill="black" stroke="black" points="309.086,-190.368 307.564,-179.883 302.215,-189.029 309.086,-190.368"/>
</g>
<!-- E -->
<g id="node16" class="node"><title>E</title>
<ellipse fill="none" stroke="black" cx="249" cy="-90" rx="27" ry="18"/>
<text text-anchor="middle" x="249" y="-85.4" font-family="Times,serif" font-size="14.00">E</text>
</g>
<!-- B&#45;&gt;E -->
<g id="edge22" class="edge"><title>B&#45;&gt;E</title>
<path fill="none" stroke="black" d="M239.966,-520.283C168.281,-513.154 0,-481.259 0,-378 0,-378 0,-378 0,-234 0,-141.465 139.675,-104.369 211.928,-93.6043"/>
<polygon fill="black" stroke="black" points="212.647,-97.0383 222.075,-92.2036 211.69,-90.104 212.647,-97.0383"/>
</g>
<!-- B&#45;&gt;E -->
<g id="edge24" class="edge"><title>B&#45;&gt;E</title>
<path fill="none" stroke="black" d="M240.175,-519.459C174.927,-510.881 18,-477.715 18,-378 18,-378 18,-378 18,-234 18,-145.234 146.529,-107.483 212.341,-95.0526"/>
<polygon fill="black" stroke="black" points="213.105,-98.4716 222.335,-93.2711 211.876,-91.5803 213.105,-98.4716"/>
</g>
<!-- B&#45;&gt;E -->
<g id="edge26" class="edge"><title>B&#45;&gt;E</title>
<path fill="none" stroke="black" d="M240.501,-518.224C179.825,-507.93 36,-473.462 36,-378 36,-378 36,-378 36,-234 36,-149.608 152.174,-111.327 212.928,-97.0776"/>
<polygon fill="black" stroke="black" points="213.892,-100.448 222.882,-94.8415 212.358,-93.6184 213.892,-100.448"/>
</g>
<!-- C&#45;&gt;F -->
<g id="edge32" class="edge"><title>C&#45;&gt;F</title>
<path fill="none" stroke="black" d="M341.354,-435.43C337.71,-425.963 336.829,-413.389 338.711,-402.42"/>
<polygon fill="black" stroke="black" points="342.149,-403.114 341.362,-392.549 335.388,-401.299 342.149,-403.114"/>
</g>
<!-- C&#45;&gt;F -->
<g id="edge34" class="edge"><title>C&#45;&gt;F</title>
<path fill="none" stroke="black" d="M352.084,-432.202C351.28,-424.181 351.057,-414.523 351.416,-405.596"/>
<polygon fill="black" stroke="black" points="354.91,-405.81 352.105,-395.593 347.926,-405.329 354.91,-405.81"/>
</g>
<!-- F&#45;&gt;B -->
<g id="edge66" class="edge"><title>F&#45;&gt;B</title>
<path fill="none" stroke="black" d="M346.801,-394.433C339.608,-405.076 330.126,-419.275 322,-432 308.321,-453.423 293.306,-478.073 282.426,-496.153"/>
<polygon fill="black" stroke="black" points="279.287,-494.582 277.142,-504.957 285.289,-498.184 279.287,-494.582"/>
</g>
<!-- F&#45;&gt;B -->
<g id="edge68" class="edge"><title>F&#45;&gt;B</title>
<path fill="none" stroke="black" d="M361.571,-395.883C356.762,-406.345 347.762,-419.845 340,-432 324.873,-455.689 308.114,-483.326 293.237,-501.66"/>
<polygon fill="black" stroke="black" points="290.45,-499.532 286.548,-509.382 295.741,-504.116 290.45,-499.532"/>
</g>
<!-- F&#45;&gt;B -->
<g id="edge70" class="edge"><title>F&#45;&gt;B</title>
<path fill="none" stroke="black" d="M378.031,-390.348C378.18,-401.235 367.217,-417.565 358,-432 340.885,-458.804 321.679,-490.661 299.856,-508.379"/>
<polygon fill="black" stroke="black" points="297.782,-505.559 291.696,-514.231 301.862,-511.247 297.782,-505.559"/>
</g>
<!-- F&#45;&gt;C -->
<g id="edge72" class="edge"><title>F&#45;&gt;C</title>
<path fill="none" stroke="black" d="M363.895,-395.593C364.709,-403.586 364.942,-413.236 364.593,-422.176"/>
<polygon fill="black" stroke="black" points="361.098,-421.989 363.916,-432.202 368.082,-422.461 361.098,-421.989"/>
</g>
<!-- F&#45;&gt;C -->
<g id="edge74" class="edge"><title>F&#45;&gt;C</title>
<path fill="none" stroke="black" d="M374.638,-392.549C378.286,-402.01 379.171,-414.584 377.293,-425.555"/>
<polygon fill="black" stroke="black" points="373.854,-424.864 374.646,-435.43 380.616,-426.677 373.854,-424.864"/>
</g>
<!-- F&#45;&gt;D -->
<g id="edge76" class="edge"><title>F&#45;&gt;D</title>
<path fill="none" stroke="black" d="M346.927,-361.409C332.061,-324.553 312.912,-235.526 309.397,-189.931"/>
<polygon fill="black" stroke="black" points="312.887,-189.653 308.863,-179.852 305.897,-190.023 312.887,-189.653"/>
</g>
<!-- F&#45;&gt;D -->
<g id="edge78" class="edge"><title>F&#45;&gt;D</title>
<path fill="none" stroke="black" d="M354.241,-359.955C346.379,-322.221 328.157,-234.752 318.789,-189.788"/>
<polygon fill="black" stroke="black" points="322.183,-188.917 316.717,-179.841 315.33,-190.345 322.183,-188.917"/>
</g>
<!-- F&#45;&gt;D -->
<g id="edge80" class="edge"><title>F&#45;&gt;D</title>
<path fill="none" stroke="black" d="M362.133,-359.955C361.194,-321.765 343.056,-232.631 327.64,-188.177"/>
<polygon fill="black" stroke="black" points="330.862,-186.801 324.096,-178.648 324.301,-189.241 330.862,-186.801"/>
</g>
<!-- I -->
<g id="node29" class="node"><title>I</title>
<ellipse fill="none" stroke="black" cx="461" cy="-234" rx="27" ry="18"/>
<text text-anchor="middle" x="461" y="-229.4" font-family="Times,serif" font-size="14.00">I</text>
</g>
<!-- F&#45;&gt;I -->
<g id="edge84" class="edge"><title>F&#45;&gt;I</title>
<path fill="none" stroke="black" d="M357.026,-359.762C368.332,-332.507 404.792,-281.371 432.729,-253.435"/>
<polygon fill="black" stroke="black" points="435.503,-255.628 440.355,-246.209 430.689,-250.546 435.503,-255.628"/>
</g>
<!-- F&#45;&gt;I -->
<g id="edge86" class="edge"><title>F&#45;&gt;I</title>
<path fill="none" stroke="black" d="M365.84,-360.63C381.648,-334.759 416.305,-286.057 439.305,-257.175"/>
<polygon fill="black" stroke="black" points="442.16,-259.212 445.747,-249.242 436.726,-254.799 442.16,-259.212"/>
</g>
<!-- H -->
<g id="node38" class="node"><title>H</title>
<ellipse fill="none" stroke="black" cx="531" cy="-306" rx="27" ry="18"/>
<text text-anchor="middle" x="531" y="-301.4" font-family="Times,serif" font-size="14.00">H</text>
</g>
<!-- F&#45;&gt;H -->
<g id="edge82" class="edge"><title>F&#45;&gt;H</title>
<path fill="none" stroke="black" d="M373.575,-363.196C376.056,-362.107 378.567,-361.032 381,-360 419.26,-343.779 464.089,-325.617 495.502,-315.031"/>
<polygon fill="black" stroke="black" points="496.778,-318.296 505.204,-311.872 494.611,-311.64 496.778,-318.296"/>
</g>
<!-- D&#45;&gt;B -->
<g id="edge36" class="edge"><title>D&#45;&gt;B</title>
<path fill="none" stroke="black" d="M313.84,-180.389C310.838,-239.321 287.483,-423.735 274.365,-494.225"/>
<polygon fill="black" stroke="black" points="270.908,-493.662 272.429,-504.148 277.779,-495.002 270.908,-493.662"/>
</g>
<!-- D&#45;&gt;B -->
<g id="edge38" class="edge"><title>D&#45;&gt;B</title>
<path fill="none" stroke="black" d="M320.154,-179.762C326.488,-238.458 303.049,-426.4 281.492,-495.868"/>
<polygon fill="black" stroke="black" points="278.09,-495.002 278.191,-505.596 284.719,-497.251 278.09,-495.002"/>
</g>
<!-- D&#45;&gt;E -->
<g id="edge40" class="edge"><title>D&#45;&gt;E</title>
<path fill="none" stroke="black" d="M295.202,-148.118C285.664,-138.805 274.181,-126.267 264.945,-115.221"/>
<polygon fill="black" stroke="black" points="267.409,-112.702 258.39,-107.143 261.973,-117.113 267.409,-112.702"/>
</g>
<!-- G -->
<g id="node27" class="node"><title>G</title>
<ellipse fill="none" stroke="black" cx="460" cy="-90" rx="27" ry="18"/>
<text text-anchor="middle" x="460" y="-85.4" font-family="Times,serif" font-size="14.00">G</text>
</g>
<!-- D&#45;&gt;G -->
<g id="edge42" class="edge"><title>D&#45;&gt;G</title>
<path fill="none" stroke="black" d="M335.007,-151.221C359.905,-139.026 400.646,-119.072 428.813,-105.275"/>
<polygon fill="black" stroke="black" points="430.401,-108.395 437.842,-100.853 427.322,-102.108 430.401,-108.395"/>
</g>
<!-- D&#45;&gt;I -->
<g id="edge44" class="edge"><title>D&#45;&gt;I</title>
<path fill="none" stroke="black" d="M336.805,-171.291C362.889,-182.869 404.376,-202.873 432.23,-217.175"/>
<polygon fill="black" stroke="black" points="430.623,-220.284 441.111,-221.786 433.849,-214.072 430.623,-220.284"/>
</g>
<!-- E&#45;&gt;B -->
<g id="edge46" class="edge"><title>E&#45;&gt;B</title>
<path fill="none" stroke="black" d="M224.048,-96.979C170.713,-111.15 54,-149.413 54,-234 54,-378 54,-378 54,-378 54,-463.55 169.51,-500.115 230.803,-514.195"/>
<polygon fill="black" stroke="black" points="230.343,-517.678 240.863,-516.418 231.853,-510.842 230.343,-517.678"/>
</g>
<!-- E&#45;&gt;B -->
<g id="edge48" class="edge"><title>E&#45;&gt;B</title>
<path fill="none" stroke="black" d="M226.052,-99.6947C175.556,-115.748 72,-154.323 72,-234 72,-378 72,-378 72,-378 72,-458.693 174.765,-495.805 232.527,-511.574"/>
<polygon fill="black" stroke="black" points="231.85,-515.015 242.413,-514.188 233.64,-508.248 231.85,-515.015"/>
</g>
<!-- E&#45;&gt;C -->
<g id="edge50" class="edge"><title>E&#45;&gt;C</title>
<path fill="none" stroke="black" d="M244.121,-107.707C243.977,-125.942 247.771,-155.126 253,-180 273.497,-277.504 271.513,-305.413 313,-396 318.225,-407.409 325.718,-419.112 333.257,-428.694"/>
<polygon fill="black" stroke="black" points="330.719,-431.113 339.839,-436.507 336.073,-426.604 330.719,-431.113"/>
</g>
<!-- E&#45;&gt;C -->
<g id="edge52" class="edge"><title>E&#45;&gt;C</title>
<path fill="none" stroke="black" d="M257.562,-107.369C261.93,-125.579 265.739,-154.972 271,-180 291.497,-277.504 289.513,-305.413 331,-396 335.341,-405.479 341.247,-415.161 346.595,-423.66"/>
<polygon fill="black" stroke="black" points="343.783,-425.762 352.078,-432.353 349.704,-422.027 343.783,-425.762"/>
</g>
<!-- E&#45;&gt;F -->
<g id="edge56" class="edge"><title>E&#45;&gt;F</title>
<path fill="none" stroke="black" d="M247.321,-108.082C250.422,-126.364 259.146,-155.361 268,-180 290.597,-242.887 321.441,-315.18 340.903,-352.595"/>
<polygon fill="black" stroke="black" points="338.013,-354.611 345.833,-361.758 344.177,-351.294 338.013,-354.611"/>
</g>
<!-- E&#45;&gt;F -->
<g id="edge58" class="edge"><title>E&#45;&gt;F</title>
<path fill="none" stroke="black" d="M260.228,-106.4C267.877,-124.548 276.869,-154.591 286,-180 308.1,-241.501 338.086,-311.999 351.755,-350.071"/>
<polygon fill="black" stroke="black" points="348.583,-351.608 355.157,-359.916 355.199,-349.321 348.583,-351.608"/>
</g>
<!-- E&#45;&gt;D -->
<g id="edge54" class="edge"><title>E&#45;&gt;D</title>
<path fill="none" stroke="black" d="M266.959,-104.04C276.496,-113.367 287.946,-125.877 297.145,-136.887"/>
<polygon fill="black" stroke="black" points="294.656,-139.374 303.673,-144.937 300.093,-134.965 294.656,-139.374"/>
</g>
<!-- E&#45;&gt;H -->
<g id="edge60" class="edge"><title>E&#45;&gt;H</title>
<path fill="none" stroke="black" d="M273.55,-97.5239C321.491,-111.943 427.227,-148.222 488,-216 503.879,-233.709 512.613,-259.566 518.786,-279.025"/>
<polygon fill="black" stroke="black" points="515.532,-280.341 521.894,-288.813 522.204,-278.223 515.532,-280.341"/>
</g>
<!-- E&#45;&gt;H -->
<g id="edge62" class="edge"><title>E&#45;&gt;H</title>
<path fill="none" stroke="black" d="M275.25,-95.2209C326.998,-107.816 441.681,-144.267 506,-216 521.618,-233.418 530.323,-258.717 533.532,-278.06"/>
<polygon fill="black" stroke="black" points="530.072,-278.602 534.757,-288.105 537.02,-277.754 530.072,-278.602"/>
</g>
<!-- E&#45;&gt;H -->
<g id="edge64" class="edge"><title>E&#45;&gt;H</title>
<path fill="none" stroke="black" d="M275.682,-93.4287C332.786,-104.077 456.295,-140.492 524,-216 540.559,-234.467 549.347,-261.794 548.538,-281.487"/>
<polygon fill="black" stroke="black" points="545.052,-281.141 547.09,-291.538 551.981,-282.14 545.052,-281.141"/>
</g>
<!-- G&#45;&gt;I -->
<g id="edge90" class="edge"><title>G&#45;&gt;I</title>
<path fill="none" stroke="black" d="M460.126,-108.09C460.296,-132.573 460.601,-176.517 460.802,-205.471"/>
<polygon fill="black" stroke="black" points="457.304,-205.787 460.873,-215.762 464.304,-205.738 457.304,-205.787"/>
</g>
<!-- G&#45;&gt;H -->
<g id="edge88" class="edge"><title>G&#45;&gt;H</title>
<path fill="none" stroke="black" d="M486.357,-94.3683C513.804,-100.183 555.054,-113.558 575,-144 601.307,-184.149 593.161,-207.568 575,-252 570.156,-263.85 561.32,-274.503 552.729,-283.154"/>
<polygon fill="black" stroke="black" points="550.152,-280.776 545.349,-290.22 554.993,-285.832 550.152,-280.776"/>
</g>
<!-- Z -->
<g id="node55" class="node"><title>Z</title>
<ellipse fill="none" stroke="black" cx="460" cy="-18" rx="27" ry="18"/>
<text text-anchor="middle" x="460" y="-13.4" font-family="Times,serif" font-size="14.00">Z</text>
</g>
<!-- G&#45;&gt;Z -->
<g id="edge92" class="edge"><title>G&#45;&gt;Z</title>
<path fill="none" stroke="black" d="M443.354,-75.4297C439.71,-65.9634 438.829,-53.3888 440.711,-42.4197"/>
<polygon fill="black" stroke="black" points="444.149,-43.1142 443.362,-32.5486 437.388,-41.2986 444.149,-43.1142"/>
</g>
<!-- G&#45;&gt;Z -->
<g id="edge94" class="edge"><title>G&#45;&gt;Z</title>
<path fill="none" stroke="black" d="M454.084,-72.2022C453.28,-64.1807 453.057,-54.5231 453.416,-45.5957"/>
<polygon fill="black" stroke="black" points="456.91,-45.8099 454.105,-35.593 449.926,-45.3289 456.91,-45.8099"/>
</g>
<!-- G&#45;&gt;Z -->
<g id="edge96" class="edge"><title>G&#45;&gt;Z</title>
<path fill="none" stroke="black" d="M465.916,-72.2022C466.72,-64.1807 466.943,-54.5231 466.584,-45.5957"/>
<polygon fill="black" stroke="black" points="470.074,-45.3289 465.895,-35.593 463.09,-45.8099 470.074,-45.3289"/>
</g>
<!-- G&#45;&gt;Z -->
<g id="edge98" class="edge"><title>G&#45;&gt;Z</title>
<path fill="none" stroke="black" d="M476.646,-75.4297C480.29,-65.9634 481.171,-53.3888 479.289,-42.4197"/>
<polygon fill="black" stroke="black" points="482.612,-41.2986 476.638,-32.5486 475.851,-43.1142 482.612,-41.2986"/>
</g>
<!-- I&#45;&gt;F -->
<g id="edge126" class="edge"><title>I&#45;&gt;F</title>
<path fill="none" stroke="black" d="M453.013,-251.61C437.113,-277.582 402.515,-326.184 379.587,-354.96"/>
<polygon fill="black" stroke="black" points="376.757,-352.893 373.167,-362.862 382.189,-357.307 376.757,-352.893"/>
</g>
<!-- I&#45;&gt;F -->
<g id="edge128" class="edge"><title>I&#45;&gt;F</title>
<path fill="none" stroke="black" d="M462.038,-252.084C450.733,-279.477 413.786,-331.243 385.727,-359.107"/>
<polygon fill="black" stroke="black" points="383.321,-356.565 378.442,-365.97 388.121,-361.661 383.321,-356.565"/>
</g>
<!-- I&#45;&gt;D -->
<g id="edge124" class="edge"><title>I&#45;&gt;D</title>
<path fill="none" stroke="black" d="M437.583,-224.881C411.66,-213.39 370.201,-193.41 342.214,-179.053"/>
<polygon fill="black" stroke="black" points="343.769,-175.917 333.281,-174.42 340.546,-182.131 343.769,-175.917"/>
</g>
<!-- I&#45;&gt;G -->
<g id="edge130" class="edge"><title>I&#45;&gt;G</title>
<path fill="none" stroke="black" d="M451.772,-216.916C446.385,-192.233 445.497,-146.351 449.371,-117.041"/>
<polygon fill="black" stroke="black" points="452.843,-117.498 451.014,-107.062 445.936,-116.36 452.843,-117.498"/>
</g>
<!-- I&#45;&gt;G -->
<g id="edge132" class="edge"><title>I&#45;&gt;G</title>
<path fill="none" stroke="black" d="M469.99,-216.916C475.035,-192.233 475.285,-146.351 471.004,-117.041"/>
<polygon fill="black" stroke="black" points="474.426,-116.291 469.223,-107.062 467.535,-117.521 474.426,-116.291"/>
</g>
<!-- I&#45;&gt;H -->
<g id="edge134" class="edge"><title>I&#45;&gt;H</title>
<path fill="none" stroke="black" d="M482.145,-245.313C494.326,-254.656 508.522,-268.278 518.967,-280.25"/>
<polygon fill="black" stroke="black" points="516.464,-282.716 525.528,-288.202 521.863,-278.261 516.464,-282.716"/>
</g>
<!-- I&#45;&gt;Z -->
<g id="edge136" class="edge"><title>I&#45;&gt;Z</title>
<path fill="none" stroke="black" d="M443.233,-220.393C420.008,-192.329 389.614,-126.118 406,-72 410.204,-58.1157 419.285,-44.5384 429.564,-34.4712"/>
<polygon fill="black" stroke="black" points="431.97,-37.0166 437.208,-27.8068 427.37,-31.7404 431.97,-37.0166"/>
</g>
<!-- I&#45;&gt;Z -->
<g id="edge138" class="edge"><title>I&#45;&gt;Z</title>
<path fill="none" stroke="black" d="M451.228,-216.769C435.605,-186.945 408.283,-123.909 424,-72 427.266,-61.2127 433.476,-50.6108 439.831,-41.6963"/>
<polygon fill="black" stroke="black" points="442.628,-43.8001 445.877,-33.7156 437.049,-39.5732 442.628,-43.8001"/>
</g>
<!-- I&#45;&gt;Z -->
<g id="edge140" class="edge"><title>I&#45;&gt;Z</title>
<path fill="none" stroke="black" d="M461.822,-215.806C453.028,-185.605 426.45,-123.357 442,-72 444.894,-62.4411 450.1,-53.0277 454.923,-44.805"/>
<polygon fill="black" stroke="black" points="458.001,-46.4756 460.061,-36.0831 451.97,-42.9224 458.001,-46.4756"/>
</g>
<!-- H&#45;&gt;B -->
<g id="edge100" class="edge"><title>H&#45;&gt;B</title>
<path fill="none" stroke="black" d="M520.588,-322.938C500.027,-355.156 451.214,-425.807 394,-468 365.959,-488.679 328.794,-503.29 301.92,-512.053"/>
<polygon fill="black" stroke="black" points="300.651,-508.783 292.165,-515.126 302.754,-515.46 300.651,-508.783"/>
</g>
<!-- H&#45;&gt;F -->
<g id="edge108" class="edge"><title>H&#45;&gt;F</title>
<path fill="none" stroke="black" d="M507.558,-315.381C481.109,-326.014 436.841,-343.956 399,-360 395.994,-361.274 392.871,-362.615 389.75,-363.966"/>
<polygon fill="black" stroke="black" points="388.28,-360.789 380.512,-367.994 391.078,-367.205 388.28,-360.789"/>
</g>
<!-- H&#45;&gt;F -->
<g id="edge110" class="edge"><title>H&#45;&gt;F</title>
<path fill="none" stroke="black" d="M512.404,-319.305C489.06,-330.096 450.51,-345.793 417,-360 409.695,-363.097 401.698,-366.586 393.581,-369.661"/>
<polygon fill="black" stroke="black" points="392.296,-366.404 384.032,-373.034 394.627,-373.004 392.296,-366.404"/>
</g>
<!-- H&#45;&gt;D -->
<g id="edge102" class="edge"><title>H&#45;&gt;D</title>
<path fill="none" stroke="black" d="M506.338,-298.096C482.117,-288.416 445.309,-270.954 416,-252 384.934,-231.91 352.272,-204.891 332.041,-185.714"/>
<polygon fill="black" stroke="black" points="334.275,-183.004 324.674,-178.526 329.387,-188.015 334.275,-183.004"/>
</g>
<!-- H&#45;&gt;D -->
<g id="edge104" class="edge"><title>H&#45;&gt;D</title>
<path fill="none" stroke="black" d="M510.875,-293.934C490.661,-283.845 459.494,-268.486 434,-252 400.273,-230.189 364.665,-200.211 340.646,-180.968"/>
<polygon fill="black" stroke="black" points="342.667,-178.104 332.655,-174.64 338.322,-183.592 342.667,-178.104"/>
</g>
<!-- H&#45;&gt;E -->
<g id="edge106" class="edge"><title>H&#45;&gt;E</title>
<path fill="none" stroke="black" d="M511.695,-293.148C498.822,-274.179 490.182,-238.509 470,-216 416.875,-156.751 329.391,-121.573 280.99,-104.025"/>
<polygon fill="black" stroke="black" points="281.876,-100.625 271.282,-100.546 279.515,-107.214 281.876,-100.625"/>
</g>
<!-- H&#45;&gt;G -->
<g id="edge112" class="edge"><title>H&#45;&gt;G</title>
<path fill="none" stroke="black" d="M531.555,-287.87C539.812,-278.515 551.235,-266.105 557,-252 575.161,-207.568 583.307,-184.149 557,-144 542.437,-121.774 516.517,-108.646 494.46,-100.915"/>
<polygon fill="black" stroke="black" points="495.245,-97.49 484.652,-97.7299 493.082,-104.148 495.245,-97.49"/>
</g>
<!-- H&#45;&gt;G -->
<g id="edge114" class="edge"><title>H&#45;&gt;G</title>
<path fill="none" stroke="black" d="M553.51,-295.656C568.177,-286.054 585.445,-270.482 593,-252 611.161,-207.568 619.307,-184.149 593,-144 572.362,-112.503 528.919,-99.2768 497.13,-93.7907"/>
<polygon fill="black" stroke="black" points="497.261,-90.2699 486.846,-92.2117 496.199,-97.1888 497.261,-90.2699"/>
</g>
<!-- H&#45;&gt;G -->
<g id="edge116" class="edge"><title>H&#45;&gt;G</title>
<path fill="none" stroke="black" d="M557.122,-300.478C579.235,-291.89 602.004,-274.009 611,-252 629.161,-207.568 637.307,-184.149 611,-144 587.769,-108.544 535.639,-96.2408 497.452,-92.068"/>
<polygon fill="black" stroke="black" points="497.37,-88.545 487.087,-91.0941 496.716,-95.5143 497.37,-88.545"/>
</g>
<!-- H&#45;&gt;I -->
<g id="edge118" class="edge"><title>H&#45;&gt;I</title>
<path fill="none" stroke="black" d="M509.524,-294.432C497.375,-285.066 483.288,-271.521 472.927,-259.628"/>
<polygon fill="black" stroke="black" points="475.48,-257.222 466.42,-251.73 470.077,-261.673 475.48,-257.222"/>
</g>
<!-- H&#45;&gt;I -->
<g id="edge120" class="edge"><title>H&#45;&gt;I</title>
<path fill="none" stroke="black" d="M516.155,-290.731C506.503,-280.803 493.749,-267.685 482.937,-256.564"/>
<polygon fill="black" stroke="black" points="485.304,-253.978 475.824,-249.247 480.285,-258.857 485.304,-253.978"/>
</g>
<!-- H&#45;&gt;Z -->
<g id="edge122" class="edge"><title>H&#45;&gt;Z</title>
<path fill="none" stroke="black" d="M556.641,-300.04C580.539,-292.983 614.845,-278.662 631,-252 655.876,-210.947 653.708,-186.813 632,-144 602.942,-86.6919 534.21,-49.1699 492.967,-30.95"/>
<polygon fill="black" stroke="black" points="494.182,-27.6631 483.612,-26.9399 491.424,-34.0969 494.182,-27.6631"/>
</g>
</g>
</svg>
