<?xml version="1.0" encoding="UTF-8" standalone="no"?>
<!DOCTYPE svg PUBLIC "-//W3C//DTD SVG 1.1//EN"
 "http://www.w3.org/Graphics/SVG/1.1/DTD/svg11.dtd">
<!-- Generated by graphviz version 2.26.3 (20100126.1600)
 -->
<!-- Title: G Pages: 1 -->
<svg width="123pt" height="260pt"
 viewBox="0.00 0.00 123.00 260.00" xmlns="http://www.w3.org/2000/svg" xmlns:xlink="http://www.w3.org/1999/xlink">
<g id="graph1" class="graph" transform="scale(1 1) rotate(0) translate(4 256)">
<title>G</title>
<polygon fill="white" stroke="white" points="-4,5 -4,-256 120,-256 120,5 -4,5"/>
<!-- A -->
<g id="node1" class="node"><title>A</title>
<ellipse fill="none" stroke="black" cx="88" cy="-234" rx="27" ry="18"/>
<text text-anchor="middle" x="88" y="-229.4" font-family="Times,serif" font-size="14.00">A</text>
</g>
<!-- B -->
<g id="node2" class="node"><title>B</title>
<ellipse fill="none" stroke="black" cx="88" cy="-162" rx="27" ry="18"/>
<text text-anchor="middle" x="88" y="-157.4" font-family="Times,serif" font-size="14.00">B</text>
</g>
<!-- A&#45;&gt;B -->
<g id="edge2" class="edge"><title>A&#45;&gt;B</title>
<path fill="none" stroke="#000000" stroke-width="4" d="M76.4784,-217.662C74.565,-209.131 74.0395,-198.474 74.9019,-188.775"/>
<polygon fill="#000000" stroke="#000000" points="78.3804,-189.178 76.3824,-178.773 71.4558,-188.153 78.3804,-189.178"/>
</g>
<!-- A&#45;&gt;B -->
<g id="edge8" class="edge"><title>A&#45;&gt;B</title>
<path fill="none" stroke="#400000" d="M88,-215.831C88,-208.131 88,-198.974 88,-190.417"/>
<polygon fill="#400000" stroke="#400000" points="91.5001,-190.413 88,-180.413 84.5001,-190.413 91.5001,-190.413"/>
</g>
<!-- A&#45;&gt;B -->
<g id="edge12" class="edge"><title>A&#45;&gt;B</title>
<path fill="none" stroke="#800000" stroke-width="4" d="M99.5216,-217.662C101.435,-209.131 101.96,-198.474 101.098,-188.775"/>
<polygon fill="#800000" stroke="#800000" points="104.544,-188.153 99.6176,-178.773 97.6196,-189.178 104.544,-188.153"/>
</g>
<!-- C -->
<g id="node4" class="node"><title>C</title>
<ellipse fill="none" stroke="black" cx="27" cy="-90" rx="27" ry="18"/>
<text text-anchor="middle" x="27" y="-85.4" font-family="Times,serif" font-size="14.00">C</text>
</g>
<!-- A&#45;&gt;C -->
<g id="edge16" class="edge"><title>A&#45;&gt;C</title>
<path fill="none" stroke="#c00000" d="M75.2024,-217.783C67.5707,-207.457 58.193,-193.522 52,-180 42.9121,-160.157 36.47,-136.303 32.4035,-118.14"/>
<polygon fill="#c00000" stroke="#c00000" points="35.788,-117.228 30.2818,-108.176 28.9415,-118.686 35.788,-117.228"/>
</g>
<!-- B&#45;&gt;C -->
<g id="edge4" class="edge"><title>B&#45;&gt;C</title>
<path fill="none" stroke="#000000" stroke-width="4" d="M74.4621,-146.021C66.4067,-136.513 56.0367,-124.273 47.0456,-113.66"/>
<polygon fill="#000000" stroke="#000000" points="49.6347,-111.302 40.5,-105.934 44.2938,-115.827 49.6347,-111.302"/>
</g>
<!-- Z -->
<g id="node6" class="node"><title>Z</title>
<ellipse fill="none" stroke="black" cx="59" cy="-18" rx="27" ry="18"/>
<text text-anchor="middle" x="59" y="-13.4" font-family="Times,serif" font-size="14.00">Z</text>
</g>
<!-- B&#45;&gt;Z -->
<g id="edge10" class="edge"><title>B&#45;&gt;Z</title>
<path fill="none" stroke="#400000" d="M79.9174,-144.63C72.465,-120.246 63.1662,-75.5835 59.2118,-46.3467"/>
<polygon fill="#400000" stroke="#400000" points="62.6774,-45.8507 58.01,-36.3394 55.7274,-46.6854 62.6774,-45.8507"/>
</g>
<!-- B&#45;&gt;Z -->
<g id="edge14" class="edge"><title>B&#45;&gt;Z</title>
<path fill="none" stroke="#800000" stroke-width="4" d="M89.0003,-143.762C86.4755,-118.823 77.6714,-73.8906 69.8516,-45.0315"/>
<polygon fill="#800000" stroke="#800000" points="73.151,-43.84 67.0286,-35.1933 66.4225,-45.7708 73.151,-43.84"/>
</g>
<!-- C&#45;&gt;Z -->
<g id="edge6" class="edge"><title>C&#45;&gt;Z</title>
<path fill="none" stroke="#000000" stroke-width="4" d="M29.1226,-71.8314C32.1582,-63.083 36.7126,-52.455 41.4465,-42.9611"/>
<polygon fill="#000000" stroke="#000000" points="44.6258,-44.4354 46.1906,-33.9568 38.4328,-41.1725 44.6258,-44.4354"/>
</g>
<!-- C&#45;&gt;Z -->
<g id="edge18" class="edge"><title>C&#45;&gt;Z</title>
<path fill="none" stroke="#c00000" d="M39.8219,-74.0209C44.5028,-65.6573 49.4468,-55.1799 53.3351,-45.5558"/>
<polygon fill="#c00000" stroke="#c00000" points="56.7001,-46.5516 56.9498,-35.9597 50.1494,-44.0841 56.7001,-46.5516"/>
</g>
</g>
</svg>
