<?xml version="1.0" encoding="UTF-8" standalone="no"?>
<!DOCTYPE svg PUBLIC "-//W3C//DTD SVG 1.1//EN"
 "http://www.w3.org/Graphics/SVG/1.1/DTD/svg11.dtd">
<!-- Generated by graphviz version 2.26.3 (20100126.1600)
 -->
<!-- Title: G Pages: 1 -->
<svg width="90pt" height="260pt"
 viewBox="0.00 0.00 90.00 260.00" xmlns="http://www.w3.org/2000/svg" xmlns:xlink="http://www.w3.org/1999/xlink">
<g id="graph1" class="graph" transform="scale(1 1) rotate(0) translate(4 256)">
<title>G</title>
<polygon fill="white" stroke="white" points="-4,5 -4,-256 87,-256 87,5 -4,5"/>
<!-- A -->
<g id="node1" class="node"><title>A</title>
<ellipse fill="none" stroke="black" cx="55" cy="-234" rx="27" ry="18"/>
<text text-anchor="middle" x="55" y="-229.4" font-family="Times,serif" font-size="14.00">A</text>
</g>
<!-- B -->
<g id="node2" class="node"><title>B</title>
<ellipse fill="none" stroke="black" cx="55" cy="-162" rx="27" ry="18"/>
<text text-anchor="middle" x="55" y="-157.4" font-family="Times,serif" font-size="14.00">B</text>
</g>
<!-- A&#45;&gt;B -->
<g id="edge2" class="edge"><title>A&#45;&gt;B</title>
<path fill="none" stroke="black" d="M49.0843,-216.202C48.2798,-208.181 48.0571,-198.523 48.4162,-189.596"/>
<polygon fill="black" stroke="black" points="51.9097,-189.81 49.105,-179.593 44.9262,-189.329 51.9097,-189.81"/>
</g>
<!-- A&#45;&gt;B -->
<g id="edge4" class="edge"><title>A&#45;&gt;B</title>
<path fill="none" stroke="black" d="M60.9157,-216.202C61.7202,-208.181 61.9429,-198.523 61.5838,-189.596"/>
<polygon fill="black" stroke="black" points="65.0738,-189.329 60.895,-179.593 58.0903,-189.81 65.0738,-189.329"/>
</g>
<!-- C -->
<g id="node5" class="node"><title>C</title>
<ellipse fill="none" stroke="black" cx="27" cy="-90" rx="27" ry="18"/>
<text text-anchor="middle" x="27" y="-85.4" font-family="Times,serif" font-size="14.00">C</text>
</g>
<!-- A&#45;&gt;C -->
<g id="edge6" class="edge"><title>A&#45;&gt;C</title>
<path fill="none" stroke="black" d="M40.8771,-218.284C32.7465,-208.147 23.3099,-194.235 19,-180 12.8441,-159.668 15.4397,-135.662 19.2505,-117.559"/>
<polygon fill="black" stroke="black" points="22.6975,-118.19 21.5776,-107.654 15.883,-116.589 22.6975,-118.19"/>
</g>
<!-- B&#45;&gt;C -->
<g id="edge8" class="edge"><title>B&#45;&gt;C</title>
<path fill="none" stroke="black" d="M42.8855,-145.662C38.7637,-137.435 34.5187,-127.233 31.2255,-117.818"/>
<polygon fill="black" stroke="black" points="34.4741,-116.487 28.0764,-108.042 27.8113,-118.634 34.4741,-116.487"/>
</g>
<!-- Z -->
<g id="node8" class="node"><title>Z</title>
<ellipse fill="none" stroke="black" cx="54" cy="-18" rx="27" ry="18"/>
<text text-anchor="middle" x="54" y="-13.4" font-family="Times,serif" font-size="14.00">Z</text>
</g>
<!-- B&#45;&gt;Z -->
<g id="edge10" class="edge"><title>B&#45;&gt;Z</title>
<path fill="none" stroke="black" d="M58.3315,-144.074C60.1087,-133.598 62.1087,-120.098 63,-108 64.1756,-92.0432 64.3197,-87.9455 63,-72 62.2945,-63.4753 60.9727,-54.2703 59.5551,-45.917"/>
<polygon fill="black" stroke="black" points="62.9689,-45.1258 57.7474,-35.9069 56.0803,-46.3698 62.9689,-45.1258"/>
</g>
<!-- C&#45;&gt;B -->
<g id="edge12" class="edge"><title>C&#45;&gt;B</title>
<path fill="none" stroke="black" d="M39.1652,-106.439C43.2606,-114.627 47.4732,-124.754 50.7493,-134.11"/>
<polygon fill="black" stroke="black" points="47.4845,-135.39 53.8868,-143.831 54.1461,-133.24 47.4845,-135.39"/>
</g>
<!-- C&#45;&gt;Z -->
<g id="edge14" class="edge"><title>C&#45;&gt;Z</title>
<path fill="none" stroke="black" d="M33.6742,-72.2022C36.7476,-64.0064 40.4616,-54.1024 43.8695,-45.0145"/>
<polygon fill="black" stroke="black" points="47.1685,-46.1853 47.4026,-35.593 40.6142,-43.7274 47.1685,-46.1853"/>
</g>
</g>
</svg>
