<?xml version="1.0" encoding="UTF-8" standalone="no"?>
<!DOCTYPE svg PUBLIC "-//W3C//DTD SVG 1.1//EN"
 "http://www.w3.org/Graphics/SVG/1.1/DTD/svg11.dtd">
<!-- Generated by graphviz version 2.26.3 (20100126.1600)
 -->
<!-- Title: G Pages: 1 -->
<svg width="63pt" height="260pt"
 viewBox="0.00 0.00 62.84 260.00" xmlns="http://www.w3.org/2000/svg" xmlns:xlink="http://www.w3.org/1999/xlink">
<g id="graph1" class="graph" transform="scale(1 1) rotate(0) translate(4 256)">
<title>G</title>
<polygon fill="white" stroke="white" points="-4,5 -4,-256 59.8392,-256 59.8392,5 -4,5"/>
<!-- A -->
<g id="node1" class="node"><title>A</title>
<ellipse fill="none" stroke="black" cx="27.4196" cy="-234" rx="27" ry="18"/>
<text text-anchor="middle" x="27.4196" y="-229.4" font-family="Times,serif" font-size="14.00">A</text>
</g>
<!-- C -->
<g id="node2" class="node"><title>C</title>
<ellipse fill="none" stroke="black" cx="27.4196" cy="-162" rx="27" ry="18"/>
<text text-anchor="middle" x="27.4196" y="-157.4" font-family="Times,serif" font-size="14.00">C</text>
</g>
<!-- A&#45;&gt;C -->
<g id="edge2" class="edge"><title>A&#45;&gt;C</title>
<path fill="none" stroke="black" d="M21.5039,-216.202C20.6994,-208.181 20.4768,-198.523 20.8358,-189.596"/>
<polygon fill="black" stroke="black" points="24.3293,-189.81 21.5246,-179.593 17.3458,-189.329 24.3293,-189.81"/>
</g>
<!-- A&#45;&gt;C -->
<g id="edge4" class="edge"><title>A&#45;&gt;C</title>
<path fill="none" stroke="black" d="M33.3353,-216.202C34.1398,-208.181 34.3625,-198.523 34.0034,-189.596"/>
<polygon fill="black" stroke="black" points="37.4934,-189.329 33.3146,-179.593 30.5099,-189.81 37.4934,-189.329"/>
</g>
<!-- D -->
<g id="node5" class="node"><title>D</title>
<ellipse fill="none" stroke="black" cx="27.4196" cy="-90" rx="27" ry="18"/>
<text text-anchor="middle" x="27.4196" y="-85.4" font-family="Times,serif" font-size="14.00">D</text>
</g>
<!-- C&#45;&gt;D -->
<g id="edge6" class="edge"><title>C&#45;&gt;D</title>
<path fill="none" stroke="black" d="M10.7737,-147.43C7.12996,-137.963 6.24909,-125.389 8.13108,-114.42"/>
<polygon fill="black" stroke="black" points="11.5685,-115.114 10.782,-104.549 4.80806,-113.299 11.5685,-115.114"/>
</g>
<!-- C&#45;&gt;D -->
<g id="edge8" class="edge"><title>C&#45;&gt;D</title>
<path fill="none" stroke="black" d="M21.5039,-144.202C20.6994,-136.181 20.4768,-126.523 20.8358,-117.596"/>
<polygon fill="black" stroke="black" points="24.3293,-117.81 21.5246,-107.593 17.3458,-117.329 24.3293,-117.81"/>
</g>
<!-- C&#45;&gt;D -->
<g id="edge10" class="edge"><title>C&#45;&gt;D</title>
<path fill="none" stroke="black" d="M33.3353,-144.202C34.1398,-136.181 34.3625,-126.523 34.0034,-117.596"/>
<polygon fill="black" stroke="black" points="37.4934,-117.329 33.3146,-107.593 30.5099,-117.81 37.4934,-117.329"/>
</g>
<!-- D&#45;&gt;C -->
<g id="edge12" class="edge"><title>D&#45;&gt;C</title>
<path fill="none" stroke="black" d="M44.0572,-104.549C47.7051,-114.01 48.5902,-126.584 46.7124,-137.555"/>
<polygon fill="black" stroke="black" points="43.2741,-136.864 44.0655,-147.43 50.0354,-138.677 43.2741,-136.864"/>
</g>
<!-- Z -->
<g id="node10" class="node"><title>Z</title>
<ellipse fill="none" stroke="black" cx="27.4196" cy="-18" rx="27" ry="18"/>
<text text-anchor="middle" x="27.4196" y="-13.4" font-family="Times,serif" font-size="14.00">Z</text>
</g>
<!-- D&#45;&gt;Z -->
<g id="edge22" class="edge"><title>D&#45;&gt;Z</title>
<path fill="none" stroke="black" d="M6.75433,-78.1107C0.132505,-67.6473 -1.29786,-52.1546 2.46322,-39.5185"/>
<polygon fill="black" stroke="black" points="5.7629,-40.71 6.59253,-30.1477 -0.642763,-37.8872 5.7629,-40.71"/>
</g>
<!-- D&#45;&gt;Z -->
<g id="edge14" class="edge"><title>D&#45;&gt;Z</title>
<path fill="none" stroke="black" d="M15.898,-73.6621C13.9846,-65.1306 13.4591,-54.474 14.3215,-44.7753"/>
<polygon fill="black" stroke="black" points="17.8,-45.1776 15.802,-34.7729 10.8754,-44.1526 17.8,-45.1776"/>
</g>
<!-- D&#45;&gt;Z -->
<g id="edge16" class="edge"><title>D&#45;&gt;Z</title>
<path fill="none" stroke="black" d="M27.4196,-71.8314C27.4196,-64.131 27.4196,-54.9743 27.4196,-46.4166"/>
<polygon fill="black" stroke="black" points="30.9197,-46.4132 27.4196,-36.4133 23.9197,-46.4133 30.9197,-46.4132"/>
</g>
<!-- D&#45;&gt;Z -->
<g id="edge18" class="edge"><title>D&#45;&gt;Z</title>
<path fill="none" stroke="black" d="M38.9412,-73.6621C40.8546,-65.1306 41.3801,-54.474 40.5177,-44.7753"/>
<polygon fill="black" stroke="black" points="43.9638,-44.1526 39.0372,-34.7729 37.0392,-45.1776 43.9638,-44.1526"/>
</g>
<!-- D&#45;&gt;Z -->
<g id="edge20" class="edge"><title>D&#45;&gt;Z</title>
<path fill="none" stroke="black" d="M48.0849,-78.1107C54.7067,-67.6473 56.1371,-52.1546 52.376,-39.5185"/>
<polygon fill="black" stroke="black" points="55.482,-37.8872 48.2467,-30.1477 49.0763,-40.71 55.482,-37.8872"/>
</g>
</g>
</svg>
