<?xml version="1.0" encoding="UTF-8" standalone="no"?>
<!DOCTYPE svg PUBLIC "-//W3C//DTD SVG 1.1//EN"
 "http://www.w3.org/Graphics/SVG/1.1/DTD/svg11.dtd">
<!-- Generated by graphviz version 2.26.3 (20100126.1600)
 -->
<!-- Title: G Pages: 1 -->
<svg width="2102pt" height="980pt"
 viewBox="0.00 0.00 2102.00 980.00" xmlns="http://www.w3.org/2000/svg" xmlns:xlink="http://www.w3.org/1999/xlink">
<g id="graph1" class="graph" transform="scale(1 1) rotate(0) translate(4 976)">
<title>G</title>
<polygon fill="white" stroke="white" points="-4,5 -4,-976 2099,-976 2099,5 -4,5"/>
<!-- A -->
<g id="node1" class="node"><title>A</title>
<ellipse fill="none" stroke="black" cx="1443" cy="-954" rx="27" ry="18"/>
<text text-anchor="middle" x="1443" y="-949.4" font-family="Times,serif" font-size="14.00">A</text>
</g>
<!-- B -->
<g id="node2" class="node"><title>B</title>
<ellipse fill="none" stroke="black" cx="1443" cy="-882" rx="27" ry="18"/>
<text text-anchor="middle" x="1443" y="-877.4" font-family="Times,serif" font-size="14.00">B</text>
</g>
<!-- A&#45;&gt;B -->
<g id="edge2" class="edge"><title>A&#45;&gt;B</title>
<path fill="none" stroke="black" d="M1431.48,-937.662C1429.56,-929.131 1429.04,-918.474 1429.9,-908.775"/>
<polygon fill="black" stroke="black" points="1433.38,-909.178 1431.38,-898.773 1426.46,-908.153 1433.38,-909.178"/>
</g>
<!-- A&#45;&gt;B -->
<g id="edge4" class="edge"><title>A&#45;&gt;B</title>
<path fill="none" stroke="black" d="M1443,-935.831C1443,-928.131 1443,-918.974 1443,-910.417"/>
<polygon fill="black" stroke="black" points="1446.5,-910.413 1443,-900.413 1439.5,-910.413 1446.5,-910.413"/>
</g>
<!-- A&#45;&gt;B -->
<g id="edge6" class="edge"><title>A&#45;&gt;B</title>
<path fill="none" stroke="black" d="M1454.52,-937.662C1456.44,-929.131 1456.96,-918.474 1456.1,-908.775"/>
<polygon fill="black" stroke="black" points="1459.54,-908.153 1454.62,-898.773 1452.62,-909.178 1459.54,-908.153"/>
</g>
<!-- C -->
<g id="node6" class="node"><title>C</title>
<ellipse fill="none" stroke="black" cx="1443" cy="-738" rx="27" ry="18"/>
<text text-anchor="middle" x="1443" y="-733.4" font-family="Times,serif" font-size="14.00">C</text>
</g>
<!-- A&#45;&gt;C -->
<g id="edge8" class="edge"><title>A&#45;&gt;C</title>
<path fill="none" stroke="black" d="M1457.12,-938.284C1465.25,-928.147 1474.69,-914.235 1479,-900 1493.22,-853.019 1472.57,-796.818 1457.16,-764.479"/>
<polygon fill="black" stroke="black" points="1460.17,-762.656 1452.59,-755.245 1453.89,-765.76 1460.17,-762.656"/>
</g>
<!-- E -->
<g id="node8" class="node"><title>E</title>
<ellipse fill="none" stroke="black" cx="557" cy="-810" rx="27" ry="18"/>
<text text-anchor="middle" x="557" y="-805.4" font-family="Times,serif" font-size="14.00">E</text>
</g>
<!-- A&#45;&gt;E -->
<g id="edge10" class="edge"><title>A&#45;&gt;E</title>
<path fill="none" stroke="black" d="M1415.85,-952.752C1308.49,-946.997 905.376,-919.268 589,-828 587.74,-827.636 586.467,-827.243 585.192,-826.824"/>
<polygon fill="black" stroke="black" points="586.127,-823.437 575.534,-823.224 583.682,-829.996 586.127,-823.437"/>
</g>
<!-- A&#45;&gt;E -->
<g id="edge12" class="edge"><title>A&#45;&gt;E</title>
<path fill="none" stroke="black" d="M1415.93,-952.375C1310.18,-945.847 916.963,-917.418 607,-828 601.678,-826.465 596.143,-824.39 590.731,-822.194"/>
<polygon fill="black" stroke="black" points="591.771,-818.836 581.196,-818.203 589.069,-825.293 591.771,-818.836"/>
</g>
<!-- G -->
<g id="node11" class="node"><title>G</title>
<ellipse fill="none" stroke="black" cx="1651" cy="-666" rx="27" ry="18"/>
<text text-anchor="middle" x="1651" y="-661.4" font-family="Times,serif" font-size="14.00">G</text>
</g>
<!-- A&#45;&gt;G -->
<g id="edge14" class="edge"><title>A&#45;&gt;G</title>
<path fill="none" stroke="black" d="M1455.97,-937.699C1486.57,-905.844 1562.09,-831.796 1607,-756 1619.02,-735.704 1628.4,-710.529 1635.91,-691.97"/>
<polygon fill="black" stroke="black" points="1639.17,-693.249 1639.78,-682.672 1632.7,-690.56 1639.17,-693.249"/>
</g>
<!-- A&#45;&gt;G -->
<g id="edge16" class="edge"><title>A&#45;&gt;G</title>
<path fill="none" stroke="black" d="M1462.24,-940.997C1499.05,-911.213 1578.46,-834.545 1625,-756 1636.63,-736.376 1645.78,-712.19 1650.46,-693.834"/>
<polygon fill="black" stroke="black" points="1653.88,-694.561 1652.63,-684.041 1647.05,-693.046 1653.88,-694.561"/>
</g>
<!-- H -->
<g id="node14" class="node"><title>H</title>
<ellipse fill="none" stroke="black" cx="1186" cy="-234" rx="27" ry="18"/>
<text text-anchor="middle" x="1186" y="-229.4" font-family="Times,serif" font-size="14.00">H</text>
</g>
<!-- A&#45;&gt;H -->
<g id="edge18" class="edge"><title>A&#45;&gt;H</title>
<path fill="none" stroke="black" d="M1470.12,-952.077C1556.8,-945.742 1826.29,-924.526 1910,-900 1997.36,-874.403 2094,-901.036 2094,-810 2094,-810 2094,-810 2094,-594 2094,-403.194 1392.35,-269.66 1222.63,-240.151"/>
<polygon fill="black" stroke="black" points="1223.13,-236.685 1212.68,-238.435 1221.94,-243.584 1223.13,-236.685"/>
</g>
<!-- J -->
<g id="node16" class="node"><title>J</title>
<ellipse fill="none" stroke="black" cx="731" cy="-162" rx="27" ry="18"/>
<text text-anchor="middle" x="731" y="-157.4" font-family="Times,serif" font-size="14.00">J</text>
</g>
<!-- A&#45;&gt;J -->
<g id="edge22" class="edge"><title>A&#45;&gt;J</title>
<path fill="none" stroke="black" d="M1415.93,-952.707C1223.69,-942.988 74,-879.857 74,-810 74,-810 74,-810 74,-378 74,-247.256 554.766,-181.489 693.834,-165.765"/>
<polygon fill="black" stroke="black" points="694.44,-169.22 703.993,-164.638 693.668,-162.263 694.44,-169.22"/>
</g>
<!-- A&#45;&gt;J -->
<g id="edge20" class="edge"><title>A&#45;&gt;J</title>
<path fill="none" stroke="black" d="M1415.81,-952.481C1224.65,-942.049 92,-879.337 92,-810 92,-810 92,-810 92,-378 92,-249.279 558.006,-183.54 694.161,-166.531"/>
<polygon fill="black" stroke="black" points="694.621,-170.001 704.116,-165.301 693.762,-163.054 694.621,-170.001"/>
</g>
<!-- L -->
<g id="node19" class="node"><title>L</title>
<ellipse fill="none" stroke="black" cx="1396" cy="-450" rx="27" ry="18"/>
<text text-anchor="middle" x="1396" y="-445.4" font-family="Times,serif" font-size="14.00">L</text>
</g>
<!-- A&#45;&gt;L -->
<g id="edge24" class="edge"><title>A&#45;&gt;L</title>
<path fill="none" stroke="black" d="M1469.39,-949.306C1554.65,-934.462 1816,-885.039 1816,-810 1816,-810 1816,-810 1816,-738 1816,-551.753 1533.83,-478.174 1431.98,-457.015"/>
<polygon fill="black" stroke="black" points="1432.64,-453.577 1422.14,-455.018 1431.24,-460.437 1432.64,-453.577"/>
</g>
<!-- A&#45;&gt;L -->
<g id="edge26" class="edge"><title>A&#45;&gt;L</title>
<path fill="none" stroke="black" d="M1469.5,-950.484C1557.62,-937.243 1834,-887.165 1834,-810 1834,-810 1834,-810 1834,-738 1834,-547.224 1537.94,-474.662 1432.55,-455.563"/>
<polygon fill="black" stroke="black" points="1433.13,-452.111 1422.68,-453.831 1431.92,-459.006 1433.13,-452.111"/>
</g>
<!-- M -->
<g id="node22" class="node"><title>M</title>
<ellipse fill="none" stroke="black" cx="1243" cy="-378" rx="27" ry="18"/>
<text text-anchor="middle" x="1243" y="-373.4" font-family="Times,serif" font-size="14.00">M</text>
</g>
<!-- A&#45;&gt;M -->
<g id="edge28" class="edge"><title>A&#45;&gt;M</title>
<path fill="none" stroke="black" d="M1470,-951.975C1575.09,-944.188 1946,-911.35 1946,-810 1946,-810 1946,-810 1946,-738 1946,-433.96 1426.46,-386.692 1280.43,-379.349"/>
<polygon fill="black" stroke="black" points="1280.34,-375.841 1270.19,-378.869 1280.01,-382.833 1280.34,-375.841"/>
</g>
<!-- A&#45;&gt;M -->
<g id="edge30" class="edge"><title>A&#45;&gt;M</title>
<path fill="none" stroke="black" d="M1469.91,-952.453C1576.6,-945.599 1964,-913.579 1964,-810 1964,-810 1964,-810 1964,-738 1964,-429.524 1429.19,-385.367 1280.78,-379.053"/>
<polygon fill="black" stroke="black" points="1280.51,-375.539 1270.38,-378.646 1280.24,-382.534 1280.51,-375.539"/>
</g>
<!-- A&#45;&gt;M -->
<g id="edge32" class="edge"><title>A&#45;&gt;M</title>
<path fill="none" stroke="black" d="M1470.22,-952.801C1580.43,-946.736 1982,-915.456 1982,-810 1982,-810 1982,-810 1982,-738 1982,-424.775 1430.59,-384.07 1280.17,-378.787"/>
<polygon fill="black" stroke="black" points="1280.15,-375.285 1270.05,-378.464 1279.93,-382.281 1280.15,-375.285"/>
</g>
<!-- N -->
<g id="node26" class="node"><title>N</title>
<ellipse fill="none" stroke="black" cx="693" cy="-18" rx="27" ry="18"/>
<text text-anchor="middle" x="693" y="-13.4" font-family="Times,serif" font-size="14.00">N</text>
</g>
<!-- A&#45;&gt;N -->
<g id="edge34" class="edge"><title>A&#45;&gt;N</title>
<path fill="none" stroke="black" d="M1415.79,-953.705C1262.81,-951.761 515.128,-939.626 290,-900 157.09,-876.606 0,-944.953 0,-810 0,-810 0,-810 0,-162 0,-72.1595 94.7875,-97.2729 181,-72 269.157,-46.1571 552.507,-25.941 655.647,-19.8742"/>
<polygon fill="black" stroke="black" points="656.122,-23.3528 665.904,-19.2836 655.719,-16.3643 656.122,-23.3528"/>
</g>
<!-- A&#45;&gt;N -->
<g id="edge36" class="edge"><title>A&#45;&gt;N</title>
<path fill="none" stroke="black" d="M1415.71,-953.638C1264.74,-951.496 530.699,-939.198 308,-900 175.09,-876.606 18,-944.953 18,-810 18,-810 18,-810 18,-162 18,-72.1595 112.788,-97.2729 199,-72 284.871,-46.8272 555.944,-26.9931 655.69,-20.3745"/>
<polygon fill="black" stroke="black" points="656.145,-23.8522 665.894,-19.704 655.686,-16.8673 656.145,-23.8522"/>
</g>
<!-- A&#45;&gt;N -->
<g id="edge38" class="edge"><title>A&#45;&gt;N</title>
<path fill="none" stroke="black" d="M1415.56,-953.557C1265.2,-951.197 546.028,-938.728 326,-900 193.09,-876.606 36,-944.953 36,-810 36,-810 36,-810 36,-162 36,-72.1595 130.788,-97.2729 217,-72 300.39,-47.5544 558.436,-28.1436 655.854,-20.981"/>
<polygon fill="black" stroke="black" points="656.398,-24.4506 666.115,-20.2275 655.885,-17.4694 656.398,-24.4506"/>
</g>
<!-- B&#45;&gt;E -->
<g id="edge40" class="edge"><title>B&#45;&gt;E</title>
<path fill="none" stroke="black" d="M1416.05,-880.838C1280.76,-874.928 679.056,-847.729 598,-828 594.752,-827.209 591.439,-826.177 588.173,-825.005"/>
<polygon fill="black" stroke="black" points="589.218,-821.654 578.634,-821.179 586.612,-828.15 589.218,-821.654"/>
</g>
<!-- B&#45;&gt;G -->
<g id="edge44" class="edge"><title>B&#45;&gt;G</title>
<path fill="none" stroke="black" d="M1457.33,-866.493C1470.05,-856.22 1488.27,-842.085 1503,-828 1551.16,-781.967 1600.22,-720.702 1628.29,-688.295"/>
<polygon fill="black" stroke="black" points="1630.99,-690.527 1634.96,-680.705 1625.73,-685.906 1630.99,-690.527"/>
</g>
<!-- B&#45;&gt;H -->
<g id="edge46" class="edge"><title>B&#45;&gt;H</title>
<path fill="none" stroke="black" d="M1465.67,-872.005C1544.06,-838.641 1794.19,-724.756 1736,-576 1662.12,-387.111 1572.14,-358.591 1382,-288 1311.39,-261.788 1284.74,-278.103 1211.5,-252.437"/>
<polygon fill="black" stroke="black" points="1212.43,-249.052 1201.84,-248.907 1210.03,-255.627 1212.43,-249.052"/>
</g>
<!-- B&#45;&gt;H -->
<g id="edge48" class="edge"><title>B&#45;&gt;H</title>
<path fill="none" stroke="black" d="M1467.48,-874.107C1550.8,-843.679 1813.48,-728.058 1754,-576 1680.12,-387.111 1590.14,-358.591 1400,-288 1326.37,-260.666 1300.54,-279.576 1227,-252 1224.17,-250.938 1221.28,-249.65 1218.41,-248.258"/>
<polygon fill="black" stroke="black" points="1219.83,-245.052 1209.33,-243.6 1216.63,-251.279 1219.83,-245.052"/>
</g>
<!-- B&#45;&gt;J -->
<g id="edge50" class="edge"><title>B&#45;&gt;J</title>
<path fill="none" stroke="black" d="M1415.97,-881.747C1235.73,-879.618 222,-861.578 222,-738 222,-738 222,-738 222,-522 222,-291.654 577.801,-192.605 694.747,-168.236"/>
<polygon fill="black" stroke="black" points="695.558,-171.643 704.667,-166.232 694.172,-164.782 695.558,-171.643"/>
</g>
<!-- B&#45;&gt;J -->
<g id="edge52" class="edge"><title>B&#45;&gt;J</title>
<path fill="none" stroke="black" d="M1415.9,-881.693C1237.62,-879.324 240,-860.592 240,-738 240,-738 240,-738 240,-522 240,-296.242 581.768,-196.603 695.027,-169.781"/>
<polygon fill="black" stroke="black" points="695.997,-173.149 704.948,-167.481 694.416,-166.33 695.997,-173.149"/>
</g>
<!-- B&#45;&gt;L -->
<g id="edge56" class="edge"><title>B&#45;&gt;L</title>
<path fill="none" stroke="black" d="M1451.35,-864.818C1456.17,-854.367 1462.03,-840.639 1466,-828 1499.83,-720.168 1508.56,-688.69 1500,-576 1497.55,-543.722 1507.23,-530.751 1489,-504 1475.09,-483.581 1450.7,-469.842 1430.39,-461.334"/>
<polygon fill="black" stroke="black" points="1431.4,-457.97 1420.82,-457.571 1428.84,-464.485 1431.4,-457.97"/>
</g>
<!-- B&#45;&gt;N -->
<g id="edge58" class="edge"><title>B&#45;&gt;N</title>
<path fill="none" stroke="black" d="M1415.84,-881.571C1250.91,-878.52 401.973,-859.332 292,-828 212.787,-805.432 130,-820.365 130,-738 130,-738 130,-738 130,-162 130,-55.6272 528.708,-25.626 655.697,-19.3859"/>
<polygon fill="black" stroke="black" points="655.923,-22.8792 665.748,-18.9148 655.595,-15.8869 655.923,-22.8792"/>
</g>
<!-- B&#45;&gt;N -->
<g id="edge60" class="edge"><title>B&#45;&gt;N</title>
<path fill="none" stroke="black" d="M1415.79,-881.484C1253.56,-878.171 418.975,-859.048 310,-828 230.787,-805.432 148,-820.365 148,-738 148,-738 148,-738 148,-162 148,-57.4895 532.87,-26.6998 655.829,-19.7358"/>
<polygon fill="black" stroke="black" points="656.102,-23.2261 665.897,-19.1863 655.721,-16.2365 656.102,-23.2261"/>
</g>
<!-- F -->
<g id="node31" class="node"><title>F</title>
<ellipse fill="none" stroke="black" cx="915" cy="-90" rx="27" ry="18"/>
<text text-anchor="middle" x="915" y="-85.4" font-family="Times,serif" font-size="14.00">F</text>
</g>
<!-- B&#45;&gt;F -->
<g id="edge42" class="edge"><title>B&#45;&gt;F</title>
<path fill="none" stroke="black" d="M1467.67,-874.177C1500.17,-865.822 1556.22,-850.641 1601,-828 1810.62,-722.016 2080.72,-627.82 1951,-432 1832.62,-253.31 1121.74,-126.575 951.398,-96.7357"/>
<polygon fill="black" stroke="black" points="951.874,-93.2658 941.42,-94.9893 950.667,-100.161 951.874,-93.2658"/>
</g>
<!-- K -->
<g id="node38" class="node"><title>K</title>
<ellipse fill="none" stroke="black" cx="915" cy="-306" rx="27" ry="18"/>
<text text-anchor="middle" x="915" y="-301.4" font-family="Times,serif" font-size="14.00">K</text>
</g>
<!-- B&#45;&gt;K -->
<g id="edge54" class="edge"><title>B&#45;&gt;K</title>
<path fill="none" stroke="black" d="M1415.82,-880.236C1272.61,-870.587 612,-821.551 612,-738 612,-738 612,-738 612,-522 612,-455.866 805.812,-357.354 883.423,-320.556"/>
<polygon fill="black" stroke="black" points="885.162,-323.606 892.72,-316.181 882.181,-317.273 885.162,-323.606"/>
</g>
<!-- C&#45;&gt;B -->
<g id="edge62" class="edge"><title>C&#45;&gt;B</title>
<path fill="none" stroke="black" d="M1438.33,-756.173C1435.86,-780.761 1435.59,-824.87 1437.51,-853.787"/>
<polygon fill="black" stroke="black" points="1434.05,-854.374 1438.36,-864.053 1441.02,-853.8 1434.05,-854.374"/>
</g>
<!-- C&#45;&gt;B -->
<g id="edge64" class="edge"><title>C&#45;&gt;B</title>
<path fill="none" stroke="black" d="M1447.67,-756.173C1450.14,-780.761 1450.41,-824.87 1448.49,-853.787"/>
<polygon fill="black" stroke="black" points="1444.98,-853.8 1447.64,-864.053 1451.95,-854.374 1444.98,-853.8"/>
</g>
<!-- C&#45;&gt;G -->
<g id="edge66" class="edge"><title>C&#45;&gt;G</title>
<path fill="none" stroke="black" d="M1467.27,-729.6C1504.37,-716.756 1575.32,-692.198 1617.36,-677.643"/>
<polygon fill="black" stroke="black" points="1618.58,-680.925 1626.89,-674.347 1616.29,-674.31 1618.58,-680.925"/>
</g>
<!-- C&#45;&gt;J -->
<g id="edge70" class="edge"><title>C&#45;&gt;J</title>
<path fill="none" stroke="black" d="M1415.96,-737.518C1318.49,-735.278 991.71,-724.214 898,-684 807.628,-645.218 773.09,-628.399 730,-540 671.515,-420.018 695.16,-252.369 716.405,-188.305"/>
<polygon fill="black" stroke="black" points="719.807,-189.189 719.916,-178.594 713.224,-186.808 719.807,-189.189"/>
</g>
<!-- C&#45;&gt;L -->
<g id="edge72" class="edge"><title>C&#45;&gt;L</title>
<path fill="none" stroke="black" d="M1433.25,-721.054C1428.78,-681.399 1446.02,-580.157 1416,-504 1412.05,-493.98 1405.39,-484.556 1399.35,-476.473"/>
<polygon fill="black" stroke="black" points="1402,-474.169 1393.2,-468.263 1396.4,-478.365 1402,-474.169"/>
</g>
<!-- C&#45;&gt;L -->
<g id="edge74" class="edge"><title>C&#45;&gt;L</title>
<path fill="none" stroke="black" d="M1442.6,-719.855C1447.12,-679.392 1463.72,-579.401 1434,-504 1429.65,-492.959 1422,-482.642 1414.6,-474.045"/>
<polygon fill="black" stroke="black" points="1416.97,-471.453 1407.68,-466.362 1411.77,-476.136 1416.97,-471.453"/>
</g>
<!-- C&#45;&gt;L -->
<g id="edge76" class="edge"><title>C&#45;&gt;L</title>
<path fill="none" stroke="black" d="M1451.79,-720.758C1464.87,-680.897 1481.94,-579.968 1452,-504 1446.5,-490.043 1435.74,-477.243 1424.95,-467.611"/>
<polygon fill="black" stroke="black" points="1427.11,-464.855 1417.17,-461.187 1422.66,-470.253 1427.11,-464.855"/>
</g>
<!-- C&#45;&gt;M -->
<g id="edge78" class="edge"><title>C&#45;&gt;M</title>
<path fill="none" stroke="black" d="M1433.62,-721.119C1401.61,-663.499 1296.49,-474.289 1257.62,-404.319"/>
<polygon fill="black" stroke="black" points="1260.51,-402.305 1252.59,-395.263 1254.39,-405.704 1260.51,-402.305"/>
</g>
<!-- I -->
<g id="node46" class="node"><title>I</title>
<ellipse fill="none" stroke="black" cx="1407" cy="-522" rx="27" ry="18"/>
<text text-anchor="middle" x="1407" y="-517.4" font-family="Times,serif" font-size="14.00">I</text>
</g>
<!-- C&#45;&gt;I -->
<g id="edge68" class="edge"><title>C&#45;&gt;I</title>
<path fill="none" stroke="black" d="M1436.14,-720.324C1426.42,-682.919 1411.58,-595.491 1406.98,-550.246"/>
<polygon fill="black" stroke="black" points="1410.46,-549.872 1406.08,-540.226 1403.48,-550.499 1410.46,-549.872"/>
</g>
<!-- Z -->
<g id="node53" class="node"><title>Z</title>
<ellipse fill="none" stroke="black" cx="1260" cy="-18" rx="27" ry="18"/>
<text text-anchor="middle" x="1260" y="-13.4" font-family="Times,serif" font-size="14.00">Z</text>
</g>
<!-- C&#45;&gt;Z -->
<g id="edge80" class="edge"><title>C&#45;&gt;Z</title>
<path fill="none" stroke="black" d="M1470.31,-736.587C1582.68,-729.679 1984,-689.032 1984,-450 1984,-450 1984,-450 1984,-162 1984,-89.7066 1446.29,-37.1485 1296.87,-22.2742"/>
<polygon fill="black" stroke="black" points="1297.09,-18.7793 1286.8,-21.2686 1296.4,-25.7447 1297.09,-18.7793"/>
</g>
<!-- C&#45;&gt;Z -->
<g id="edge82" class="edge"><title>C&#45;&gt;Z</title>
<path fill="none" stroke="black" d="M1470.09,-736.999C1582.62,-731.389 2002,-694.35 2002,-450 2002,-450 2002,-450 2002,-162 2002,-88.5591 1447.08,-35.4849 1296.82,-21.5945"/>
<polygon fill="black" stroke="black" points="1296.99,-18.0957 1286.71,-20.6623 1296.35,-25.0661 1296.99,-18.0957"/>
</g>
<!-- C&#45;&gt;Z -->
<g id="edge84" class="edge"><title>C&#45;&gt;Z</title>
<path fill="none" stroke="black" d="M1470.06,-737.293C1584.13,-732.753 2020,-699.108 2020,-450 2020,-450 2020,-450 2020,-162 2020,-87.5755 1450.12,-34.067 1297.32,-21.0575"/>
<polygon fill="black" stroke="black" points="1297.31,-17.5444 1287.05,-20.1911 1296.72,-24.5197 1297.31,-17.5444"/>
</g>
<!-- C&#45;&gt;Z -->
<g id="edge86" class="edge"><title>C&#45;&gt;Z</title>
<path fill="none" stroke="black" d="M1470.14,-737.498C1587.32,-733.826 2038,-703.307 2038,-450 2038,-450 2038,-450 2038,-162 2038,-86.5165 1451.78,-32.5485 1296.86,-20.5268"/>
<polygon fill="black" stroke="black" points="1297.11,-17.0361 1286.87,-19.7648 1296.58,-24.0158 1297.11,-17.0361"/>
</g>
<!-- C&#45;&gt;Z -->
<g id="edge88" class="edge"><title>C&#45;&gt;Z</title>
<path fill="none" stroke="black" d="M1470.33,-737.641C1592.27,-734.657 2056,-706.945 2056,-450 2056,-450 2056,-450 2056,-162 2056,-85.696 1456.97,-31.3778 1297.36,-20.1497"/>
<polygon fill="black" stroke="black" points="1297.28,-16.6363 1287.07,-19.4443 1296.81,-23.6199 1297.28,-16.6363"/>
</g>
<!-- E&#45;&gt;C -->
<g id="edge114" class="edge"><title>E&#45;&gt;C</title>
<path fill="none" stroke="black" d="M584.078,-807.352C712.727,-796.029 1257.6,-751.753 1405.89,-740.574"/>
<polygon fill="black" stroke="black" points="1406.16,-744.064 1415.87,-739.828 1405.63,-737.084 1406.16,-744.064"/>
</g>
<!-- E&#45;&gt;C -->
<g id="edge116" class="edge"><title>E&#45;&gt;C</title>
<path fill="none" stroke="black" d="M584,-807.806C711.885,-797.413 1256.66,-753.142 1405.37,-741.058"/>
<polygon fill="black" stroke="black" points="1406.09,-744.511 1415.78,-740.212 1405.53,-737.534 1406.09,-744.511"/>
</g>
<!-- E&#45;&gt;C -->
<g id="edge118" class="edge"><title>E&#45;&gt;C</title>
<path fill="none" stroke="black" d="M583.975,-808.184C712.39,-798.663 1257.05,-754.446 1405.67,-741.543"/>
<polygon fill="black" stroke="black" points="1406.42,-744.992 1416.08,-740.634 1405.81,-738.018 1406.42,-744.992"/>
</g>
<!-- E&#45;&gt;G -->
<g id="edge126" class="edge"><title>E&#45;&gt;G</title>
<path fill="none" stroke="black" d="M584.044,-809.095C726.937,-804.224 1390.83,-780.43 1479,-756 1508.14,-747.927 1580.93,-706.957 1621.86,-683.172"/>
<polygon fill="black" stroke="black" points="1623.7,-686.153 1630.57,-678.091 1620.17,-680.107 1623.7,-686.153"/>
</g>
<!-- E&#45;&gt;H -->
<g id="edge128" class="edge"><title>E&#45;&gt;H</title>
<path fill="none" stroke="black" d="M534.404,-799.757C500.793,-778.025 446,-724.479 446,-666 446,-666 446,-666 446,-522 446,-421.426 517.506,-411.322 604,-360 697.399,-304.58 1036.18,-252.784 1149.41,-238.117"/>
<polygon fill="black" stroke="black" points="1149.86,-241.588 1159.34,-236.853 1148.98,-234.644 1149.86,-241.588"/>
</g>
<!-- E&#45;&gt;L -->
<g id="edge140" class="edge"><title>E&#45;&gt;L</title>
<path fill="none" stroke="black" d="M580.318,-800.789C686.566,-761.534 1123.57,-607.15 1253,-540 1294.3,-518.572 1338.39,-487.082 1366.74,-467.595"/>
<polygon fill="black" stroke="black" points="1369.07,-470.241 1375.37,-461.718 1365.13,-464.456 1369.07,-470.241"/>
</g>
<!-- E&#45;&gt;N -->
<g id="edge142" class="edge"><title>E&#45;&gt;N</title>
<path fill="none" stroke="black" d="M530.055,-807.818C463.16,-800.508 296,-771.061 296,-666 296,-666 296,-666 296,-522 296,-385.211 272.171,-340.425 329,-216 388.414,-85.9145 576.221,-37.7072 656.38,-23.2643"/>
<polygon fill="black" stroke="black" points="657.245,-26.6669 666.505,-21.5188 656.055,-19.7687 657.245,-26.6669"/>
</g>
<!-- E&#45;&gt;N -->
<g id="edge144" class="edge"><title>E&#45;&gt;N</title>
<path fill="none" stroke="black" d="M530.334,-806.743C467.041,-797.825 314,-766.526 314,-666 314,-666 314,-666 314,-522 314,-385.211 290.171,-340.425 347,-216 404.122,-90.9314 579.926,-41.5473 656.704,-25.0887"/>
<polygon fill="black" stroke="black" points="657.778,-28.4404 666.858,-22.9804 656.355,-21.5866 657.778,-28.4404"/>
</g>
<!-- E&#45;&gt;F -->
<g id="edge122" class="edge"><title>E&#45;&gt;F</title>
<path fill="none" stroke="black" d="M530.763,-805.061C475.245,-792.039 352,-751.715 352,-666 352,-666 352,-666 352,-234 352,-125.971 751.579,-97.5722 877.548,-91.4655"/>
<polygon fill="black" stroke="black" points="878.021,-94.9473 887.848,-90.9869 877.697,-87.9549 878.021,-94.9473"/>
</g>
<!-- E&#45;&gt;F -->
<g id="edge124" class="edge"><title>E&#45;&gt;F</title>
<path fill="none" stroke="black" d="M531.978,-802.819C480.825,-787.746 370,-747.282 370,-666 370,-666 370,-666 370,-234 370,-128.023 754.543,-98.6798 877.669,-91.838"/>
<polygon fill="black" stroke="black" points="877.955,-95.3277 887.752,-91.2957 877.579,-88.3378 877.955,-95.3277"/>
</g>
<!-- E&#45;&gt;K -->
<g id="edge134" class="edge"><title>E&#45;&gt;K</title>
<path fill="none" stroke="black" d="M539.607,-796.121C525.567,-770.465 520,-713.865 520,-666 520,-666 520,-666 520,-522 520,-363.161 778.147,-318.871 877.883,-308.673"/>
<polygon fill="black" stroke="black" points="878.239,-312.156 887.858,-307.715 877.569,-305.188 878.239,-312.156"/>
</g>
<!-- E&#45;&gt;K -->
<g id="edge136" class="edge"><title>E&#45;&gt;K</title>
<path fill="none" stroke="black" d="M549.312,-792.737C543.11,-765.739 538,-711.86 538,-666 538,-666 538,-666 538,-522 538,-367.231 783.087,-321.216 878.128,-309.526"/>
<polygon fill="black" stroke="black" points="878.638,-312.99 888.163,-308.352 877.824,-306.038 878.638,-312.99"/>
</g>
<!-- E&#45;&gt;K -->
<g id="edge138" class="edge"><title>E&#45;&gt;K</title>
<path fill="none" stroke="black" d="M560.747,-791.843C560.999,-764.562 556,-711.359 556,-666 556,-666 556,-666 556,-522 556,-371.846 786.689,-324.057 878.303,-310.665"/>
<polygon fill="black" stroke="black" points="878.839,-314.124 888.254,-309.266 877.864,-307.192 878.839,-314.124"/>
</g>
<!-- E&#45;&gt;I -->
<g id="edge130" class="edge"><title>E&#45;&gt;I</title>
<path fill="none" stroke="black" d="M582.963,-804.893C630.464,-797.154 730.989,-780.693 814,-756 1033.05,-690.838 1283.73,-573.074 1373.58,-534.56"/>
<polygon fill="black" stroke="black" points="1375.15,-537.695 1382.99,-530.57 1372.42,-531.249 1375.15,-537.695"/>
</g>
<!-- E&#45;&gt;I -->
<g id="edge132" class="edge"><title>E&#45;&gt;I</title>
<path fill="none" stroke="black" d="M583.567,-806.503C633.115,-799.604 742.694,-782.566 832,-756 1046.36,-692.235 1290.99,-578.101 1375.99,-537.146"/>
<polygon fill="black" stroke="black" points="1377.62,-540.248 1385.09,-532.744 1374.57,-533.946 1377.62,-540.248"/>
</g>
<!-- D -->
<g id="node59" class="node"><title>D</title>
<ellipse fill="none" stroke="black" cx="1031" cy="-594" rx="27" ry="18"/>
<text text-anchor="middle" x="1031" y="-589.4" font-family="Times,serif" font-size="14.00">D</text>
</g>
<!-- E&#45;&gt;D -->
<g id="edge120" class="edge"><title>E&#45;&gt;D</title>
<path fill="none" stroke="black" d="M572.821,-795.311C608.154,-763.343 697.366,-687.19 786,-648 855.771,-617.15 944.754,-603.236 994.001,-597.525"/>
<polygon fill="black" stroke="black" points="994.623,-600.978 1004.18,-596.397 993.851,-594.02 994.623,-600.978"/>
</g>
<!-- G&#45;&gt;B -->
<g id="edge164" class="edge"><title>G&#45;&gt;B</title>
<path fill="none" stroke="black" d="M1643.2,-683.536C1623.27,-714.367 1571.63,-779.602 1521,-828 1506.57,-841.795 1488.8,-855.638 1473.69,-865.854"/>
<polygon fill="black" stroke="black" points="1471.62,-863.029 1465.15,-871.423 1475.44,-868.893 1471.62,-863.029"/>
</g>
<!-- G&#45;&gt;H -->
<g id="edge168" class="edge"><title>G&#45;&gt;H</title>
<path fill="none" stroke="black" d="M1662.31,-649.326C1668.58,-639.054 1675.75,-625.338 1679,-612 1690.89,-563.238 1675.97,-544.258 1646,-504 1532.96,-352.176 1307.17,-270.667 1220.75,-243.98"/>
<polygon fill="black" stroke="black" points="1221.74,-240.623 1211.15,-241.066 1219.7,-247.321 1221.74,-240.623"/>
</g>
<!-- G&#45;&gt;D -->
<g id="edge166" class="edge"><title>G&#45;&gt;D</title>
<path fill="none" stroke="black" d="M1624.26,-663.222C1525.39,-652.32 1181.35,-612.395 1067.67,-598.67"/>
<polygon fill="black" stroke="black" points="1068.06,-595.192 1057.72,-597.463 1067.22,-602.141 1068.06,-595.192"/>
</g>
<!-- H&#45;&gt;E -->
<g id="edge178" class="edge"><title>H&#45;&gt;E</title>
<path fill="none" stroke="black" d="M1159.31,-237.718C1060.48,-251.824 716.266,-304.066 622,-360 535.506,-411.322 464,-421.426 464,-522 464,-666 464,-666 464,-666 464,-716.381 504.669,-763.101 532.219,-788.97"/>
<polygon fill="black" stroke="black" points="530.193,-791.858 539.942,-796.004 534.906,-786.683 530.193,-791.858"/>
</g>
<!-- H&#45;&gt;E -->
<g id="edge180" class="edge"><title>H&#45;&gt;E</title>
<path fill="none" stroke="black" d="M1159.7,-238.746C1062.86,-254.216 732.108,-305.346 640,-360 553.506,-411.322 482,-421.426 482,-522 482,-666 482,-666 482,-666 482,-714.007 518.927,-758.69 541.739,-785.176"/>
<polygon fill="black" stroke="black" points="539.128,-787.508 548.309,-792.795 544.43,-782.936 539.128,-787.508"/>
</g>
<!-- H&#45;&gt;J -->
<g id="edge182" class="edge"><title>H&#45;&gt;J</title>
<path fill="none" stroke="black" d="M1159.2,-230.719C1080.82,-219.75 855.334,-184.192 766.791,-168.993"/>
<polygon fill="black" stroke="black" points="767.386,-165.544 756.935,-167.286 766.191,-172.441 767.386,-165.544"/>
</g>
<!-- H&#45;&gt;L -->
<g id="edge184" class="edge"><title>H&#45;&gt;L</title>
<path fill="none" stroke="black" d="M1204.64,-247.089C1218.99,-257.508 1239,-272.816 1255,-288 1302.66,-333.241 1351.53,-392.975 1377.35,-425.802"/>
<polygon fill="black" stroke="black" points="1374.79,-428.206 1383.7,-433.928 1380.3,-423.894 1374.79,-428.206"/>
</g>
<!-- H&#45;&gt;L -->
<g id="edge186" class="edge"><title>H&#45;&gt;L</title>
<path fill="none" stroke="black" d="M1210.51,-242.161C1229.97,-252.226 1254.24,-270.197 1273,-288 1319.47,-332.11 1367.09,-389.998 1387.93,-423.29"/>
<polygon fill="black" stroke="black" points="1384.97,-425.168 1393.07,-431.996 1391,-421.607 1384.97,-425.168"/>
</g>
<!-- H&#45;&gt;M -->
<g id="edge188" class="edge"><title>H&#45;&gt;M</title>
<path fill="none" stroke="black" d="M1188.51,-252.128C1195.99,-277.468 1214.04,-323.6 1227.57,-352.425"/>
<polygon fill="black" stroke="black" points="1224.45,-354.012 1231.97,-361.481 1230.75,-350.957 1224.45,-354.012"/>
</g>
<!-- H&#45;&gt;M -->
<g id="edge190" class="edge"><title>H&#45;&gt;M</title>
<path fill="none" stroke="black" d="M1197.19,-250.829C1209.49,-275.289 1227.87,-320.946 1237.52,-350.38"/>
<polygon fill="black" stroke="black" points="1234.22,-351.554 1240.54,-360.053 1240.9,-349.465 1234.22,-351.554"/>
</g>
<!-- H&#45;&gt;M -->
<g id="edge192" class="edge"><title>H&#45;&gt;M</title>
<path fill="none" stroke="black" d="M1204.09,-247.922C1222.17,-271.486 1242.5,-319.653 1248.4,-350.302"/>
<polygon fill="black" stroke="black" points="1244.95,-350.949 1249.85,-360.343 1251.88,-349.944 1244.95,-350.949"/>
</g>
<!-- H&#45;&gt;N -->
<g id="edge194" class="edge"><title>H&#45;&gt;N</title>
<path fill="none" stroke="black" d="M1169.83,-219.418C1139.15,-186.977 1070.47,-108.8 994,-72 947.295,-49.5231 799.502,-30.698 729.81,-22.4607"/>
<polygon fill="black" stroke="black" points="730.059,-18.966 719.719,-21.2768 729.243,-25.9183 730.059,-18.966"/>
</g>
<!-- H&#45;&gt;Z -->
<g id="edge202" class="edge"><title>H&#45;&gt;Z</title>
<path fill="none" stroke="black" d="M1170.26,-219.029C1170.64,-208.278 1177.06,-193.382 1182,-180 1200.23,-130.658 1217.82,-71.4185 1235.94,-40.0348"/>
<polygon fill="black" stroke="black" points="1238.9,-41.9048 1241.33,-31.5915 1233,-38.1409 1238.9,-41.9048"/>
</g>
<!-- H&#45;&gt;Z -->
<g id="edge196" class="edge"><title>H&#45;&gt;Z</title>
<path fill="none" stroke="black" d="M1186.4,-215.685C1189.91,-205.314 1195.55,-192.044 1200,-180 1217.42,-132.829 1234.27,-76.6114 1246.23,-44.3351"/>
<polygon fill="black" stroke="black" points="1249.6,-45.3283 1249.94,-34.7389 1243.07,-42.8055 1249.6,-45.3283"/>
</g>
<!-- H&#45;&gt;Z -->
<g id="edge198" class="edge"><title>H&#45;&gt;Z</title>
<path fill="none" stroke="black" d="M1200.64,-218.565C1206.82,-207.852 1213.13,-193.191 1218,-180 1235.07,-133.779 1251.59,-78.8715 1258.5,-46.3135"/>
<polygon fill="black" stroke="black" points="1261.99,-46.6564 1260.46,-36.1737 1255.12,-45.3271 1261.99,-46.6564"/>
</g>
<!-- H&#45;&gt;Z -->
<g id="edge200" class="edge"><title>H&#45;&gt;Z</title>
<path fill="none" stroke="black" d="M1209.55,-224.937C1222.02,-214.296 1230.07,-196.059 1236,-180 1253.35,-133.033 1270.12,-77.098 1271.57,-44.7556"/>
<polygon fill="black" stroke="black" points="1275.07,-44.6971 1271.45,-34.7389 1268.07,-44.7793 1275.07,-44.6971"/>
</g>
<!-- H&#45;&gt;D -->
<g id="edge170" class="edge"><title>H&#45;&gt;D</title>
<path fill="none" stroke="black" d="M1175.75,-250.7C1146.5,-307.802 1065.38,-495.639 1039.02,-566.561"/>
<polygon fill="black" stroke="black" points="1035.66,-565.553 1035.54,-576.148 1042.24,-567.942 1035.66,-565.553"/>
</g>
<!-- H&#45;&gt;D -->
<g id="edge172" class="edge"><title>H&#45;&gt;D</title>
<path fill="none" stroke="black" d="M1181.37,-252.115C1160.52,-311.177 1080.12,-498.347 1046.02,-567.761"/>
<polygon fill="black" stroke="black" points="1042.68,-566.61 1041.34,-577.119 1048.94,-569.743 1042.68,-566.61"/>
</g>
<!-- H&#45;&gt;D -->
<g id="edge174" class="edge"><title>H&#45;&gt;D</title>
<path fill="none" stroke="black" d="M1187.73,-251.99C1175.99,-311.661 1093.98,-503.072 1051.87,-570.347"/>
<polygon fill="black" stroke="black" points="1048.76,-568.708 1046.2,-578.99 1054.61,-572.545 1048.76,-568.708"/>
</g>
<!-- H&#45;&gt;D -->
<g id="edge176" class="edge"><title>H&#45;&gt;D</title>
<path fill="none" stroke="black" d="M1194.07,-251.499C1192.03,-311.493 1107.51,-508.715 1056.71,-573.313"/>
<polygon fill="black" stroke="black" points="1053.84,-571.283 1050.08,-581.187 1059.19,-575.791 1053.84,-571.283"/>
</g>
<!-- J&#45;&gt;B -->
<g id="edge214" class="edge"><title>J&#45;&gt;B</title>
<path fill="none" stroke="black" d="M705.972,-168.898C607.55,-194.363 258,-293.687 258,-522 258,-738 258,-738 258,-738 258,-857.404 1204.4,-878.279 1405.8,-881.473"/>
<polygon fill="black" stroke="black" points="1405.83,-884.974 1415.89,-881.628 1405.94,-877.975 1405.83,-884.974"/>
</g>
<!-- J&#45;&gt;C -->
<g id="edge216" class="edge"><title>J&#45;&gt;C</title>
<path fill="none" stroke="black" d="M727.008,-180.164C715.5,-236.903 686.835,-414.52 748,-540 791.09,-628.399 825.628,-645.218 916,-684 1004.45,-721.959 1300.57,-733.945 1405.63,-737.054"/>
<polygon fill="black" stroke="black" points="1405.67,-740.557 1415.77,-737.344 1405.87,-733.56 1405.67,-740.557"/>
</g>
<!-- J&#45;&gt;C -->
<g id="edge218" class="edge"><title>J&#45;&gt;C</title>
<path fill="none" stroke="black" d="M734.713,-180.164C733.5,-236.903 704.835,-414.52 766,-540 809.09,-628.399 843.628,-645.218 934,-684 1020.02,-720.913 1302.41,-733.265 1405.48,-736.777"/>
<polygon fill="black" stroke="black" points="1405.62,-740.283 1415.73,-737.117 1405.85,-733.287 1405.62,-740.283"/>
</g>
<!-- J&#45;&gt;E -->
<g id="edge228" class="edge"><title>J&#45;&gt;E</title>
<path fill="none" stroke="black" d="M713.634,-175.875C646.544,-230.153 408,-429.634 408,-522 408,-666 408,-666 408,-666 408,-730.349 480.745,-775.077 524.577,-796.187"/>
<polygon fill="black" stroke="black" points="523.177,-799.396 533.719,-800.451 526.136,-793.052 523.177,-799.396"/>
</g>
<!-- J&#45;&gt;G -->
<g id="edge234" class="edge"><title>J&#45;&gt;G</title>
<path fill="none" stroke="black" d="M758.147,-163.241C832.836,-167.029 1047.43,-180.429 1222,-216 1344.34,-240.929 1760,-253.142 1760,-378 1760,-522 1760,-522 1760,-522 1760,-575.967 1710.73,-622.46 1678.44,-647.133"/>
<polygon fill="black" stroke="black" points="1676.18,-644.447 1670.24,-653.215 1680.35,-650.07 1676.18,-644.447"/>
</g>
<!-- J&#45;&gt;H -->
<g id="edge236" class="edge"><title>J&#45;&gt;H</title>
<path fill="none" stroke="black" d="M757.502,-166.194C834.872,-178.437 1060.56,-214.15 1149.43,-228.213"/>
<polygon fill="black" stroke="black" points="1149.15,-231.712 1159.57,-229.818 1150.24,-224.798 1149.15,-231.712"/>
</g>
<!-- J&#45;&gt;H -->
<g id="edge238" class="edge"><title>J&#45;&gt;H</title>
<path fill="none" stroke="black" d="M757.718,-165.27C836.01,-176.224 1061.55,-211.789 1150.16,-226.998"/>
<polygon fill="black" stroke="black" points="1149.57,-230.448 1160.02,-228.706 1150.76,-223.551 1149.57,-230.448"/>
</g>
<!-- J&#45;&gt;N -->
<g id="edge240" class="edge"><title>J&#45;&gt;N</title>
<path fill="none" stroke="black" d="M717.923,-146.039C706.172,-121.909 693.311,-75.8006 689.441,-46.0011"/>
<polygon fill="black" stroke="black" points="692.903,-45.4405 688.441,-35.831 685.937,-46.1256 692.903,-45.4405"/>
</g>
<!-- J&#45;&gt;F -->
<g id="edge230" class="edge"><title>J&#45;&gt;F</title>
<path fill="none" stroke="black" d="M753.194,-151.376C785.071,-137.982 843.627,-115.053 880.962,-101.333"/>
<polygon fill="black" stroke="black" points="882.228,-104.597 890.428,-97.8886 879.834,-98.0188 882.228,-104.597"/>
</g>
<!-- J&#45;&gt;F -->
<g id="edge232" class="edge"><title>J&#45;&gt;F</title>
<path fill="none" stroke="black" d="M755.443,-154.158C788.434,-142.298 846.83,-119.598 883.176,-104.627"/>
<polygon fill="black" stroke="black" points="884.912,-107.696 892.803,-100.625 882.225,-101.232 884.912,-107.696"/>
</g>
<!-- J&#45;&gt;Z -->
<g id="edge242" class="edge"><title>J&#45;&gt;Z</title>
<path fill="none" stroke="black" d="M731.178,-143.991C737.241,-122.876 754.762,-88.6513 782,-72 819.057,-49.3455 1116.29,-27.1849 1222.55,-20.2322"/>
<polygon fill="black" stroke="black" points="1223.05,-23.7073 1232.8,-19.5703 1222.6,-16.7219 1223.05,-23.7073"/>
</g>
<!-- J&#45;&gt;Z -->
<g id="edge244" class="edge"><title>J&#45;&gt;Z</title>
<path fill="none" stroke="black" d="M742.923,-145.819C754.219,-124.904 771.961,-89.1411 800,-72 836.133,-49.9103 1119.63,-28.2902 1222.78,-20.7804"/>
<polygon fill="black" stroke="black" points="1223.31,-24.251 1233.03,-20.0367 1222.81,-17.2693 1223.31,-24.251"/>
</g>
<!-- J&#45;&gt;D -->
<g id="edge220" class="edge"><title>J&#45;&gt;D</title>
<path fill="none" stroke="black" d="M728.793,-180.094C736.235,-238.915 800.134,-427.417 912,-540 934.369,-562.512 968.106,-577.944 994.702,-586.373"/>
<polygon fill="black" stroke="black" points="993.926,-589.793 1004.51,-589.261 995.904,-583.078 993.926,-589.793"/>
</g>
<!-- J&#45;&gt;D -->
<g id="edge222" class="edge"><title>J&#45;&gt;D</title>
<path fill="none" stroke="black" d="M736.153,-179.684C753.936,-238.034 817.873,-427.153 930,-540 948.959,-559.081 976.085,-573.075 997.452,-582.03"/>
<polygon fill="black" stroke="black" points="996.23,-585.311 1006.81,-585.79 998.839,-578.816 996.23,-585.311"/>
</g>
<!-- J&#45;&gt;D -->
<g id="edge224" class="edge"><title>J&#45;&gt;D</title>
<path fill="none" stroke="black" d="M742.975,-178.479C771.044,-235.385 835.089,-426.364 948,-540 963.609,-555.709 984.753,-567.97 1002.18,-576.81"/>
<polygon fill="black" stroke="black" points="1000.9,-580.084 1011.42,-581.37 1004,-573.806 1000.9,-580.084"/>
</g>
<!-- J&#45;&gt;D -->
<g id="edge226" class="edge"><title>J&#45;&gt;D</title>
<path fill="none" stroke="black" d="M748.557,-176.186C787.275,-230.065 851.521,-424.786 966,-540 979.231,-553.316 996.439,-564.154 1011.09,-572.532"/>
<polygon fill="black" stroke="black" points="1009.38,-575.589 1019.82,-577.43 1012.81,-569.484 1009.38,-575.589"/>
</g>
<!-- L&#45;&gt;C -->
<g id="edge272" class="edge"><title>L&#45;&gt;C</title>
<path fill="none" stroke="black" d="M1421.75,-456.1C1442.11,-465.148 1461.84,-483.302 1470,-504 1498.53,-576.384 1484.37,-671.427 1464.13,-714.716"/>
<polygon fill="black" stroke="black" points="1461,-713.138 1459.44,-723.618 1467.2,-716.397 1461,-713.138"/>
</g>
<!-- L&#45;&gt;E -->
<g id="edge282" class="edge"><title>L&#45;&gt;E</title>
<path fill="none" stroke="black" d="M1382.28,-465.541C1359.57,-484.805 1313.79,-517.802 1271,-540 1143.27,-606.268 715.994,-757.493 591.317,-799.183"/>
<polygon fill="black" stroke="black" points="589.918,-795.959 581.532,-802.435 592.126,-802.602 589.918,-795.959"/>
</g>
<!-- L&#45;&gt;G -->
<g id="edge284" class="edge"><title>L&#45;&gt;G</title>
<path fill="none" stroke="black" d="M1422.91,-451.687C1459.89,-455.36 1526.54,-467.019 1568,-504 1607.2,-538.966 1590.97,-565.819 1616,-612 1621.27,-621.724 1627.7,-632.003 1633.6,-640.953"/>
<polygon fill="black" stroke="black" points="1630.79,-643.04 1639.27,-649.391 1636.6,-639.138 1630.79,-643.04"/>
</g>
<!-- L&#45;&gt;H -->
<g id="edge286" class="edge"><title>L&#45;&gt;H</title>
<path fill="none" stroke="black" d="M1376.6,-437.08C1346.17,-408.638 1290.82,-339.081 1237,-288 1225.83,-277.402 1212.71,-266.744 1202.04,-257.73"/>
<polygon fill="black" stroke="black" points="1204.29,-255.051 1194.43,-251.185 1199.73,-260.359 1204.29,-255.051"/>
</g>
<!-- L&#45;&gt;M -->
<g id="edge294" class="edge"><title>L&#45;&gt;M</title>
<path fill="none" stroke="black" d="M1372.29,-441.027C1345.32,-429.444 1301.63,-409.064 1272.52,-394.618"/>
<polygon fill="black" stroke="black" points="1273.76,-391.323 1263.25,-389.967 1270.62,-397.58 1273.76,-391.323"/>
</g>
<!-- L&#45;&gt;I -->
<g id="edge288" class="edge"><title>L&#45;&gt;I</title>
<path fill="none" stroke="black" d="M1398.74,-467.913C1399.93,-475.699 1401.35,-485.01 1402.68,-493.694"/>
<polygon fill="black" stroke="black" points="1399.25,-494.475 1404.22,-503.831 1406.17,-493.417 1399.25,-494.475"/>
</g>
<!-- L&#45;&gt;I -->
<g id="edge290" class="edge"><title>L&#45;&gt;I</title>
<path fill="none" stroke="black" d="M1409.87,-465.954C1413.13,-474.445 1415.33,-485.119 1415.98,-494.868"/>
<polygon fill="black" stroke="black" points="1412.48,-494.968 1416.07,-504.937 1419.48,-494.906 1412.48,-494.968"/>
</g>
<!-- L&#45;&gt;I -->
<g id="edge292" class="edge"><title>L&#45;&gt;I</title>
<path fill="none" stroke="black" d="M1417.66,-460.879C1426.15,-470.984 1430.28,-486.355 1428.84,-499.154"/>
<polygon fill="black" stroke="black" points="1425.38,-498.573 1426.3,-509.128 1432.16,-500.302 1425.38,-498.573"/>
</g>
<!-- L&#45;&gt;D -->
<g id="edge274" class="edge"><title>L&#45;&gt;D</title>
<path fill="none" stroke="black" d="M1370.15,-455.589C1322.88,-470.057 1230.8,-509.714 1153,-540 1120.52,-552.645 1083.7,-565.999 1058.06,-576.263"/>
<polygon fill="black" stroke="black" points="1056.41,-573.156 1048.47,-580.179 1059.05,-579.636 1056.41,-573.156"/>
</g>
<!-- L&#45;&gt;D -->
<g id="edge276" class="edge"><title>L&#45;&gt;D</title>
<path fill="none" stroke="black" d="M1371.97,-458.249C1330.62,-474.466 1244.44,-511.409 1171,-540 1134.07,-554.375 1091.54,-569.667 1062.99,-580.294"/>
<polygon fill="black" stroke="black" points="1061.65,-577.061 1053.51,-583.849 1064.1,-583.615 1061.65,-577.061"/>
</g>
<!-- L&#45;&gt;D -->
<g id="edge278" class="edge"><title>L&#45;&gt;D</title>
<path fill="none" stroke="black" d="M1375.02,-461.634C1337.57,-479.192 1257.71,-513.251 1189,-540 1147.35,-556.212 1098.58,-573.59 1066.18,-584.128"/>
<polygon fill="black" stroke="black" points="1064.73,-580.918 1056.27,-587.298 1066.86,-587.585 1064.73,-580.918"/>
</g>
<!-- L&#45;&gt;D -->
<g id="edge280" class="edge"><title>L&#45;&gt;D</title>
<path fill="none" stroke="black" d="M1380.44,-465.003C1345.93,-483.294 1271.55,-514.872 1207,-540 1160.51,-558.096 1105.14,-577.645 1067.19,-587.512"/>
<polygon fill="black" stroke="black" points="1066.32,-584.121 1057.46,-589.917 1068,-590.917 1066.32,-584.121"/>
</g>
<!-- M&#45;&gt;B -->
<g id="edge296" class="edge"><title>M&#45;&gt;B</title>
<path fill="none" stroke="black" d="M1215.83,-379.592C1109.04,-386.576 724,-418.907 724,-522 724,-594 724,-594 724,-594 724,-742.567 1259.69,-849.234 1406.3,-875.644"/>
<polygon fill="black" stroke="black" points="1406.1,-879.163 1416.56,-877.475 1407.33,-872.272 1406.1,-879.163"/>
</g>
<!-- M&#45;&gt;G -->
<g id="edge302" class="edge"><title>M&#45;&gt;G</title>
<path fill="none" stroke="black" d="M1269.85,-380.957C1333.04,-388.395 1484.22,-414.324 1567,-504 1603.26,-543.281 1616.69,-607.007 1630.76,-641.666"/>
<polygon fill="black" stroke="black" points="1627.67,-643.342 1634.97,-651.029 1634.06,-640.473 1627.67,-643.342"/>
</g>
<!-- M&#45;&gt;G -->
<g id="edge304" class="edge"><title>M&#45;&gt;G</title>
<path fill="none" stroke="black" d="M1270.17,-379.922C1334.81,-385.824 1497.83,-409.567 1585,-504 1620.19,-542.119 1633.88,-603.26 1641.86,-638.517"/>
<polygon fill="black" stroke="black" points="1638.52,-639.613 1644.17,-648.574 1645.34,-638.044 1638.52,-639.613"/>
</g>
<!-- M&#45;&gt;G -->
<g id="edge306" class="edge"><title>M&#45;&gt;G</title>
<path fill="none" stroke="black" d="M1270.42,-379.224C1337.87,-383.816 1511.87,-405.285 1603,-504 1638.01,-541.921 1651.73,-602.624 1654.17,-637.964"/>
<polygon fill="black" stroke="black" points="1650.68,-638.213 1654.57,-648.065 1657.67,-637.932 1650.68,-638.213"/>
</g>
<!-- M&#45;&gt;G -->
<g id="edge308" class="edge"><title>M&#45;&gt;G</title>
<path fill="none" stroke="black" d="M1270.11,-378.753C1341.9,-382.231 1526.25,-401.36 1621,-504 1656.74,-542.715 1670.3,-605.176 1666.39,-640.151"/>
<polygon fill="black" stroke="black" points="1662.93,-639.607 1664.62,-650.066 1669.82,-640.836 1662.93,-639.607"/>
</g>
<!-- M&#45;&gt;H -->
<g id="edge310" class="edge"><title>M&#45;&gt;H</title>
<path fill="none" stroke="black" d="M1225.2,-364.453C1207.05,-341.03 1186.54,-292.518 1180.6,-261.706"/>
<polygon fill="black" stroke="black" points="1184.04,-261.01 1179.14,-251.616 1177.11,-262.014 1184.04,-261.01"/>
</g>
<!-- M&#45;&gt;L -->
<g id="edge314" class="edge"><title>M&#45;&gt;L</title>
<path fill="none" stroke="black" d="M1266.55,-386.903C1293.44,-398.449 1337.12,-418.819 1366.29,-433.289"/>
<polygon fill="black" stroke="black" points="1365.08,-436.595 1375.58,-437.949 1368.21,-430.337 1365.08,-436.595"/>
</g>
<!-- M&#45;&gt;F -->
<g id="edge300" class="edge"><title>M&#45;&gt;F</title>
<path fill="none" stroke="black" d="M1247.99,-360.164C1250.66,-349.719 1253.66,-336.219 1255,-324 1260.48,-274.109 1260.3,-248.437 1222,-216 1175.27,-176.423 1144.65,-205.556 1089,-180 1063.12,-168.116 1060.88,-157.857 1036,-144 1007.26,-127.991 972.867,-113.016 948.108,-102.916"/>
<polygon fill="black" stroke="black" points="949.376,-99.6534 938.793,-99.1602 946.759,-106.146 949.376,-99.6534"/>
</g>
<!-- M&#45;&gt;K -->
<g id="edge312" class="edge"><title>M&#45;&gt;K</title>
<path fill="none" stroke="black" d="M1216.31,-374.835C1195.56,-371.205 1168.93,-365.099 1146,-360 1076.1,-344.457 995.028,-326.977 949.422,-316.226"/>
<polygon fill="black" stroke="black" points="949.972,-312.759 939.432,-313.84 948.346,-319.567 949.972,-312.759"/>
</g>
<!-- M&#45;&gt;D -->
<g id="edge298" class="edge"><title>M&#45;&gt;D</title>
<path fill="none" stroke="black" d="M1241.06,-396.065C1215.67,-437.396 1116.39,-538.315 1061.99,-577.792"/>
<polygon fill="black" stroke="black" points="1059.88,-574.999 1053.66,-583.582 1063.87,-580.747 1059.88,-574.999"/>
</g>
<!-- N&#45;&gt;B -->
<g id="edge316" class="edge"><title>N&#45;&gt;B</title>
<path fill="none" stroke="black" d="M666.012,-19.5426C558.259,-26.1182 166,-56.491 166,-162 166,-738 166,-738 166,-738 166,-820.365 248.787,-805.432 328,-828 433.81,-858.146 1223.7,-877.05 1405.72,-881.155"/>
<polygon fill="black" stroke="black" points="1405.79,-884.658 1415.87,-881.383 1405.95,-877.659 1405.79,-884.658"/>
</g>
<!-- N&#45;&gt;B -->
<g id="edge318" class="edge"><title>N&#45;&gt;B</title>
<path fill="none" stroke="black" d="M666.055,-20.0046C559.428,-27.4711 184,-58.7794 184,-162 184,-738 184,-738 184,-738 184,-820.365 266.787,-805.432 346,-828 450.659,-857.818 1224.59,-876.638 1405.7,-881.016"/>
<polygon fill="black" stroke="black" points="1405.73,-884.518 1415.81,-881.26 1405.9,-877.52 1405.73,-884.518"/>
</g>
<!-- N&#45;&gt;C -->
<g id="edge320" class="edge"><title>N&#45;&gt;C</title>
<path fill="none" stroke="black" d="M720.024,-19.9432C779.474,-24.7833 918.873,-39.411 951,-72 1120.05,-243.479 843.529,-424.813 995,-612 1047.71,-677.145 1309.16,-719.447 1406.45,-733.151"/>
<polygon fill="black" stroke="black" points="1406.02,-736.626 1416.41,-734.535 1406.99,-729.692 1406.02,-736.626"/>
</g>
<!-- N&#45;&gt;H -->
<g id="edge326" class="edge"><title>N&#45;&gt;H</title>
<path fill="none" stroke="black" d="M719.895,-20.3366C787.323,-27.0152 960.682,-47.3032 1012,-72 1081.02,-105.217 1143.7,-172.146 1171.5,-208.722"/>
<polygon fill="black" stroke="black" points="1168.77,-210.908 1177.5,-216.901 1174.41,-206.768 1168.77,-210.908"/>
</g>
<!-- N&#45;&gt;J -->
<g id="edge328" class="edge"><title>N&#45;&gt;J</title>
<path fill="none" stroke="black" d="M697.796,-36.1727C704.313,-60.8697 716.027,-105.259 723.656,-134.168"/>
<polygon fill="black" stroke="black" points="720.328,-135.278 726.264,-144.053 727.097,-133.491 720.328,-135.278"/>
</g>
<!-- N&#45;&gt;J -->
<g id="edge330" class="edge"><title>N&#45;&gt;J</title>
<path fill="none" stroke="black" d="M706.075,-33.9564C717.81,-58.0528 730.654,-104.072 734.543,-133.877"/>
<polygon fill="black" stroke="black" points="731.082,-134.448 735.552,-144.053 738.048,-133.757 731.082,-134.448"/>
</g>
<!-- N&#45;&gt;F -->
<g id="edge322" class="edge"><title>N&#45;&gt;F</title>
<path fill="none" stroke="black" d="M718.104,-24.7954C758.447,-36.8905 837.205,-62.315 882.006,-77.5978"/>
<polygon fill="black" stroke="black" points="880.962,-80.94 891.557,-80.8812 883.238,-74.3202 880.962,-80.94"/>
</g>
<!-- N&#45;&gt;F -->
<g id="edge324" class="edge"><title>N&#45;&gt;F</title>
<path fill="none" stroke="black" d="M719.088,-22.9325C761.458,-33.4383 840.418,-58.3953 884.811,-74.7247"/>
<polygon fill="black" stroke="black" points="883.668,-78.0338 894.26,-78.2717 886.128,-71.4804 883.668,-78.0338"/>
</g>
<!-- F&#45;&gt;B -->
<g id="edge146" class="edge"><title>F&#45;&gt;B</title>
<path fill="none" stroke="black" d="M941.627,-94.1592C1093.4,-118.478 1846.82,-247.564 1969,-432 2098.72,-627.82 1828.62,-722.016 1619,-828 1573.31,-851.101 1515.89,-866.435 1479.31,-874.677"/>
<polygon fill="black" stroke="black" points="1478.13,-871.352 1469.11,-876.912 1479.63,-878.189 1478.13,-871.352"/>
</g>
<!-- F&#45;&gt;B -->
<g id="edge148" class="edge"><title>F&#45;&gt;B</title>
<path fill="none" stroke="black" d="M941.906,-93.4757C1096.6,-115.957 1863.62,-245.76 1987,-432 2116.72,-627.82 1846.62,-722.016 1637,-828 1586.12,-853.725 1520.69,-869.818 1479.6,-877.212"/>
<polygon fill="black" stroke="black" points="1478.97,-873.77 1469.71,-878.905 1480.15,-880.669 1478.97,-873.77"/>
</g>
<!-- F&#45;&gt;H -->
<g id="edge150" class="edge"><title>F&#45;&gt;H</title>
<path fill="none" stroke="black" d="M933.178,-103.779C958.588,-122.623 1006.61,-156.745 1051,-180 1084.06,-197.318 1123.96,-212.644 1151.77,-222.502"/>
<polygon fill="black" stroke="black" points="1150.84,-225.885 1161.44,-225.88 1153.15,-219.277 1150.84,-225.885"/>
</g>
<!-- F&#45;&gt;N -->
<g id="edge156" class="edge"><title>F&#45;&gt;N</title>
<path fill="none" stroke="black" d="M888.846,-85.0511C846.461,-74.5359 767.561,-49.597 723.191,-33.276"/>
<polygon fill="black" stroke="black" points="724.339,-29.9686 713.747,-29.7308 721.879,-36.5221 724.339,-29.9686"/>
</g>
<!-- F&#45;&gt;N -->
<g id="edge158" class="edge"><title>F&#45;&gt;N</title>
<path fill="none" stroke="black" d="M889.969,-83.2264C849.687,-71.1521 770.979,-45.7448 726.128,-30.4479"/>
<polygon fill="black" stroke="black" points="727.159,-27.1012 716.564,-27.1608 724.884,-33.7212 727.159,-27.1012"/>
</g>
<!-- F&#45;&gt;K -->
<g id="edge152" class="edge"><title>F&#45;&gt;K</title>
<path fill="none" stroke="black" d="M907.229,-107.394C900.152,-144.911 899.632,-233.682 905.667,-278.743"/>
<polygon fill="black" stroke="black" points="902.221,-279.361 907.245,-288.689 909.135,-278.264 902.221,-279.361"/>
</g>
<!-- F&#45;&gt;K -->
<g id="edge154" class="edge"><title>F&#45;&gt;K</title>
<path fill="none" stroke="black" d="M915,-108.145C915,-145.795 915,-232.641 915,-277.71"/>
<polygon fill="black" stroke="black" points="911.5,-277.955 915,-287.955 918.5,-277.956 911.5,-277.955"/>
</g>
<!-- F&#45;&gt;Z -->
<g id="edge160" class="edge"><title>F&#45;&gt;Z</title>
<path fill="none" stroke="black" d="M940.435,-83.8613C1000.96,-70.4698 1153.05,-38.7183 1223.41,-24.7701"/>
<polygon fill="black" stroke="black" points="1224.45,-28.1343 1233.58,-22.7677 1223.09,-21.2662 1224.45,-28.1343"/>
</g>
<!-- F&#45;&gt;Z -->
<g id="edge162" class="edge"><title>F&#45;&gt;Z</title>
<path fill="none" stroke="black" d="M941.196,-85.2759C1002.57,-73.2835 1155,-41.5387 1224.55,-26.3398"/>
<polygon fill="black" stroke="black" points="1225.57,-29.6998 1234.58,-24.1348 1224.06,-22.863 1225.57,-29.6998"/>
</g>
<!-- K&#45;&gt;E -->
<g id="edge248" class="edge"><title>K&#45;&gt;E</title>
<path fill="none" stroke="black" d="M888.655,-310.458C807.111,-323.559 574,-371.059 574,-522 574,-666 574,-666 574,-666 574,-707.554 578.195,-755.691 573.814,-784.45"/>
<polygon fill="black" stroke="black" points="570.34,-783.96 571.688,-794.469 577.188,-785.413 570.34,-783.96"/>
</g>
<!-- K&#45;&gt;H -->
<g id="edge256" class="edge"><title>K&#45;&gt;H</title>
<path fill="none" stroke="black" d="M940.495,-299.226C989.243,-286.275 1095.73,-257.983 1151.06,-243.283"/>
<polygon fill="black" stroke="black" points="1152,-246.654 1160.77,-240.703 1150.21,-239.888 1152,-246.654"/>
</g>
<!-- K&#45;&gt;L -->
<g id="edge258" class="edge"><title>K&#45;&gt;L</title>
<path fill="none" stroke="black" d="M938.631,-315.141C987.334,-331.631 1101.38,-367.31 1198,-396 1254.28,-412.71 1320.26,-431.346 1360.23,-441.775"/>
<polygon fill="black" stroke="black" points="1359.49,-445.2 1370.05,-444.305 1361.24,-438.421 1359.49,-445.2"/>
</g>
<!-- K&#45;&gt;L -->
<g id="edge260" class="edge"><title>K&#45;&gt;L</title>
<path fill="none" stroke="black" d="M940.521,-312.587C992.676,-327.666 1114.04,-365.725 1216,-396 1266.98,-411.139 1325.94,-427.858 1362.23,-438.623"/>
<polygon fill="black" stroke="black" points="1361.26,-441.985 1371.84,-441.495 1363.26,-435.278 1361.26,-441.985"/>
</g>
<!-- K&#45;&gt;M -->
<g id="edge262" class="edge"><title>K&#45;&gt;M</title>
<path fill="none" stroke="black" d="M940.829,-311.508C986.075,-321.178 1082.61,-341.902 1164,-360 1178.22,-363.163 1193.87,-366.714 1207.46,-369.82"/>
<polygon fill="black" stroke="black" points="1206.87,-373.274 1217.4,-372.095 1208.43,-366.451 1206.87,-373.274"/>
</g>
<!-- K&#45;&gt;M -->
<g id="edge264" class="edge"><title>K&#45;&gt;M</title>
<path fill="none" stroke="black" d="M941.443,-309.67C990.688,-318.308 1094.99,-340.654 1182,-360 1191.08,-362.019 1200.74,-364.195 1209.76,-366.314"/>
<polygon fill="black" stroke="black" points="1209.07,-369.748 1219.61,-368.669 1210.7,-362.94 1209.07,-369.748"/>
</g>
<!-- K&#45;&gt;F -->
<g id="edge250" class="edge"><title>K&#45;&gt;F</title>
<path fill="none" stroke="black" d="M900.33,-290.811C885.076,-254.018 883.975,-159.834 897.029,-114.761"/>
<polygon fill="black" stroke="black" points="900.384,-115.767 900.337,-105.172 893.767,-113.484 900.384,-115.767"/>
</g>
<!-- K&#45;&gt;F -->
<g id="edge252" class="edge"><title>K&#45;&gt;F</title>
<path fill="none" stroke="black" d="M922.755,-288.689C929.842,-251.246 930.372,-162.481 924.346,-117.356"/>
<polygon fill="black" stroke="black" points="927.79,-116.724 922.771,-107.394 920.876,-117.818 927.79,-116.724"/>
</g>
<!-- K&#45;&gt;F -->
<g id="edge254" class="edge"><title>K&#45;&gt;F</title>
<path fill="none" stroke="black" d="M929.67,-290.811C944.924,-254.018 946.025,-159.834 932.971,-114.761"/>
<polygon fill="black" stroke="black" points="936.233,-113.484 929.663,-105.172 929.616,-115.767 936.233,-113.484"/>
</g>
<!-- K&#45;&gt;Z -->
<g id="edge266" class="edge"><title>K&#45;&gt;Z</title>
<path fill="none" stroke="black" d="M897.905,-291.793C864.314,-251.784 804.679,-136.866 861,-72 884.088,-45.4095 1127.59,-25.9891 1222.83,-19.9656"/>
<polygon fill="black" stroke="black" points="1223.13,-23.4538 1232.9,-19.3449 1222.7,-16.467 1223.13,-23.4538"/>
</g>
<!-- K&#45;&gt;Z -->
<g id="edge268" class="edge"><title>K&#45;&gt;Z</title>
<path fill="none" stroke="black" d="M904.525,-289.106C879.8,-246.858 823.892,-135.47 879,-72 901.409,-46.1912 1131.47,-27.1372 1222.86,-20.5314"/>
<polygon fill="black" stroke="black" points="1223.32,-24.0078 1233.05,-19.8057 1222.82,-17.0255 1223.32,-24.0078"/>
</g>
<!-- K&#45;&gt;Z -->
<g id="edge270" class="edge"><title>K&#45;&gt;Z</title>
<path fill="none" stroke="black" d="M912.881,-287.847C896.717,-244.684 842.431,-134.849 897,-72 918.649,-47.0657 1134.11,-28.4362 1222.82,-21.2456"/>
<polygon fill="black" stroke="black" points="1223.3,-24.7182 1232.98,-20.4257 1222.73,-17.7409 1223.3,-24.7182"/>
</g>
<!-- K&#45;&gt;D -->
<g id="edge246" class="edge"><title>K&#45;&gt;D</title>
<path fill="none" stroke="black" d="M917.914,-324.087C919.201,-365.725 916.806,-470.133 961,-540 970.929,-555.696 987.252,-567.982 1001.74,-576.842"/>
<polygon fill="black" stroke="black" points="1000.05,-579.907 1010.45,-581.916 1003.57,-573.858 1000.05,-579.907"/>
</g>
<!-- I&#45;&gt;C -->
<g id="edge204" class="edge"><title>I&#45;&gt;C</title>
<path fill="none" stroke="black" d="M1413.82,-539.54C1423.56,-576.919 1438.46,-664.696 1443.04,-709.942"/>
<polygon fill="black" stroke="black" points="1439.56,-710.307 1443.94,-719.955 1446.53,-709.683 1439.56,-710.307"/>
</g>
<!-- I&#45;&gt;E -->
<g id="edge206" class="edge"><title>I&#45;&gt;E</title>
<path fill="none" stroke="black" d="M1388.32,-535C1317.84,-573.963 1068.23,-691.084 850,-756 760.658,-782.577 651.028,-799.617 593.964,-806.511"/>
<polygon fill="black" stroke="black" points="593.465,-803.045 583.938,-807.68 594.276,-809.998 593.465,-803.045"/>
</g>
<!-- I&#45;&gt;H -->
<g id="edge208" class="edge"><title>I&#45;&gt;H</title>
<path fill="none" stroke="black" d="M1382.35,-514.294C1338.82,-499.281 1249,-461.698 1207,-396 1180.88,-355.14 1180.29,-296.588 1182.77,-262.208"/>
<polygon fill="black" stroke="black" points="1186.28,-262.213 1183.66,-251.949 1179.31,-261.61 1186.28,-262.213"/>
</g>
<!-- I&#45;&gt;L -->
<g id="edge210" class="edge"><title>I&#45;&gt;L</title>
<path fill="none" stroke="black" d="M1385.29,-511.065C1376.85,-500.984 1372.75,-485.698 1374.15,-472.942"/>
<polygon fill="black" stroke="black" points="1377.61,-473.543 1376.65,-462.992 1370.82,-471.836 1377.61,-473.543"/>
</g>
<!-- I&#45;&gt;L -->
<g id="edge212" class="edge"><title>I&#45;&gt;L</title>
<path fill="none" stroke="black" d="M1393.26,-506.377C1389.94,-497.873 1387.7,-487.106 1387.03,-477.266"/>
<polygon fill="black" stroke="black" points="1390.52,-477.068 1386.92,-467.103 1383.52,-477.137 1390.52,-477.068"/>
</g>
<!-- D&#45;&gt;G -->
<g id="edge90" class="edge"><title>D&#45;&gt;G</title>
<path fill="none" stroke="black" d="M1057.9,-596.796C1156.96,-607.721 1500.55,-647.594 1614.24,-661.32"/>
<polygon fill="black" stroke="black" points="1613.86,-664.799 1624.21,-662.527 1614.7,-657.849 1613.86,-664.799"/>
</g>
<!-- D&#45;&gt;H -->
<g id="edge92" class="edge"><title>D&#45;&gt;H</title>
<path fill="none" stroke="black" d="M1022.93,-576.636C1024.84,-516.821 1109.4,-319.45 1160.25,-254.744"/>
<polygon fill="black" stroke="black" points="1163.13,-256.762 1166.88,-246.856 1157.77,-252.256 1163.13,-256.762"/>
</g>
<!-- D&#45;&gt;H -->
<g id="edge94" class="edge"><title>D&#45;&gt;H</title>
<path fill="none" stroke="black" d="M1029.34,-575.653C1041.34,-515.577 1123.11,-324.78 1165.14,-257.645"/>
<polygon fill="black" stroke="black" points="1168.24,-259.301 1170.79,-249.019 1162.38,-255.464 1168.24,-259.301"/>
</g>
<!-- D&#45;&gt;J -->
<g id="edge102" class="edge"><title>D&#45;&gt;J</title>
<path fill="none" stroke="black" d="M1004.07,-591.474C968.138,-585.386 922.1,-568.28 894,-540 787.291,-432.606 724.227,-256.132 721.308,-189.034"/>
<polygon fill="black" stroke="black" points="724.809,-188.901 721.382,-178.876 717.809,-188.85 724.809,-188.901"/>
</g>
<!-- D&#45;&gt;M -->
<g id="edge106" class="edge"><title>D&#45;&gt;M</title>
<path fill="none" stroke="black" d="M1032.93,-575.955C1058.34,-534.57 1157.93,-433.365 1212.27,-394.017"/>
<polygon fill="black" stroke="black" points="1214.37,-396.825 1220.59,-388.251 1210.38,-391.073 1214.37,-396.825"/>
</g>
<!-- D&#45;&gt;M -->
<g id="edge108" class="edge"><title>D&#45;&gt;M</title>
<path fill="none" stroke="black" d="M1040.24,-576.689C1071.72,-536.942 1167.36,-439.362 1215.66,-397.543"/>
<polygon fill="black" stroke="black" points="1218.17,-400 1223.54,-390.867 1213.65,-394.658 1218.17,-400"/>
</g>
<!-- D&#45;&gt;M -->
<g id="edge110" class="edge"><title>D&#45;&gt;M</title>
<path fill="none" stroke="black" d="M1045.91,-578.811C1082.63,-541.398 1177.59,-444.645 1220.89,-400.525"/>
<polygon fill="black" stroke="black" points="1223.6,-402.76 1228.11,-393.172 1218.61,-397.857 1223.6,-402.76"/>
</g>
<!-- D&#45;&gt;M -->
<g id="edge112" class="edge"><title>D&#45;&gt;M</title>
<path fill="none" stroke="black" d="M1050.45,-581.135C1092.78,-546.251 1188.59,-449.387 1227.34,-403.167"/>
<polygon fill="black" stroke="black" points="1230.27,-405.111 1233.89,-395.152 1224.85,-400.682 1230.27,-405.111"/>
</g>
<!-- D&#45;&gt;K -->
<g id="edge104" class="edge"><title>D&#45;&gt;K</title>
<path fill="none" stroke="black" d="M1005.97,-586.705C985.201,-578.328 957.387,-562.745 943,-540 901.898,-475.021 901.094,-380.164 907.156,-333.714"/>
<polygon fill="black" stroke="black" points="910.623,-334.193 908.682,-323.778 903.704,-333.13 910.623,-334.193"/>
</g>
<!-- D&#45;&gt;I -->
<g id="edge96" class="edge"><title>D&#45;&gt;I</title>
<path fill="none" stroke="black" d="M1056.27,-587.61C1121.7,-573.674 1293.84,-540.739 1370.23,-527.577"/>
<polygon fill="black" stroke="black" points="1371.08,-530.983 1380.35,-525.855 1369.91,-524.082 1371.08,-530.983"/>
</g>
<!-- D&#45;&gt;I -->
<g id="edge98" class="edge"><title>D&#45;&gt;I</title>
<path fill="none" stroke="black" d="M1057.14,-588.994C1122.99,-576.385 1295.79,-543.296 1371.08,-528.879"/>
<polygon fill="black" stroke="black" points="1371.87,-532.291 1381.03,-526.973 1370.55,-525.416 1371.87,-532.291"/>
</g>
<!-- D&#45;&gt;I -->
<g id="edge100" class="edge"><title>D&#45;&gt;I</title>
<path fill="none" stroke="black" d="M1057.44,-590.18C1124.18,-579.004 1296.49,-546.175 1371.66,-530.509"/>
<polygon fill="black" stroke="black" points="1372.54,-533.901 1381.6,-528.416 1371.1,-527.051 1372.54,-533.901"/>
</g>
</g>
</svg>
