<?xml version="1.0" encoding="UTF-8" standalone="no"?>
<!DOCTYPE svg PUBLIC "-//W3C//DTD SVG 1.1//EN"
 "http://www.w3.org/Graphics/SVG/1.1/DTD/svg11.dtd">
<!-- Generated by graphviz version 2.26.3 (20100126.1600)
 -->
<!-- Title: G Pages: 1 -->
<svg width="593pt" height="620pt"
 viewBox="0.00 0.00 593.28 620.00" xmlns="http://www.w3.org/2000/svg" xmlns:xlink="http://www.w3.org/1999/xlink">
<g id="graph1" class="graph" transform="scale(1 1) rotate(0) translate(4 616)">
<title>G</title>
<polygon fill="white" stroke="white" points="-4,5 -4,-616 590.283,-616 590.283,5 -4,5"/>
<!-- A -->
<g id="node1" class="node"><title>A</title>
<ellipse fill="none" stroke="black" cx="309" cy="-594" rx="27" ry="18"/>
<text text-anchor="middle" x="309" y="-589.4" font-family="Times,serif" font-size="14.00">A</text>
</g>
<!-- B -->
<g id="node2" class="node"><title>B</title>
<ellipse fill="none" stroke="black" cx="218" cy="-522" rx="27" ry="18"/>
<text text-anchor="middle" x="218" y="-517.4" font-family="Times,serif" font-size="14.00">B</text>
</g>
<!-- A&#45;&gt;B -->
<g id="edge2" class="edge"><title>A&#45;&gt;B</title>
<path fill="none" stroke="black" d="M291.454,-580.118C277.858,-569.36 258.825,-554.301 243.54,-542.207"/>
<polygon fill="black" stroke="black" points="245.506,-539.3 235.492,-535.84 241.162,-544.789 245.506,-539.3"/>
</g>
<!-- C -->
<g id="node4" class="node"><title>C</title>
<ellipse fill="none" stroke="black" cx="309" cy="-450" rx="27" ry="18"/>
<text text-anchor="middle" x="309" y="-445.4" font-family="Times,serif" font-size="14.00">C</text>
</g>
<!-- A&#45;&gt;C -->
<g id="edge4" class="edge"><title>A&#45;&gt;C</title>
<path fill="none" stroke="black" d="M304.356,-576.053C301.873,-551.585 301.586,-507.49 303.494,-478.48"/>
<polygon fill="black" stroke="black" points="307.01,-478.424 304.333,-468.173 300.033,-477.856 307.01,-478.424"/>
</g>
<!-- A&#45;&gt;C -->
<g id="edge6" class="edge"><title>A&#45;&gt;C</title>
<path fill="none" stroke="black" d="M313.644,-576.053C316.127,-551.585 316.414,-507.49 314.506,-478.48"/>
<polygon fill="black" stroke="black" points="317.967,-477.856 313.667,-468.173 310.99,-478.424 317.967,-477.856"/>
</g>
<!-- F -->
<g id="node7" class="node"><title>F</title>
<ellipse fill="none" stroke="black" cx="409" cy="-378" rx="27" ry="18"/>
<text text-anchor="middle" x="409" y="-373.4" font-family="Times,serif" font-size="14.00">F</text>
</g>
<!-- A&#45;&gt;F -->
<g id="edge8" class="edge"><title>A&#45;&gt;F</title>
<path fill="none" stroke="black" d="M323.767,-578.474C347.724,-557.082 392.976,-515.727 411,-468 418.485,-448.181 415.059,-424.326 411.434,-406.156"/>
<polygon fill="black" stroke="black" points="414.824,-405.264 409.358,-396.188 407.971,-406.692 414.824,-405.264"/>
</g>
<!-- A&#45;&gt;F -->
<g id="edge10" class="edge"><title>A&#45;&gt;F</title>
<path fill="none" stroke="black" d="M330.139,-582.589C359.39,-562.724 409.74,-519 429,-468 436.873,-447.154 432.675,-421.843 425.828,-403.379"/>
<polygon fill="black" stroke="black" points="429.047,-402.005 421.933,-394.153 422.597,-404.727 429.047,-402.005"/>
</g>
<!-- B&#45;&gt;C -->
<g id="edge12" class="edge"><title>B&#45;&gt;C</title>
<path fill="none" stroke="black" d="M227.886,-504.937C240.399,-493.039 260.416,-477.282 277.789,-465.695"/>
<polygon fill="black" stroke="black" points="280.051,-468.403 286.58,-460.059 276.272,-462.51 280.051,-468.403"/>
</g>
<!-- B&#45;&gt;C -->
<g id="edge14" class="edge"><title>B&#45;&gt;C</title>
<path fill="none" stroke="black" d="M235.546,-508.118C249.142,-497.36 268.175,-482.301 283.46,-470.207"/>
<polygon fill="black" stroke="black" points="285.838,-472.789 291.508,-463.84 281.494,-467.3 285.838,-472.789"/>
</g>
<!-- B&#45;&gt;C -->
<g id="edge16" class="edge"><title>B&#45;&gt;C</title>
<path fill="none" stroke="black" d="M240.839,-511.684C256.827,-501.842 277.018,-486.654 291.691,-473.813"/>
<polygon fill="black" stroke="black" points="294.172,-476.288 299.213,-466.969 289.461,-471.11 294.172,-476.288"/>
</g>
<!-- B&#45;&gt;F -->
<g id="edge28" class="edge"><title>B&#45;&gt;F</title>
<path fill="none" stroke="black" d="M231.468,-506.274C251.445,-497.588 278.81,-485.043 300,-468 327.502,-445.881 348.543,-409.038 374.926,-390.082"/>
<polygon fill="black" stroke="black" points="377.072,-392.868 383.694,-384.597 373.36,-386.933 377.072,-392.868"/>
</g>
<!-- B&#45;&gt;F -->
<g id="edge30" class="edge"><title>B&#45;&gt;F</title>
<path fill="none" stroke="black" d="M238.393,-510.019C260.86,-501.35 293.543,-487.671 318,-468 342.796,-448.057 362.341,-416.145 380.379,-396.165"/>
<polygon fill="black" stroke="black" points="382.999,-398.491 387.491,-388.895 377.996,-393.596 382.999,-398.491"/>
</g>
<!-- B&#45;&gt;F -->
<g id="edge32" class="edge"><title>B&#45;&gt;F</title>
<path fill="none" stroke="black" d="M242.182,-513.967C267.651,-505.775 307.435,-490.974 336,-468 358.414,-449.973 376.537,-422.166 389.512,-402.233"/>
<polygon fill="black" stroke="black" points="392.555,-403.974 395.108,-393.692 386.7,-400.138 392.555,-403.974"/>
</g>
<!-- D -->
<g id="node13" class="node"><title>D</title>
<ellipse fill="none" stroke="black" cx="316" cy="-234" rx="27" ry="18"/>
<text text-anchor="middle" x="316" y="-229.4" font-family="Times,serif" font-size="14.00">D</text>
</g>
<!-- B&#45;&gt;D -->
<g id="edge18" class="edge"><title>B&#45;&gt;D</title>
<path fill="none" stroke="black" d="M210.183,-504.418C210.096,-454.557 257.984,-312.268 292.899,-256.661"/>
<polygon fill="black" stroke="black" points="295.909,-258.458 298.599,-248.211 290.105,-254.544 295.909,-258.458"/>
</g>
<!-- B&#45;&gt;D -->
<g id="edge20" class="edge"><title>B&#45;&gt;D</title>
<path fill="none" stroke="black" d="M217.157,-503.984C225.667,-454.51 272.288,-316.442 299.341,-259.279"/>
<polygon fill="black" stroke="black" points="302.534,-260.719 303.829,-250.204 296.259,-257.616 302.534,-260.719"/>
</g>
<!-- E -->
<g id="node16" class="node"><title>E</title>
<ellipse fill="none" stroke="black" cx="213" cy="-90" rx="27" ry="18"/>
<text text-anchor="middle" x="213" y="-85.4" font-family="Times,serif" font-size="14.00">E</text>
</g>
<!-- B&#45;&gt;E -->
<g id="edge22" class="edge"><title>B&#45;&gt;E</title>
<path fill="none" stroke="black" d="M191.25,-518.848C128.969,-507.514 0,-464.828 0,-378 0,-378 0,-378 0,-234 0,-153.155 112.487,-109.693 176.352,-95.3903"/>
<polygon fill="black" stroke="black" points="177.085,-98.8127 186.16,-93.3438 175.655,-91.9603 177.085,-98.8127"/>
</g>
<!-- B&#45;&gt;E -->
<g id="edge24" class="edge"><title>B&#45;&gt;E</title>
<path fill="none" stroke="black" d="M191.665,-517.263C136.422,-503.872 18,-461.201 18,-378 18,-378 18,-378 18,-234 18,-157.017 119.996,-113.931 177.009,-97.6408"/>
<polygon fill="black" stroke="black" points="178.026,-100.992 186.76,-94.9948 176.193,-94.2359 178.026,-100.992"/>
</g>
<!-- B&#45;&gt;E -->
<g id="edge26" class="edge"><title>B&#45;&gt;E</title>
<path fill="none" stroke="black" d="M192.694,-514.991C142.685,-499.428 36,-456.971 36,-378 36,-378 36,-378 36,-234 36,-161.395 126.726,-118.941 178.268,-100.681"/>
<polygon fill="black" stroke="black" points="179.685,-103.896 188.016,-97.35 177.421,-97.272 179.685,-103.896"/>
</g>
<!-- C&#45;&gt;F -->
<g id="edge34" class="edge"><title>C&#45;&gt;F</title>
<path fill="none" stroke="black" d="M310.425,-431.831C324.02,-418.224 350.544,-400.069 374.249,-388.707"/>
<polygon fill="black" stroke="black" points="375.803,-391.846 383.503,-384.568 372.945,-385.456 375.803,-391.846"/>
</g>
<!-- C&#45;&gt;F -->
<g id="edge36" class="edge"><title>C&#45;&gt;F</title>
<path fill="none" stroke="black" d="M320.592,-433.301C334.867,-421.108 357.762,-404.72 377.035,-392.955"/>
<polygon fill="black" stroke="black" points="379.032,-395.84 385.87,-387.748 375.478,-389.81 379.032,-395.84"/>
</g>
<!-- C&#45;&gt;F -->
<g id="edge38" class="edge"><title>C&#45;&gt;F</title>
<path fill="none" stroke="black" d="M327.809,-436.457C343.13,-425.426 364.957,-409.711 382.121,-397.353"/>
<polygon fill="black" stroke="black" points="384.543,-399.922 390.613,-391.239 380.453,-394.241 384.543,-399.922"/>
</g>
<!-- F&#45;&gt;B -->
<g id="edge74" class="edge"><title>F&#45;&gt;B</title>
<path fill="none" stroke="black" d="M406.573,-396.154C398.348,-416.133 378.801,-448.053 354,-468 324.69,-491.573 283.568,-506.542 254.068,-514.594"/>
<polygon fill="black" stroke="black" points="252.962,-511.265 244.157,-517.157 254.714,-518.042 252.962,-511.265"/>
</g>
<!-- F&#45;&gt;B -->
<g id="edge76" class="edge"><title>F&#45;&gt;B</title>
<path fill="none" stroke="black" d="M419.877,-394.731C417.287,-414.587 397.398,-447.573 372,-468 338.78,-494.718 290.385,-510.383 254.893,-517.452"/>
<polygon fill="black" stroke="black" points="253.995,-514.058 244.786,-519.296 255.252,-520.944 253.995,-514.058"/>
</g>
<!-- F&#45;&gt;B -->
<g id="edge78" class="edge"><title>F&#45;&gt;B</title>
<path fill="none" stroke="black" d="M430.837,-388.6C439.664,-407.057 418.237,-445.29 390,-468 353.627,-497.254 299.061,-513.257 255.225,-519.234"/>
<polygon fill="black" stroke="black" points="254.697,-515.773 245.19,-520.45 255.539,-522.722 254.697,-515.773"/>
</g>
<!-- F&#45;&gt;C -->
<g id="edge80" class="edge"><title>F&#45;&gt;C</title>
<path fill="none" stroke="black" d="M397.72,-394.432C383.403,-406.709 360.166,-423.346 340.698,-435.208"/>
<polygon fill="black" stroke="black" points="338.906,-432.201 332.064,-440.29 342.457,-438.234 338.906,-432.201"/>
</g>
<!-- F&#45;&gt;C -->
<g id="edge82" class="edge"><title>F&#45;&gt;C</title>
<path fill="none" stroke="black" d="M407.617,-396.127C394.014,-409.76 367.399,-427.974 343.644,-439.344"/>
<polygon fill="black" stroke="black" points="342.076,-436.211 334.372,-443.483 344.93,-442.603 342.076,-436.211"/>
</g>
<!-- F&#45;&gt;D -->
<g id="edge84" class="edge"><title>F&#45;&gt;D</title>
<path fill="none" stroke="black" d="M391.491,-363.93C370.425,-340.303 338.559,-292.241 322.961,-261.659"/>
<polygon fill="black" stroke="black" points="325.994,-259.889 318.503,-252.397 319.687,-262.925 325.994,-259.889"/>
</g>
<!-- F&#45;&gt;D -->
<g id="edge86" class="edge"><title>F&#45;&gt;D</title>
<path fill="none" stroke="black" d="M398.15,-361.2C381.91,-336.054 351.171,-288.458 332.246,-259.155"/>
<polygon fill="black" stroke="black" points="335.147,-257.195 326.781,-250.693 329.266,-260.993 335.147,-257.195"/>
</g>
<!-- F&#45;&gt;D -->
<g id="edge88" class="edge"><title>F&#45;&gt;D</title>
<path fill="none" stroke="black" d="M406.697,-360.053C394.967,-333.566 363.236,-284.078 339.943,-255.626"/>
<polygon fill="black" stroke="black" points="342.471,-253.196 333.32,-247.857 337.144,-257.738 342.471,-253.196"/>
</g>
<!-- H -->
<g id="node32" class="node"><title>H</title>
<ellipse fill="none" stroke="black" cx="389" cy="-162" rx="27" ry="18"/>
<text text-anchor="middle" x="389" y="-157.4" font-family="Times,serif" font-size="14.00">H</text>
</g>
<!-- F&#45;&gt;H -->
<g id="edge90" class="edge"><title>F&#45;&gt;H</title>
<path fill="none" stroke="black" d="M399.745,-361.051C389.181,-323.946 380.392,-235.223 382.168,-189.811"/>
<polygon fill="black" stroke="black" points="385.665,-189.975 382.804,-179.774 378.679,-189.533 385.665,-189.975"/>
</g>
<!-- I -->
<g id="node34" class="node"><title>I</title>
<ellipse fill="none" stroke="black" cx="535" cy="-306" rx="27" ry="18"/>
<text text-anchor="middle" x="535" y="-301.4" font-family="Times,serif" font-size="14.00">I</text>
</g>
<!-- F&#45;&gt;I -->
<g id="edge92" class="edge"><title>F&#45;&gt;I</title>
<path fill="none" stroke="black" d="M415.988,-360.571C434.99,-346.362 470.688,-326.838 499.621,-315.405"/>
<polygon fill="black" stroke="black" points="500.992,-318.63 509.14,-311.858 498.548,-312.07 500.992,-318.63"/>
</g>
<!-- F&#45;&gt;I -->
<g id="edge94" class="edge"><title>F&#45;&gt;I</title>
<path fill="none" stroke="black" d="M424.185,-362.906C443.755,-349.889 476.493,-331.292 501.697,-318.943"/>
<polygon fill="black" stroke="black" points="503.42,-321.999 510.945,-314.541 500.411,-315.679 503.42,-321.999"/>
</g>
<!-- D&#45;&gt;B -->
<g id="edge40" class="edge"><title>D&#45;&gt;B</title>
<path fill="none" stroke="black" d="M309.971,-251.718C293.411,-300.384 247.142,-436.359 227.265,-494.771"/>
<polygon fill="black" stroke="black" points="223.891,-493.823 223.983,-504.418 230.518,-496.078 223.891,-493.823"/>
</g>
<!-- D&#45;&gt;B -->
<g id="edge42" class="edge"><title>D&#45;&gt;B</title>
<path fill="none" stroke="black" d="M316.79,-252.323C308.145,-302.03 261.712,-439.513 234.707,-496.619"/>
<polygon fill="black" stroke="black" points="231.517,-495.175 230.226,-505.691 237.793,-498.275 231.517,-495.175"/>
</g>
<!-- D&#45;&gt;B -->
<g id="edge44" class="edge"><title>D&#45;&gt;B</title>
<path fill="none" stroke="black" d="M323.817,-251.585C323.902,-301.423 276.063,-443.592 241.153,-499.257"/>
<polygon fill="black" stroke="black" points="238.137,-497.469 235.453,-507.718 243.943,-501.38 238.137,-497.469"/>
</g>
<!-- D&#45;&gt;E -->
<g id="edge46" class="edge"><title>D&#45;&gt;E</title>
<path fill="none" stroke="black" d="M300.833,-218.862C280.591,-194.518 245.808,-146.364 226.462,-116.31"/>
<polygon fill="black" stroke="black" points="229.275,-114.209 220.987,-107.61 223.351,-117.938 229.275,-114.209"/>
</g>
<!-- G -->
<g id="node30" class="node"><title>G</title>
<ellipse fill="none" stroke="black" cx="504" cy="-90" rx="27" ry="18"/>
<text text-anchor="middle" x="504" y="-85.4" font-family="Times,serif" font-size="14.00">G</text>
</g>
<!-- D&#45;&gt;G -->
<g id="edge48" class="edge"><title>D&#45;&gt;G</title>
<path fill="none" stroke="black" d="M312.405,-215.993C314.064,-195.844 323.591,-163.479 344,-144 377.453,-112.071 431.065,-98.8416 467.051,-93.4881"/>
<polygon fill="black" stroke="black" points="467.715,-96.9302 477.156,-92.1225 466.777,-89.9933 467.715,-96.9302"/>
</g>
<!-- D&#45;&gt;H -->
<g id="edge50" class="edge"><title>D&#45;&gt;H</title>
<path fill="none" stroke="black" d="M310.382,-216.202C318.312,-203.26 336.618,-186.059 355.222,-174.538"/>
<polygon fill="black" stroke="black" points="357.075,-177.511 364.044,-169.531 353.62,-171.423 357.075,-177.511"/>
</g>
<!-- D&#45;&gt;I -->
<g id="edge52" class="edge"><title>D&#45;&gt;I</title>
<path fill="none" stroke="black" d="M340.382,-242.016C379.589,-254.906 456.743,-280.272 501.225,-294.896"/>
<polygon fill="black" stroke="black" points="500.133,-298.221 510.726,-298.02 502.32,-291.571 500.133,-298.221"/>
</g>
<!-- E&#45;&gt;B -->
<g id="edge54" class="edge"><title>E&#45;&gt;B</title>
<path fill="none" stroke="black" d="M190.553,-100.32C145.936,-118.378 54,-160.912 54,-234 54,-378 54,-378 54,-378 54,-447.735 137.189,-488.997 185.52,-508.411"/>
<polygon fill="black" stroke="black" points="184.386,-511.726 194.974,-512.115 186.94,-505.209 184.386,-511.726"/>
</g>
<!-- E&#45;&gt;B -->
<g id="edge56" class="edge"><title>E&#45;&gt;B</title>
<path fill="none" stroke="black" d="M194.849,-103.642C153.77,-123.318 72,-165.071 72,-234 72,-378 72,-378 72,-378 72,-443.502 145.397,-483.883 189.751,-504.633"/>
<polygon fill="black" stroke="black" points="188.457,-507.891 199.005,-508.886 191.38,-501.53 188.457,-507.891"/>
</g>
<!-- E&#45;&gt;C -->
<g id="edge58" class="edge"><title>E&#45;&gt;C</title>
<path fill="none" stroke="black" d="M209.343,-108.027C210.436,-126.267 215.957,-155.231 222,-180 244.027,-270.277 276.45,-375.667 295.316,-423.718"/>
<polygon fill="black" stroke="black" points="292.113,-425.134 299.127,-433.075 298.596,-422.493 292.113,-425.134"/>
</g>
<!-- E&#45;&gt;C -->
<g id="edge60" class="edge"><title>E&#45;&gt;C</title>
<path fill="none" stroke="black" d="M222.64,-107.013C228.229,-125.18 233.843,-154.767 240,-180 261.765,-269.205 293.682,-373.166 305.487,-421.982"/>
<polygon fill="black" stroke="black" points="302.095,-422.849 307.749,-431.809 308.917,-421.278 302.095,-422.849"/>
</g>
<!-- E&#45;&gt;F -->
<g id="edge64" class="edge"><title>E&#45;&gt;F</title>
<path fill="none" stroke="black" d="M213.326,-108.328C218.337,-126.555 229.74,-155.288 240,-180 253.36,-212.177 251.965,-222.82 271,-252 294.882,-288.611 306.587,-293.604 338,-324 351.043,-336.621 366.424,-350.026 379.706,-360.322"/>
<polygon fill="black" stroke="black" points="377.984,-363.405 388.085,-366.601 382.181,-357.803 377.984,-363.405"/>
</g>
<!-- E&#45;&gt;F -->
<g id="edge66" class="edge"><title>E&#45;&gt;F</title>
<path fill="none" stroke="black" d="M225.794,-105.983C235.331,-124.017 247.288,-154.2 258,-180 271.36,-212.177 269.965,-222.82 289,-252 312.882,-288.611 324.587,-293.604 356,-324 366.872,-334.52 379.368,-345.585 389.642,-354.94"/>
<polygon fill="black" stroke="black" points="387.277,-357.52 397.002,-361.724 392.021,-352.373 387.277,-357.52"/>
</g>
<!-- E&#45;&gt;D -->
<g id="edge62" class="edge"><title>E&#45;&gt;D</title>
<path fill="none" stroke="black" d="M228.253,-105.242C248.567,-129.691 283.424,-177.963 302.709,-207.956"/>
<polygon fill="black" stroke="black" points="299.876,-210.026 308.16,-216.63 305.803,-206.301 299.876,-210.026"/>
</g>
<!-- E&#45;&gt;H -->
<g id="edge68" class="edge"><title>E&#45;&gt;H</title>
<path fill="none" stroke="black" d="M232.784,-102.383C262.589,-116.309 317.486,-138.673 353.994,-151.688"/>
<polygon fill="black" stroke="black" points="353.172,-155.108 363.767,-155.096 355.477,-148.499 353.172,-155.108"/>
</g>
<!-- E&#45;&gt;H -->
<g id="edge70" class="edge"><title>E&#45;&gt;H</title>
<path fill="none" stroke="black" d="M236.188,-99.4859C266.949,-112.07 321.42,-134.354 356.335,-148.637"/>
<polygon fill="black" stroke="black" points="355.048,-151.892 365.629,-152.439 357.698,-145.413 355.048,-151.892"/>
</g>
<!-- E&#45;&gt;H -->
<g id="edge72" class="edge"><title>E&#45;&gt;H</title>
<path fill="none" stroke="black" d="M238.207,-96.8947C270.732,-107.945 325.572,-129.936 359.752,-145.288"/>
<polygon fill="black" stroke="black" points="358.679,-148.646 369.229,-149.623 361.591,-142.28 358.679,-148.646"/>
</g>
<!-- G&#45;&gt;D -->
<g id="edge96" class="edge"><title>G&#45;&gt;D</title>
<path fill="none" stroke="black" d="M477.5,-93.9516C446.109,-99.5893 394.526,-112.955 362,-144 344.412,-160.786 334.906,-187.142 328.354,-207.003"/>
<polygon fill="black" stroke="black" points="324.961,-206.119 325.17,-216.712 331.612,-208.3 324.961,-206.119"/>
</g>
<!-- G&#45;&gt;H -->
<g id="edge98" class="edge"><title>G&#45;&gt;H</title>
<path fill="none" stroke="black" d="M481.877,-100.736C462.506,-111.673 434.644,-128.883 414.4,-142.282"/>
<polygon fill="black" stroke="black" points="412.315,-139.466 405.965,-147.947 416.218,-145.277 412.315,-139.466"/>
</g>
<!-- G&#45;&gt;I -->
<g id="edge100" class="edge"><title>G&#45;&gt;I</title>
<path fill="none" stroke="black" d="M502.653,-108.226C504.635,-146.114 516.945,-233.578 526.352,-278.411"/>
<polygon fill="black" stroke="black" points="522.968,-279.319 528.551,-288.324 529.802,-277.803 522.968,-279.319"/>
</g>
<!-- G&#45;&gt;I -->
<g id="edge102" class="edge"><title>G&#45;&gt;I</title>
<path fill="none" stroke="black" d="M510.416,-107.54C519.286,-144.919 532.157,-232.696 535.693,-277.942"/>
<polygon fill="black" stroke="black" points="532.203,-278.209 536.356,-287.955 539.187,-277.746 532.203,-278.209"/>
</g>
<!-- Z -->
<g id="node61" class="node"><title>Z</title>
<ellipse fill="none" stroke="black" cx="504" cy="-18" rx="27" ry="18"/>
<text text-anchor="middle" x="504" y="-13.4" font-family="Times,serif" font-size="14.00">Z</text>
</g>
<!-- G&#45;&gt;Z -->
<g id="edge104" class="edge"><title>G&#45;&gt;Z</title>
<path fill="none" stroke="black" d="M487.354,-75.4297C483.71,-65.9634 482.829,-53.3888 484.711,-42.4197"/>
<polygon fill="black" stroke="black" points="488.149,-43.1142 487.362,-32.5486 481.388,-41.2986 488.149,-43.1142"/>
</g>
<!-- G&#45;&gt;Z -->
<g id="edge106" class="edge"><title>G&#45;&gt;Z</title>
<path fill="none" stroke="black" d="M498.084,-72.2022C497.28,-64.1807 497.057,-54.5231 497.416,-45.5957"/>
<polygon fill="black" stroke="black" points="500.91,-45.8099 498.105,-35.593 493.926,-45.3289 500.91,-45.8099"/>
</g>
<!-- G&#45;&gt;Z -->
<g id="edge108" class="edge"><title>G&#45;&gt;Z</title>
<path fill="none" stroke="black" d="M509.916,-72.2022C510.72,-64.1807 510.943,-54.5231 510.584,-45.5957"/>
<polygon fill="black" stroke="black" points="514.074,-45.3289 509.895,-35.593 507.09,-45.8099 514.074,-45.3289"/>
</g>
<!-- G&#45;&gt;Z -->
<g id="edge110" class="edge"><title>G&#45;&gt;Z</title>
<path fill="none" stroke="black" d="M520.646,-75.4297C524.29,-65.9634 525.171,-53.3888 523.289,-42.4197"/>
<polygon fill="black" stroke="black" points="526.612,-41.2986 520.638,-32.5486 519.851,-43.1142 526.612,-41.2986"/>
</g>
<!-- H&#45;&gt;B -->
<g id="edge112" class="edge"><title>H&#45;&gt;B</title>
<path fill="none" stroke="black" d="M363.28,-167.847C338.167,-174.926 300.785,-189.359 280,-216 214.534,-299.911 213.018,-435.112 215.866,-493.565"/>
<polygon fill="black" stroke="black" points="212.391,-494.093 216.455,-503.877 219.379,-493.693 212.391,-494.093"/>
</g>
<!-- H&#45;&gt;F -->
<g id="edge126" class="edge"><title>H&#45;&gt;F</title>
<path fill="none" stroke="black" d="M390.68,-180.145C394.174,-217.874 402.242,-305.008 406.407,-349.996"/>
<polygon fill="black" stroke="black" points="402.922,-350.321 407.329,-359.955 409.892,-349.675 402.922,-350.321"/>
</g>
<!-- H&#45;&gt;F -->
<g id="edge128" class="edge"><title>H&#45;&gt;F</title>
<path fill="none" stroke="black" d="M398.275,-179.018C408.839,-216.195 417.622,-304.955 415.827,-350.303"/>
<polygon fill="black" stroke="black" points="412.332,-350.121 415.187,-360.324 419.317,-350.567 412.332,-350.121"/>
</g>
<!-- H&#45;&gt;D -->
<g id="edge114" class="edge"><title>H&#45;&gt;D</title>
<path fill="none" stroke="black" d="M367.672,-173.1C354.936,-182.524 339.89,-196.412 328.836,-208.546"/>
<polygon fill="black" stroke="black" points="326.109,-206.349 322.213,-216.202 331.403,-210.929 326.109,-206.349"/>
</g>
<!-- H&#45;&gt;D -->
<g id="edge116" class="edge"><title>H&#45;&gt;D</title>
<path fill="none" stroke="black" d="M373.643,-177.147C363.382,-187.267 349.719,-200.742 338.271,-212.034"/>
<polygon fill="black" stroke="black" points="335.788,-209.567 331.126,-219.082 340.703,-214.551 335.788,-209.567"/>
</g>
<!-- H&#45;&gt;D -->
<g id="edge118" class="edge"><title>H&#45;&gt;D</title>
<path fill="none" stroke="black" d="M382.936,-179.613C373.822,-190.859 359.09,-205.377 345.412,-216.584"/>
<polygon fill="black" stroke="black" points="343.25,-213.831 337.531,-222.75 347.564,-219.344 343.25,-213.831"/>
</g>
<!-- H&#45;&gt;D -->
<g id="edge120" class="edge"><title>H&#45;&gt;D</title>
<path fill="none" stroke="black" d="M394.735,-179.606C386.851,-192.599 368.391,-209.962 349.651,-221.541"/>
<polygon fill="black" stroke="black" points="347.747,-218.596 340.767,-226.566 351.194,-224.689 347.747,-218.596"/>
</g>
<!-- H&#45;&gt;E -->
<g id="edge122" class="edge"><title>H&#45;&gt;E</title>
<path fill="none" stroke="black" d="M362.796,-157.164C327.28,-147.637 270.955,-125.961 236.983,-109.795"/>
<polygon fill="black" stroke="black" points="238.135,-106.461 227.617,-105.185 235.044,-112.742 238.135,-106.461"/>
</g>
<!-- H&#45;&gt;E -->
<g id="edge124" class="edge"><title>H&#45;&gt;E</title>
<path fill="none" stroke="black" d="M374.219,-146.731C344.703,-131.655 288.146,-109.222 248.955,-97.598"/>
<polygon fill="black" stroke="black" points="249.72,-94.1771 239.145,-94.8201 247.813,-100.912 249.72,-94.1771"/>
</g>
<!-- H&#45;&gt;G -->
<g id="edge130" class="edge"><title>H&#45;&gt;G</title>
<path fill="none" stroke="black" d="M398.734,-144.937C415.73,-131.647 445.329,-113.545 469.665,-101.815"/>
<polygon fill="black" stroke="black" points="471.413,-104.864 479.037,-97.5068 468.489,-98.5037 471.413,-104.864"/>
</g>
<!-- H&#45;&gt;G -->
<g id="edge132" class="edge"><title>H&#45;&gt;G</title>
<path fill="none" stroke="black" d="M410.924,-151.376C430.255,-140.472 458.147,-123.249 478.448,-109.819"/>
<polygon fill="black" stroke="black" points="480.557,-112.619 486.909,-104.139 476.656,-106.807 480.557,-112.619"/>
</g>
<!-- H&#45;&gt;G -->
<g id="edge134" class="edge"><title>H&#45;&gt;G</title>
<path fill="none" stroke="black" d="M413.796,-154.566C436.153,-144.864 466.033,-127.435 486.11,-113.129"/>
<polygon fill="black" stroke="black" points="488.389,-115.796 494.323,-107.019 484.211,-110.18 488.389,-115.796"/>
</g>
<!-- H&#45;&gt;I -->
<g id="edge136" class="edge"><title>H&#45;&gt;I</title>
<path fill="none" stroke="black" d="M400.999,-178.237C424.862,-204.638 477.63,-256.819 509.497,-285.655"/>
<polygon fill="black" stroke="black" points="507.326,-288.408 517.119,-292.453 511.986,-283.184 507.326,-288.408"/>
</g>
<!-- H&#45;&gt;I -->
<g id="edge138" class="edge"><title>H&#45;&gt;I</title>
<path fill="none" stroke="black" d="M407.203,-175.83C435.143,-200.374 487.628,-251.814 516.004,-282.164"/>
<polygon fill="black" stroke="black" points="513.651,-284.776 522.999,-289.761 518.8,-280.034 513.651,-284.776"/>
</g>
<!-- H&#45;&gt;Z -->
<g id="edge140" class="edge"><title>H&#45;&gt;Z</title>
<path fill="none" stroke="black" d="M401.746,-146.039C421.866,-120.846 461.116,-71.6982 484.703,-42.1633"/>
<polygon fill="black" stroke="black" points="487.691,-44.0303 491.197,-34.0322 482.221,-39.6621 487.691,-44.0303"/>
</g>
<!-- I&#45;&gt;F -->
<g id="edge146" class="edge"><title>I&#45;&gt;F</title>
<path fill="none" stroke="black" d="M514.484,-317.723C493.803,-329.541 461.684,-347.895 438.319,-361.246"/>
<polygon fill="black" stroke="black" points="436.47,-358.271 429.525,-366.272 439.943,-364.349 436.47,-358.271"/>
</g>
<!-- I&#45;&gt;F -->
<g id="edge148" class="edge"><title>I&#45;&gt;F</title>
<path fill="none" stroke="black" d="M519.881,-321.05C500.322,-334.067 467.546,-352.688 442.315,-365.051"/>
<polygon fill="black" stroke="black" points="440.582,-361.999 433.058,-369.458 443.591,-368.32 440.582,-361.999"/>
</g>
<!-- I&#45;&gt;F -->
<g id="edge150" class="edge"><title>I&#45;&gt;F</title>
<path fill="none" stroke="black" d="M527.707,-323.656C508.567,-337.893 472.921,-357.352 444.091,-368.708"/>
<polygon fill="black" stroke="black" points="442.764,-365.467 434.608,-372.23 445.201,-372.029 442.764,-365.467"/>
</g>
<!-- I&#45;&gt;D -->
<g id="edge142" class="edge"><title>I&#45;&gt;D</title>
<path fill="none" stroke="black" d="M509.255,-300.108C468.637,-288.829 391.773,-263.903 347.876,-248.087"/>
<polygon fill="black" stroke="black" points="348.844,-244.714 338.251,-244.567 346.44,-251.288 348.844,-244.714"/>
</g>
<!-- I&#45;&gt;D -->
<g id="edge144" class="edge"><title>I&#45;&gt;D</title>
<path fill="none" stroke="black" d="M513.012,-295.531C474.641,-281.244 397.336,-255.906 351.437,-242.642"/>
<polygon fill="black" stroke="black" points="352.168,-239.211 341.592,-239.85 350.258,-245.946 352.168,-239.211"/>
</g>
<!-- I&#45;&gt;G -->
<g id="edge152" class="edge"><title>I&#45;&gt;G</title>
<path fill="none" stroke="black" d="M521.506,-290.117C505.208,-253.497 491.27,-162.796 493.918,-117.152"/>
<polygon fill="black" stroke="black" points="497.412,-117.383 494.883,-107.094 490.444,-116.715 497.412,-117.383"/>
</g>
<!-- I&#45;&gt;G -->
<g id="edge154" class="edge"><title>I&#45;&gt;G</title>
<path fill="none" stroke="black" d="M544.097,-289.051C549.568,-251.222 537.121,-159.74 521.191,-115.203"/>
<polygon fill="black" stroke="black" points="524.358,-113.697 517.411,-105.697 517.854,-116.283 524.358,-113.697"/>
</g>
<!-- I&#45;&gt;H -->
<g id="edge156" class="edge"><title>I&#45;&gt;H</title>
<path fill="none" stroke="black" d="M513.049,-295.411C480.18,-272.993 425.019,-220.171 399.458,-188.126"/>
<polygon fill="black" stroke="black" points="402.181,-185.925 393.351,-180.069 396.603,-190.153 402.181,-185.925"/>
</g>
<!-- I&#45;&gt;H -->
<g id="edge158" class="edge"><title>I&#45;&gt;H</title>
<path fill="none" stroke="black" d="M530.736,-288.053C510.781,-259.925 455.82,-205.857 419.325,-178.59"/>
<polygon fill="black" stroke="black" points="421.098,-175.555 410.931,-172.575 417.021,-181.245 421.098,-175.555"/>
</g>
<!-- I&#45;&gt;Z -->
<g id="edge160" class="edge"><title>I&#45;&gt;Z</title>
<path fill="none" stroke="black" d="M532.088,-288.003C536.521,-277.945 543.664,-264.873 547,-252 551.013,-236.512 548.103,-231.962 547,-216 542.521,-151.197 547.098,-131.913 522,-72 518.078,-62.6371 512.458,-53.1763 507.605,-44.8461"/>
<polygon fill="black" stroke="black" points="510.559,-42.9607 502.583,-35.9868 504.47,-46.4124 510.559,-42.9607"/>
</g>
<!-- I&#45;&gt;Z -->
<g id="edge162" class="edge"><title>I&#45;&gt;Z</title>
<path fill="none" stroke="black" d="M547.107,-289.441C553.821,-279.211 561.503,-265.496 565,-252 569.013,-236.512 566.103,-231.962 565,-216 560.521,-151.197 565.098,-131.913 540,-72 535.69,-61.7116 529.33,-51.3048 523.149,-42.4099"/>
<polygon fill="black" stroke="black" points="525.814,-40.1224 517.112,-34.0793 520.146,-44.2303 525.814,-40.1224"/>
</g>
<!-- I&#45;&gt;Z -->
<g id="edge164" class="edge"><title>I&#45;&gt;Z</title>
<path fill="none" stroke="black" d="M557.162,-295.132C568.581,-284.705 578.803,-268.195 583,-252 587.013,-236.512 584.103,-231.962 583,-216 578.521,-151.197 583.098,-131.913 558,-72 552.519,-58.9154 543.721,-45.6394 534.054,-35.5253"/>
<polygon fill="black" stroke="black" points="536.218,-32.7563 526.532,-28.4628 531.426,-37.8594 536.218,-32.7563"/>
</g>
</g>
</svg>
