<?xml version="1.0" encoding="UTF-8" standalone="no"?>
<!DOCTYPE svg PUBLIC "-//W3C//DTD SVG 1.1//EN"
 "http://www.w3.org/Graphics/SVG/1.1/DTD/svg11.dtd">
<!-- Generated by graphviz version 2.26.3 (20100126.1600)
 -->
<!-- Title: G Pages: 1 -->
<svg width="2868pt" height="980pt"
 viewBox="0.00 0.00 2868.00 980.00" xmlns="http://www.w3.org/2000/svg" xmlns:xlink="http://www.w3.org/1999/xlink">
<g id="graph1" class="graph" transform="scale(1 1) rotate(0) translate(4 976)">
<title>G</title>
<polygon fill="white" stroke="white" points="-4,5 -4,-976 2865,-976 2865,5 -4,5"/>
<!-- A -->
<g id="node1" class="node"><title>A</title>
<ellipse fill="none" stroke="black" cx="2104" cy="-954" rx="27" ry="18"/>
<text text-anchor="middle" x="2104" y="-949.4" font-family="Times,serif" font-size="14.00">A</text>
</g>
<!-- B -->
<g id="node2" class="node"><title>B</title>
<ellipse fill="none" stroke="black" cx="2104" cy="-882" rx="27" ry="18"/>
<text text-anchor="middle" x="2104" y="-877.4" font-family="Times,serif" font-size="14.00">B</text>
</g>
<!-- A&#45;&gt;B -->
<g id="edge2" class="edge"><title>A&#45;&gt;B</title>
<path fill="none" stroke="black" d="M2092.48,-937.662C2090.56,-929.131 2090.04,-918.474 2090.9,-908.775"/>
<polygon fill="black" stroke="black" points="2094.38,-909.178 2092.38,-898.773 2087.46,-908.153 2094.38,-909.178"/>
</g>
<!-- A&#45;&gt;B -->
<g id="edge4" class="edge"><title>A&#45;&gt;B</title>
<path fill="none" stroke="black" d="M2104,-935.831C2104,-928.131 2104,-918.974 2104,-910.417"/>
<polygon fill="black" stroke="black" points="2107.5,-910.413 2104,-900.413 2100.5,-910.413 2107.5,-910.413"/>
</g>
<!-- A&#45;&gt;B -->
<g id="edge6" class="edge"><title>A&#45;&gt;B</title>
<path fill="none" stroke="black" d="M2115.52,-937.662C2117.44,-929.131 2117.96,-918.474 2117.1,-908.775"/>
<polygon fill="black" stroke="black" points="2120.54,-908.153 2115.62,-898.773 2113.62,-909.178 2120.54,-908.153"/>
</g>
<!-- C -->
<g id="node6" class="node"><title>C</title>
<ellipse fill="none" stroke="black" cx="1530" cy="-738" rx="27" ry="18"/>
<text text-anchor="middle" x="1530" y="-733.4" font-family="Times,serif" font-size="14.00">C</text>
</g>
<!-- A&#45;&gt;C -->
<g id="edge8" class="edge"><title>A&#45;&gt;C</title>
<path fill="none" stroke="black" d="M2080.43,-945.13C1990.4,-911.253 1668.08,-789.961 1563.22,-750.502"/>
<polygon fill="black" stroke="black" points="1564.36,-747.19 1553.77,-746.944 1561.89,-753.742 1564.36,-747.19"/>
</g>
<!-- E -->
<g id="node8" class="node"><title>E</title>
<ellipse fill="none" stroke="black" cx="1530" cy="-810" rx="27" ry="18"/>
<text text-anchor="middle" x="1530" y="-805.4" font-family="Times,serif" font-size="14.00">E</text>
</g>
<!-- A&#45;&gt;E -->
<g id="edge10" class="edge"><title>A&#45;&gt;E</title>
<path fill="none" stroke="black" d="M2076.85,-951.76C2018.79,-946.12 1879.75,-929.626 1767,-900 1690.58,-879.919 1604.57,-845.638 1560.01,-825.683"/>
<polygon fill="black" stroke="black" points="1561.44,-822.489 1550.89,-821.532 1558.54,-828.86 1561.44,-822.489"/>
</g>
<!-- A&#45;&gt;E -->
<g id="edge12" class="edge"><title>A&#45;&gt;E</title>
<path fill="none" stroke="black" d="M2077.18,-950.742C2021.72,-944.284 1891.61,-928.012 1785,-900 1703.73,-878.646 1611.62,-841.233 1563.28,-822.066"/>
<polygon fill="black" stroke="black" points="1564.51,-818.791 1553.93,-818.376 1561.94,-825.302 1564.51,-818.791"/>
</g>
<!-- G -->
<g id="node11" class="node"><title>G</title>
<ellipse fill="none" stroke="black" cx="416" cy="-666" rx="27" ry="18"/>
<text text-anchor="middle" x="416" y="-661.4" font-family="Times,serif" font-size="14.00">G</text>
</g>
<!-- A&#45;&gt;G -->
<g id="edge14" class="edge"><title>A&#45;&gt;G</title>
<path fill="none" stroke="black" d="M2076.89,-953.399C1875.6,-948.582 619.231,-914.218 477,-828 430.5,-799.812 414.83,-732.845 412.592,-694.416"/>
<polygon fill="black" stroke="black" points="416.077,-693.836 412.304,-683.935 409.08,-694.027 416.077,-693.836"/>
</g>
<!-- A&#45;&gt;G -->
<g id="edge16" class="edge"><title>A&#45;&gt;G</title>
<path fill="none" stroke="black" d="M2076.75,-953.295C1876.36,-948.107 636.252,-913.625 495,-828 448.18,-799.618 432.616,-731.923 424.425,-693.629"/>
<polygon fill="black" stroke="black" points="427.807,-692.709 422.29,-683.665 420.963,-694.176 427.807,-692.709"/>
</g>
<!-- H -->
<g id="node14" class="node"><title>H</title>
<ellipse fill="none" stroke="black" cx="1319" cy="-162" rx="27" ry="18"/>
<text text-anchor="middle" x="1319" y="-157.4" font-family="Times,serif" font-size="14.00">H</text>
</g>
<!-- A&#45;&gt;H -->
<g id="edge18" class="edge"><title>A&#45;&gt;H</title>
<path fill="none" stroke="black" d="M2131,-952.053C2200.38,-946.668 2383.05,-929.955 2435,-900 2563.47,-825.93 2568,-742.291 2568,-594 2568,-594 2568,-594 2568,-450 2568,-443.328 2525.57,-397.815 2312,-288 2237.94,-249.917 2220.09,-234.992 2139,-216 1987.03,-180.407 1495.83,-166.209 1356.29,-162.835"/>
<polygon fill="black" stroke="black" points="1356.19,-159.331 1346.11,-162.593 1356.02,-166.329 1356.19,-159.331"/>
</g>
<!-- J -->
<g id="node16" class="node"><title>J</title>
<ellipse fill="none" stroke="black" cx="1919" cy="-234" rx="27" ry="18"/>
<text text-anchor="middle" x="1919" y="-229.4" font-family="Times,serif" font-size="14.00">J</text>
</g>
<!-- A&#45;&gt;J -->
<g id="edge22" class="edge"><title>A&#45;&gt;J</title>
<path fill="none" stroke="black" d="M2130.51,-950.526C2190.87,-942.995 2335.73,-923.901 2379,-900 2482.1,-843.056 2485.4,-763.225 2461,-648 2422.67,-467.004 2415.17,-375.208 2252,-288 2200.73,-260.6 2031.73,-243.78 1956.03,-237.192"/>
<polygon fill="black" stroke="black" points="1956.25,-233.699 1945.99,-236.331 1955.65,-240.673 1956.25,-233.699"/>
</g>
<!-- A&#45;&gt;J -->
<g id="edge20" class="edge"><title>A&#45;&gt;J</title>
<path fill="none" stroke="black" d="M2130.94,-951.534C2194.67,-944.825 2351.64,-925.054 2397,-900 2500.1,-843.056 2503.4,-763.225 2479,-648 2440.67,-467.004 2433.17,-375.208 2270,-288 2216.54,-259.426 2035.03,-242.357 1956.02,-236.401"/>
<polygon fill="black" stroke="black" points="1956.25,-232.909 1946.02,-235.666 1955.74,-239.89 1956.25,-232.909"/>
</g>
<!-- L -->
<g id="node19" class="node"><title>L</title>
<ellipse fill="none" stroke="black" cx="886" cy="-18" rx="27" ry="18"/>
<text text-anchor="middle" x="886" y="-13.4" font-family="Times,serif" font-size="14.00">L</text>
</g>
<!-- A&#45;&gt;L -->
<g id="edge24" class="edge"><title>A&#45;&gt;L</title>
<path fill="none" stroke="black" d="M2130.97,-952.648C2240.39,-946.703 2644,-918.144 2644,-810 2644,-810 2644,-810 2644,-162 2644,-100.372 3238.86,-199.741 2312,-72 2031.6,-33.3544 1119.61,-20.7805 923.368,-18.4323"/>
<polygon fill="black" stroke="black" points="923.312,-14.9315 913.272,-18.313 923.23,-21.931 923.312,-14.9315"/>
</g>
<!-- A&#45;&gt;L -->
<g id="edge26" class="edge"><title>A&#45;&gt;L</title>
<path fill="none" stroke="black" d="M2131.31,-952.951C2243.55,-947.717 2662,-920.115 2662,-810 2662,-810 2662,-810 2662,-162 2662,-100.372 3256.86,-199.741 2330,-72 2047.02,-32.9992 1120.8,-20.5517 923.23,-18.3702"/>
<polygon fill="black" stroke="black" points="923.11,-14.8688 913.073,-18.2601 923.034,-21.8684 923.11,-14.8688"/>
</g>
<!-- M -->
<g id="node22" class="node"><title>M</title>
<ellipse fill="none" stroke="black" cx="626" cy="-90" rx="27" ry="18"/>
<text text-anchor="middle" x="626" y="-85.4" font-family="Times,serif" font-size="14.00">M</text>
</g>
<!-- A&#45;&gt;M -->
<g id="edge28" class="edge"><title>A&#45;&gt;M</title>
<path fill="none" stroke="black" d="M2076.64,-953.648C1829.58,-950.11 0,-918.791 0,-810 0,-810 0,-810 0,-306 0,-182.075 454.174,-111.013 589.067,-94.0076"/>
<polygon fill="black" stroke="black" points="589.812,-97.4423 599.309,-92.745 588.955,-90.4949 589.812,-97.4423"/>
</g>
<!-- A&#45;&gt;M -->
<g id="edge30" class="edge"><title>A&#45;&gt;M</title>
<path fill="none" stroke="black" d="M2076.86,-953.602C1832.35,-949.848 18,-918.337 18,-810 18,-810 18,-810 18,-306 18,-183.983 458.291,-113.214 589.518,-94.8318"/>
<polygon fill="black" stroke="black" points="590.058,-98.2905 599.484,-93.4536 589.099,-91.3564 590.058,-98.2905"/>
</g>
<!-- A&#45;&gt;M -->
<g id="edge32" class="edge"><title>A&#45;&gt;M</title>
<path fill="none" stroke="black" d="M2076.91,-953.547C1833.29,-949.549 36,-917.827 36,-810 36,-810 36,-810 36,-306 36,-186.285 459.838,-115.902 589.291,-95.9279"/>
<polygon fill="black" stroke="black" points="590.141,-99.3385 599.494,-94.3628 589.079,-92.4194 590.141,-99.3385"/>
</g>
<!-- N -->
<g id="node26" class="node"><title>N</title>
<ellipse fill="none" stroke="black" cx="2177" cy="-306" rx="27" ry="18"/>
<text text-anchor="middle" x="2177" y="-301.4" font-family="Times,serif" font-size="14.00">N</text>
</g>
<!-- A&#45;&gt;N -->
<g id="edge34" class="edge"><title>A&#45;&gt;N</title>
<path fill="none" stroke="black" d="M2130.83,-951.612C2191.23,-945.015 2333.88,-920.297 2396,-828 2514.73,-651.578 2270.18,-406.028 2196.51,-329.634"/>
<polygon fill="black" stroke="black" points="2198.99,-327.166 2189.55,-322.371 2193.94,-332.011 2198.99,-327.166"/>
</g>
<!-- A&#45;&gt;N -->
<g id="edge36" class="edge"><title>A&#45;&gt;N</title>
<path fill="none" stroke="black" d="M2131.28,-952.504C2194.11,-947.413 2348.64,-925.117 2414,-828 2533.81,-649.981 2283.73,-401.578 2201.8,-327.601"/>
<polygon fill="black" stroke="black" points="2203.76,-324.662 2193.98,-320.607 2199.1,-329.881 2203.76,-324.662"/>
</g>
<!-- A&#45;&gt;N -->
<g id="edge38" class="edge"><title>A&#45;&gt;N</title>
<path fill="none" stroke="black" d="M2131.42,-953.089C2198.13,-949.255 2363.72,-929.454 2432,-828 2553.53,-647.422 2294.46,-394.42 2205.15,-324.52"/>
<polygon fill="black" stroke="black" points="2207.13,-321.625 2197.06,-318.335 2202.88,-327.188 2207.13,-321.625"/>
</g>
<!-- B&#45;&gt;E -->
<g id="edge40" class="edge"><title>B&#45;&gt;E</title>
<path fill="none" stroke="black" d="M2077.08,-878.624C1983.78,-866.92 1674.05,-828.069 1566.87,-814.625"/>
<polygon fill="black" stroke="black" points="1567.21,-811.141 1556.86,-813.369 1566.34,-818.086 1567.21,-811.141"/>
</g>
<!-- B&#45;&gt;G -->
<g id="edge44" class="edge"><title>B&#45;&gt;G</title>
<path fill="none" stroke="black" d="M2076.95,-881.811C1871.93,-880.197 576.021,-867.783 505,-828 477.969,-812.858 434.58,-735.918 418.934,-693.748"/>
<polygon fill="black" stroke="black" points="422.182,-692.425 415.655,-684.08 415.553,-694.674 422.182,-692.425"/>
</g>
<!-- B&#45;&gt;G -->
<g id="edge46" class="edge"><title>B&#45;&gt;G</title>
<path fill="none" stroke="black" d="M2076.89,-881.779C1873.59,-880.039 593.572,-867.532 523,-828 495.65,-812.68 451.554,-734.094 429.487,-692.27"/>
<polygon fill="black" stroke="black" points="432.486,-690.451 424.75,-683.213 426.283,-693.696 432.486,-690.451"/>
</g>
<!-- B&#45;&gt;H -->
<g id="edge48" class="edge"><title>B&#45;&gt;H</title>
<path fill="none" stroke="black" d="M2130.76,-878.542C2193.54,-869.267 2344,-837.376 2344,-738 2344,-738 2344,-738 2344,-594 2344,-451.986 2366.34,-372.224 2252,-288 2105.42,-180.027 1511.56,-164.576 1356.24,-162.368"/>
<polygon fill="black" stroke="black" points="1356.29,-158.868 1346.24,-162.235 1356.19,-165.867 1356.29,-158.868"/>
</g>
<!-- B&#45;&gt;H -->
<g id="edge50" class="edge"><title>B&#45;&gt;H</title>
<path fill="none" stroke="black" d="M2131.15,-879.666C2197.62,-872.014 2362,-841.87 2362,-738 2362,-738 2362,-738 2362,-594 2362,-451.986 2384.34,-372.224 2270,-288 2121.47,-178.592 1513.69,-164.182 1356.29,-162.286"/>
<polygon fill="black" stroke="black" points="1356.2,-158.785 1346.16,-162.175 1356.12,-165.785 1356.2,-158.785"/>
</g>
<!-- B&#45;&gt;J -->
<g id="edge52" class="edge"><title>B&#45;&gt;J</title>
<path fill="none" stroke="black" d="M2127.03,-872.372C2173.39,-855.053 2270,-813.246 2270,-738 2270,-738 2270,-738 2270,-594 2270,-453.975 2296.92,-384.018 2195,-288 2130.22,-226.967 2085.53,-268.12 1998,-252 1983.37,-249.306 1967.5,-246.367 1953.62,-243.661"/>
<polygon fill="black" stroke="black" points="1953.94,-240.156 1943.45,-241.645 1952.58,-247.022 1953.94,-240.156"/>
</g>
<!-- B&#45;&gt;J -->
<g id="edge54" class="edge"><title>B&#45;&gt;J</title>
<path fill="none" stroke="black" d="M2129.2,-875.197C2179.59,-859.893 2288,-817.708 2288,-738 2288,-738 2288,-738 2288,-594 2288,-453.975 2314.92,-384.018 2213,-288 2148.22,-226.967 2103.53,-268.12 2016,-252 1995.91,-248.301 1973.49,-244.142 1955.27,-240.754"/>
<polygon fill="black" stroke="black" points="1955.82,-237.296 1945.34,-238.909 1954.54,-244.178 1955.82,-237.296"/>
</g>
<!-- B&#45;&gt;L -->
<g id="edge58" class="edge"><title>B&#45;&gt;L</title>
<path fill="none" stroke="black" d="M2130.99,-879.63C2235.26,-868.865 2606,-815.049 2606,-594 2606,-594 2606,-594 2606,-162 2606,-144.718 2618.68,-124.246 2178,-72 1925.41,-42.0534 1107.69,-22.8124 923.21,-18.7881"/>
<polygon fill="black" stroke="black" points="923.264,-15.2885 913.191,-18.571 923.113,-22.2869 923.264,-15.2885"/>
</g>
<!-- B&#45;&gt;N -->
<g id="edge60" class="edge"><title>B&#45;&gt;N</title>
<path fill="none" stroke="black" d="M2091.36,-865.911C2079.19,-815.411 2104,-655.475 2104,-522 2104,-522 2104,-522 2104,-450 2104,-402.779 2122.89,-349.511 2146.82,-322.952"/>
<polygon fill="black" stroke="black" points="2149.33,-325.392 2154.04,-315.9 2144.44,-320.385 2149.33,-325.392"/>
</g>
<!-- B&#45;&gt;N -->
<g id="edge62" class="edge"><title>B&#45;&gt;N</title>
<path fill="none" stroke="black" d="M2099.01,-864.083C2097.78,-811.652 2122,-653.905 2122,-522 2122,-522 2122,-522 2122,-450 2122,-406.17 2138.28,-357.13 2154.49,-329.075"/>
<polygon fill="black" stroke="black" points="2157.59,-330.728 2159.97,-320.403 2151.67,-326.992 2157.59,-330.728"/>
</g>
<!-- B&#45;&gt;N -->
<g id="edge64" class="edge"><title>B&#45;&gt;N</title>
<path fill="none" stroke="black" d="M2107.07,-864.083C2115.78,-811.652 2140,-653.905 2140,-522 2140,-522 2140,-522 2140,-450 2140,-408.16 2154.83,-361.573 2165.72,-333.024"/>
<polygon fill="black" stroke="black" points="2169.11,-333.952 2169.51,-323.365 2162.6,-331.392 2169.11,-333.952"/>
</g>
<!-- F -->
<g id="node31" class="node"><title>F</title>
<ellipse fill="none" stroke="black" cx="1841" cy="-378" rx="27" ry="18"/>
<text text-anchor="middle" x="1841" y="-373.4" font-family="Times,serif" font-size="14.00">F</text>
</g>
<!-- B&#45;&gt;F -->
<g id="edge42" class="edge"><title>B&#45;&gt;F</title>
<path fill="none" stroke="black" d="M2090.56,-866.084C2042.29,-793.992 1887.15,-497.607 1848.77,-405.465"/>
<polygon fill="black" stroke="black" points="1851.93,-403.957 1844.95,-395.986 1845.44,-406.57 1851.93,-403.957"/>
</g>
<!-- K -->
<g id="node39" class="node"><title>K</title>
<ellipse fill="none" stroke="black" cx="925" cy="-450" rx="27" ry="18"/>
<text text-anchor="middle" x="925" y="-445.4" font-family="Times,serif" font-size="14.00">K</text>
</g>
<!-- B&#45;&gt;K -->
<g id="edge56" class="edge"><title>B&#45;&gt;K</title>
<path fill="none" stroke="black" d="M2080.31,-873.321C2040.61,-856.672 1959.14,-819.466 1889,-792 1480.65,-632.096 1365.2,-628.269 957,-468 955.951,-467.588 954.889,-467.165 953.821,-466.733"/>
<polygon fill="black" stroke="black" points="954.787,-463.343 944.213,-462.69 952.072,-469.795 954.787,-463.343"/>
</g>
<!-- C&#45;&gt;B -->
<g id="edge66" class="edge"><title>C&#45;&gt;B</title>
<path fill="none" stroke="black" d="M1555.53,-744.201C1602.49,-753.238 1702.23,-771.232 1786,-792 1889.03,-817.543 2009.37,-856.462 2068.69,-873.506"/>
<polygon fill="black" stroke="black" points="2067.79,-876.886 2078.36,-876.237 2069.69,-870.15 2067.79,-876.886"/>
</g>
<!-- C&#45;&gt;B -->
<g id="edge68" class="edge"><title>C&#45;&gt;B</title>
<path fill="none" stroke="black" d="M1556.25,-742.302C1605.26,-750.524 1713.88,-769.657 1804,-792 1901.63,-816.205 2014.81,-852.423 2070.09,-870.654"/>
<polygon fill="black" stroke="black" points="2069.13,-874.022 2079.72,-873.841 2071.33,-867.376 2069.13,-874.022"/>
</g>
<!-- C&#45;&gt;B -->
<g id="edge70" class="edge"><title>C&#45;&gt;B</title>
<path fill="none" stroke="black" d="M1556.72,-740.886C1609.58,-748.139 1726.23,-768.257 1822,-792 1914.47,-814.926 2020.89,-848.628 2073.08,-867.616"/>
<polygon fill="black" stroke="black" points="2071.88,-870.905 2082.48,-871.098 2074.32,-864.341 2071.88,-870.905"/>
</g>
<!-- C&#45;&gt;G -->
<g id="edge74" class="edge"><title>C&#45;&gt;G</title>
<path fill="none" stroke="black" d="M1502.91,-736.373C1396.74,-729.981 998.636,-705.862 671,-684 593.646,-678.839 503.128,-672.34 453.427,-668.732"/>
<polygon fill="black" stroke="black" points="453.395,-665.221 443.168,-667.987 452.888,-672.202 453.395,-665.221"/>
</g>
<!-- C&#45;&gt;J -->
<g id="edge78" class="edge"><title>C&#45;&gt;J</title>
<path fill="none" stroke="black" d="M1524,-720.075C1530.65,-709.826 1542.92,-696.548 1553,-684 1662.82,-547.345 1668.96,-497.285 1778,-360 1811.52,-317.802 1855.25,-271.669 1887.36,-248.703"/>
<polygon fill="black" stroke="black" points="1889.32,-251.601 1895.67,-243.121 1885.42,-245.789 1889.32,-251.601"/>
</g>
<!-- C&#45;&gt;J -->
<g id="edge80" class="edge"><title>C&#45;&gt;J</title>
<path fill="none" stroke="black" d="M1539.44,-720.561C1548.26,-710.248 1560.76,-696.748 1571,-684 1680.82,-547.345 1686.96,-497.285 1796,-360 1826.93,-321.062 1866.55,-278.773 1892.58,-254.429"/>
<polygon fill="black" stroke="black" points="1895.17,-256.801 1900.2,-247.473 1890.45,-251.632 1895.17,-256.801"/>
</g>
<!-- C&#45;&gt;L -->
<g id="edge82" class="edge"><title>C&#45;&gt;L</title>
<path fill="none" stroke="black" d="M1504.16,-731.996C1457.67,-714.382 1384,-659.908 1384,-594 1384,-594 1384,-594 1384,-522 1384,-320.551 1034,-435.449 1034,-234 1034,-234 1034,-234 1034,-162 1034,-95.8654 959.37,-55.5625 914.468,-35.0127"/>
<polygon fill="black" stroke="black" points="915.661,-31.7118 905.105,-30.8058 912.792,-38.0969 915.661,-31.7118"/>
</g>
<!-- C&#45;&gt;L -->
<g id="edge84" class="edge"><title>C&#45;&gt;L</title>
<path fill="none" stroke="black" d="M1506.52,-729.073C1468.47,-708.892 1402,-656.605 1402,-594 1402,-594 1402,-594 1402,-522 1402,-320.551 1052,-435.449 1052,-234 1052,-234 1052,-234 1052,-162 1052,-91.6034 967.442,-50.4752 918.578,-31.2842"/>
<polygon fill="black" stroke="black" points="919.617,-27.9342 909.026,-27.6278 917.114,-34.4716 919.617,-27.9342"/>
</g>
<!-- C&#45;&gt;L -->
<g id="edge86" class="edge"><title>C&#45;&gt;L</title>
<path fill="none" stroke="black" d="M1510.59,-725.257C1479.01,-702.815 1420,-652.987 1420,-594 1420,-594 1420,-594 1420,-522 1420,-320.551 1070,-435.449 1070,-234 1070,-234 1070,-234 1070,-162 1070,-87.1176 974.322,-45.3525 920.953,-27.8808"/>
<polygon fill="black" stroke="black" points="921.788,-24.4744 911.199,-24.8031 919.682,-31.15 921.788,-24.4744"/>
</g>
<!-- C&#45;&gt;L -->
<g id="edge88" class="edge"><title>C&#45;&gt;L</title>
<path fill="none" stroke="black" d="M1517.54,-721.637C1491.18,-697.742 1438,-649.998 1438,-594 1438,-594 1438,-594 1438,-522 1438,-320.551 1088,-435.449 1088,-234 1088,-234 1088,-234 1088,-162 1088,-82.7883 980.939,-40.6339 922.158,-25.0924"/>
<polygon fill="black" stroke="black" points="922.677,-21.6142 912.126,-22.5785 920.976,-28.4043 922.677,-21.6142"/>
</g>
<!-- C&#45;&gt;M -->
<g id="edge90" class="edge"><title>C&#45;&gt;M</title>
<path fill="none" stroke="black" d="M1504.11,-732.421C1471.41,-724.682 1414.09,-708.777 1370,-684 1044.67,-501.16 1036.1,-353.103 727,-144 704.821,-128.996 678.026,-114.834 657.61,-104.78"/>
<polygon fill="black" stroke="black" points="658.958,-101.544 648.433,-100.326 655.901,-107.842 658.958,-101.544"/>
</g>
<!-- D -->
<g id="node48" class="node"><title>D</title>
<ellipse fill="none" stroke="black" cx="758" cy="-594" rx="27" ry="18"/>
<text text-anchor="middle" x="758" y="-589.4" font-family="Times,serif" font-size="14.00">D</text>
</g>
<!-- C&#45;&gt;D -->
<g id="edge72" class="edge"><title>C&#45;&gt;D</title>
<path fill="none" stroke="black" d="M1503.87,-733.126C1388.86,-711.673 927.48,-625.613 794.213,-600.755"/>
<polygon fill="black" stroke="black" points="794.594,-597.266 784.122,-598.872 793.31,-604.147 794.594,-597.266"/>
</g>
<!-- I -->
<g id="node51" class="node"><title>I</title>
<ellipse fill="none" stroke="black" cx="557" cy="-522" rx="27" ry="18"/>
<text text-anchor="middle" x="557" y="-517.4" font-family="Times,serif" font-size="14.00">I</text>
</g>
<!-- C&#45;&gt;I -->
<g id="edge76" class="edge"><title>C&#45;&gt;I</title>
<path fill="none" stroke="black" d="M1502.89,-736.269C1428.26,-730.877 1214.92,-712.994 1040,-684 893.189,-659.665 851.476,-666.498 713,-612 683.707,-600.471 679.535,-591.259 652,-576 629.52,-563.543 603.901,-550.23 584.797,-539.94"/>
<polygon fill="black" stroke="black" points="586.442,-536.85 575.984,-535.149 583.098,-543 586.442,-536.85"/>
</g>
<!-- Z -->
<g id="node60" class="node"><title>Z</title>
<ellipse fill="none" stroke="black" cx="1624" cy="-90" rx="27" ry="18"/>
<text text-anchor="middle" x="1624" y="-85.4" font-family="Times,serif" font-size="14.00">Z</text>
</g>
<!-- C&#45;&gt;Z -->
<g id="edge92" class="edge"><title>C&#45;&gt;Z</title>
<path fill="none" stroke="black" d="M1509.91,-725.672C1494,-700.783 1494,-642.75 1494,-594 1494,-594 1494,-594 1494,-378 1494,-271.352 1552.97,-152.966 1595.39,-108.344"/>
<polygon fill="black" stroke="black" points="1597.84,-110.84 1602.57,-101.357 1592.96,-105.823 1597.84,-110.84"/>
</g>
<!-- C&#45;&gt;Z -->
<g id="edge94" class="edge"><title>C&#45;&gt;Z</title>
<path fill="none" stroke="black" d="M1518.79,-721.587C1512,-694.856 1512,-640.25 1512,-594 1512,-594 1512,-594 1512,-378 1512,-274.516 1567.53,-159.98 1601.4,-112.508"/>
<polygon fill="black" stroke="black" points="1604.25,-114.541 1607.45,-104.442 1598.65,-110.339 1604.25,-114.541"/>
</g>
<!-- C&#45;&gt;Z -->
<g id="edge96" class="edge"><title>C&#45;&gt;Z</title>
<path fill="none" stroke="black" d="M1530,-719.815C1530,-692.498 1530,-639.25 1530,-594 1530,-594 1530,-594 1530,-378 1530,-276.917 1582.98,-165.29 1609.39,-115.921"/>
<polygon fill="black" stroke="black" points="1612.59,-117.356 1614.29,-106.899 1606.44,-114.013 1612.59,-117.356"/>
</g>
<!-- C&#45;&gt;Z -->
<g id="edge98" class="edge"><title>C&#45;&gt;Z</title>
<path fill="none" stroke="black" d="M1541.21,-721.587C1548,-694.856 1548,-640.25 1548,-594 1548,-594 1548,-594 1548,-378 1548,-278.112 1599.73,-167.927 1619.09,-117.697"/>
<polygon fill="black" stroke="black" points="1622.42,-118.786 1622.61,-108.192 1615.86,-116.359 1622.42,-118.786"/>
</g>
<!-- C&#45;&gt;Z -->
<g id="edge100" class="edge"><title>C&#45;&gt;Z</title>
<path fill="none" stroke="black" d="M1550.09,-725.672C1566,-700.783 1566,-642.75 1566,-594 1566,-594 1566,-594 1566,-378 1566,-278.039 1617.81,-167.766 1629.77,-117.587"/>
<polygon fill="black" stroke="black" points="1633.25,-118.024 1631.72,-107.54 1626.38,-116.688 1633.25,-118.024"/>
</g>
<!-- E&#45;&gt;C -->
<g id="edge136" class="edge"><title>E&#45;&gt;C</title>
<path fill="none" stroke="black" d="M1513.35,-795.43C1509.71,-785.963 1508.83,-773.389 1510.71,-762.42"/>
<polygon fill="black" stroke="black" points="1514.15,-763.114 1513.36,-752.549 1507.39,-761.299 1514.15,-763.114"/>
</g>
<!-- E&#45;&gt;C -->
<g id="edge138" class="edge"><title>E&#45;&gt;C</title>
<path fill="none" stroke="black" d="M1524.08,-792.202C1523.28,-784.181 1523.06,-774.523 1523.42,-765.596"/>
<polygon fill="black" stroke="black" points="1526.91,-765.81 1524.1,-755.593 1519.93,-765.329 1526.91,-765.81"/>
</g>
<!-- E&#45;&gt;C -->
<g id="edge140" class="edge"><title>E&#45;&gt;C</title>
<path fill="none" stroke="black" d="M1535.92,-792.202C1536.72,-784.181 1536.94,-774.523 1536.58,-765.596"/>
<polygon fill="black" stroke="black" points="1540.07,-765.329 1535.9,-755.593 1533.09,-765.81 1540.07,-765.329"/>
</g>
<!-- E&#45;&gt;C -->
<g id="edge142" class="edge"><title>E&#45;&gt;C</title>
<path fill="none" stroke="black" d="M1546.65,-795.43C1550.29,-785.963 1551.17,-773.389 1549.29,-762.42"/>
<polygon fill="black" stroke="black" points="1552.61,-761.299 1546.64,-752.549 1545.85,-763.114 1552.61,-761.299"/>
</g>
<!-- E&#45;&gt;G -->
<g id="edge150" class="edge"><title>E&#45;&gt;G</title>
<path fill="none" stroke="black" d="M1502.82,-809.874C1368.66,-809.033 776.31,-802.695 599,-756 567.98,-747.831 489.187,-706.135 445.792,-682.467"/>
<polygon fill="black" stroke="black" points="447.297,-679.301 436.845,-677.569 443.936,-685.441 447.297,-679.301"/>
</g>
<!-- E&#45;&gt;H -->
<g id="edge152" class="edge"><title>E&#45;&gt;H</title>
<path fill="none" stroke="black" d="M1504.78,-803.167C1462.98,-787.601 1384.91,-745.987 1352,-684 1254.2,-499.807 1357.13,-420.844 1318,-216 1316.31,-207.176 1313.67,-197.768 1311.77,-189.32"/>
<polygon fill="black" stroke="black" points="1315.17,-188.445 1309.92,-179.246 1308.29,-189.716 1315.17,-188.445"/>
</g>
<!-- E&#45;&gt;J -->
<g id="edge160" class="edge"><title>E&#45;&gt;J</title>
<path fill="none" stroke="black" d="M1555.67,-804.226C1589.14,-797.33 1646.3,-783.147 1689,-756 1761.76,-709.742 1770.09,-683.009 1819,-612 1900.52,-493.647 1932.4,-463.727 1966,-324 1969.74,-308.443 1972.8,-302.484 1966,-288 1962.37,-280.265 1948.59,-268.389 1936.34,-257.742"/>
<polygon fill="black" stroke="black" points="1938.45,-254.944 1928.63,-250.978 1933.84,-260.205 1938.45,-254.944"/>
</g>
<!-- E&#45;&gt;L -->
<g id="edge168" class="edge"><title>E&#45;&gt;L</title>
<path fill="none" stroke="black" d="M1556.78,-807.712C1632.51,-801.471 1845.81,-782.809 1911,-756 2065.31,-692.545 2512,-472.844 2512,-306 2512,-306 2512,-306 2512,-162 2512,-79.258 1165.76,-28.1094 923.18,-19.3469"/>
<polygon fill="black" stroke="black" points="923.221,-15.8462 913.101,-18.9843 922.969,-22.8417 923.221,-15.8462"/>
</g>
<!-- E&#45;&gt;N -->
<g id="edge170" class="edge"><title>E&#45;&gt;N</title>
<path fill="none" stroke="black" d="M1556.71,-806.872C1622.69,-800.533 1783.38,-784.316 1831,-756 1876.16,-729.144 2012,-590.049 2012,-522 2012,-522 2012,-522 2012,-450 2012,-382.64 2091.69,-334.502 2141.8,-315.269"/>
<polygon fill="black" stroke="black" points="2143.17,-318.494 2151.4,-311.811 2140.8,-311.908 2143.17,-318.494"/>
</g>
<!-- E&#45;&gt;N -->
<g id="edge172" class="edge"><title>E&#45;&gt;N</title>
<path fill="none" stroke="black" d="M1556.86,-807.74C1624.51,-802.108 1799.02,-785.717 1849,-756 1894.16,-729.144 2030,-590.049 2030,-522 2030,-522 2030,-522 2030,-450 2030,-386.61 2100.57,-340.243 2144.07,-318.968"/>
<polygon fill="black" stroke="black" points="2145.61,-322.114 2153.17,-314.694 2142.63,-315.778 2145.61,-322.114"/>
</g>
<!-- E&#45;&gt;F -->
<g id="edge146" class="edge"><title>E&#45;&gt;F</title>
<path fill="none" stroke="black" d="M1551.7,-798.854C1608.43,-773.506 1752,-704.992 1752,-594 1752,-594 1752,-594 1752,-522 1752,-472.783 1785.78,-422.955 1812.64,-396.772"/>
<polygon fill="black" stroke="black" points="1815.33,-399.058 1820.36,-389.732 1810.61,-393.887 1815.33,-399.058"/>
</g>
<!-- E&#45;&gt;F -->
<g id="edge148" class="edge"><title>E&#45;&gt;F</title>
<path fill="none" stroke="black" d="M1554.33,-801.548C1615.35,-778.635 1770,-709.197 1770,-594 1770,-594 1770,-594 1770,-522 1770,-475.721 1799.86,-428.901 1820.86,-401.708"/>
<polygon fill="black" stroke="black" points="1823.82,-403.599 1827.31,-393.594 1818.35,-399.241 1823.82,-403.599"/>
</g>
<!-- E&#45;&gt;K -->
<g id="edge162" class="edge"><title>E&#45;&gt;K</title>
<path fill="none" stroke="black" d="M1503.02,-809.05C1389.09,-803.553 978,-772.26 978,-666 978,-666 978,-666 978,-594 978,-547.467 943.955,-503.411 926.495,-476.567"/>
<polygon fill="black" stroke="black" points="929.324,-474.486 921.094,-467.814 923.367,-478.163 929.324,-474.486"/>
</g>
<!-- E&#45;&gt;K -->
<g id="edge164" class="edge"><title>E&#45;&gt;K</title>
<path fill="none" stroke="black" d="M1502.99,-808.759C1393.71,-802.506 996,-770.516 996,-666 996,-666 996,-666 996,-594 996,-546.795 960.966,-502.139 939.304,-475.416"/>
<polygon fill="black" stroke="black" points="941.817,-472.957 932.803,-467.389 936.377,-477.363 941.817,-472.957"/>
</g>
<!-- E&#45;&gt;K -->
<g id="edge166" class="edge"><title>E&#45;&gt;K</title>
<path fill="none" stroke="black" d="M1502.98,-808.376C1396.81,-801.27 1014,-768.539 1014,-666 1014,-666 1014,-666 1014,-594 1014,-544.514 975.498,-497.829 949.142,-471.669"/>
<polygon fill="black" stroke="black" points="951.37,-468.956 941.74,-464.539 946.514,-473.997 951.37,-468.956"/>
</g>
<!-- E&#45;&gt;D -->
<g id="edge144" class="edge"><title>E&#45;&gt;D</title>
<path fill="none" stroke="black" d="M1502.89,-809.427C1404.09,-807.029 1063.89,-795.985 964,-756 886.05,-724.797 813.435,-654.397 778.97,-617.526"/>
<polygon fill="black" stroke="black" points="781.17,-614.749 771.819,-609.767 776.023,-619.493 781.17,-614.749"/>
</g>
<!-- E&#45;&gt;I -->
<g id="edge154" class="edge"><title>E&#45;&gt;I</title>
<path fill="none" stroke="black" d="M1502.69,-809.602C1389.42,-807.358 981.338,-794.967 862,-756 729.087,-712.601 601.068,-599.827 563.251,-548.334"/>
<polygon fill="black" stroke="black" points="566.128,-546.34 557.61,-540.038 560.339,-550.276 566.128,-546.34"/>
</g>
<!-- E&#45;&gt;I -->
<g id="edge156" class="edge"><title>E&#45;&gt;I</title>
<path fill="none" stroke="black" d="M1502.76,-809.483C1394.07,-806.943 997.376,-794.326 880,-756 746.166,-712.3 617.294,-598.26 572.389,-547.273"/>
<polygon fill="black" stroke="black" points="574.822,-544.729 565.684,-539.366 569.483,-549.257 574.822,-544.729"/>
</g>
<!-- E&#45;&gt;I -->
<g id="edge158" class="edge"><title>E&#45;&gt;I</title>
<path fill="none" stroke="black" d="M1502.85,-809.327C1397.13,-806.455 1013.15,-793.6 898,-756 761.342,-711.378 629.857,-593.416 579.048,-544.13"/>
<polygon fill="black" stroke="black" points="581.465,-541.598 571.871,-537.102 576.567,-546.6 581.465,-541.598"/>
</g>
<!-- G&#45;&gt;B -->
<g id="edge202" class="edge"><title>G&#45;&gt;B</title>
<path fill="none" stroke="black" d="M432.216,-680.716C460.377,-717.39 510.858,-811.116 541,-828 609.99,-866.646 1834.81,-879.465 2066.51,-881.646"/>
<polygon fill="black" stroke="black" points="2066.75,-885.148 2076.78,-881.742 2066.82,-878.149 2066.75,-885.148"/>
</g>
<!-- G&#45;&gt;H -->
<g id="edge206" class="edge"><title>G&#45;&gt;H</title>
<path fill="none" stroke="black" d="M410.926,-648.212C410.796,-629.659 415.473,-599.991 425,-576 460.186,-487.39 501.881,-480.439 584,-432 800.966,-304.02 867.819,-291.937 1108,-216 1168.43,-196.893 1240.4,-178.73 1282.91,-169.111"/>
<polygon fill="black" stroke="black" points="1283.8,-172.499 1292.8,-166.91 1282.28,-165.666 1283.8,-172.499"/>
</g>
<!-- G&#45;&gt;H -->
<g id="edge208" class="edge"><title>G&#45;&gt;H</title>
<path fill="none" stroke="black" d="M424.282,-648.554C428.738,-630.026 433.414,-600.14 443,-576 478.186,-487.39 519.881,-480.439 602,-432 818.966,-304.02 885.819,-291.937 1126,-216 1180.97,-198.621 1245.47,-182.023 1284.38,-171.925"/>
<polygon fill="black" stroke="black" points="1285.38,-175.283 1294.17,-169.378 1283.61,-168.509 1285.38,-175.283"/>
</g>
<!-- G&#45;&gt;L -->
<g id="edge210" class="edge"><title>G&#45;&gt;L</title>
<path fill="none" stroke="black" d="M389.723,-661.368C309.424,-645.386 74,-589.789 74,-522 74,-522 74,-522 74,-306 74,-193.248 70.7908,-121.697 172,-72 232.675,-42.2066 710.841,-23.7062 848.897,-19.1214"/>
<polygon fill="black" stroke="black" points="849.101,-22.6167 858.981,-18.7915 848.872,-15.6205 849.101,-22.6167"/>
</g>
<!-- G&#45;&gt;M -->
<g id="edge212" class="edge"><title>G&#45;&gt;M</title>
<path fill="none" stroke="black" d="M394.61,-654.817C342.456,-611.91 240,-452.861 240,-306 240,-306 240,-306 240,-234 240,-162.925 489.964,-109.138 589.134,-94.1792"/>
<polygon fill="black" stroke="black" points="589.684,-97.6362 599.078,-92.7379 588.679,-90.7086 589.684,-97.6362"/>
</g>
<!-- G&#45;&gt;D -->
<g id="edge204" class="edge"><title>G&#45;&gt;D</title>
<path fill="none" stroke="black" d="M440.993,-658.965C501.047,-644.863 650.888,-613.352 721.197,-600.079"/>
<polygon fill="black" stroke="black" points="722.183,-603.456 731.373,-598.184 720.901,-596.574 722.183,-603.456"/>
</g>
<!-- H&#45;&gt;E -->
<g id="edge226" class="edge"><title>H&#45;&gt;E</title>
<path fill="none" stroke="black" d="M1325.73,-179.732C1329.39,-190.143 1333.64,-203.643 1336,-216 1375.13,-420.844 1272.2,-499.807 1370,-684 1398.43,-737.546 1460.56,-775.889 1498.49,-795.373"/>
<polygon fill="black" stroke="black" points="1497.06,-798.575 1507.57,-799.918 1500.19,-792.314 1497.06,-798.575"/>
</g>
<!-- H&#45;&gt;E -->
<g id="edge228" class="edge"><title>H&#45;&gt;E</title>
<path fill="none" stroke="black" d="M1338.29,-174.659C1345.87,-185.468 1351.23,-201.519 1354,-216 1393.13,-420.844 1290.2,-499.807 1388,-684 1414.37,-733.667 1469.73,-770.254 1503.57,-790.843"/>
<polygon fill="black" stroke="black" points="1502.13,-794.061 1512.5,-796.224 1505.74,-788.065 1502.13,-794.061"/>
</g>
<!-- H&#45;&gt;J -->
<g id="edge232" class="edge"><title>H&#45;&gt;J</title>
<path fill="none" stroke="black" d="M1345.87,-165.225C1442.29,-176.794 1770.96,-216.235 1882,-229.56"/>
<polygon fill="black" stroke="black" points="1881.71,-233.05 1892.05,-230.766 1882.54,-226.1 1881.71,-233.05"/>
</g>
<!-- H&#45;&gt;L -->
<g id="edge238" class="edge"><title>H&#45;&gt;L</title>
<path fill="none" stroke="black" d="M1292.55,-157.723C1239.69,-143.625 1152.06,-98.0295 1075,-72 1021.22,-53.8336 958.46,-39.7165 918.25,-30.4799"/>
<polygon fill="black" stroke="black" points="918.814,-27.0181 908.283,-28.1793 917.239,-33.8388 918.814,-27.0181"/>
</g>
<!-- H&#45;&gt;L -->
<g id="edge240" class="edge"><title>H&#45;&gt;L</title>
<path fill="none" stroke="black" d="M1293.76,-155.551C1249.54,-139.416 1166.46,-96.816 1093,-72 1033.52,-51.9074 963.05,-36.7684 920.594,-27.7075"/>
<polygon fill="black" stroke="black" points="921.197,-24.2572 910.686,-25.5908 919.734,-31.1028 921.197,-24.2572"/>
</g>
<!-- H&#45;&gt;L -->
<g id="edge242" class="edge"><title>H&#45;&gt;L</title>
<path fill="none" stroke="black" d="M1295.93,-152.447C1257.83,-134.478 1180.15,-95.3598 1111,-72 1045.59,-49.9037 966.886,-33.7983 921.895,-25.1792"/>
<polygon fill="black" stroke="black" points="922.495,-21.7307 912.018,-23.3021 921.188,-28.6076 922.495,-21.7307"/>
</g>
<!-- H&#45;&gt;L -->
<g id="edge244" class="edge"><title>H&#45;&gt;L</title>
<path fill="none" stroke="black" d="M1300.05,-148.849C1266.18,-129.662 1193.84,-93.9036 1129,-72 1057.98,-48.0082 971.285,-31.0792 922.854,-23.1273"/>
<polygon fill="black" stroke="black" points="923.26,-19.6478 912.832,-21.5226 922.153,-26.5597 923.26,-19.6478"/>
</g>
<!-- H&#45;&gt;L -->
<g id="edge246" class="edge"><title>H&#45;&gt;L</title>
<path fill="none" stroke="black" d="M1307.02,-145.686C1276.58,-125.936 1208.43,-92.7508 1147,-72 1070.72,-46.2311 976.356,-28.6101 923.016,-21.5088"/>
<polygon fill="black" stroke="black" points="923.272,-18.0135 912.912,-20.2295 922.393,-24.958 923.272,-18.0135"/>
</g>
<!-- H&#45;&gt;M -->
<g id="edge248" class="edge"><title>H&#45;&gt;M</title>
<path fill="none" stroke="black" d="M1292.05,-159.961C1183.43,-150.333 787.162,-109.285 662.819,-94.9583"/>
<polygon fill="black" stroke="black" points="662.992,-91.4548 652.654,-93.7751 662.182,-98.4078 662.992,-91.4548"/>
</g>
<!-- H&#45;&gt;M -->
<g id="edge250" class="edge"><title>H&#45;&gt;M</title>
<path fill="none" stroke="black" d="M1292.05,-159.48C1184.46,-148.838 786.553,-107.522 662.854,-94.1797"/>
<polygon fill="black" stroke="black" points="663.07,-90.6826 652.751,-93.0858 662.316,-97.642 663.07,-90.6826"/>
</g>
<!-- H&#45;&gt;M -->
<g id="edge252" class="edge"><title>H&#45;&gt;M</title>
<path fill="none" stroke="black" d="M1292.18,-158.906C1184.78,-147.228 786.706,-105.864 662.902,-93.5094"/>
<polygon fill="black" stroke="black" points="663.087,-90.0107 652.79,-92.5046 662.395,-96.9763 663.087,-90.0107"/>
</g>
<!-- H&#45;&gt;N -->
<g id="edge254" class="edge"><title>H&#45;&gt;N</title>
<path fill="none" stroke="black" d="M1346.24,-162.616C1453.71,-165.428 1846.69,-178.56 1964,-216 1993.99,-225.571 1996.16,-239.385 2025,-252 2076.02,-274.313 2092.74,-268.772 2145,-288 2146.06,-288.389 2147.13,-288.792 2148.2,-289.206"/>
<polygon fill="black" stroke="black" points="2147.27,-292.605 2157.85,-293.147 2149.92,-286.125 2147.27,-292.605"/>
</g>
<!-- H&#45;&gt;K -->
<g id="edge234" class="edge"><title>H&#45;&gt;K</title>
<path fill="none" stroke="black" d="M1299.83,-175.062C1284.14,-185.845 1261.44,-201.652 1242,-216 1136.99,-293.489 1116.75,-320.926 1010,-396 991.78,-408.813 970.642,-422.248 954.004,-432.512"/>
<polygon fill="black" stroke="black" points="951.968,-429.654 945.27,-437.863 955.625,-435.623 951.968,-429.654"/>
</g>
<!-- H&#45;&gt;K -->
<g id="edge236" class="edge"><title>H&#45;&gt;K</title>
<path fill="none" stroke="black" d="M1309.75,-178.967C1296.97,-189.457 1277.21,-203.3 1260,-216 1154.99,-293.489 1134.75,-320.926 1028,-396 1006.2,-411.331 980.222,-427.552 958.972,-438.166"/>
<polygon fill="black" stroke="black" points="957.407,-435.035 949.877,-442.489 960.412,-441.357 957.407,-435.035"/>
</g>
<!-- H&#45;&gt;D -->
<g id="edge214" class="edge"><title>H&#45;&gt;D</title>
<path fill="none" stroke="black" d="M1295.8,-171.318C1271.57,-188.088 1242.45,-224.196 1215,-252 1070.12,-398.751 855.425,-525.347 781.997,-573.395"/>
<polygon fill="black" stroke="black" points="779.762,-570.677 773.367,-579.124 783.634,-576.509 779.762,-570.677"/>
</g>
<!-- H&#45;&gt;D -->
<g id="edge216" class="edge"><title>H&#45;&gt;D</title>
<path fill="none" stroke="black" d="M1301.92,-175.949C1284.68,-194.111 1258.14,-226.538 1233,-252 1085.05,-401.864 864.284,-530.709 786.317,-576.346"/>
<polygon fill="black" stroke="black" points="784.389,-573.419 777.531,-581.495 787.928,-579.458 784.389,-573.419"/>
</g>
<!-- H&#45;&gt;D -->
<g id="edge218" class="edge"><title>H&#45;&gt;D</title>
<path fill="none" stroke="black" d="M1311.9,-179.559C1299.33,-198.183 1274.55,-228.147 1251,-252 1099.79,-405.165 872.524,-536.375 789.554,-579.24"/>
<polygon fill="black" stroke="black" points="787.934,-576.137 780.616,-583.798 791.115,-582.372 787.934,-576.137"/>
</g>
<!-- H&#45;&gt;D -->
<g id="edge220" class="edge"><title>H&#45;&gt;D</title>
<path fill="none" stroke="black" d="M1325.25,-179.559C1317.33,-198.183 1292.55,-228.147 1269,-252 1114.5,-408.496 880.602,-542.072 791.871,-581.91"/>
<polygon fill="black" stroke="black" points="790.282,-578.785 782.516,-585.992 793.082,-585.201 790.282,-578.785"/>
</g>
<!-- H&#45;&gt;D -->
<g id="edge222" class="edge"><title>H&#45;&gt;D</title>
<path fill="none" stroke="black" d="M1338.93,-174.419C1340.2,-192.241 1312.86,-225.806 1287,-252 1129.22,-411.819 888.635,-547.734 793.261,-584.32"/>
<polygon fill="black" stroke="black" points="791.875,-581.1 783.691,-587.828 794.285,-587.673 791.875,-581.1"/>
</g>
<!-- H&#45;&gt;D -->
<g id="edge224" class="edge"><title>H&#45;&gt;D</title>
<path fill="none" stroke="black" d="M1344.91,-167.509C1366.48,-181.948 1334.76,-221.855 1305,-252 1144.1,-414.976 897.096,-553.095 793.948,-586.372"/>
<polygon fill="black" stroke="black" points="792.687,-583.097 784.13,-589.345 794.715,-589.796 792.687,-583.097"/>
</g>
<!-- H&#45;&gt;I -->
<g id="edge230" class="edge"><title>H&#45;&gt;I</title>
<path fill="none" stroke="black" d="M1295.92,-171.433C1270.36,-181.965 1228.01,-199.68 1192,-216 957.319,-322.367 679.132,-460.758 587.749,-506.547"/>
<polygon fill="black" stroke="black" points="586.129,-503.443 578.759,-511.054 589.267,-509.701 586.129,-503.443"/>
</g>
<!-- H&#45;&gt;Z -->
<g id="edge256" class="edge"><title>H&#45;&gt;Z</title>
<path fill="none" stroke="black" d="M1342.56,-153.171C1396.49,-138.267 1523.26,-108.508 1587.36,-95.8821"/>
<polygon fill="black" stroke="black" points="1588.3,-99.2654 1597.45,-93.9382 1586.97,-92.3916 1588.3,-99.2654"/>
</g>
<!-- H&#45;&gt;Z -->
<g id="edge258" class="edge"><title>H&#45;&gt;Z</title>
<path fill="none" stroke="black" d="M1344.07,-155.096C1398.17,-141.526 1525.39,-111.482 1588.05,-97.4687"/>
<polygon fill="black" stroke="black" points="1588.88,-100.868 1597.89,-95.2829 1587.37,-94.0348 1588.88,-100.868"/>
</g>
<!-- H&#45;&gt;Z -->
<g id="edge260" class="edge"><title>H&#45;&gt;Z</title>
<path fill="none" stroke="black" d="M1344.9,-156.764C1399.73,-144.686 1526.92,-114.74 1588.93,-99.3941"/>
<polygon fill="black" stroke="black" points="1589.8,-102.785 1598.66,-96.9724 1588.11,-95.9921 1589.8,-102.785"/>
</g>
<!-- H&#45;&gt;Z -->
<g id="edge262" class="edge"><title>H&#45;&gt;Z</title>
<path fill="none" stroke="black" d="M1345.46,-158.078C1402.04,-147.487 1528.77,-118 1590.52,-101.52"/>
<polygon fill="black" stroke="black" points="1591.47,-104.888 1600.21,-98.8936 1589.64,-98.1323 1591.47,-104.888"/>
</g>
<!-- J&#45;&gt;B -->
<g id="edge280" class="edge"><title>J&#45;&gt;B</title>
<path fill="none" stroke="black" d="M1945.81,-236.696C1970.41,-240.227 2004.69,-246.603 2034,-252 2121.53,-268.12 2166.22,-226.967 2231,-288 2332.92,-384.018 2306,-453.975 2306,-594 2306,-738 2306,-738 2306,-738 2306,-817.212 2198.94,-859.366 2140.16,-874.908"/>
<polygon fill="black" stroke="black" points="2138.98,-871.596 2130.13,-877.421 2140.68,-878.386 2138.98,-871.596"/>
</g>
<!-- J&#45;&gt;C -->
<g id="edge282" class="edge"><title>J&#45;&gt;C</title>
<path fill="none" stroke="black" d="M1908.43,-250.91C1888.54,-274.532 1846.47,-319.113 1814,-360 1704.96,-497.285 1698.82,-547.345 1589,-684 1579.34,-696.021 1567.67,-708.711 1557.1,-718.767"/>
<polygon fill="black" stroke="black" points="1554.66,-716.251 1549.63,-725.576 1559.38,-721.422 1554.66,-716.251"/>
</g>
<!-- J&#45;&gt;C -->
<g id="edge284" class="edge"><title>J&#45;&gt;C</title>
<path fill="none" stroke="black" d="M1919.75,-252.129C1905.12,-276.042 1863.92,-319.806 1832,-360 1722.96,-497.285 1716.82,-547.345 1607,-684 1594.98,-698.957 1579.85,-714.95 1563.95,-725.616"/>
<polygon fill="black" stroke="black" points="1561.83,-722.808 1555.05,-730.953 1565.43,-728.811 1561.83,-722.808"/>
</g>
<!-- J&#45;&gt;E -->
<g id="edge294" class="edge"><title>J&#45;&gt;E</title>
<path fill="none" stroke="black" d="M1938.12,-247.069C1955.47,-259.397 1979.08,-277.508 1984,-288 1990.8,-302.484 1987.74,-308.443 1984,-324 1950.4,-463.727 1918.52,-493.647 1837,-612 1788.09,-683.009 1779.76,-709.742 1707,-756 1663.26,-783.808 1604.35,-798.013 1566.77,-804.716"/>
<polygon fill="black" stroke="black" points="1566.04,-801.29 1556.76,-806.413 1567.21,-808.192 1566.04,-801.29"/>
</g>
<!-- J&#45;&gt;E -->
<g id="edge296" class="edge"><title>J&#45;&gt;E</title>
<path fill="none" stroke="black" d="M1943.04,-242.292C1966.53,-254.206 1996.39,-276.047 2002,-288 2008.8,-302.484 2005.74,-308.443 2002,-324 1968.4,-463.727 1936.52,-493.647 1855,-612 1806.09,-683.009 1797.76,-709.742 1725,-756 1676.51,-786.826 1609.39,-800.936 1567.19,-806.642"/>
<polygon fill="black" stroke="black" points="1566.51,-803.199 1557.03,-807.916 1567.39,-810.145 1566.51,-803.199"/>
</g>
<!-- J&#45;&gt;G -->
<g id="edge302" class="edge"><title>J&#45;&gt;G</title>
<path fill="none" stroke="black" d="M1892.12,-236.314C1718.85,-251.649 759.192,-342.971 521,-504 471.89,-537.201 440.519,-601.855 425.818,-638.651"/>
<polygon fill="black" stroke="black" points="422.451,-637.652 422.112,-648.242 428.981,-640.175 422.451,-637.652"/>
</g>
<!-- J&#45;&gt;H -->
<g id="edge304" class="edge"><title>J&#45;&gt;H</title>
<path fill="none" stroke="black" d="M1892.22,-231.437C1795.33,-221.014 1466.82,-181.675 1355.69,-167.301"/>
<polygon fill="black" stroke="black" points="1356,-163.811 1345.63,-165.99 1355.1,-170.753 1356,-163.811"/>
</g>
<!-- J&#45;&gt;H -->
<g id="edge306" class="edge"><title>J&#45;&gt;H</title>
<path fill="none" stroke="black" d="M1892.49,-230.026C1796.09,-217.346 1467.81,-177.961 1356.14,-165.69"/>
<polygon fill="black" stroke="black" points="1356.34,-162.191 1346.02,-164.588 1355.58,-169.15 1356.34,-162.191"/>
</g>
<!-- J&#45;&gt;N -->
<g id="edge308" class="edge"><title>J&#45;&gt;N</title>
<path fill="none" stroke="black" d="M1941.23,-244.779C1947.22,-247.404 1953.78,-250.022 1960,-252 2036.09,-276.183 2059.91,-263.817 2136,-288 2139.11,-288.989 2142.31,-290.138 2145.47,-291.368"/>
<polygon fill="black" stroke="black" points="2144.2,-294.627 2154.77,-295.221 2146.87,-288.16 2144.2,-294.627"/>
</g>
<!-- J&#45;&gt;F -->
<g id="edge298" class="edge"><title>J&#45;&gt;F</title>
<path fill="none" stroke="black" d="M1932.41,-249.896C1946.5,-268.648 1964.73,-300.269 1950,-324 1947.72,-327.669 1903.85,-348.697 1872.47,-363.402"/>
<polygon fill="black" stroke="black" points="1870.77,-360.333 1863.19,-367.736 1873.74,-366.675 1870.77,-360.333"/>
</g>
<!-- J&#45;&gt;F -->
<g id="edge300" class="edge"><title>J&#45;&gt;F</title>
<path fill="none" stroke="black" d="M1940.44,-245.513C1961.25,-263.355 1983.95,-298.304 1968,-324 1965.51,-328.015 1913.21,-352.817 1875.82,-367.373"/>
<polygon fill="black" stroke="black" points="1874.32,-364.2 1866.2,-371.008 1876.79,-370.748 1874.32,-364.2"/>
</g>
<!-- J&#45;&gt;D -->
<g id="edge286" class="edge"><title>J&#45;&gt;D</title>
<path fill="none" stroke="black" d="M1894.14,-241.318C1783.29,-276.087 1324.59,-427.57 945,-540 891.793,-555.759 830.015,-572.529 792.346,-583.124"/>
<polygon fill="black" stroke="black" points="791.056,-579.851 782.387,-585.942 792.963,-586.586 791.056,-579.851"/>
</g>
<!-- J&#45;&gt;D -->
<g id="edge288" class="edge"><title>J&#45;&gt;D</title>
<path fill="none" stroke="black" d="M1895.38,-242.895C1788.07,-280.45 1337.11,-429.193 963,-540 904.191,-557.418 834.91,-576.071 793.656,-586.257"/>
<polygon fill="black" stroke="black" points="792.683,-582.891 783.795,-588.658 794.34,-589.693 792.683,-582.891"/>
</g>
<!-- J&#45;&gt;D -->
<g id="edge290" class="edge"><title>J&#45;&gt;D</title>
<path fill="none" stroke="black" d="M1896.86,-244.754C1791.87,-285.131 1349.22,-430.94 981,-540 917.288,-558.871 841.285,-579.19 794.786,-588.622"/>
<polygon fill="black" stroke="black" points="793.909,-585.227 784.76,-590.57 795.244,-592.098 793.909,-585.227"/>
</g>
<!-- J&#45;&gt;D -->
<g id="edge292" class="edge"><title>J&#45;&gt;D</title>
<path fill="none" stroke="black" d="M1899.25,-246.625C1796.72,-289.461 1361.74,-432.562 999,-540 930.962,-560.152 848.908,-581.956 795.018,-590.389"/>
<polygon fill="black" stroke="black" points="794.355,-586.948 784.961,-591.849 795.36,-593.876 794.355,-586.948"/>
</g>
<!-- J&#45;&gt;Z -->
<g id="edge310" class="edge"><title>J&#45;&gt;Z</title>
<path fill="none" stroke="black" d="M1906.4,-217.93C1894.53,-197.475 1876.09,-162.571 1849,-144 1818.23,-122.905 1716.12,-104.913 1660.53,-95.9957"/>
<polygon fill="black" stroke="black" points="1660.82,-92.4977 1650.39,-94.3862 1659.72,-99.4111 1660.82,-92.4977"/>
</g>
<!-- J&#45;&gt;Z -->
<g id="edge312" class="edge"><title>J&#45;&gt;Z</title>
<path fill="none" stroke="black" d="M1918.06,-215.763C1911.25,-195.087 1893.16,-161.931 1867,-144 1834.24,-121.538 1720.59,-102.595 1660.92,-94.3786"/>
<polygon fill="black" stroke="black" points="1661.16,-90.8797 1650.79,-93.0162 1660.23,-97.8173 1661.16,-90.8797"/>
</g>
<!-- L&#45;&gt;C -->
<g id="edge346" class="edge"><title>L&#45;&gt;C</title>
<path fill="none" stroke="black" d="M912.884,-21.1083C975.614,-32.2996 1106,-74.5843 1106,-162 1106,-234 1106,-234 1106,-234 1106,-435.449 1456,-320.551 1456,-522 1456,-594 1456,-594 1456,-594 1456,-643.608 1497.74,-686.738 1521.38,-712.548"/>
<polygon fill="black" stroke="black" points="1518.78,-714.894 1528.07,-719.99 1523.99,-710.214 1518.78,-714.894"/>
</g>
<!-- L&#45;&gt;E -->
<g id="edge358" class="edge"><title>L&#45;&gt;E</title>
<path fill="none" stroke="black" d="M913.201,-18.8555C1127.21,-25.9967 2530,-77.5382 2530,-162 2530,-306 2530,-306 2530,-306 2530,-472.844 2083.31,-692.545 1929,-756 1864.29,-782.609 1653.69,-801.192 1567.3,-807.57"/>
<polygon fill="black" stroke="black" points="1566.87,-804.091 1557.15,-808.304 1567.38,-811.073 1566.87,-804.091"/>
</g>
<!-- L&#45;&gt;G -->
<g id="edge360" class="edge"><title>L&#45;&gt;G</title>
<path fill="none" stroke="black" d="M858.774,-19.0007C737.507,-23.3731 251.223,-41.9376 190,-72 88.7908,-121.697 92,-193.248 92,-306 92,-522 92,-522 92,-522 92,-585.185 296.533,-637.779 380.675,-657.573"/>
<polygon fill="black" stroke="black" points="380.017,-661.013 390.551,-659.877 381.608,-654.196 380.017,-661.013"/>
</g>
<!-- L&#45;&gt;H -->
<g id="edge362" class="edge"><title>L&#45;&gt;H</title>
<path fill="none" stroke="black" d="M913.074,-19.4322C971.75,-24.55 1079.68,-43.1789 1165,-72 1219.04,-90.2555 1278.29,-118.135 1308.83,-138.023"/>
<polygon fill="black" stroke="black" points="1307.13,-141.106 1317.35,-143.92 1311.12,-135.35 1307.13,-141.106"/>
</g>
<!-- L&#45;&gt;M -->
<g id="edge372" class="edge"><title>L&#45;&gt;M</title>
<path fill="none" stroke="black" d="M860.876,-24.9573C814.272,-37.863 714.34,-65.5367 661.09,-80.2827"/>
<polygon fill="black" stroke="black" points="660.106,-76.9233 651.403,-82.9652 661.975,-83.6694 660.106,-76.9233"/>
</g>
<!-- L&#45;&gt;M -->
<g id="edge374" class="edge"><title>L&#45;&gt;M</title>
<path fill="none" stroke="black" d="M862.563,-27.0733C816.53,-41.4191 716.435,-69.0777 662.028,-82.4267"/>
<polygon fill="black" stroke="black" points="661.004,-79.0732 652.104,-84.8219 662.647,-85.8778 661.004,-79.0732"/>
</g>
<!-- L&#45;&gt;K -->
<g id="edge370" class="edge"><title>L&#45;&gt;K</title>
<path fill="none" stroke="black" d="M893.358,-35.6123C909.229,-102.329 931.116,-339.89 929.555,-421.91"/>
<polygon fill="black" stroke="black" points="926.055,-421.871 929.201,-431.987 933.05,-422.117 926.055,-421.871"/>
</g>
<!-- L&#45;&gt;D -->
<g id="edge348" class="edge"><title>L&#45;&gt;D</title>
<path fill="none" stroke="black" d="M858.859,-18.5351C779.041,-20.9186 562.184,-32.2675 389,-72 270.223,-99.2503 130,-40.1371 130,-162 130,-306 130,-306 130,-306 130,-494.97 311.198,-465.819 485,-540 562.279,-572.984 662.714,-587.326 720.475,-592.071"/>
<polygon fill="black" stroke="black" points="720.513,-595.584 730.748,-592.848 721.04,-588.604 720.513,-595.584"/>
</g>
<!-- L&#45;&gt;D -->
<g id="edge350" class="edge"><title>L&#45;&gt;D</title>
<path fill="none" stroke="black" d="M858.933,-18.7697C784.294,-21.6123 575.079,-33.4387 407,-72 288.223,-99.2503 148,-40.1371 148,-162 148,-306 148,-306 148,-306 148,-494.97 329.198,-465.819 503,-540 575.804,-571.074 669.159,-585.602 720.942,-591.149"/>
<polygon fill="black" stroke="black" points="720.731,-594.645 731.033,-592.17 721.436,-587.681 720.731,-594.645"/>
</g>
<!-- L&#45;&gt;D -->
<g id="edge352" class="edge"><title>L&#45;&gt;D</title>
<path fill="none" stroke="black" d="M858.889,-19.1148C787.194,-22.504 586.992,-34.8352 425,-72 306.223,-99.2503 166,-40.1371 166,-162 166,-306 166,-306 166,-306 166,-494.97 347.198,-465.819 521,-540 588.296,-568.723 673.152,-583.309 720.911,-589.732"/>
<polygon fill="black" stroke="black" points="720.719,-593.237 731.086,-591.052 721.62,-586.295 720.719,-593.237"/>
</g>
<!-- L&#45;&gt;D -->
<g id="edge354" class="edge"><title>L&#45;&gt;D</title>
<path fill="none" stroke="black" d="M859.086,-19.5805C788.758,-23.5626 598.316,-36.3669 443,-72 324.223,-99.2503 184,-40.1371 184,-162 184,-306 184,-306 184,-306 184,-494.97 365.198,-465.819 539,-540 600.574,-566.28 676.847,-580.726 721.672,-587.913"/>
<polygon fill="black" stroke="black" points="721.131,-591.371 731.553,-589.463 722.216,-584.455 721.131,-591.371"/>
</g>
<!-- L&#45;&gt;D -->
<g id="edge356" class="edge"><title>L&#45;&gt;D</title>
<path fill="none" stroke="black" d="M858.978,-20.217C788.541,-24.8455 608.854,-38.0787 461,-72 342.223,-99.2503 202,-40.1371 202,-162 202,-306 202,-306 202,-306 202,-494.97 383.198,-465.819 557,-540 612.578,-563.721 680.131,-577.801 722.574,-585.603"/>
<polygon fill="black" stroke="black" points="722.077,-589.069 732.54,-587.407 723.323,-582.181 722.077,-589.069"/>
</g>
<!-- L&#45;&gt;I -->
<g id="edge364" class="edge"><title>L&#45;&gt;I</title>
<path fill="none" stroke="black" d="M859.118,-19.847C755.263,-27.7053 386,-62.6328 386,-162 386,-234 386,-234 386,-234 386,-348.022 486.323,-456.338 533.284,-500.794"/>
<polygon fill="black" stroke="black" points="530.902,-503.359 540.604,-507.615 535.674,-498.237 530.902,-503.359"/>
</g>
<!-- L&#45;&gt;I -->
<g id="edge366" class="edge"><title>L&#45;&gt;I</title>
<path fill="none" stroke="black" d="M858.97,-20.4252C756.669,-29.3262 404,-64.8911 404,-162 404,-234 404,-234 404,-234 404,-345.357 499.689,-451.273 540.371,-497.574"/>
<polygon fill="black" stroke="black" points="537.861,-500.021 547.072,-505.257 543.137,-495.42 537.861,-500.021"/>
</g>
<!-- L&#45;&gt;I -->
<g id="edge368" class="edge"><title>L&#45;&gt;I</title>
<path fill="none" stroke="black" d="M859.136,-21.1254C757.656,-31.0998 422,-67.2624 422,-162 422,-234 422,-234 422,-234 422,-343.803 515.038,-448.316 549.413,-495.601"/>
<polygon fill="black" stroke="black" points="546.694,-497.82 555.288,-504.016 552.433,-493.813 546.694,-497.82"/>
</g>
<!-- M&#45;&gt;B -->
<g id="edge376" class="edge"><title>M&#45;&gt;B</title>
<path fill="none" stroke="black" d="M653.226,-91.0793C832.098,-98.3481 1840.95,-142.119 2139,-216 2267.21,-247.782 2342.57,-240.564 2399,-360 2457.1,-482.968 2400,-529.999 2400,-666 2400,-738 2400,-738 2400,-738 2400,-786.573 2378.17,-800.687 2338,-828 2306.11,-849.684 2198.12,-868.227 2140.67,-876.845"/>
<polygon fill="black" stroke="black" points="2139.94,-873.415 2130.56,-878.338 2140.96,-880.34 2139.94,-873.415"/>
</g>
<!-- M&#45;&gt;G -->
<g id="edge382" class="edge"><title>M&#45;&gt;G</title>
<path fill="none" stroke="black" d="M599.449,-93.6458C514.139,-107.82 258,-162.052 258,-234 258,-306 258,-306 258,-306 258,-442.82 346.924,-590.217 392.144,-644.428"/>
<polygon fill="black" stroke="black" points="389.544,-646.772 398.744,-652.026 394.828,-642.181 389.544,-646.772"/>
</g>
<!-- M&#45;&gt;G -->
<g id="edge384" class="edge"><title>M&#45;&gt;G</title>
<path fill="none" stroke="black" d="M599.979,-94.8447C518.866,-110.68 276,-163.941 276,-234 276,-306 276,-306 276,-306 276,-440.034 361.341,-584.221 398.762,-641.002"/>
<polygon fill="black" stroke="black" points="396.078,-643.285 404.543,-649.656 401.898,-639.397 396.078,-643.285"/>
</g>
<!-- M&#45;&gt;G -->
<g id="edge386" class="edge"><title>M&#45;&gt;G</title>
<path fill="none" stroke="black" d="M600.641,-96.3964C522.286,-113.942 294,-166.077 294,-234 294,-306 294,-306 294,-306 294,-438.173 376.987,-580.218 406.961,-638.587"/>
<polygon fill="black" stroke="black" points="403.997,-640.484 411.604,-647.858 410.256,-637.35 403.997,-640.484"/>
</g>
<!-- M&#45;&gt;G -->
<g id="edge388" class="edge"><title>M&#45;&gt;G</title>
<path fill="none" stroke="black" d="M601.917,-98.2249C525.623,-117.363 312,-168.294 312,-234 312,-306 312,-306 312,-306 312,-437.9 394.645,-579.631 416.611,-638.224"/>
<polygon fill="black" stroke="black" points="413.352,-639.513 419.88,-647.858 419.981,-637.264 413.352,-639.513"/>
</g>
<!-- M&#45;&gt;H -->
<g id="edge390" class="edge"><title>M&#45;&gt;H</title>
<path fill="none" stroke="black" d="M653.107,-92.0526C761.96,-101.708 1158.02,-142.734 1282.24,-157.048"/>
<polygon fill="black" stroke="black" points="1282.05,-160.551 1292.39,-158.23 1282.86,-153.597 1282.05,-160.551"/>
</g>
<!-- M&#45;&gt;L -->
<g id="edge398" class="edge"><title>M&#45;&gt;L</title>
<path fill="none" stroke="black" d="M649.583,-80.8812C695.692,-66.5193 795.665,-38.8963 850.007,-25.5648"/>
<polygon fill="black" stroke="black" points="851.019,-28.9211 859.918,-23.1726 849.376,-22.1165 851.019,-28.9211"/>
</g>
<!-- M&#45;&gt;F -->
<g id="edge380" class="edge"><title>M&#45;&gt;F</title>
<path fill="none" stroke="black" d="M651.837,-95.6366C808.148,-131.245 1625.34,-324.91 1805.77,-369.045"/>
<polygon fill="black" stroke="black" points="1805,-372.46 1815.55,-371.444 1806.67,-365.662 1805,-372.46"/>
</g>
<!-- M&#45;&gt;K -->
<g id="edge394" class="edge"><title>M&#45;&gt;K</title>
<path fill="none" stroke="black" d="M645.026,-102.846C672.28,-126.409 718,-179.175 718,-234 718,-306 718,-306 718,-306 718,-389.079 829.994,-427.176 889.336,-441.996"/>
<polygon fill="black" stroke="black" points="888.534,-445.402 899.075,-444.338 890.171,-438.597 888.534,-445.402"/>
</g>
<!-- M&#45;&gt;K -->
<g id="edge396" class="edge"><title>M&#45;&gt;K</title>
<path fill="none" stroke="black" d="M649.517,-98.8948C684.578,-120.03 736,-175.856 736,-234 736,-306 736,-306 736,-306 736,-384.281 835.431,-422.626 890.937,-439.191"/>
<polygon fill="black" stroke="black" points="890.177,-442.615 900.756,-442.035 892.125,-435.891 890.177,-442.615"/>
</g>
<!-- M&#45;&gt;D -->
<g id="edge378" class="edge"><title>M&#45;&gt;D</title>
<path fill="none" stroke="black" d="M649.566,-99.1375C679.721,-123.804 697.8,-193.809 713,-252 743.985,-370.621 781.392,-512.275 774.992,-568.854"/>
<polygon fill="black" stroke="black" points="771.492,-568.534 773.113,-579.004 778.375,-569.808 771.492,-568.534"/>
</g>
<!-- M&#45;&gt;I -->
<g id="edge392" class="edge"><title>M&#45;&gt;I</title>
<path fill="none" stroke="black" d="M600.374,-96.0516C563.286,-105.388 497.588,-124.295 484,-144 444.237,-201.662 518.514,-418.275 546.752,-494.92"/>
<polygon fill="black" stroke="black" points="543.499,-496.215 550.262,-504.37 550.061,-493.777 543.499,-496.215"/>
</g>
<!-- N&#45;&gt;B -->
<g id="edge400" class="edge"><title>N&#45;&gt;B</title>
<path fill="none" stroke="black" d="M2180.97,-323.807C2176.5,-350.64 2158,-403.28 2158,-450 2158,-522 2158,-522 2158,-522 2158,-647.322 2136.13,-795.972 2117.96,-855.463"/>
<polygon fill="black" stroke="black" points="2114.56,-854.597 2114.73,-865.191 2121.21,-856.802 2114.56,-854.597"/>
</g>
<!-- N&#45;&gt;B -->
<g id="edge402" class="edge"><title>N&#45;&gt;B</title>
<path fill="none" stroke="black" d="M2192.35,-321.225C2195.74,-347.144 2176,-401.731 2176,-450 2176,-522 2176,-522 2176,-522 2176,-649.957 2153.2,-802.232 2125.75,-859.096"/>
<polygon fill="black" stroke="black" points="2122.62,-857.523 2120.94,-867.984 2128.78,-860.853 2122.62,-857.523"/>
</g>
<!-- N&#45;&gt;C -->
<g id="edge404" class="edge"><title>N&#45;&gt;C</title>
<path fill="none" stroke="black" d="M2150.33,-309.378C2068.42,-321.383 1826,-369.774 1826,-522 1826,-594 1826,-594 1826,-594 1826,-651.426 1643.57,-707.437 1565.14,-728.861"/>
<polygon fill="black" stroke="black" points="1563.98,-725.55 1555.24,-731.535 1565.8,-732.309 1563.98,-725.55"/>
</g>
<!-- N&#45;&gt;E -->
<g id="edge406" class="edge"><title>N&#45;&gt;E</title>
<path fill="none" stroke="black" d="M2156.94,-318.134C2120.46,-339.014 2048,-385.768 2048,-450 2048,-522 2048,-522 2048,-522 2048,-590.049 1912.16,-729.144 1867,-756 1817.26,-785.58 1644.13,-801.956 1567.15,-807.661"/>
<polygon fill="black" stroke="black" points="1566.67,-804.187 1556.95,-808.396 1567.18,-811.169 1566.67,-804.187"/>
</g>
<!-- N&#45;&gt;E -->
<g id="edge408" class="edge"><title>N&#45;&gt;E</title>
<path fill="none" stroke="black" d="M2163.22,-321.544C2131.23,-343.848 2066,-389.057 2066,-450 2066,-522 2066,-522 2066,-522 2066,-590.049 1930.16,-729.144 1885,-756 1833.43,-786.663 1649.27,-803.138 1567.45,-808.246"/>
<polygon fill="black" stroke="black" points="1566.84,-804.776 1557.07,-808.865 1567.26,-811.763 1566.84,-804.776"/>
</g>
<!-- N&#45;&gt;H -->
<g id="edge414" class="edge"><title>N&#45;&gt;H</title>
<path fill="none" stroke="black" d="M2152.19,-298.175C2144.04,-294.828 2135.17,-291.007 2127,-288 2074.74,-268.772 2058.02,-274.313 2007,-252 1978.16,-239.385 1975.99,-225.571 1946,-216 1834.54,-180.429 1474.25,-166.799 1356.5,-163.116"/>
<polygon fill="black" stroke="black" points="1356.3,-159.608 1346.19,-162.8 1356.08,-166.605 1356.3,-159.608"/>
</g>
<!-- N&#45;&gt;J -->
<g id="edge416" class="edge"><title>N&#45;&gt;J</title>
<path fill="none" stroke="black" d="M2151.18,-300.46C2139.98,-296.516 2128.52,-291.344 2118,-288 2044.88,-264.761 2020.03,-275.273 1943.53,-252.146"/>
<polygon fill="black" stroke="black" points="1944.53,-248.79 1933.94,-249.154 1942.44,-255.473 1944.53,-248.79"/>
</g>
<!-- N&#45;&gt;J -->
<g id="edge418" class="edge"><title>N&#45;&gt;J</title>
<path fill="none" stroke="black" d="M2162.06,-290.846C2159.39,-289.813 2156.67,-288.848 2154,-288 2077.91,-263.817 2054.09,-276.183 1978,-252 1970.44,-249.597 1962.39,-246.249 1954.3,-243.091"/>
<polygon fill="black" stroke="black" points="1955.41,-239.769 1944.82,-239.54 1952.96,-246.325 1955.41,-239.769"/>
</g>
<!-- N&#45;&gt;F -->
<g id="edge410" class="edge"><title>N&#45;&gt;F</title>
<path fill="none" stroke="black" d="M2150.86,-310.734C2089.8,-320.853 1940.28,-344.897 1891,-360 1885.7,-361.623 1880.18,-363.737 1874.77,-365.943"/>
<polygon fill="black" stroke="black" points="1873.11,-362.842 1865.23,-369.926 1875.81,-369.302 1873.11,-362.842"/>
</g>
<!-- N&#45;&gt;F -->
<g id="edge412" class="edge"><title>N&#45;&gt;F</title>
<path fill="none" stroke="black" d="M2151.36,-312.458C2092.23,-323.378 1955.67,-345.698 1909,-360 1899.36,-362.954 1888.97,-367.534 1877.54,-371.335"/>
<polygon fill="black" stroke="black" points="1876.27,-368.063 1867.7,-374.292 1878.29,-374.767 1876.27,-368.063"/>
</g>
<!-- F&#45;&gt;B -->
<g id="edge174" class="edge"><title>F&#45;&gt;B</title>
<path fill="none" stroke="black" d="M1849.9,-395.054C1888.72,-469.454 2043.43,-765.922 2090.4,-855.945"/>
<polygon fill="black" stroke="black" points="2087.37,-857.696 2095.1,-864.942 2093.58,-854.457 2087.37,-857.696"/>
</g>
<!-- F&#45;&gt;B -->
<g id="edge176" class="edge"><title>F&#45;&gt;B</title>
<path fill="none" stroke="black" d="M1854.29,-393.686C1902.39,-465.388 2057.86,-762.392 2096.25,-854.581"/>
<polygon fill="black" stroke="black" points="2093.09,-856.09 2100.06,-864.062 2099.58,-853.479 2093.09,-856.09"/>
</g>
<!-- F&#45;&gt;E -->
<g id="edge178" class="edge"><title>F&#45;&gt;E</title>
<path fill="none" stroke="black" d="M1837.19,-396.14C1822.33,-422.148 1788,-472.385 1788,-522 1788,-594 1788,-594 1788,-594 1788,-707.804 1637.06,-776.95 1565.61,-800.697"/>
<polygon fill="black" stroke="black" points="1564.13,-797.494 1555.67,-803.871 1566.26,-804.163 1564.13,-797.494"/>
</g>
<!-- F&#45;&gt;H -->
<g id="edge180" class="edge"><title>F&#45;&gt;H</title>
<path fill="none" stroke="black" d="M1821.08,-365.775C1772.36,-336.321 1642.61,-260.572 1526,-216 1467.79,-193.751 1396.97,-177.471 1355.07,-168.892"/>
<polygon fill="black" stroke="black" points="1355.56,-165.42 1345.06,-166.878 1354.17,-172.283 1355.56,-165.42"/>
</g>
<!-- F&#45;&gt;J -->
<g id="edge182" class="edge"><title>F&#45;&gt;J</title>
<path fill="none" stroke="black" d="M1858.48,-363.784C1885.09,-349.064 1929.7,-327.701 1932,-324 1944.02,-304.629 1934.08,-280 1925.18,-261.405"/>
<polygon fill="black" stroke="black" points="1928.27,-259.748 1920.74,-252.291 1921.97,-262.814 1928.27,-259.748"/>
</g>
<!-- F&#45;&gt;L -->
<g id="edge190" class="edge"><title>F&#45;&gt;L</title>
<path fill="none" stroke="black" d="M1863.43,-367.793C1869.43,-365.164 1875.93,-362.401 1882,-360 1926.71,-342.325 1956.23,-363.245 1984,-324 2035.32,-251.465 1970.64,-193.716 1897,-144 1805.76,-82.4042 1768.26,-91.9574 1660,-72 1515.87,-45.4304 1057.52,-25.0131 923.279,-19.4866"/>
<polygon fill="black" stroke="black" points="923.233,-15.9819 913.099,-19.0705 922.948,-22.9761 923.233,-15.9819"/>
</g>
<!-- F&#45;&gt;M -->
<g id="edge192" class="edge"><title>F&#45;&gt;M</title>
<path fill="none" stroke="black" d="M1815.22,-372.376C1658.99,-336.789 841.107,-142.958 661.04,-98.9087"/>
<polygon fill="black" stroke="black" points="661.83,-95.4988 651.284,-96.515 660.162,-102.297 661.83,-95.4988"/>
</g>
<!-- F&#45;&gt;N -->
<g id="edge194" class="edge"><title>F&#45;&gt;N</title>
<path fill="none" stroke="black" d="M1851.41,-361.163C1852.61,-360.754 1853.81,-360.364 1855,-360 1906.11,-344.337 2065.03,-319.058 2139.86,-309.667"/>
<polygon fill="black" stroke="black" points="2140.33,-313.134 2149.84,-308.45 2139.49,-306.186 2140.33,-313.134"/>
</g>
<!-- F&#45;&gt;N -->
<g id="edge196" class="edge"><title>F&#45;&gt;N</title>
<path fill="none" stroke="black" d="M1859.57,-364.906C1863.92,-363.081 1868.54,-361.367 1873,-360 1922.01,-344.981 2070.13,-321.122 2140.02,-310.905"/>
<polygon fill="black" stroke="black" points="2140.74,-314.337 2150.14,-309.442 2139.74,-307.409 2140.74,-314.337"/>
</g>
<!-- F&#45;&gt;K -->
<g id="edge184" class="edge"><title>F&#45;&gt;K</title>
<path fill="none" stroke="black" d="M1813.67,-379.629C1680.94,-388.714 1114.26,-433.179 962.132,-446.33"/>
<polygon fill="black" stroke="black" points="961.565,-442.866 951.907,-447.222 962.173,-449.839 961.565,-442.866"/>
</g>
<!-- F&#45;&gt;K -->
<g id="edge186" class="edge"><title>F&#45;&gt;K</title>
<path fill="none" stroke="black" d="M1814.14,-379.925C1683.22,-389.773 1113.47,-434.541 962.021,-446.856"/>
<polygon fill="black" stroke="black" points="961.533,-443.384 951.851,-447.686 962.102,-450.361 961.533,-443.384"/>
</g>
<!-- F&#45;&gt;K -->
<g id="edge188" class="edge"><title>F&#45;&gt;K</title>
<path fill="none" stroke="black" d="M1814.11,-380.317C1683.15,-391.042 1113.54,-435.819 962.053,-447.306"/>
<polygon fill="black" stroke="black" points="961.588,-443.831 951.88,-448.074 962.115,-450.811 961.588,-443.831"/>
</g>
<!-- F&#45;&gt;Z -->
<g id="edge198" class="edge"><title>F&#45;&gt;Z</title>
<path fill="none" stroke="black" d="M1826.64,-362.73C1797.16,-324.666 1729.29,-222.951 1665,-144 1656.97,-134.139 1647.63,-123.783 1639.73,-114.808"/>
<polygon fill="black" stroke="black" points="1642.17,-112.271 1632.97,-107.007 1636.88,-116.856 1642.17,-112.271"/>
</g>
<!-- F&#45;&gt;Z -->
<g id="edge200" class="edge"><title>F&#45;&gt;Z</title>
<path fill="none" stroke="black" d="M1834.28,-360.419C1812.5,-320.686 1746.03,-221.403 1683,-144 1673.26,-132.041 1661.59,-119.355 1651.03,-109.286"/>
<polygon fill="black" stroke="black" points="1653.32,-106.637 1643.58,-102.464 1648.59,-111.799 1653.32,-106.637"/>
</g>
<!-- K&#45;&gt;B -->
<g id="edge314" class="edge"><title>K&#45;&gt;B</title>
<path fill="none" stroke="black" d="M949.877,-457.658C958.035,-460.975 966.896,-464.818 975,-468 1383.2,-628.269 1498.65,-632.096 1907,-792 1967.47,-815.68 2036.36,-846.601 2074.71,-865.344"/>
<polygon fill="black" stroke="black" points="2073.26,-868.533 2083.78,-869.836 2076.37,-862.261 2073.26,-868.533"/>
</g>
<!-- K&#45;&gt;E -->
<g id="edge318" class="edge"><title>K&#45;&gt;E</title>
<path fill="none" stroke="black" d="M947.297,-460.53C979.83,-482.588 1032,-536.396 1032,-594 1032,-666 1032,-666 1032,-666 1032,-763.293 1376.64,-797.738 1492.78,-807.078"/>
<polygon fill="black" stroke="black" points="1492.73,-810.585 1502.97,-807.881 1493.28,-803.607 1492.73,-810.585"/>
</g>
<!-- K&#45;&gt;E -->
<g id="edge320" class="edge"><title>K&#45;&gt;E</title>
<path fill="none" stroke="black" d="M950.202,-456.981C991.528,-476.287 1050,-533.017 1050,-594 1050,-666 1050,-666 1050,-666 1050,-761.038 1378.85,-796.108 1493.18,-806.388"/>
<polygon fill="black" stroke="black" points="1492.98,-809.883 1503.25,-807.279 1493.6,-802.911 1492.98,-809.883"/>
</g>
<!-- K&#45;&gt;H -->
<g id="edge328" class="edge"><title>K&#45;&gt;H</title>
<path fill="none" stroke="black" d="M936.689,-433.609C951.114,-423.217 973.123,-409.275 992,-396 1098.75,-320.926 1118.99,-293.489 1224,-216 1243.62,-201.521 1266.56,-185.557 1285.83,-174.769"/>
<polygon fill="black" stroke="black" points="1287.5,-177.845 1294.69,-170.059 1284.22,-171.665 1287.5,-177.845"/>
</g>
<!-- K&#45;&gt;L -->
<g id="edge332" class="edge"><title>K&#45;&gt;L</title>
<path fill="none" stroke="black" d="M917.676,-432.53C901.815,-366.059 879.916,-128.529 881.441,-46.2767"/>
<polygon fill="black" stroke="black" points="884.943,-46.2815 881.791,-36.1664 877.947,-46.0394 884.943,-46.2815"/>
</g>
<!-- K&#45;&gt;L -->
<g id="edge334" class="edge"><title>K&#45;&gt;L</title>
<path fill="none" stroke="black" d="M923.374,-431.987C917.303,-364.745 895.938,-128.079 888.542,-46.1585"/>
<polygon fill="black" stroke="black" points="892.018,-45.7342 887.633,-36.0894 885.046,-46.3636 892.018,-45.7342"/>
</g>
<!-- K&#45;&gt;M -->
<g id="edge336" class="edge"><title>K&#45;&gt;M</title>
<path fill="none" stroke="black" d="M898.238,-447.432C832.939,-438.273 682,-402.448 682,-306 682,-306 682,-306 682,-234 682,-188.113 649.973,-143.669 632.18,-116.582"/>
<polygon fill="black" stroke="black" points="635.087,-114.632 626.758,-108.084 629.186,-118.397 635.087,-114.632"/>
</g>
<!-- K&#45;&gt;M -->
<g id="edge338" class="edge"><title>K&#45;&gt;M</title>
<path fill="none" stroke="black" d="M898.319,-446.132C838.51,-435.153 700,-398.392 700,-306 700,-306 700,-306 700,-234 700,-186.668 665.924,-140.871 643.807,-114.075"/>
<polygon fill="black" stroke="black" points="646.479,-111.814 637.379,-106.388 641.109,-116.305 646.479,-111.814"/>
</g>
<!-- K&#45;&gt;F -->
<g id="edge322" class="edge"><title>K&#45;&gt;F</title>
<path fill="none" stroke="black" d="M951.58,-446.719C1084.57,-434.24 1649.28,-389.933 1803.6,-379.99"/>
<polygon fill="black" stroke="black" points="1804.23,-383.458 1813.99,-379.335 1803.79,-376.471 1804.23,-383.458"/>
</g>
<!-- K&#45;&gt;F -->
<g id="edge324" class="edge"><title>K&#45;&gt;F</title>
<path fill="none" stroke="black" d="M951.975,-448.395C1084.01,-439.368 1651.32,-394.855 1803.76,-381.68"/>
<polygon fill="black" stroke="black" points="1804.34,-385.142 1814,-380.786 1803.74,-378.168 1804.34,-385.142"/>
</g>
<!-- K&#45;&gt;F -->
<g id="edge326" class="edge"><title>K&#45;&gt;F</title>
<path fill="none" stroke="black" d="M952.134,-448.658C1086.45,-440.386 1650.49,-396.233 1803.93,-382.25"/>
<polygon fill="black" stroke="black" points="1804.62,-385.701 1814.25,-381.296 1803.97,-378.731 1804.62,-385.701"/>
</g>
<!-- K&#45;&gt;D -->
<g id="edge316" class="edge"><title>K&#45;&gt;D</title>
<path fill="none" stroke="black" d="M901.454,-458.839C877.399,-466.751 841.907,-480.773 818,-504 799.401,-522.07 788.16,-549.969 778.401,-569.913"/>
<polygon fill="black" stroke="black" points="775.193,-568.497 773.703,-578.986 781.409,-571.715 775.193,-568.497"/>
</g>
<!-- K&#45;&gt;I -->
<g id="edge330" class="edge"><title>K&#45;&gt;I</title>
<path fill="none" stroke="black" d="M899.322,-455.783C835.069,-469.093 667.913,-501.807 593.494,-515.65"/>
<polygon fill="black" stroke="black" points="592.408,-512.291 583.211,-517.55 593.68,-519.174 592.408,-512.291"/>
</g>
<!-- K&#45;&gt;Z -->
<g id="edge340" class="edge"><title>K&#45;&gt;Z</title>
<path fill="none" stroke="black" d="M921.141,-432.109C926.592,-399.848 957.439,-331.268 1002,-288 1171.52,-123.398 1480.01,-95.6283 1586.94,-90.9477"/>
<polygon fill="black" stroke="black" points="1587.08,-94.4448 1596.94,-90.5527 1586.81,-87.4502 1587.08,-94.4448"/>
</g>
<!-- K&#45;&gt;Z -->
<g id="edge342" class="edge"><title>K&#45;&gt;Z</title>
<path fill="none" stroke="black" d="M931.623,-432.362C944.43,-400.208 975.322,-331.382 1020,-288 1185.33,-127.466 1482.84,-97.0845 1586.87,-91.3388"/>
<polygon fill="black" stroke="black" points="1587.09,-94.8326 1596.89,-90.8297 1586.73,-87.8417 1587.09,-94.8326"/>
</g>
<!-- K&#45;&gt;Z -->
<g id="edge344" class="edge"><title>K&#45;&gt;Z</title>
<path fill="none" stroke="black" d="M940.576,-434.811C960.822,-403.829 992.153,-332.517 1038,-288 1198.77,-131.897 1484.52,-98.861 1586.84,-91.8731"/>
<polygon fill="black" stroke="black" points="1587.24,-95.3546 1597,-91.2248 1586.8,-88.3688 1587.24,-95.3546"/>
</g>
<!-- D&#45;&gt;B -->
<g id="edge102" class="edge"><title>D&#45;&gt;B</title>
<path fill="none" stroke="black" d="M765.004,-611.521C773.2,-630.65 788.089,-661.548 807,-684 840.224,-723.445 850.394,-736.164 898,-756 1117.35,-847.397 1887.75,-875.584 2066.68,-880.967"/>
<polygon fill="black" stroke="black" points="2066.8,-884.472 2076.9,-881.269 2067,-877.475 2066.8,-884.472"/>
</g>
<!-- D&#45;&gt;G -->
<g id="edge104" class="edge"><title>D&#45;&gt;G</title>
<path fill="none" stroke="black" d="M732.053,-599.462C671.599,-612.19 521.258,-643.84 451.99,-658.423"/>
<polygon fill="black" stroke="black" points="451.051,-655.044 441.986,-660.529 452.493,-661.894 451.051,-655.044"/>
</g>
<!-- D&#45;&gt;G -->
<g id="edge106" class="edge"><title>D&#45;&gt;G</title>
<path fill="none" stroke="black" d="M732.939,-601.051C672.747,-615.183 522.621,-646.75 452.477,-659.982"/>
<polygon fill="black" stroke="black" points="451.521,-656.6 442.33,-661.87 452.801,-663.482 451.521,-656.6"/>
</g>
<!-- D&#45;&gt;H -->
<g id="edge108" class="edge"><title>D&#45;&gt;H</title>
<path fill="none" stroke="black" d="M760.423,-575.888C811.749,-529.854 1031.54,-401.367 1179,-252 1208.34,-222.28 1239.59,-183.07 1282.71,-168.134"/>
<polygon fill="black" stroke="black" points="1283.81,-171.458 1292.4,-165.252 1281.82,-164.749 1283.81,-171.458"/>
</g>
<!-- D&#45;&gt;H -->
<g id="edge110" class="edge"><title>D&#45;&gt;H</title>
<path fill="none" stroke="black" d="M768.008,-576.891C826.513,-531.742 1048.46,-402.465 1197,-252 1224.09,-224.563 1252.8,-189.04 1283.91,-171.992"/>
<polygon fill="black" stroke="black" points="1285.71,-175.009 1293.19,-167.509 1282.66,-168.706 1285.71,-175.009"/>
</g>
<!-- D&#45;&gt;J -->
<g id="edge118" class="edge"><title>D&#45;&gt;J</title>
<path fill="none" stroke="black" d="M774.753,-579.655C806.67,-569.079 861.282,-554.133 909,-540 1288.81,-427.506 1747.81,-275.915 1882.89,-241.259"/>
<polygon fill="black" stroke="black" points="1883.93,-244.608 1892.78,-238.791 1882.23,-237.816 1883.93,-244.608"/>
</g>
<!-- D&#45;&gt;J -->
<g id="edge120" class="edge"><title>D&#45;&gt;J</title>
<path fill="none" stroke="black" d="M779.299,-582.876C812.972,-572.269 874.206,-555.637 927,-540 1301.5,-429.077 1753.01,-280.14 1883.27,-242.778"/>
<polygon fill="black" stroke="black" points="1884.47,-246.077 1893.14,-239.991 1882.56,-239.341 1884.47,-246.077"/>
</g>
<!-- D&#45;&gt;M -->
<g id="edge126" class="edge"><title>D&#45;&gt;M</title>
<path fill="none" stroke="black" d="M737.393,-581.888C698.116,-537.73 656.749,-381.202 623,-252 609.863,-201.707 594.575,-142.589 601.918,-111.543"/>
<polygon fill="black" stroke="black" points="605.337,-112.387 605.499,-101.793 598.766,-109.973 605.337,-112.387"/>
</g>
<!-- D&#45;&gt;M -->
<g id="edge128" class="edge"><title>D&#45;&gt;M</title>
<path fill="none" stroke="black" d="M742.585,-579.004C714.408,-531.264 674.05,-378.529 641,-252 628.585,-204.473 614.25,-149.065 613.723,-116.914"/>
<polygon fill="black" stroke="black" points="617.234,-116.695 614.138,-106.563 610.24,-116.415 617.234,-116.695"/>
</g>
<!-- D&#45;&gt;M -->
<g id="edge130" class="edge"><title>D&#45;&gt;M</title>
<path fill="none" stroke="black" d="M749.451,-576.925C731.272,-526.967 691.585,-376.747 659,-252 646.795,-205.275 632.734,-150.934 626.835,-118.563"/>
<polygon fill="black" stroke="black" points="630.25,-117.763 625.162,-108.47 623.344,-118.908 630.25,-117.763"/>
</g>
<!-- D&#45;&gt;M -->
<g id="edge132" class="edge"><title>D&#45;&gt;M</title>
<path fill="none" stroke="black" d="M757.334,-575.839C748.706,-524.822 709.352,-375.856 677,-252 664.543,-204.311 650.153,-148.688 639.242,-116.587"/>
<polygon fill="black" stroke="black" points="642.489,-115.272 635.829,-107.032 635.897,-117.626 642.489,-115.272"/>
</g>
<!-- D&#45;&gt;M -->
<g id="edge134" class="edge"><title>D&#45;&gt;M</title>
<path fill="none" stroke="black" d="M765.59,-576.566C767.083,-526.252 727.507,-376.45 695,-252 681.957,-202.067 666.794,-143.435 649.713,-112.214"/>
<polygon fill="black" stroke="black" points="652.554,-110.151 644.351,-103.445 646.582,-113.803 652.554,-110.151"/>
</g>
<!-- D&#45;&gt;K -->
<g id="edge122" class="edge"><title>D&#45;&gt;K</title>
<path fill="none" stroke="black" d="M749.192,-576.917C749.491,-557.024 761.1,-524.306 782,-504 810.533,-476.278 855.57,-461.668 888.195,-454.911"/>
<polygon fill="black" stroke="black" points="889.145,-458.293 898.315,-452.986 887.837,-451.416 889.145,-458.293"/>
</g>
<!-- D&#45;&gt;K -->
<g id="edge124" class="edge"><title>D&#45;&gt;K</title>
<path fill="none" stroke="black" d="M762.211,-576.206C767.767,-556.252 779.347,-524.066 800,-504 824.732,-479.972 861.862,-465.794 889.232,-458.042"/>
<polygon fill="black" stroke="black" points="890.441,-461.342 899.198,-455.379 888.634,-454.579 890.441,-461.342"/>
</g>
<!-- D&#45;&gt;I -->
<g id="edge112" class="edge"><title>D&#45;&gt;I</title>
<path fill="none" stroke="black" d="M732.082,-588.746C720.838,-584.944 709.355,-579.824 699,-576 650.101,-557.944 633.689,-558.951 582.149,-540.591"/>
<polygon fill="black" stroke="black" points="583.065,-537.2 572.471,-537.066 580.669,-543.777 583.065,-537.2"/>
</g>
<!-- D&#45;&gt;I -->
<g id="edge114" class="edge"><title>D&#45;&gt;I</title>
<path fill="none" stroke="black" d="M735.642,-583.605C729.646,-580.978 723.126,-578.262 717,-576 665.165,-556.859 649.835,-559.141 598,-540 594.937,-538.869 591.776,-537.625 588.63,-536.335"/>
<polygon fill="black" stroke="black" points="589.931,-533.084 579.358,-532.395 587.193,-539.527 589.931,-533.084"/>
</g>
<!-- D&#45;&gt;I -->
<g id="edge116" class="edge"><title>D&#45;&gt;I</title>
<path fill="none" stroke="black" d="M742.529,-578.934C740.024,-577.905 737.479,-576.916 735,-576 683.165,-556.859 667.835,-559.141 616,-540 608.557,-537.252 600.532,-533.834 592.431,-530.717"/>
<polygon fill="black" stroke="black" points="593.512,-527.385 582.918,-527.254 591.118,-533.963 593.512,-527.385"/>
</g>
<!-- I&#45;&gt;C -->
<g id="edge264" class="edge"><title>I&#45;&gt;C</title>
<path fill="none" stroke="black" d="M580.861,-530.697C604.236,-541.139 639.927,-559.335 670,-576 697.535,-591.259 701.707,-600.471 731,-612 869.476,-666.498 911.189,-659.665 1058,-684 1219.26,-710.729 1413.16,-728.015 1493.05,-734.777"/>
<polygon fill="black" stroke="black" points="1492.85,-738.272 1503.11,-735.624 1493.44,-731.297 1492.85,-738.272"/>
</g>
<!-- I&#45;&gt;E -->
<g id="edge266" class="edge"><title>I&#45;&gt;E</title>
<path fill="none" stroke="black" d="M576.848,-534.686C629.131,-576.219 769.597,-708.196 916,-756 1025.25,-791.674 1376.51,-805.074 1492.74,-808.806"/>
<polygon fill="black" stroke="black" points="1492.82,-812.31 1502.92,-809.127 1493.04,-805.313 1492.82,-812.31"/>
</g>
<!-- I&#45;&gt;E -->
<g id="edge268" class="edge"><title>I&#45;&gt;E</title>
<path fill="none" stroke="black" d="M579.99,-531.931C640.585,-570.02 784.184,-707.081 934,-756 1040.59,-790.804 1377.52,-804.407 1492.76,-808.515"/>
<polygon fill="black" stroke="black" points="1492.77,-812.018 1502.89,-808.872 1493.02,-805.022 1492.77,-812.018"/>
</g>
<!-- I&#45;&gt;H -->
<g id="edge270" class="edge"><title>I&#45;&gt;H</title>
<path fill="none" stroke="black" d="M575.656,-508.875C651.338,-465.634 935.194,-324.237 1174,-216 1210.27,-199.561 1252.98,-181.705 1283.4,-171.202"/>
<polygon fill="black" stroke="black" points="1284.84,-174.413 1293.22,-167.935 1282.63,-167.771 1284.84,-174.413"/>
</g>
<!-- I&#45;&gt;H -->
<g id="edge272" class="edge"><title>I&#45;&gt;H</title>
<path fill="none" stroke="black" d="M580.795,-513.176C666.744,-475.907 962.556,-328.152 1210,-216 1237.56,-203.507 1268.84,-190.197 1291.3,-179.916"/>
<polygon fill="black" stroke="black" points="1293.06,-182.957 1300.65,-175.564 1290.11,-176.611 1293.06,-182.957"/>
</g>
<!-- I&#45;&gt;L -->
<g id="edge276" class="edge"><title>I&#45;&gt;L</title>
<path fill="none" stroke="black" d="M533.046,-513.226C474.002,-480.479 350,-360.766 350,-234 350,-234 350,-234 350,-162 350,-61.9359 724.461,-27.2186 848.596,-19.6856"/>
<polygon fill="black" stroke="black" points="849.015,-23.1673 858.796,-19.0953 848.611,-16.179 849.015,-23.1673"/>
</g>
<!-- I&#45;&gt;L -->
<g id="edge278" class="edge"><title>I&#45;&gt;L</title>
<path fill="none" stroke="black" d="M535.804,-510.326C485.27,-473.884 368,-357.277 368,-234 368,-234 368,-234 368,-162 368,-63.6806 729.516,-28.4491 848.811,-20.1047"/>
<polygon fill="black" stroke="black" points="849.192,-23.587 858.934,-19.4216 848.721,-16.6029 849.192,-23.587"/>
</g>
<!-- I&#45;&gt;K -->
<g id="edge274" class="edge"><title>I&#45;&gt;K</title>
<path fill="none" stroke="black" d="M582.615,-516.23C646.923,-502.908 814.588,-470.094 888.856,-456.285"/>
<polygon fill="black" stroke="black" points="889.497,-459.726 898.695,-454.467 888.225,-452.843 889.497,-459.726"/>
</g>
</g>
</svg>
