<?xml version="1.0" encoding="UTF-8" standalone="no"?>
<!DOCTYPE svg PUBLIC "-//W3C//DTD SVG 1.1//EN"
 "http://www.w3.org/Graphics/SVG/1.1/DTD/svg11.dtd">
<!-- Generated by graphviz version 2.26.3 (20100126.1600)
 -->
<!-- Title: G Pages: 1 -->
<svg width="89pt" height="188pt"
 viewBox="0.00 0.00 89.00 188.00" xmlns="http://www.w3.org/2000/svg" xmlns:xlink="http://www.w3.org/1999/xlink">
<g id="graph1" class="graph" transform="scale(1 1) rotate(0) translate(4 184)">
<title>G</title>
<polygon fill="white" stroke="white" points="-4,5 -4,-184 86,-184 86,5 -4,5"/>
<!-- A -->
<g id="node1" class="node"><title>A</title>
<ellipse fill="none" stroke="black" cx="54" cy="-162" rx="27" ry="18"/>
<text text-anchor="middle" x="54" y="-157.4" font-family="Times,serif" font-size="14.00">A</text>
</g>
<!-- B -->
<g id="node2" class="node"><title>B</title>
<ellipse fill="none" stroke="black" cx="27" cy="-90" rx="27" ry="18"/>
<text text-anchor="middle" x="27" y="-85.4" font-family="Times,serif" font-size="14.00">B</text>
</g>
<!-- A&#45;&gt;B -->
<g id="edge2" class="edge"><title>A&#45;&gt;B</title>
<path fill="none" stroke="black" d="M47.3258,-144.202C44.2524,-136.006 40.5384,-126.102 37.1305,-117.015"/>
<polygon fill="black" stroke="black" points="40.3858,-115.727 33.5974,-107.593 33.8315,-118.185 40.3858,-115.727"/>
</g>
<!-- Z -->
<g id="node4" class="node"><title>Z</title>
<ellipse fill="none" stroke="black" cx="54" cy="-18" rx="27" ry="18"/>
<text text-anchor="middle" x="54" y="-13.4" font-family="Times,serif" font-size="14.00">Z</text>
</g>
<!-- A&#45;&gt;Z -->
<g id="edge4" class="edge"><title>A&#45;&gt;Z</title>
<path fill="none" stroke="black" d="M57.7474,-144.093C59.7466,-133.624 61.9966,-120.124 63,-108 64.3197,-92.0545 64.3197,-87.9455 63,-72 62.2945,-63.4753 60.9727,-54.2703 59.5551,-45.917"/>
<polygon fill="black" stroke="black" points="62.9689,-45.1258 57.7474,-35.9069 56.0803,-46.3698 62.9689,-45.1258"/>
</g>
<!-- B&#45;&gt;Z -->
<g id="edge6" class="edge"><title>B&#45;&gt;Z</title>
<path fill="none" stroke="black" d="M33.6742,-72.2022C36.7476,-64.0064 40.4616,-54.1024 43.8695,-45.0145"/>
<polygon fill="black" stroke="black" points="47.1685,-46.1853 47.4026,-35.593 40.6142,-43.7274 47.1685,-46.1853"/>
</g>
</g>
</svg>
