<?xml version="1.0" encoding="UTF-8" standalone="no"?>
<!DOCTYPE svg PUBLIC "-//W3C//DTD SVG 1.1//EN"
 "http://www.w3.org/Graphics/SVG/1.1/DTD/svg11.dtd">
<!-- Generated by graphviz version 2.26.3 (20100126.1600)
 -->
<!-- Title: G Pages: 1 -->
<svg width="90pt" height="260pt"
 viewBox="0.00 0.00 89.63 260.00" xmlns="http://www.w3.org/2000/svg" xmlns:xlink="http://www.w3.org/1999/xlink">
<g id="graph1" class="graph" transform="scale(1 1) rotate(0) translate(4 256)">
<title>G</title>
<polygon fill="white" stroke="white" points="-4,5 -4,-256 86.6304,-256 86.6304,5 -4,5"/>
<!-- A -->
<g id="node1" class="node"><title>A</title>
<ellipse fill="none" stroke="black" cx="40.8152" cy="-234" rx="27" ry="18"/>
<text text-anchor="middle" x="40.8152" y="-229.4" font-family="Times,serif" font-size="14.00">A</text>
</g>
<!-- C -->
<g id="node2" class="node"><title>C</title>
<ellipse fill="none" stroke="black" cx="40.8152" cy="-162" rx="27" ry="18"/>
<text text-anchor="middle" x="40.8152" y="-157.4" font-family="Times,serif" font-size="14.00">C</text>
</g>
<!-- A&#45;&gt;C -->
<g id="edge2" class="edge"><title>A&#45;&gt;C</title>
<path fill="none" stroke="#000000" d="M15.7425,-227.096C-1.89836,-215.3 -4.4102,-191.053 8.20691,-175.711"/>
<polygon fill="#000000" stroke="#000000" points="10.5621,-178.3 15.6161,-168.989 5.85834,-173.116 10.5621,-178.3"/>
</g>
<!-- A&#45;&gt;C -->
<g id="edge26" class="edge"><title>A&#45;&gt;C</title>
<path fill="none" stroke="#924924" d="M52.3368,-217.662C54.2502,-209.131 54.7757,-198.474 53.9133,-188.775"/>
<polygon fill="#924924" stroke="#924924" points="57.3593,-188.153 52.4328,-178.773 50.4348,-189.178 57.3593,-188.153"/>
</g>
<!-- A&#45;&gt;C -->
<g id="edge32" class="edge"><title>A&#45;&gt;C</title>
<path fill="none" stroke="#b6db6d" stroke-width="4" d="M61.4805,-222.111C68.1023,-211.647 69.5327,-196.155 65.7716,-183.519"/>
<polygon fill="#b6db6d" stroke="#b6db6d" points="68.8776,-181.887 61.6423,-174.148 62.4719,-184.71 68.8776,-181.887"/>
</g>
<!-- A&#45;&gt;C -->
<g id="edge38" class="edge"><title>A&#45;&gt;C</title>
<path fill="none" stroke="#db6db6" d="M65.8879,-227.096C83.5287,-215.3 86.0406,-191.053 73.4235,-175.711"/>
<polygon fill="#db6db6" stroke="#db6db6" points="75.772,-173.116 66.0143,-168.989 71.0682,-178.3 75.772,-173.116"/>
</g>
<!-- A&#45;&gt;C -->
<g id="edge8" class="edge"><title>A&#45;&gt;C</title>
<path fill="none" stroke="#249249" d="M20.1499,-222.111C13.5281,-211.647 12.0977,-196.155 15.8588,-183.519"/>
<polygon fill="#249249" stroke="#249249" points="19.1585,-184.71 19.9881,-174.148 12.7528,-181.887 19.1585,-184.71"/>
</g>
<!-- A&#45;&gt;C -->
<g id="edge14" class="edge"><title>A&#45;&gt;C</title>
<path fill="none" stroke="#492492" d="M29.2935,-217.662C27.3802,-209.131 26.8547,-198.474 27.7171,-188.775"/>
<polygon fill="#492492" stroke="#492492" points="31.1956,-189.178 29.1976,-178.773 24.271,-188.153 31.1956,-189.178"/>
</g>
<!-- A&#45;&gt;C -->
<g id="edge20" class="edge"><title>A&#45;&gt;C</title>
<path fill="none" stroke="#6db6db" stroke-width="4" d="M40.8152,-215.831C40.8152,-208.131 40.8152,-198.974 40.8152,-190.417"/>
<polygon fill="#6db6db" stroke="#6db6db" points="44.3153,-190.413 40.8152,-180.413 37.3153,-190.413 44.3153,-190.413"/>
</g>
<!-- D -->
<g id="node4" class="node"><title>D</title>
<ellipse fill="none" stroke="black" cx="40.8152" cy="-90" rx="27" ry="18"/>
<text text-anchor="middle" x="40.8152" y="-85.4" font-family="Times,serif" font-size="14.00">D</text>
</g>
<!-- C&#45;&gt;D -->
<g id="edge4" class="edge"><title>C&#45;&gt;D</title>
<path fill="none" stroke="#000000" d="M15.7425,-155.096C-1.89836,-143.3 -4.4102,-119.053 8.20691,-103.711"/>
<polygon fill="#000000" stroke="#000000" points="10.5621,-106.3 15.6161,-96.9886 5.85834,-101.116 10.5621,-106.3"/>
</g>
<!-- C&#45;&gt;D -->
<g id="edge22" class="edge"><title>C&#45;&gt;D</title>
<path fill="none" stroke="#6db6db" stroke-width="4" d="M40.8152,-143.831C40.8152,-136.131 40.8152,-126.974 40.8152,-118.417"/>
<polygon fill="#6db6db" stroke="#6db6db" points="44.3153,-118.413 40.8152,-108.413 37.3153,-118.413 44.3153,-118.413"/>
</g>
<!-- C&#45;&gt;D -->
<g id="edge28" class="edge"><title>C&#45;&gt;D</title>
<path fill="none" stroke="#924924" d="M52.3368,-145.662C54.2502,-137.131 54.7757,-126.474 53.9133,-116.775"/>
<polygon fill="#924924" stroke="#924924" points="57.3593,-116.153 52.4328,-106.773 50.4348,-117.178 57.3593,-116.153"/>
</g>
<!-- C&#45;&gt;D -->
<g id="edge34" class="edge"><title>C&#45;&gt;D</title>
<path fill="none" stroke="#b6db6d" stroke-width="4" d="M61.4805,-150.111C68.1023,-139.647 69.5327,-124.155 65.7716,-111.519"/>
<polygon fill="#b6db6d" stroke="#b6db6d" points="68.8776,-109.887 61.6423,-102.148 62.4719,-112.71 68.8776,-109.887"/>
</g>
<!-- C&#45;&gt;D -->
<g id="edge40" class="edge"><title>C&#45;&gt;D</title>
<path fill="none" stroke="#db6db6" d="M65.8879,-155.096C83.5287,-143.3 86.0406,-119.053 73.4235,-103.711"/>
<polygon fill="#db6db6" stroke="#db6db6" points="75.772,-101.116 66.0143,-96.9886 71.0682,-106.3 75.772,-101.116"/>
</g>
<!-- C&#45;&gt;D -->
<g id="edge10" class="edge"><title>C&#45;&gt;D</title>
<path fill="none" stroke="#249249" d="M20.1499,-150.111C13.5281,-139.647 12.0977,-124.155 15.8588,-111.519"/>
<polygon fill="#249249" stroke="#249249" points="19.1585,-112.71 19.9881,-102.148 12.7528,-109.887 19.1585,-112.71"/>
</g>
<!-- C&#45;&gt;D -->
<g id="edge16" class="edge"><title>C&#45;&gt;D</title>
<path fill="none" stroke="#492492" d="M29.2935,-145.662C27.3802,-137.131 26.8547,-126.474 27.7171,-116.775"/>
<polygon fill="#492492" stroke="#492492" points="31.1956,-117.178 29.1976,-106.773 24.271,-116.153 31.1956,-117.178"/>
</g>
<!-- Z -->
<g id="node6" class="node"><title>Z</title>
<ellipse fill="none" stroke="black" cx="40.8152" cy="-18" rx="27" ry="18"/>
<text text-anchor="middle" x="40.8152" y="-13.4" font-family="Times,serif" font-size="14.00">Z</text>
</g>
<!-- D&#45;&gt;Z -->
<g id="edge24" class="edge"><title>D&#45;&gt;Z</title>
<path fill="none" stroke="#6db6db" stroke-width="4" d="M15.7425,-83.0963C-1.89836,-71.2997 -4.4102,-47.0533 8.20691,-31.7112"/>
<polygon fill="#6db6db" stroke="#6db6db" points="10.5621,-34.3003 15.6161,-24.9886 5.85834,-29.1162 10.5621,-34.3003"/>
</g>
<!-- D&#45;&gt;Z -->
<g id="edge30" class="edge"><title>D&#45;&gt;Z</title>
<path fill="none" stroke="#924924" d="M52.3368,-73.6621C54.2502,-65.1306 54.7757,-54.474 53.9133,-44.7753"/>
<polygon fill="#924924" stroke="#924924" points="57.3593,-44.1526 52.4328,-34.7729 50.4348,-45.1776 57.3593,-44.1526"/>
</g>
<!-- D&#45;&gt;Z -->
<g id="edge36" class="edge"><title>D&#45;&gt;Z</title>
<path fill="none" stroke="#b6db6d" stroke-width="4" d="M61.4805,-78.1107C68.1023,-67.6473 69.5327,-52.1546 65.7716,-39.5185"/>
<polygon fill="#b6db6d" stroke="#b6db6d" points="68.8776,-37.8872 61.6423,-30.1477 62.4719,-40.71 68.8776,-37.8872"/>
</g>
<!-- D&#45;&gt;Z -->
<g id="edge6" class="edge"><title>D&#45;&gt;Z</title>
<path fill="none" stroke="#000000" d="M20.1499,-78.1107C13.5281,-67.6473 12.0977,-52.1546 15.8588,-39.5185"/>
<polygon fill="#000000" stroke="#000000" points="19.1585,-40.71 19.9881,-30.1477 12.7528,-37.8872 19.1585,-40.71"/>
</g>
<!-- D&#45;&gt;Z -->
<g id="edge42" class="edge"><title>D&#45;&gt;Z</title>
<path fill="none" stroke="#db6db6" d="M65.8879,-83.0963C83.5287,-71.2997 86.0406,-47.0533 73.4235,-31.7112"/>
<polygon fill="#db6db6" stroke="#db6db6" points="75.772,-29.1162 66.0143,-24.9886 71.0682,-34.3003 75.772,-29.1162"/>
</g>
<!-- D&#45;&gt;Z -->
<g id="edge12" class="edge"><title>D&#45;&gt;Z</title>
<path fill="none" stroke="#249249" d="M29.2935,-73.6621C27.3802,-65.1306 26.8547,-54.474 27.7171,-44.7753"/>
<polygon fill="#249249" stroke="#249249" points="31.1956,-45.1776 29.1976,-34.7729 24.271,-44.1526 31.1956,-45.1776"/>
</g>
<!-- D&#45;&gt;Z -->
<g id="edge18" class="edge"><title>D&#45;&gt;Z</title>
<path fill="none" stroke="#492492" d="M40.8152,-71.8314C40.8152,-64.131 40.8152,-54.9743 40.8152,-46.4166"/>
<polygon fill="#492492" stroke="#492492" points="44.3153,-46.4132 40.8152,-36.4133 37.3153,-46.4133 44.3153,-46.4132"/>
</g>
</g>
</svg>
